<?xml version="1.0" encoding="UTF-8" standalone="no"?>
<!-- Created with Inkscape (http://www.inkscape.org/) -->

<svg
   xmlns:dc="http://purl.org/dc/elements/1.1/"
   xmlns:cc="http://creativecommons.org/ns#"
   xmlns:rdf="http://www.w3.org/1999/02/22-rdf-syntax-ns#"
   xmlns:svg="http://www.w3.org/2000/svg"
   xmlns="http://www.w3.org/2000/svg"
   xmlns:sodipodi="http://sodipodi.sourceforge.net/DTD/sodipodi-0.dtd"
   xmlns:inkscape="http://www.inkscape.org/namespaces/inkscape"
   id="svg2985"
   version="1.1"
   inkscape:version="0.48.1 r9760"
   width="5314.9625"
   height="531.49625"
   xml:space="preserve"
   sodipodi:docname="vtf-lment.svg"><metadata
     id="metadata2991"><rdf:RDF><cc:Work
         rdf:about=""><dc:format>image/svg+xml</dc:format><dc:type
           rdf:resource="http://purl.org/dc/dcmitype/StillImage" /><dc:title /></cc:Work></rdf:RDF></metadata><defs
     id="defs2989"><clipPath
       clipPathUnits="userSpaceOnUse"
       id="clipPath3019"><path
         d="m 0,425.197 4251.969,0 L 4251.969,0 0,0 0,425.197 z"
         id="path3021" /></clipPath><clipPath
       clipPathUnits="userSpaceOnUse"
       id="clipPath3547"><path
         d="m 0,425.197 4251.969,0 L 4251.969,0 0,0 0,425.197 z"
         id="path3549" /></clipPath></defs><sodipodi:namedview
     pagecolor="#ffffff"
     bordercolor="#666666"
     borderopacity="1"
     objecttolerance="10"
     gridtolerance="10"
     guidetolerance="10"
     inkscape:pageopacity="0"
     inkscape:pageshadow="2"
     inkscape:window-width="1440"
     inkscape:window-height="839"
     id="namedview2987"
     showgrid="false"
     inkscape:zoom="0.125"
     inkscape:cx="2770.5659"
     inkscape:cy="-636.64704"
     inkscape:window-x="0"
     inkscape:window-y="26"
     inkscape:window-maximized="1"
     inkscape:current-layer="g2993" /><g
     id="g2993"
     inkscape:groupmode="layer"
     inkscape:label="vtf-lment"
     transform="matrix(1.25,0,0,-1.25,0,531.49625)"><g
       id="g2995"
       transform="translate(3371.916,276.0234)"><path
         style="font-size:medium;font-style:normal;font-variant:normal;font-weight:normal;font-stretch:normal;text-indent:0;text-align:start;text-decoration:none;line-height:normal;letter-spacing:normal;word-spacing:normal;text-transform:none;direction:ltr;block-progression:tb;writing-mode:lr-tb;text-anchor:start;baseline-shift:baseline;color:#000000;fill:#231f20;fill-opacity:1;stroke:none;stroke-width:8;marker:none;visibility:visible;display:inline;overflow:visible;enable-background:accumulate;font-family:Sans;-inkscape-font-specification:Sans"
         d="M 4293.5,86.078125 4235,185.5 l 65,0 0,-10.125 -47.5312,0 5.0937,-8.65625 42.4375,0 0,-10 -36.5938,0 41.625,-70.640625 z m -84.2031,0 0,10.296875 52.4843,0 -4.0312,6.90625 -48.4531,0 0,10 42.6093,0 -41.3437,72.21875 10.625,0 58,-99.421875 z"
         transform="matrix(0.8,0,0,-0.8,-3371.916,149.1736)"
         id="path2997"
         inkscape:connector-curvature="0"
         sodipodi:nodetypes="cccccccccccccccccccccc" /></g><g
       id="g2999"
       transform="translate(3443.375,363.3223)" /><g
       id="g3003"
       transform="translate(616.5488,115.0098)"><path
         style="font-size:medium;font-style:normal;font-variant:normal;font-weight:normal;font-stretch:normal;text-indent:0;text-align:start;text-decoration:none;line-height:normal;letter-spacing:normal;word-spacing:normal;text-transform:none;direction:ltr;block-progression:tb;writing-mode:lr-tb;text-anchor:start;baseline-shift:baseline;color:#000000;fill:#231f20;fill-opacity:1;stroke:none;stroke-width:8;marker:none;visibility:visible;display:inline;overflow:visible;enable-background:accumulate;font-family:Sans;-inkscape-font-specification:Sans"
         d="m 711.84375,348 0,41.34375 23.03125,13.28125 -23,13.28125 0,41.34375 68.8125,-39.75 -25.8125,-14.875 25.8125,-14.90625 z m 10,17.3125 38.84375,22.40625 -15.8125,9.125 -23.03125,-13.28125 z m 23.03125,43.09375 15.8125,9.09375 -38.8125,22.4375 0,-18.25 z"
         transform="matrix(0.8,0,0,-0.8,-616.5488,310.1872)"
         id="path3005"
         inkscape:connector-curvature="0"
         sodipodi:nodetypes="ccccccccccccccccccc" /></g><g
       id="g3007"
       transform="translate(573.5,90.1563)" /><g
       id="g3011"
       transform="translate(717.5,139.8652)"><path
         style="font-size:medium;font-style:normal;font-variant:normal;font-weight:normal;font-stretch:normal;text-indent:0;text-align:start;text-decoration:none;line-height:normal;letter-spacing:normal;word-spacing:normal;text-transform:none;direction:ltr;block-progression:tb;writing-mode:lr-tb;text-anchor:start;baseline-shift:baseline;color:#000000;fill:#231f20;fill-opacity:1;stroke:none;stroke-width:8;marker:none;visibility:visible;display:inline;overflow:visible;enable-background:accumulate;font-family:Sans;-inkscape-font-specification:Sans"
         d="m -2,-77 -49.0625,28.3125 20.65625,11.90625 -20.65625,11.9375 6,3.46875 L -2,3.46875 l 4,-6.9375 -37.0625,-21.375 12.65625,-7.3125 L 4,-16.90625 4,-56.625 -22.40625,-41.40625 -35.0625,-48.6875 2,-70.09375 z m -2,34.21875 0,12 -10.40625,-6 z"
         id="path3013"
         inkscape:connector-curvature="0"
         sodipodi:nodetypes="ccccccccccccccccccc" /></g><path
       style="font-size:medium;font-style:normal;font-variant:normal;font-weight:normal;font-stretch:normal;text-indent:0;text-align:start;text-decoration:none;line-height:normal;letter-spacing:normal;word-spacing:normal;text-transform:none;direction:ltr;block-progression:tb;writing-mode:lr-tb;text-anchor:start;baseline-shift:baseline;color:#000000;fill:#231f20;fill-opacity:1;stroke:none;stroke-width:8;marker:none;visibility:visible;display:inline;overflow:visible;enable-background:accumulate;font-family:Sans;-inkscape-font-specification:Sans"
       d="m 396.0625,68.25 c -15.37112,0 -25.37295,4.622954 -32.625,11.875 -7.3369,7.334681 -11.875,17.50889 -11.875,28.6875 0,11.17593 4.5381,21.35282 11.875,28.6875 7.33597,7.33597 17.51015,11.875 28.6875,11.875 11.17825,0 21.35153,-4.53903 28.6875,-11.875 7.3369,-7.33468 11.875,-17.51157 11.875,-28.6875 l 0,-23.6875 -40,0 c -6.67259,0 -12.77193,2.708231 -17.15625,7.09375 -4.3832,4.383201 -7.09375,10.48318 -7.09375,17.15625 0,6.67307 2.71055,12.77305 7.09375,17.15625 4.38369,4.38249 10.4827,7.09375 17.15625,7.09375 6.67355,0 12.77256,-2.71126 17.15625,-7.09375 4.3832,-4.3832 7.09375,-10.48318 7.09375,-17.15625 l 0,-16.25 7.75,0 0,15.6875 c 0,9.01407 -3.63415,17.13593 -9.53125,23.03125 -5.89803,5.89803 -14.0155,9.53125 -23.03125,9.53125 -9.01465,0 -17.13322,-3.63322 -23.03125,-9.53125 -5.8971,-5.89532 -9.53125,-14.01718 -9.53125,-23.03125 0,-9.01739 3.63415,-17.135931 9.53125,-23.03125 C 375.0757,79.799296 382.18362,76.25 396.0625,76.25 l 16.875,0 0,-8 z m -3.375,24.875 16.25,0 0,16.25 c 0,4.51093 -1.83645,8.5552 -4.78125,11.5 -2.9448,2.93539 -6.96707,4.75 -11.46875,4.75 -4.51045,0 -8.55369,-1.80449 -11.5,-4.75 -2.9448,-2.9448 -4.75,-6.98907 -4.75,-11.5 0,-4.51093 1.8052,-8.5552 4.75,-11.5 2.94568,-2.946481 6.98859,-4.75 11.5,-4.75 z"
       id="path3025"
       inkscape:connector-curvature="0"
       sodipodi:nodetypes="scscscccccscscsccscscscsccsscscscscs" /><path
       style="font-size:medium;font-style:normal;font-variant:normal;font-weight:normal;font-stretch:normal;text-indent:0;text-align:start;text-decoration:none;line-height:normal;letter-spacing:normal;word-spacing:normal;text-transform:none;direction:ltr;block-progression:tb;writing-mode:lr-tb;text-anchor:start;baseline-shift:baseline;color:#000000;fill:#231f20;fill-opacity:1;stroke:none;stroke-width:8;marker:none;visibility:visible;display:inline;overflow:visible;enable-background:accumulate;font-family:Sans;-inkscape-font-specification:Sans"
       d="m 3118.5625,60.5 c -8.5368,0 -16.3009,3.45714 -21.9063,9.0625 -5.607,5.604791 -9.0937,13.400173 -9.0937,21.9375 0,8.53562 3.4873,16.29984 9.0937,21.90625 l 29.25,29.25 5.6563,-5.65625 -29.25,-29.25 c -4.1676,-4.16759 -6.75,-9.875617 -6.75,-16.25 0,-6.376673 2.5831,-12.116041 6.75,-16.28125 4.1666,-4.16664 9.8748,-6.71875 16.25,-6.71875 6.3752,0 12.1146,2.55211 16.2813,6.71875 4.1662,4.165447 6.7187,9.904935 6.7187,16.28125 0,4.998035 -1.6213,9.5512 -4.3125,13.3125 l -5.0312,-4.5 c 1.3676,-2.374332 2.2187,-5.085058 2.2187,-8 0,-4.426693 -1.8035,-8.492365 -4.7187,-11.40625 -2.9123,-2.912252 -6.9775,-4.71875 -11.4063,-4.71875 -4.4282,0 -8.4941,1.805309 -11.4063,4.71875 -2.9152,2.913885 -4.7187,6.979557 -4.7187,11.40625 0,4.42737 1.8023,8.49251 4.7187,11.40625 l 36.8438,36.84375 5.6562,-5.65625 -36.8437,-36.84375 c -1.4736,-1.472256 -2.375,-3.48337 -2.375,-5.75 0,-2.265307 0.9002,-4.275885 2.375,-5.75 1.4719,-1.472559 3.4842,-2.375 5.75,-2.375 2.2672,0 4.2763,0.901252 5.75,2.375 1.4748,1.474115 2.375,3.484693 2.375,5.75 0,2.26663 -0.9014,4.277744 -2.375,5.75 l -3,2.96875 16.75,15.0625 2.6875,-2.6875 c 5.605,-5.60617 9.0625,-13.37028 9.0625,-21.90625 0,-8.537685 -3.4568,-16.332947 -9.0625,-21.9375 -5.6054,-5.60536 -13.4007,-9.0625 -21.9375,-9.0625 z"
       id="path3029"
       inkscape:connector-curvature="0"
       sodipodi:nodetypes="scssccsscscsccscscsccccscscsccccscs" /><path
       style="font-size:medium;font-style:normal;font-variant:normal;font-weight:normal;font-stretch:normal;text-indent:0;text-align:start;text-decoration:none;line-height:normal;letter-spacing:normal;word-spacing:normal;text-transform:none;direction:ltr;block-progression:tb;writing-mode:lr-tb;text-anchor:start;baseline-shift:baseline;color:#000000;fill:#231f20;fill-opacity:1;stroke:none;stroke-width:8;marker:none;visibility:visible;display:inline;overflow:visible;enable-background:accumulate;font-family:Sans;-inkscape-font-specification:Sans"
       d="m 3427.2188,61.65625 -5.6563,5.65625 29.25,29.25 c 4.1669,4.16521 6.75,9.90458 6.75,16.28125 0,6.37438 -2.5824,12.08241 -6.75,16.25 -4.1666,4.16664 -9.8748,6.75 -16.25,6.75 -6.3752,0 -12.1146,-2.58336 -16.2813,-6.75 -4.1669,-4.16783 -6.7187,-9.87597 -6.7187,-16.25 0,-5.00602 1.6156,-9.58107 4.3125,-13.34375 l 5,4.5 c -1.3678,2.37387 -2.1875,5.11609 -2.1875,8.03125 0,4.42805 1.802,8.46226 4.7187,11.375 2.9129,2.91554 6.9783,4.71875 11.4063,4.71875 4.4188,0 8.4635,-1.812 11.375,-4.71875 l 0,-0.0313 c 2.9067,-2.91153 4.75,-6.92434 4.75,-11.34375 0,-4.41874 -1.8445,-8.46334 -4.75,-11.375 l -36.8125,-36.87505 -5.6562,5.65625 36.8124,36.84375 c 1.4471,1.73471 2.3785,3.92329 2.406,5.75 0,2.26795 -0.9017,4.24749 -2.375,5.71875 -1.8299,1.38205 -3.8925,2.34701 -5.7497,2.375 -2.268,0 -4.2769,-0.90054 -5.75,-2.375 -1.4733,-1.47126 -2.375,-3.4508 -2.375,-5.71875 0,-2.26663 0.9005,-4.27688 2.375,-5.75 l 2.9687,-3 -16.7187,-15.0625 -2.6875,2.6875 c -5.6057,5.604553 -9.0625,13.39982 -9.0625,21.9375 0,8.53597 3.4575,16.30008 9.0625,21.90625 5.6054,5.60536 13.4007,9.09375 21.9375,9.09375 8.5368,0 16.3009,-3.48839 21.9063,-9.09375 5.6064,-5.60641 9.0937,-13.37063 9.0937,-21.90625 0,-8.53733 -3.4867,-16.332709 -9.0937,-21.9375 z"
       id="path3033"
       inkscape:connector-curvature="0"
       sodipodi:nodetypes="cccssscsccscsccsccccccccsccccscssscc" /><path
       sodipodi:nodetypes="scscsccsccsccsssssccccssccsssccscs"
       inkscape:connector-curvature="0"
       id="path3037"
       d="m 353.025,356.197 c -10.23069,0 -20.48098,-3.93208 -28.275,-11.725 -7.79292,-7.79402 -11.725,-18.04431 -11.725,-28.275 0,-10.23069 3.93208,-20.50598 11.725,-28.3 7.79416,-7.79305 18.0446,-11.7 28.275,-11.7 10.2304,0 20.48084,3.90695 28.275,11.7 l -5.65,5.675 c -6.26584,-6.26495 -14.4294,-9.375 -22.625,-9.375 -6.94034,0 -13.83863,2.23712 -19.6,6.725 l 5.65,5.65 c 4.1605,-2.96354 9.05972,-4.475 13.95,-4.475 6.1587,0 12.33776,2.36276 17.025,7.05 l -5.65,5.675 c -3.15876,-3.15876 -7.2517,-4.725 -11.375,-4.725 -4.1233,0 -8.21624,1.56624 -11.375,4.725 -3.15876,3.15876 -4.7,7.2517 -4.7,11.375 0,4.1233 1.54124,8.21624 4.7,11.375 3.15876,3.15876 7.2517,4.7 11.375,4.7 4.1233,0 8.21624,-1.54124 11.375,-4.7 l 2.85,-2.825 16.9,16.9 -2.85,2.825 c -7.79402,7.79292 -18.04431,11.725 -28.275,11.725 z m 0,-8 c 6.93028,0 13.7678,-2.3501 19.525,-6.825 l -5.6,-5.625 c -4.16191,2.9633 -9.03366,4.525 -13.925,4.525 -6.1587,0 -12.33776,-2.36276 -17.025,-7.05 -4.68724,-4.68724 -7.05,-10.8663 -7.05,-17.025 0,-4.89822 1.50187,-9.81017 4.475,-13.975 l -5.65,-5.65 c -4.49138,5.7628 -6.75,12.68225 -6.75,19.625 0,8.19531 3.10992,16.35902 9.375,22.625 6.26598,6.26508 14.42969,9.375 22.625,9.375 z"
       style="font-size:medium;font-style:normal;font-variant:normal;font-weight:normal;font-stretch:normal;text-indent:0;text-align:start;text-decoration:none;line-height:normal;letter-spacing:normal;word-spacing:normal;text-transform:none;direction:ltr;block-progression:tb;writing-mode:lr-tb;text-anchor:start;baseline-shift:baseline;color:#000000;fill:#231f20;fill-opacity:1;stroke:none;stroke-width:8;marker:none;visibility:visible;display:inline;overflow:visible;enable-background:accumulate;font-family:Sans;-inkscape-font-specification:Sans" /><path
       sodipodi:nodetypes="cscsccccsssccsssccccscccccccccccccscsc"
       inkscape:connector-curvature="0"
       id="path3041"
       d="m 2388.625,355.822 c -10.4609,0 -19.025,-8.58913 -19.025,-19.05 0,-2.08667 0.3461,-4.09391 0.975,-5.975 -2.1523,-3.09018 -3.425,-6.87463 -3.425,-10.9 0,-6.52654 3.3514,-12.29257 8.4,-15.725 l -15.575,-0.1 0.05,-8 10,0.05 c 2.0125,-11.89995 12.63,-20.3 25.0251,-20.3 l 0.025,0 c 13.7649,0 25.4499,10.30787 25.4499,24.325 0,13.98782 -11.4006,25.4983 -25.375,25.55 l -6.525,0 c -6.137,0 -11.025,4.93535 -11.025,11.075 0,6.13713 4.888,11.05 11.025,11.05 6.1384,0 11.325,-5.00219 11.325,-11.05 l 0,-4 18.65,0 0,8 -11.1,0 c -1.886,8.62614 -9.766,15.05 -18.875,15.05 z M 2375.6,322.997 c 3.3926,-3.19594 7.9294,-5.27511 12.925,-5.3 l 6.55,0 c 9.6943,0 17.45,-7.85358 17.45,-17.55 0,-0.32015 -0.01,-0.63662 -0.025,-0.95 -4.6581,5.80361 -11.7938,9.58307 -19.7751,9.6125 l -6.5499,0 c -6.1382,0 -11.025,4.94785 -11.025,11.0875 0.05,1.08964 0.1925,2.19702 0.4498,3.1 z m 2,-20.05 c 2.5828,-1.31658 5.493,-2.13748 8.575,-2.13748 l 6.45,0 c 7.4032,0 13.6887,-4.62133 16.25,-11.06248 -3.146,-3.7279 -8.0668,-5.925 -13.8,-5.925 -9.9483,0 -17.475,6.6319 -17.475,16.325 z"
       style="font-size:medium;font-style:normal;font-variant:normal;font-weight:normal;font-stretch:normal;text-indent:0;text-align:start;text-decoration:none;line-height:normal;letter-spacing:normal;word-spacing:normal;text-transform:none;direction:ltr;block-progression:tb;writing-mode:lr-tb;text-anchor:start;baseline-shift:baseline;color:#000000;fill:#231f20;fill-opacity:1;stroke:none;stroke-width:8;marker:none;visibility:visible;display:inline;overflow:visible;enable-background:accumulate;font-family:Sans;-inkscape-font-specification:Sans" /><path
       style="font-size:medium;font-style:normal;font-variant:normal;font-weight:normal;font-stretch:normal;text-indent:0;text-align:start;text-decoration:none;line-height:normal;letter-spacing:normal;word-spacing:normal;text-transform:none;direction:ltr;block-progression:tb;writing-mode:lr-tb;text-anchor:start;baseline-shift:baseline;color:#000000;fill:#231f20;fill-opacity:1;stroke:none;stroke-width:8;marker:none;visibility:visible;display:inline;overflow:visible;enable-background:accumulate;font-family:Sans;-inkscape-font-specification:Sans"
       d="m 1249.125,84.53125 c -6.6966,0 -12.2188,5.522192 -12.2188,12.21875 0,6.6647 5.4716,12.19788 12.125,12.25 l 3.6245,0 c 4.3161,0 7.7188,3.43357 7.7188,7.75 0,4.31643 -3.1496,7.125 -7.7188,7.125 -4.5704,0 -7.75,-2.80857 -7.75,-7.125 l -8,0 c 0,8.63957 7.3625,15.125 15.75,15.125 8.3869,0 15.7188,-6.48543 15.7188,-15.125 0,-8.6184 -7.0451,-15.71536 -15.6562,-15.75 l -3.5944,0 c -2.3734,0 -4.2188,-1.876558 -4.2188,-4.25 0,-2.373442 1.8454,-4.21875 4.2188,-4.21875 2.3734,0 4.375,1.934687 4.375,4.21875 l 8,0 c 0,-6.785937 -5.6784,-12.21875 -12.375,-12.21875 z"
       id="path3045"
       inkscape:connector-curvature="0"
       sodipodi:nodetypes="csccssccssccsscccc" /><path
       sodipodi:nodetypes="cccscssccscccscccsscsccccccccccsscccsscc"
       inkscape:connector-curvature="0"
       id="path3061"
       d="m 200.525,356.347 0,-80 42.025,0 c 14.48118,1.62709 25.225,14.20439 25.225,29.05 0,9.97361 -5.05563,18.80739 -12.725,24.075 0.21782,1.26746 0.35,2.5729 0.35,3.9 0,12.66178 -10.33743,22.975 -23,22.975 z m 31.875,-8.0125 c 8.33943,0 15,-6.62428 15,-14.9625 0,-1.59306 -0.26641,-3.11096 -0.725,-4.55 l -1,-3.175 2.95,-1.575 c 6.64443,-3.57744 11.15,-10.56463 11.15,-18.675 0,-11.91331 -8.6188,-21.2 -20.375,-21.2 l -14,-0.05 0,11.175 5,0 c 8.17065,0 15.25,6.54077 15.25,14.875 0,4.57787 -2.14073,8.63894 -5.425,11.375 0.0113,0.21492 0.075,0.40791 0.075,0.625 0,6.69603 -5.50566,12.1875 -12.2,12.1875 l -2.7,0 0,13.95 z m -23.875,0 8.875,0 0,-64.1875 -8.875,0 z m 16.875,-21.9375 2.7,0 c 2.37166,0 4.2,-1.82803 4.2,-4.2 0,-0.4381 -0.0543,-0.83491 -0.175,-1.225 l -0.975,-3.15 2.9,-1.575 c 2.14574,-1.16191 3.6,-3.40272 3.6,-6.05 0,-3.68177 -3.40265,-6.875 -7.25,-6.875 l -5,0 z"
       style="font-size:medium;font-style:normal;font-variant:normal;font-weight:normal;font-stretch:normal;text-indent:0;text-align:start;text-decoration:none;line-height:normal;letter-spacing:normal;word-spacing:normal;text-transform:none;direction:ltr;block-progression:tb;writing-mode:lr-tb;text-anchor:start;baseline-shift:baseline;color:#000000;fill:#231f20;fill-opacity:1;stroke:none;stroke-width:8;marker:none;visibility:visible;display:inline;overflow:visible;enable-background:accumulate;font-family:Sans;-inkscape-font-specification:Sans" /><path
       sodipodi:nodetypes="cccccccccccccccccccccccccccccccccccccccccc"
       inkscape:connector-curvature="0"
       id="path3069"
       d="m 565.025,355.247 0,-80 65.875,0 0,8 -41,0 0,15.625 16.875,0 0,23.75 -16.875,0 0,8.875 41,0 0,8 -41,0 0,7.75 41,0 0,8 z m 8,-8 8.875,0 0,-7.75 -8.875,0 z m 0,-15.75 8.875,0 0,-8.875 -8.875,0 z m 0,-16.875 8.875,0 0,-7.75 -8.875,0 z m 16.875,0 8.875,0 0,-7.75 -8.875,0 z m -16.875,-15.75 8.875,0 0,-15.625 -8.875,0 z"
       style="font-size:medium;font-style:normal;font-variant:normal;font-weight:normal;font-stretch:normal;text-indent:0;text-align:start;text-decoration:none;line-height:normal;letter-spacing:normal;word-spacing:normal;text-transform:none;direction:ltr;block-progression:tb;writing-mode:lr-tb;text-anchor:start;baseline-shift:baseline;color:#000000;fill:#231f20;fill-opacity:1;stroke:none;stroke-width:8;marker:none;visibility:visible;display:inline;overflow:visible;enable-background:accumulate;font-family:Sans;-inkscape-font-specification:Sans" /><path
       sodipodi:nodetypes="ccccccccccccccccccc"
       inkscape:connector-curvature="0"
       id="path3077"
       d="m 1249.1,356.122 c 0,-18.38334 0,-36.76666 0,-55.15 -3.0174,1.47544 -5.7518,3.40746 -8.15,5.725 l -1.2,1.125 -27.375,0 1.975,-5.375 c 5.6108,-15.33038 20.3263,-26.1625 37.55,-26.1625 l 5.125,0 -0.05,71.9625 7.8749,0 0,-68.05 7.875,0 0,75.925 z m -24.6,-56.3 12.2,0 c 3.5989,-3.18978 7.7392,-5.73869 12.325,-7.475 l 0,-7.95 c -10.4734,0.93636 -19.4091,6.87725 -24.525,15.425 z"
       style="font-size:medium;font-style:normal;font-variant:normal;font-weight:normal;font-stretch:normal;text-indent:0;text-align:start;text-decoration:none;line-height:normal;letter-spacing:normal;word-spacing:normal;text-transform:none;direction:ltr;block-progression:tb;writing-mode:lr-tb;text-anchor:start;baseline-shift:baseline;color:#000000;fill:#231f20;fill-opacity:1;stroke:none;stroke-width:7.87699986;marker:none;visibility:visible;display:inline;overflow:visible;enable-background:accumulate;font-family:Sans;-inkscape-font-specification:Sans" /><path
       sodipodi:nodetypes="cccccccccccccccccccccccccccccc"
       inkscape:connector-curvature="0"
       id="path3095"
       d="m 705.275,355.622 0,-27.875 15.75,0 0,-10.75 -15.375,0 0,-41.75 23.75,0 0,33.375 19.5,0 0,27.875 -19.125,0 0,10.375 49.625,0 0,8.75 z m 8.75,-8.75 7,0 0,-10.375 -7,0 z m 15.75,-19.125 10.375,0 0,-10.375 -10.375,0 z m -16.125,-18.75 7.75,0 0,-25.75 -7.75,0 z"
       style="font-size:medium;font-style:normal;font-variant:normal;font-weight:normal;font-stretch:normal;text-indent:0;text-align:start;text-decoration:none;line-height:normal;letter-spacing:normal;word-spacing:normal;text-transform:none;direction:ltr;block-progression:tb;writing-mode:lr-tb;text-anchor:start;baseline-shift:baseline;color:#000000;fill:#231f20;fill-opacity:1;stroke:none;stroke-width:8;marker:none;visibility:visible;display:inline;overflow:visible;enable-background:accumulate;font-family:Sans;-inkscape-font-specification:Sans" /><path
       sodipodi:nodetypes="ccccccccccccccccccccccccccccccccc"
       inkscape:connector-curvature="0"
       id="path3107"
       d="m 1547.15,356.197 0,-76 8,0 0,57.8 11.125,-19.3 0,-38.5 8,0 0,24.675 13.45,-23.3 9.575,16.55 9.55,-16.55 13.425,23.25 0,-28.625 27.125,0 0,80 -6.675,0 -12.45,-21.5 0,21.5 -6.675,0 -33.8498,-58.67496 -33.875,58.675 z m 73.125,-18.225 0,-17.125 0,-0.025 -13.425,-23.25 -4.95,8.55 z m 19.125,-0.025 0,-53.75 -11.125,0 0,34.45 z"
       style="font-size:medium;font-style:normal;font-variant:normal;font-weight:normal;font-stretch:normal;text-indent:0;text-align:start;text-decoration:none;line-height:normal;letter-spacing:normal;word-spacing:normal;text-transform:none;direction:ltr;block-progression:tb;writing-mode:lr-tb;text-anchor:start;baseline-shift:baseline;color:#000000;fill:#231f20;fill-opacity:1;stroke:none;stroke-width:8;marker:none;visibility:visible;display:inline;overflow:visible;enable-background:accumulate;font-family:Sans;-inkscape-font-specification:Sans" /><path
       sodipodi:nodetypes="cccccccccscccsscsssccccccssccc"
       inkscape:connector-curvature="0"
       id="path3119"
       d="m 418.775,355.247 0.2,-79.025 34.975,-0.025 4.675,8 -15.0125,0 0,5.675 23.6375,0 c -0.34578,-1.2397 -0.68218,-2.39442 -1.025,-3.475 l 16.775,0 c 6.00561,7.99714 9.025,18.58821 9.025,28.85 0,22.04369 -17.95529,40 -40,40 z m 8,-8 25.25,0 c 17.72129,0 32,-14.27969 32,-32 0,-9.24736 -3.07744,-18.50381 -8.425,-25.025 0.14096,0.57081 0.28642,1.03988 0.425,1.625 1.40205,5.9198 2.5,12.0536 2.5,16.65 0,10.87141 -4.0621,19.42625 -11,24.725 -6.9379,5.29875 -16.2558,7.4 -26.75,7.4 l -5.25,0 0.15,-56.4 -8.7,0 z m 16.8375,-14.775 c 8.06541,-0.36847 14.63643,-2.22554 19.0875,-5.625 4.96635,-3.793 7.825,-9.33841 7.825,-18.35 0,-2.39 -0.54543,-6.4133 -1.375,-10.625 l -25.5375,0 z"
       style="font-size:medium;font-style:normal;font-variant:normal;font-weight:normal;font-stretch:normal;text-indent:0;text-align:start;text-decoration:none;line-height:normal;letter-spacing:normal;word-spacing:normal;text-transform:none;direction:ltr;block-progression:tb;writing-mode:lr-tb;text-anchor:start;baseline-shift:baseline;color:#000000;fill:#231f20;fill-opacity:1;stroke:none;stroke-width:8;marker:none;visibility:visible;display:inline;overflow:visible;enable-background:accumulate;font-family:Sans;-inkscape-font-specification:Sans" /><path
       sodipodi:nodetypes="ccccccccccccc"
       inkscape:connector-curvature="0"
       id="path3127"
       d="m 2778.825,351.822 45.95,-79.625 45.975,79.625 -9.225,0 -36.75,-63.625 -31.525,54.625 11.775,0 19.75,-34.25 24.975,43.25 -9.225,0 -15.75,-27.25 -15.725,27.25 z"
       style="fill:#231f20;fill-opacity:1;fill-rule:nonzero;stroke:none" /><path
       sodipodi:nodetypes="ccccccccccccccccccccccccc"
       inkscape:connector-curvature="0"
       id="path3131"
       d="m 2930.3,351.822 45.975,-79.625 45.95,79.625 -9.225,0 -36.725,-63.625 -31.55,54.625 11.775,0 19.775,-34.25 5.45,7.25 -21.2,36 z m 103.325,0 -15.725,-27.25 -1.85,3.2 -5.275,-6.875 7.125,-12.325 24.95,43.25 z m 21,0 -36.725,-63.625 -11.425,19.75 -4.5,-7.875 15.925,-27.875 45.95,79.625 z"
       style="fill:#231f20;fill-opacity:1;fill-rule:nonzero;stroke:none" /><path
       sodipodi:nodetypes="ccccccccccccccccccccccccccccccccc"
       inkscape:connector-curvature="0"
       id="path3139"
       d="m 3080.55,354.997 22.975,-39.775 -19.85,-35.4 9.15,0 15.35,27.35 4.15,-7.225 30.05,51.875 -9.25,0 -9.525,-16.4 -11.3,19.575 z m 74.675,-3.175 -16.2,-28.5 -4.175,7.25 -29.3,-50.75 9.225,0 8.825,15.275 11.275,-19.575 31.75,0 -22.95,39.75 20.75,36.55 z m -60.8,-4.825 13.25,0 11.3,-19.575 -6.625,-11.475 z m 40.425,-32.425 4.25,-7.35 13.675,-23.7 -13.275,0 -11.3,19.575 z"
       style="fill:#231f20;fill-opacity:1;fill-rule:nonzero;stroke:none" /><path
       sodipodi:nodetypes="ssccccccssccccccsscccsccsssccssccsccc"
       inkscape:connector-curvature="0"
       id="path3143"
       d="m 1872.9,355.072 c -22.0447,0 -40,-17.95631 -40,-40 0,-7.16897 1.9149,-13.90188 5.225,-19.725 l 2.6,-4.575 12.4,12.375 c 1.5864,-2.62024 3.6856,-4.8927 6.15,-6.7 l -12.25,-12.25 4.175,-2.7 c 6.2523,-4.05052 13.7043,-6.425 21.7,-6.425 22.0446,0 40,17.95542 40,40 0,7.99579 -2.348,15.44826 -6.4,21.7 l -2.7,4.175 -12.25,-12.225 c -1.8156,2.46676 -4.0931,4.56521 -6.725,6.15 l 12.4,12.375 -4.575,2.6 c -5.8225,3.30991 -12.5806,5.225 -19.75,5.225 z m 0,-8 c 3.8261,0 7.46,-0.7215 10.85,-1.95 l -7.2,-7.225 c -1.2703,0.15962 -2.561,0.29623 -3.65,0.3 -12.7247,0 -23.125,-10.40129 -23.125,-23.125 0,-1.23259 0.1129,-2.44351 0.3,-3.625 l -7.2,-7.22504 c -1.2312,3.39376 -1.975,7.01892 -1.975,10.85 0,17.72031 14.2788,32 32,32 z m 0,-16.875 c 5.4912,0 10.2495,-2.91746 12.9,-7.25 L 1865,302.172 c -4.321,2.65251 -7.225,7.41633 -7.225,12.9 0,8.40029 6.7238,15.125 15.125,15.125 z m 29.25,-2.225 c 1.7448,-3.94311 2.75,-8.29631 2.75,-12.9 0,-17.72142 -14.2785,-32 -32,-32 -4.6166,0 -8.9475,1.0212 -12.9,2.775 z"
       style="font-size:medium;font-style:normal;font-variant:normal;font-weight:normal;font-stretch:normal;text-indent:0;text-align:start;text-decoration:none;line-height:normal;letter-spacing:normal;word-spacing:normal;text-transform:none;direction:ltr;block-progression:tb;writing-mode:lr-tb;text-anchor:start;baseline-shift:baseline;color:#000000;fill:#231f20;fill-opacity:1;stroke:none;stroke-width:8;marker:none;visibility:visible;display:inline;overflow:visible;enable-background:accumulate;font-family:Sans;-inkscape-font-specification:Sans" /><path
       sodipodi:nodetypes="ccccccccccccccccccccccccccccccc"
       inkscape:connector-curvature="0"
       id="path3147"
       d="m 1043.225,354.072 0,-28.125 -22.5,0 0,24.175 -7.875,0 0,-72 7.875,0 0,24.2 22.5,0 0,-24.2 7.875,0 0,24.2 7.875,0 0,-24.2 7.875,0 0,32.075 -46.125,0 0,7.875 46.125,0 0,36 z m -46.125,-3.95 0,-72 7.875,0 0,72 z m 54,-3.925 7.875,0 0,-20.25 -7.875,0 z"
       style="font-size:medium;font-style:normal;font-variant:normal;font-weight:normal;font-stretch:normal;text-indent:0;text-align:start;text-decoration:none;line-height:normal;letter-spacing:normal;word-spacing:normal;text-transform:none;direction:ltr;block-progression:tb;writing-mode:lr-tb;text-anchor:start;baseline-shift:baseline;color:#000000;fill:#231f20;fill-opacity:1;stroke:none;stroke-width:7.87699986;marker:none;visibility:visible;display:inline;overflow:visible;enable-background:accumulate;font-family:Sans;-inkscape-font-specification:Sans" /><path
       sodipodi:nodetypes="ccccccccc"
       inkscape:connector-curvature="0"
       id="path3189"
       d="m 1144.475,354.072 0,-75.95 7.875,0 0,68.075 7.875,0 0,-68.075 7.875,0 0,75.95 z"
       style="font-size:medium;font-style:normal;font-variant:normal;font-weight:normal;font-stretch:normal;text-indent:0;text-align:start;text-decoration:none;line-height:normal;letter-spacing:normal;word-spacing:normal;text-transform:none;direction:ltr;block-progression:tb;writing-mode:lr-tb;text-anchor:start;baseline-shift:baseline;color:#000000;fill:#231f20;fill-opacity:1;stroke:none;stroke-width:7.87699986;marker:none;visibility:visible;display:inline;overflow:visible;enable-background:accumulate;font-family:Sans;-inkscape-font-specification:Sans" /><path
       sodipodi:nodetypes="ccccccccccccc"
       inkscape:connector-curvature="0"
       id="path3209"
       d="m 1425.6562,276.1875 0,80 26,0 0,-55.125 27.5,0 0,-8 -35.5,0 0,55.125 -10,0 0,-64 45.5,0 0,-8 z"
       style="font-size:medium;font-style:normal;font-variant:normal;font-weight:normal;font-stretch:normal;text-indent:0;text-align:start;text-decoration:none;line-height:normal;letter-spacing:normal;word-spacing:normal;text-transform:none;direction:ltr;block-progression:tb;writing-mode:lr-tb;text-anchor:start;baseline-shift:baseline;color:#000000;fill:#231f20;fill-opacity:1;stroke:none;stroke-width:8;marker:none;visibility:visible;display:inline;overflow:visible;enable-background:accumulate;font-family:Sans;-inkscape-font-specification:Sans" /><path
       sodipodi:nodetypes="cccscsccscscsccsccccccsccscsc"
       inkscape:connector-curvature="0"
       id="path3217"
       d="m 2645.125,355.822 0,-40 c 0,-10.57164 4.131,-20.22531 10.85,-27.375 7.2897,-7.76052 17.6774,-12.625 29.15,-12.625 12.0133,0 22.8225,5.34327 30.15,13.75 6.1206,7.02098 9.85,16.21526 9.85,26.25 l 0,36 -8,0 0,-36 c 0,-7.69968 -2.7095,-14.70861 -7.225,-20.225 -3.1864,-1.06648 -6.5943,-1.65 -10.15,-1.65 -2.2779,0 -4.4875,0.24943 -6.625,0.7 9.2128,7.33365 15.125,18.64122 15.125,31.3 l 0,25.875 -8,0 0,-25.875 c 0,-11.97329 -6.5599,-22.35686 -16.25,-27.85 -9.6901,5.49334 -16.25,15.87881 -16.25,27.85 l 0,29.875 z m 8,-8 6.625,0 0,-21.875 c 0,-15.78006 9.1749,-29.4814 22.5,-35.975 4.4039,-2.14871 9.2794,-3.45408 14.4,-3.85 -3.5924,-1.39946 -7.4238,-2.3 -11.525,-2.3 -9.2194,0 -17.4828,3.90552 -23.325,10.125 -5.3851,5.73031 -8.675,13.38064 -8.675,21.875 z"
       style="font-size:medium;font-style:normal;font-variant:normal;font-weight:normal;font-stretch:normal;text-indent:0;text-align:start;text-decoration:none;line-height:normal;letter-spacing:normal;word-spacing:normal;text-transform:none;direction:ltr;block-progression:tb;writing-mode:lr-tb;text-anchor:start;baseline-shift:baseline;color:#000000;fill:#231f20;fill-opacity:1;stroke:none;stroke-width:8;marker:none;visibility:visible;display:inline;overflow:visible;enable-background:accumulate;font-family:Sans;-inkscape-font-specification:Sans" /><path
       sodipodi:nodetypes="sssccccssccssssccsssscccccssccc"
       inkscape:connector-curvature="0"
       id="path3233"
       d="m 2109.125,356.197 c -22.0447,0 -40,-17.95631 -40,-40 0,-22.04458 17.9555,-40 40,-40 7.4879,0 14.5267,2.08377 20.525,5.675 l 4.4,2.625 -40.1,40.125 -0.125,-0.125 c 2.9312,5.41763 8.6695,9.075 15.3,9.075 9.6444,0 17.375,-7.73157 17.375,-17.375 0,-3.60214 -1.0892,-6.90733 -2.95,-9.675 l 6.65,-4.45 c 2.7152,4.03833 4.3,8.90714 4.3,14.125 0,13.96657 -11.4074,25.375 -25.375,25.375 -13.9676,0 -25.375,-11.40843 -25.375,-25.375 0,-13.96739 11.4076,-25.375 25.375,-25.375 2.2202,0 4.3673,0.30516 6.425,0.85 l 5.225,-5.225 c -3.6159,-1.4213 -7.5157,-2.25 -11.65,-2.25 -17.7213,0 -32,14.27858 -32,32 0,17.72031 14.2788,32 32,32 17.7213,0 32,-14.27969 32,-32 0,-6.61914 -1.9988,-12.72792 -5.425,-17.825 l -1.85,-2.75 15.625,-15.425 11.4,0 -16.85,16.65 c 3.1929,5.74869 5.1,12.32435 5.1,19.35 0,22.04369 -17.9552,40 -40,40 z m -17.35,-40.725 16.625,-16.625 c -9.0639,0.36618 -16.2588,7.5611 -16.625,16.625 z"
       style="font-size:medium;font-style:normal;font-variant:normal;font-weight:normal;font-stretch:normal;text-indent:0;text-align:start;text-decoration:none;line-height:normal;letter-spacing:normal;word-spacing:normal;text-transform:none;direction:ltr;block-progression:tb;writing-mode:lr-tb;text-anchor:start;baseline-shift:baseline;color:#000000;fill:#231f20;fill-opacity:1;stroke:none;stroke-width:8;marker:none;visibility:visible;display:inline;overflow:visible;enable-background:accumulate;font-family:Sans;-inkscape-font-specification:Sans" /><path
       sodipodi:nodetypes="cccccccccccccccccccccc"
       inkscape:connector-curvature="0"
       id="path3249"
       d="m 3216.1,352.072 35.4,-35.375 0,-36.625 8.275,0 0,22.275 6.35,6.35 0,-28.625 8,0 0,36.625 35.4,35.375 -11.325,0 -38.7,-38.7 0,6.6 -32.075,32.1 z m 19.825,0 27.025,-27.05 27.025,27.05 -11.325,0 -15.7,-15.7 -15.7,15.7 z"
       style="font-size:medium;font-style:normal;font-variant:normal;font-weight:normal;font-stretch:normal;text-indent:0;text-align:start;text-decoration:none;line-height:normal;letter-spacing:normal;word-spacing:normal;text-transform:none;direction:ltr;block-progression:tb;writing-mode:lr-tb;text-anchor:start;baseline-shift:baseline;color:#000000;fill:#231f20;fill-opacity:1;stroke:none;stroke-width:8;marker:none;visibility:visible;display:inline;overflow:visible;enable-background:accumulate;font-family:Sans;-inkscape-font-specification:Sans" /><path
       style="font-size:medium;font-style:normal;font-variant:normal;font-weight:normal;font-stretch:normal;text-indent:0;text-align:start;text-decoration:none;line-height:normal;letter-spacing:normal;word-spacing:normal;text-transform:none;direction:ltr;block-progression:tb;writing-mode:lr-tb;text-anchor:start;baseline-shift:baseline;color:#000000;fill:#231f20;fill-opacity:1;stroke:none;stroke-width:8;marker:none;visibility:visible;display:inline;overflow:visible;enable-background:accumulate;font-family:Sans;-inkscape-font-specification:Sans"
       d="m 5131.0938,95.625 28.75,28.75 -10.4688,0 0,10 20.4688,0 5.4687,5.46875 0,2.8125 -25.9375,0 0,10 25.9375,0 0,32.96875 10.3437,0 0,-27.8125 7.9376,-7.9375 0,35.75 10,0 0,-32.96875 28.75,0 0,-10 -28.75,0 0,-2.75 5.5312,-5.53125 23.2188,0 0,-10 -13.2188,0 28.7188,-28.75 -14.125,0 -48.4063,48.40625 0,-8.28125 -40.0937,-40.125 z m 24.75,0 33.7812,33.8125 33.7812,-33.8125 -14.1562,0 -19.625,19.625 L 5170,95.625 z"
       transform="matrix(0.8,0,0,-0.8,0,425.197)"
       id="path3269"
       inkscape:connector-curvature="0"
       sodipodi:nodetypes="cccccccccccccccccccccccccccccccccccccc" /><path
       sodipodi:nodetypes="cccccccccccccccccccc"
       inkscape:connector-curvature="0"
       id="path3299"
       d="m 1690.025,362.872 0,-87.8 23.75,0 0,43.625 39.375,-51.425 0,24.675 15.75,-15.8 0,76.05 -8,0 0,-56.7 -7.75,7.75 0,48.95 -8,0 0,-61.325 z m 8,-23.6 7.75,-10.125 0,-46.075 -7.75,0 z"
       style="font-size:medium;font-style:normal;font-variant:normal;font-weight:normal;font-stretch:normal;text-indent:0;text-align:start;text-decoration:none;line-height:normal;letter-spacing:normal;word-spacing:normal;text-transform:none;direction:ltr;block-progression:tb;writing-mode:lr-tb;text-anchor:start;baseline-shift:baseline;color:#000000;fill:#231f20;fill-opacity:1;stroke:none;stroke-width:8;marker:none;visibility:visible;display:inline;overflow:visible;enable-background:accumulate;font-family:Sans;-inkscape-font-specification:Sans" /><path
       sodipodi:nodetypes="scccccccccccsssscsscssccsccsssccc"
       inkscape:connector-curvature="0"
       id="path3311"
       d="m 1992.55,357.572 c -7.0771,-0.10201 -12.575,-1.475 -12.575,-1.475 l -3.075,-0.75 0,-75.275 8,0 0,68.75 c 2.1018,0.36713 5.1945,0.7847 8.875,0.75 l 0,-69.5 8,0 0,23 2.45,-0.1 c 0,0 0.15,3.1e-4 0.15,0 0.2427,-0.0199 8.0683,-0.66427 16.275,2.65 8.3346,3.36589 17.125,11.75083 17.125,27.2 0,7.88458 -2.697,13.92532 -6.9,17.8 -4.203,3.87468 -9.5193,5.57107 -14.525,6.275 -5.3474,0.75198 -10.5089,0.39346 -14.2,-0.1 -0.7242,0.1393 -1.4344,0.25242 -2.15,0.35 -2.5659,0.3499 -5.091,0.459 -7.45,0.425 z m 24.5,-8.925 c 3.2751,-0.67638 6.2481,-1.91621 8.4,-3.9 2.547,-2.34798 4.325,-5.74708 4.325,-11.925 0,-12.67583 -5.8345,-17.20964 -12.125,-19.75 -0.9478,-0.38279 -1.8898,-0.6899 -2.825,-0.95 4.242,4.62749 7.2,11.54088 7.2,20.95 0,6.5143 -1.8922,11.7629 -4.975,15.575 z m -14.975,-0.025 c 2.9117,-0.73223 5.5152,-1.92301 7.475,-3.675 2.6433,-2.36297 4.475,-5.72375 4.475,-11.875 0,-9.19044 -2.9413,-13.92711 -6.625,-16.975 -1.7062,-1.41169 -3.6425,-2.43838 -5.625,-3.175 l 0,35.65 c 0.087,0.0155 0.2099,0.0343 0.3,0.05 z"
       style="font-size:medium;font-style:normal;font-variant:normal;font-weight:normal;font-stretch:normal;text-indent:0;text-align:start;text-decoration:none;line-height:normal;letter-spacing:normal;word-spacing:normal;text-transform:none;direction:ltr;block-progression:tb;writing-mode:lr-tb;text-anchor:start;baseline-shift:baseline;color:#000000;fill:#231f20;fill-opacity:1;stroke:none;stroke-width:8;marker:none;visibility:visible;display:inline;overflow:visible;enable-background:accumulate;font-family:Sans;-inkscape-font-specification:Sans" /><path
       sodipodi:nodetypes="ccccccccccccccccccccccccccccc"
       inkscape:connector-curvature="0"
       id="path3319"
       d="m 1315.475,352.20443 0,-72.00743 7.875,0 0,38.85 5.625,-5.625 0,-33.225 7.875,0 0,25.35 29.3,-29.3625 33.575,0 -41.125,41.0125 34.45,35.00743 -10.575,0 -29.45,-29.45743 -5.55,5.575 23.875,23.88243 -11.125,0 -23.375,-23.38243 0,23.38243 -7.875,0 0,-27.63243 -5.625,5.625 0,22.00743 z m 21.375,-24.38243 43.75,-43.75 -11.2,0.05 -32.55,32.575 z"
       style="font-size:medium;font-style:normal;font-variant:normal;font-weight:normal;font-stretch:normal;text-indent:0;text-align:start;text-decoration:none;line-height:normal;letter-spacing:normal;word-spacing:normal;text-transform:none;direction:ltr;block-progression:tb;writing-mode:lr-tb;text-anchor:start;baseline-shift:baseline;color:#000000;fill:#231f20;fill-opacity:1;stroke:none;stroke-width:7.87699986;marker:none;visibility:visible;display:inline;overflow:visible;enable-background:accumulate;font-family:Sans;-inkscape-font-specification:Sans" /><path
       style="fill:#231f20;fill-opacity:1;fill-rule:nonzero;stroke:none"
       d="m 104.53125,349.78125 57.4375,99.53125 57.46875,-99.53125 -11.53125,0 -45.9375,79.53125 -39.40625,-68.28125 14.71875,0 24.6875,42.8125 6.84375,-9.0625 -26.5,-45 z m 129.15625,0 -19.6875,34.0625 -2.28125,-4 -6.59375,8.59375 8.875,15.40625 31.21875,-54.0625 z m 26.25,0 -6.78125,11.71875 -0.0313,-0.0625 -5.78125,10.03125 0.0313,0.0625 L 214,429.3125 199.75,404.625 194.125,414.46875 214,449.3125 271.46875,349.78125 z m 25.78125,0 -19.6875,34.0625 -2.28125,-4 -6.59375,8.59375 8.875,15.40625 31.21875,-54.0625 z m 26.25,0 -45.9375,79.53125 -14.25,-24.6875 -5.625,9.84375 19.875,34.84375 L 323.5,349.78125 z m 25.78125,0 -19.6875,34.0625 -2.28125,-4 -6.59375,8.59375 8.875,15.40625 31.21875,-54.0625 z m 26.25,0 -45.9375,79.53125 -14.25,-24.6875 -5.625,9.84375 19.875,34.84375 57.46875,-99.53125 z"
       transform="matrix(0.8,0,0,-0.8,0,425.197)"
       id="path3345"
       inkscape:connector-curvature="0"
       sodipodi:nodetypes="ccccccccccccccccccccccccccccccccccccccccccccccccccccccccc" /><path
       sodipodi:nodetypes="sssccccccccssccccssccsssccsss"
       inkscape:connector-curvature="0"
       id="path3365"
       d="m 893.02496,355.247 c -22.04464,0 -40,-17.95631 -40,-40 0,-22.04369 17.95544,-40 40,-40 6.76536,0 13.15808,1.7246 18.75008,4.7 l 2.12496,1.125 0,27.925 15.12496,0 0,8 -37.12496,0 0,-8 13.62496,0 c -2.28656,-4.5905 -6.98664,-7.75 -12.5,-7.75 -7.77912,0 -14,6.22082 -14,14 0,7.7804 6.22056,14 14,14 2.08992,-0.10117 3.73536,-0.4462 5.5,-1.125 l 32.97504,0 -3.12496,5.875 c -6.7224,12.64238 -20.06776,21.25 -35.35008,21.25 z m 0,-8 c 9.706,0 18.34056,-4.33145 24.2,-11.125 l -17.47496,0 c -2.11112,0.68396 -4.3592,1.125 -6.72504,1.125 -12.10248,0 -22,-9.8964 -22,-22 0,-12.10282 9.8972,-22 22,-22 4.80832,0 9.2516,1.58799 12.87504,4.225 l 0,-11.325 c -3.95624,-1.75684 -8.25264,-2.9 -12.87504,-2.9 -17.72136,0 -32,14.27969 -32,32 0,17.72031 14.27872,32 32,32 z"
       style="font-size:medium;font-style:normal;font-variant:normal;font-weight:normal;font-stretch:normal;text-indent:0;text-align:start;text-decoration:none;line-height:normal;letter-spacing:normal;word-spacing:normal;text-transform:none;direction:ltr;block-progression:tb;writing-mode:lr-tb;text-anchor:start;baseline-shift:baseline;color:#000000;fill:#231f20;fill-opacity:1;stroke:none;stroke-width:8;marker:none;visibility:visible;display:inline;overflow:visible;enable-background:accumulate;font-family:Sans;-inkscape-font-specification:Sans" /><path
       sodipodi:nodetypes="sccccccccccccccsssscscsscccccscccccccsc"
       inkscape:connector-curvature="0"
       id="path3373"
       d="m 2241.925,356.472 c -3.7408,-0.0633 -6.4941,-0.4094 -7.725,-0.575 -10.0343,1.04248 -18.8,-0.175 -18.8,-0.175 l -3.325,-0.525 0,-75.375 7.875,0 0,68.4 c 1.9119,0.19363 4.5096,0.33354 7.85,0.225 l 0,-68.625 7.9,0 0,26.475 30.425,-30.425 31.375,0 -27.675,27.7 c 0.9949,0.70743 2.0145,1.59747 3.025,2.65 4.0654,4.23479 7.85,11.58334 7.85,23.1 0,8.29712 -3.358,14.73561 -8.25,18.875 -4.892,4.13939 -11.0483,6.14073 -16.95,7.2 -5.1186,0.91872 -9.8342,1.13828 -13.575,1.075 z m -6.225,-8.625 c 0.5126,-0.0473 1.0273,-0.10618 1.55,-0.2 5.0671,-0.90948 9.8904,-2.67845 13.225,-5.5 3.3345,-2.82155 5.475,-6.49712 5.475,-12.825 0,-9.65105 -3.5851,-14.46265 -7.05,-17.35 -3.4648,-2.88735 -6.675,-3.525 -6.675,-3.525 l -6.525,-1.3 z m 21.075,-0.95 c 4.0334,-1.00377 7.8516,-2.44562 10.575,-4.75 3.3345,-2.82155 5.45,-6.49712 5.45,-12.825 0,-9.85834 -2.9654,-14.87854 -5.65,-17.675 -2.6845,-2.79646 -4.875,-3.25 -4.875,-3.25 l -6.75,-1.675 22.975,-22.975 -9.125,0 -19.425,19.45 c 1.294,0.71537 2.6531,1.55682 4.025,2.7 4.9726,4.1439 9.825,11.70105 9.825,23.425 0,7.54289 -2.8449,13.43716 -7.025,17.575 z"
       style="font-size:medium;font-style:normal;font-variant:normal;font-weight:normal;font-stretch:normal;text-indent:0;text-align:start;text-decoration:none;line-height:normal;letter-spacing:normal;word-spacing:normal;text-transform:none;direction:ltr;block-progression:tb;writing-mode:lr-tb;text-anchor:start;baseline-shift:baseline;color:#000000;fill:#231f20;fill-opacity:1;stroke:none;stroke-width:7.87699986;marker:none;visibility:visible;display:inline;overflow:visible;enable-background:accumulate;font-family:Sans;-inkscape-font-specification:Sans" /><path
       style="font-size:medium;font-style:normal;font-variant:normal;font-weight:normal;font-stretch:normal;text-indent:0;text-align:start;text-decoration:none;line-height:normal;letter-spacing:normal;word-spacing:normal;text-transform:none;direction:ltr;block-progression:tb;writing-mode:lr-tb;text-anchor:start;baseline-shift:baseline;color:#000000;fill:#231f20;fill-opacity:1;stroke:none;stroke-width:8;marker:none;visibility:visible;display:inline;overflow:visible;enable-background:accumulate;font-family:Sans;-inkscape-font-specification:Sans"
       d="m 3713.1562,354.46875 0,44.28125 5.5313,-0.53125 c 0,0 12.9821,-1.29791 25.5625,1.3125 6.2903,1.30521 12.3,3.59716 16.4375,7.03125 1.8115,1.50356 3.2578,3.2312 4.375,5.21875 -4.5583,8.06316 -15.1209,11.97794 -25.625,13.5 -10.9537,1.58722 -20.7187,0.59375 -20.7187,0.59375 l -5.5626,-0.59375 0,28.71875 4.5,0.46875 c 0,0 3.5309,0.33787 8.875,0.34375 5.344,0.006 12.4859,-0.33646 19.75,-1.84375 7.2643,-1.50729 14.8156,-4.12158 20.8438,-9.125 6.0282,-5.00342 10.25,-12.7238 10.25,-22.5 0,-9.7762 -4.2218,-17.46534 -10.25,-22.46875 -6.0282,-5.00341 -13.5795,-7.61771 -20.8438,-9.125 -0.6951,-0.14424 -1.356,-0.25114 -2.0312,-0.375 l 0,-5.21875 27.3438,0 0,-10 -27.3438,0 0,-9.6875 27.3438,0 0,-10 z m 10,10 11.0938,0 0,23.625 c -4.4673,-0.29881 -8.2431,-0.20218 -11.0938,-0.0625 z m 43.875,60.34375 c -0.7202,5.03967 -2.949,8.52612 -6.3437,11.34375 -4.1375,3.43408 -10.1472,5.72604 -16.4375,7.03125 -6.2901,1.30521 -12.6782,1.61912 -17.5,1.625 -2.1432,0.003 -2.2191,-0.0867 -3.5938,-0.15625 l 0,-8.5625 c 4.3132,0.17087 10.2663,0.2094 17.75,-0.875 8.7525,-1.26826 18.7083,-4.1208 26.125,-10.40625 z"
       transform="matrix(0.8,0,0,-0.8,0,425.197)"
       id="path3381"
       inkscape:connector-curvature="0"
       sodipodi:nodetypes="cccsscsccccsssssccccccccccccccccsssccsc" /><path
       style="font-size:medium;font-style:normal;font-variant:normal;font-weight:normal;font-stretch:normal;text-indent:0;text-align:start;text-decoration:none;line-height:normal;letter-spacing:normal;word-spacing:normal;text-transform:none;direction:ltr;block-progression:tb;writing-mode:lr-tb;text-anchor:start;baseline-shift:baseline;color:#000000;fill:#231f20;fill-opacity:1;stroke:none;stroke-width:8;marker:none;visibility:visible;display:inline;overflow:visible;enable-background:accumulate;font-family:Sans;-inkscape-font-specification:Sans"
       d="m 3265.4062,351.78125 c -12.4613,0.28124 -23.2187,3.1875 -23.2187,3.1875 l -3.7187,1.03125 0,29.28125 6.5312,-2.0625 c 0,0 9.826,-3.09188 20.6875,-3.5625 5.4307,-0.23531 11.0555,0.2284 15.5313,1.8125 4.1663,1.47464 7.2195,3.75207 9.2812,7.5 -1.1919,2.46176 -2.7901,4.61856 -4.8125,6.625 -4.3405,4.3062 -10.4635,7.65337 -16.8125,10 -12.6983,4.69324 -25.6875,5.46875 -25.6875,5.46875 l -4.7187,0.28125 0,43.46875 66.25,0 0,-10 -35.1563,0 0,-9.6875 35.1563,0 0,-10 -35.1563,0 0,-9.1875 c 0.907,-0.30573 1.8078,-0.62053 2.75,-0.96875 7.2052,-2.66307 14.6123,-6.47081 20.4375,-12.25 5.8252,-5.77919 9.9375,-13.7863 9.9375,-23.5625 0,-9.7762 -4.4114,-17.2145 -10.6875,-21.40625 -6.2763,-4.19175 -13.8931,-5.57511 -21.1875,-5.90625 -1.8236,-0.0828 -3.6261,-0.10268 -5.4063,-0.0625 z m 1.4063,10 c 1.1544,-0.004 2.3252,0.008 3.5313,0.0625 6.2601,0.28418 12.2041,1.6209 16.0937,4.21875 3.306,2.20797 5.4141,5.13486 6,10.28125 -2.4384,-1.84066 -5.1259,-3.32844 -7.9063,-4.3125 -6.2813,-2.2232 -13.008,-2.64546 -19.25,-2.375 -6.6598,0.28856 -12.4873,1.35331 -16.8124,2.34375 l 0,-8.09375 c 3.5612,-0.7888 10.263,-2.09855 18.3437,-2.125 z m -7.25,56.9375 0,26.09375 -11.0937,0 0,-24.28125 c 2.6478,-0.27423 6.4613,-0.78435 11.0937,-1.8125 z"
       transform="matrix(0.8,0,0,-0.8,0,425.197)"
       id="path3393"
       inkscape:connector-curvature="0"
       sodipodi:nodetypes="sccccsccssccccccccccccsscsssscccsccsccccc" /><path
       style="font-size:medium;font-style:normal;font-variant:normal;font-weight:normal;font-stretch:normal;text-indent:0;text-align:start;text-decoration:none;line-height:normal;letter-spacing:normal;word-spacing:normal;text-transform:none;direction:ltr;block-progression:tb;writing-mode:lr-tb;text-anchor:start;baseline-shift:baseline;color:#000000;fill:#231f20;fill-opacity:1;stroke:none;stroke-width:8;marker:none;visibility:visible;display:inline;overflow:visible;enable-background:accumulate;font-family:Sans;-inkscape-font-specification:Sans"
       d="M 3395.5938 353.0625 C 3390.0085 353.0625 3384.6786 354.31141 3379.9375 356.5625 L 3384.2188 365.59375 C 3387.6601 363.95984 3391.5139 363.0625 3395.5938 363.0625 C 3402.9402 363.0625 3409.512 366.04215 3414.3125 370.84375 C 3418.8138 375.34402 3421.6872 381.42134 3422.0312 388.21875 L 3385.5 388.21875 L 3385.5 420.71875 L 3422.0312 420.71875 C 3421.6944 427.52215 3418.8212 433.585 3414.3125 438.09375 C 3409.5116 442.89462 3402.9398 445.875 3395.5938 445.875 C 3391.5139 445.875 3387.6595 444.97843 3384.2188 443.34375 L 3379.9375 452.34375 C 3384.6793 454.59657 3390.0085 455.875 3395.5938 455.875 C 3399.7752 455.875 3403.7835 455.14111 3407.5312 453.84375 C 3411.2867 455.14317 3415.3214 455.875 3419.5 455.875 C 3429.5489 455.875 3438.682 451.81788 3445.2812 445.21875 C 3451.8816 438.61831 3455.9688 429.42241 3455.9688 419.375 C 3455.9688 414.03557 3454.6341 409.05341 3452.5625 404.46875 C 3454.6275 399.88996 3455.9688 394.92132 3455.9688 389.59375 C 3455.9688 379.54422 3451.8824 370.34971 3445.2812 363.75 C 3438.6818 357.1491 3429.5484 353.0625 3419.5 353.0625 C 3415.3111 353.0625 3411.2632 353.75717 3407.5 355.0625 C 3407.4908 355.05929 3407.478 355.0657 3407.4688 355.0625 C 3403.7404 353.7725 3399.7497 353.0625 3395.5938 353.0625 z M 3420.6562 363.09375 C 3427.5361 363.38675 3433.6393 366.29453 3438.1875 370.84375 C 3442.9889 375.64404 3445.9688 382.24577 3445.9688 389.59375 C 3445.9688 394.14424 3444.822 398.39097 3442.8125 402.125 L 3441.5625 404.46875 L 3442.8125 406.84375 C 3444.8221 410.57812 3445.9688 414.82018 3445.9688 419.375 C 3445.9688 426.72009 3442.9895 433.29169 3438.1875 438.09375 C 3433.6458 442.63546 3427.5544 445.5433 3420.6875 445.84375 C 3420.9124 445.63005 3421.1556 445.43811 3421.375 445.21875 C 3427.9754 438.61831 3432.0625 429.42241 3432.0625 419.375 C 3432.0625 414.03557 3430.7591 409.05341 3428.6875 404.46875 C 3430.7525 399.88996 3432.0625 394.92132 3432.0625 389.59375 C 3432.0625 379.54422 3427.9761 370.34971 3421.375 363.75 C 3421.1452 363.52016 3420.8921 363.31747 3420.6562 363.09375 z M 3395.5 398.21875 L 3420.5938 398.21875 C 3420.1252 399.56959 3419.5755 400.88135 3418.9062 402.125 L 3417.6562 404.46875 L 3418.9062 406.84375 C 3419.5709 408.07888 3420.127 409.37845 3420.5938 410.71875 L 3395.5 410.71875 L 3395.5 398.21875 z "
       transform="matrix(0.8,0,0,-0.8,0,425.197)"
       id="path3405" /><path
       inkscape:connector-curvature="0"
       id="path3417"
       d="m 3910.7,356.072 c -8.0392,0 -15.3707,-3.27069 -20.65,-8.55 -5.2804,-5.28035 -8.55,-12.61207 -8.55,-20.65 0,-4.27154 1.0677,-8.25727 2.725,-11.925 -1.6521,-3.66303 -2.725,-7.66294 -2.725,-11.925 0,-8.03962 3.2691,-15.37023 8.55,-20.65 5.2796,-5.28072 12.6112,-8.55 20.65,-8.55 3.3511,0 6.5894,0.55574 9.6,1.6 2.9874,-1.03569 6.169,-1.6 9.5,-1.6 4.4682,0 8.757,0.99913 12.55,2.8 l -3.45,7.25 c -2.753,-1.30713 -5.8362,-2.05 -9.1,-2.05 -5.8772,0 -11.1096,2.35872 -14.95,6.2 -3.8411,3.84023 -6.225,9.12162 -6.225,15 0,0.77233 0.044,1.5507 0.125,2.3 l 25.125,0 0,8 -22.6,0 0.875,1.625 -1,1.9 c -0.533,0.99051 -0.9761,2.02496 -1.35,3.1 l 24.075,0 0,8 -25.225,0 c 0.2694,5.44609 2.593,10.318 6.2,13.925 3.8406,3.84069 9.0732,6.2 14.95,6.2 3.2638,0 6.3475,-0.74226 9.1,-2.05 l 3.45,7.225 c -3.7935,1.80226 -8.0818,2.825 -12.55,2.825 -3.3329,0 -6.5112,-0.59438 -9.5,-1.625 -3.0106,1.04446 -6.2489,1.625 -9.6,1.625 z m -1.1,-8.025 c 0.05,0.002 0.1006,-0.002 0.15,0 -0.1842,-0.17488 -0.3704,-0.34538 -0.55,-0.525 -5.2804,-5.28035 -8.575,-12.61207 -8.575,-20.65 0,-4.27154 1.0677,-8.25727 2.725,-11.925 -1.6521,-3.66303 -2.725,-7.66294 -2.725,-11.925 0,-8.03962 3.2941,-15.37023 8.575,-20.65 0.1796,-0.17967 0.3658,-0.35001 0.55,-0.525 -5.4938,0.2403 -10.3919,2.54108 -14.025,6.175 -3.8411,3.84023 -6.225,9.12162 -6.225,15 0,3.64039 0.9175,7.06278 2.525,10.05 l 1,1.875 -1,1.9 c -1.6077,2.9875 -2.525,6.38115 -2.525,10.025 0,5.87607 2.3833,11.15835 6.225,15 3.6006,3.60065 8.4416,5.90311 13.875,6.175 z"
       style="font-size:medium;font-style:normal;font-variant:normal;font-weight:normal;font-stretch:normal;text-indent:0;text-align:start;text-decoration:none;line-height:normal;letter-spacing:normal;word-spacing:normal;text-transform:none;direction:ltr;block-progression:tb;writing-mode:lr-tb;text-anchor:start;baseline-shift:baseline;color:#000000;fill:#231f20;fill-opacity:1;stroke:none;stroke-width:8;marker:none;visibility:visible;display:inline;overflow:visible;enable-background:accumulate;font-family:Sans;-inkscape-font-specification:Sans" /><path
       style="font-size:medium;font-style:normal;font-variant:normal;font-weight:normal;font-stretch:normal;text-indent:0;text-align:start;text-decoration:none;line-height:normal;letter-spacing:normal;word-spacing:normal;text-transform:none;direction:ltr;block-progression:tb;writing-mode:lr-tb;text-anchor:start;baseline-shift:baseline;color:#000000;fill:#231f20;fill-opacity:1;stroke:none;stroke-width:8;marker:none;visibility:visible;display:inline;overflow:visible;enable-background:accumulate;font-family:Sans;-inkscape-font-specification:Sans"
       d="m 1383,52.1875 0,26 26,0 0,-26 z m 8,8 10,0 0,10 -10,0 z"
       id="path3451"
       inkscape:connector-curvature="0"
       sodipodi:nodetypes="cccccccccc" /><path
       style="font-size:medium;font-style:normal;font-variant:normal;font-weight:normal;font-stretch:normal;text-indent:0;text-align:start;text-decoration:none;line-height:normal;letter-spacing:normal;word-spacing:normal;text-transform:none;direction:ltr;block-progression:tb;writing-mode:lr-tb;text-anchor:start;baseline-shift:baseline;color:#000000;fill:#231f20;fill-opacity:1;stroke:none;stroke-width:8;marker:none;visibility:visible;display:inline;overflow:visible;enable-background:accumulate;font-family:Sans;-inkscape-font-specification:Sans"
       d="m 1311,56.1875 0,22 26,0 0,-22 -8,0 0,14 -10,0 0,-14 z"
       id="path3455"
       inkscape:connector-curvature="0"
       sodipodi:nodetypes="ccccccccc" /><path
       style="font-size:medium;font-style:normal;font-variant:normal;font-weight:normal;font-stretch:normal;text-indent:0;text-align:start;text-decoration:none;line-height:normal;letter-spacing:normal;word-spacing:normal;text-transform:none;direction:ltr;block-progression:tb;writing-mode:lr-tb;text-anchor:start;baseline-shift:baseline;color:#000000;fill:#231f20;fill-opacity:1;stroke:none;stroke-width:8;marker:none;visibility:visible;display:inline;overflow:visible;enable-background:accumulate;font-family:Sans;-inkscape-font-specification:Sans"
       d="m 1239,56.1875 0,22 26,0 0,-22 -8,0 0,14 -10,0 0,-14 z"
       id="path3459"
       inkscape:connector-curvature="0"
       sodipodi:nodetypes="ccccccccc" /><path
       style="font-size:medium;font-style:normal;font-variant:normal;font-weight:normal;font-stretch:normal;text-indent:0;text-align:start;text-decoration:none;line-height:normal;letter-spacing:normal;word-spacing:normal;text-transform:none;direction:ltr;block-progression:tb;writing-mode:lr-tb;text-anchor:start;baseline-shift:baseline;color:#000000;fill:#231f20;fill-opacity:1;stroke:none;stroke-width:8;marker:none;visibility:visible;display:inline;overflow:visible;enable-background:accumulate;font-family:Sans;-inkscape-font-specification:Sans"
       d="m 1311,85.4375 0,46.75 26,0 0,-46.75 -8,0 0,38.75 -10,0 0,-38.75 z"
       id="path3463"
       inkscape:connector-curvature="0"
       sodipodi:nodetypes="ccccccccc" /><path
       style="font-size:medium;font-style:normal;font-variant:normal;font-weight:normal;font-stretch:normal;text-indent:0;text-align:start;text-decoration:none;line-height:normal;letter-spacing:normal;word-spacing:normal;text-transform:none;direction:ltr;block-progression:tb;writing-mode:lr-tb;text-anchor:start;baseline-shift:baseline;color:#000000;fill:#231f20;fill-opacity:1;stroke:none;stroke-width:8;marker:none;visibility:visible;display:inline;overflow:visible;enable-background:accumulate;font-family:Sans;-inkscape-font-specification:Sans"
       d="m 1488.75,52.1875 0,26 26,0 0,-26 z m 8,8 10,0 0,10 -10,0 z"
       id="path3465"
       inkscape:connector-curvature="0"
       sodipodi:nodetypes="cccccccccc" /><path
       style="font-size:medium;font-style:normal;font-variant:normal;font-weight:normal;font-stretch:normal;text-indent:0;text-align:start;text-decoration:none;line-height:normal;letter-spacing:normal;word-spacing:normal;text-transform:none;direction:ltr;block-progression:tb;writing-mode:lr-tb;text-anchor:start;baseline-shift:baseline;color:#000000;fill:#231f20;fill-opacity:1;stroke:none;stroke-width:8;marker:none;visibility:visible;display:inline;overflow:visible;enable-background:accumulate;font-family:Sans;-inkscape-font-specification:Sans"
       d="m 1488.75,81.4375 0,26 26,0 0,-26 z m 8,8 10,0 0,10 -10,0 z"
       id="path3467"
       inkscape:connector-curvature="0"
       sodipodi:nodetypes="cccccccccc" /><path
       style="font-size:medium;font-style:normal;font-variant:normal;font-weight:normal;font-stretch:normal;text-indent:0;text-align:start;text-decoration:none;line-height:normal;letter-spacing:normal;word-spacing:normal;text-transform:none;direction:ltr;block-progression:tb;writing-mode:lr-tb;text-anchor:start;baseline-shift:baseline;color:#000000;fill:#231f20;fill-opacity:1;stroke:none;stroke-width:8;marker:none;visibility:visible;display:inline;overflow:visible;enable-background:accumulate;font-family:Sans;-inkscape-font-specification:Sans"
       d="m 1455,81.4375 0,26 26,0 0,-26 z m 8,8 10,0 0,10 -10,0 z"
       id="path3471"
       inkscape:connector-curvature="0"
       sodipodi:nodetypes="cccccccccc" /><path
       style="font-size:medium;font-style:normal;font-variant:normal;font-weight:normal;font-stretch:normal;text-indent:0;text-align:start;text-decoration:none;line-height:normal;letter-spacing:normal;word-spacing:normal;text-transform:none;direction:ltr;block-progression:tb;writing-mode:lr-tb;text-anchor:start;baseline-shift:baseline;color:#000000;fill:#231f20;fill-opacity:1;stroke:none;stroke-width:8;marker:none;visibility:visible;display:inline;overflow:visible;enable-background:accumulate;font-family:Sans;-inkscape-font-specification:Sans"
       d="m 1459.5938,42.40625 -5.6876,5.65625 12.7188,12.71875 6.375,0 0,9.40625 -17.375,0 0,8 25.375,0 0,-25.40625 -11.0312,0 z"
       id="path3475"
       inkscape:connector-curvature="0"
       sodipodi:nodetypes="ccccccccccc" /><path
       style="font-size:medium;font-style:normal;font-variant:normal;font-weight:normal;font-stretch:normal;text-indent:0;text-align:start;text-decoration:none;line-height:normal;letter-spacing:normal;word-spacing:normal;text-transform:none;direction:ltr;block-progression:tb;writing-mode:lr-tb;text-anchor:start;baseline-shift:baseline;color:#000000;fill:#231f20;fill-opacity:1;stroke:none;stroke-width:8;marker:none;visibility:visible;display:inline;overflow:visible;enable-background:accumulate;font-family:Sans;-inkscape-font-specification:Sans"
       d="m 1425.8438,42.40625 -5.6876,5.65625 12.7188,12.71875 6.375,0 0,9.40625 -17.375,0 0,8 25.375,0 0,-25.40625 -11.0312,0 z"
       id="path3479"
       inkscape:connector-curvature="0"
       sodipodi:nodetypes="ccccccccccc" /><path
       style="font-size:medium;font-style:normal;font-variant:normal;font-weight:normal;font-stretch:normal;text-indent:0;text-align:start;text-decoration:none;line-height:normal;letter-spacing:normal;word-spacing:normal;text-transform:none;direction:ltr;block-progression:tb;writing-mode:lr-tb;text-anchor:start;baseline-shift:baseline;color:#000000;fill:#000000;fill-opacity:1;stroke:none;stroke-width:8;marker:none;visibility:visible;display:inline;overflow:visible;enable-background:accumulate;font-family:Sans;-inkscape-font-specification:Sans"
       d="m 4014.8634,355.64553 c -10.4608,0 -19.0249,-8.58913 -19.0249,-19.05 0,-2.08667 0.3461,-4.09391 0.975,-5.975 -2.1523,-3.09018 -3.425,-6.87463 -3.425,-10.9 0,-6.52654 3.3513,-12.29257 8.4,-15.725 l -15.575,-0.1 0.05,-8 10,0.05 c 2.0126,-11.89995 12.63,-20.3 25.0251,-20.3 l 0.025,0 c 13.7649,0 25.4499,10.30787 25.4499,24.325 0,10.22048 -6.0701,19.12828 -14.8,23.2 l 0,9.425 12.8751,0 0,8 -11.1,0 c -1.886,8.62614 -9.766,15.05 -18.8751,15.05 z m 1.3501,-8.075 c 3.134,-0.37599 5.9229,-2.05314 7.7499,-4.45 l 0,-17.725 c -0.843,0.0889 -1.71,0.1218 -2.5749,0.125 l -5.175,0 0,22.05 z m -8,-2.15 0,-17.65 c -2.6561,2.01765 -4.375,5.20231 -4.375,8.825 0,3.6212 1.7189,6.81402 4.375,8.825 z m -6.375,-22.6 c 3.3925,-3.19594 7.9293,-5.27511 12.9249,-5.3 l 6.5501,0 c 9.6943,0 17.4499,-7.85358 17.4499,-17.55 0,-0.32015 -0.01,-0.63662 -0.025,-0.95 -4.6581,5.80361 -11.7937,9.59557 -19.7751,9.625 l -6.5499,0 c -6.1382,0 -11.025,4.93535 -11.025,11.075 0.05,1.08964 0.1927,2.19702 0.45,3.1 z m 2,-20.05 c 1.3729,-0.69984 2.8405,-1.25412 4.375,-1.625 l 0,-12.35 c -2.7382,2.82392 -4.375,6.67079 -4.375,11.175 l 0,2.8 z m 12.375,-2.125 2.6499,0 c 1.7703,0 3.4933,-0.28483 5.1,-0.775 l 0,-16.05 c -0.8568,-0.10586 -1.7492,-0.175 -2.6499,-0.175 -1.7917,0 -3.4953,0.21562 -5.1,0.625 l 0,16.375 z m 15.7499,-5.95 c 1.3268,-1.50573 2.3986,-3.23522 3.1501,-5.125 -0.9101,-1.07844 -1.9661,-2.01891 -3.1501,-2.825 l 0,7.95 z"
       id="path3483"
       inkscape:connector-curvature="0" /><path
       sodipodi:nodetypes="cccccccccccccccccccccccccccc"
       inkscape:connector-curvature="0"
       id="path3507"
       d="m 2502.125,355.822 0,-8 24.125,0 0,-7.675 -24.125,-0.075 0,-8 24.125,0 0,-52.25 8,0 0,52.25 11.125,0 0,-0.125 0,-52.125 8,0 0,52.125 24.75,0 0,23.875 z m 32.125,-8 11.125,0 0,-7.675 -11.125,0 z m 19.125,0 16.75,0 0,-7.875 -16.75,0 z"
       style="font-size:medium;font-style:normal;font-variant:normal;font-weight:normal;font-stretch:normal;text-indent:0;text-align:start;text-decoration:none;line-height:normal;letter-spacing:normal;word-spacing:normal;text-transform:none;direction:ltr;block-progression:tb;writing-mode:lr-tb;text-anchor:start;baseline-shift:baseline;color:#000000;fill:#231f20;fill-opacity:1;stroke:none;stroke-width:8;marker:none;visibility:visible;display:inline;overflow:visible;enable-background:accumulate;font-family:Sans;-inkscape-font-specification:Sans" /><path
       sodipodi:nodetypes="ccccccccccccc"
       inkscape:connector-curvature="0"
       id="path3519"
       d="m 100.225,360.197 -46.225,-80 9.25,0 36.975,64 34.95,-60.5 -13.5,0 -21.45,37.125 -23.475,-40.625 9.25,0 14.225,24.625 16.65,-29.125 32.525,0 z"
       style="font-size:medium;font-style:normal;font-variant:normal;font-weight:normal;font-stretch:normal;text-indent:0;text-align:start;text-decoration:none;line-height:normal;letter-spacing:normal;word-spacing:normal;text-transform:none;direction:ltr;block-progression:tb;writing-mode:lr-tb;text-anchor:start;baseline-shift:baseline;color:#000000;fill:#231f20;fill-opacity:1;stroke:none;stroke-width:8;marker:none;visibility:visible;display:inline;overflow:visible;enable-background:accumulate;font-family:Sans;-inkscape-font-specification:Sans" /><g
       id="g3551"
       transform="translate(2523.9707,65.9375)"><path
         style="font-size:medium;font-style:normal;font-variant:normal;font-weight:normal;font-stretch:normal;text-indent:0;text-align:start;text-decoration:none;line-height:normal;letter-spacing:normal;word-spacing:normal;text-transform:none;direction:ltr;block-progression:tb;writing-mode:lr-tb;text-anchor:start;baseline-shift:baseline;color:#000000;fill:#231f20;fill-opacity:1;stroke:none;stroke-width:8;marker:none;visibility:visible;display:inline;overflow:visible;enable-background:accumulate;font-family:Sans;-inkscape-font-specification:Sans"
         d="m -89.4375,-5.125 c -7.575169,0 -14.70354,2.1091536 -20.75,5.78125 l -4.34375,2.65625 56.65625,56.65625 2.65625,-4.34375 c 3.674033,-6.046708 5.78125,-13.175611 5.78125,-20.75 0,-22.044579 -17.955421,-40 -40,-40 z M -4,0 l 0,44.90625 -5.59375,-5.59375 -28.75,0 L 4,81.65625 4,64.21875 21.4375,81.65625 21.4375,0 l -8,0 0,62.3125 L 4,52.90625 4,0 z m -85.4375,2.875 c 17.721421,0 32,14.278579 32,32 0,4.218151 -0.869368,8.200414 -2.34375,11.875 L -101.3125,5.21875 C -97.637433,3.7439429 -93.65511,2.875 -89.4375,2.875 z m -32.53125,8.125 -2.5625,4.6875 c -3.11696,5.692761 -4.90625,12.252123 -4.90625,19.1875 0,22.044847 17.9572,40 40,40 6.934524,0 13.492284,-1.78805 19.1875,-4.90625 l 4.6875,-2.5625 z m 2.375,13.71875 40.3125,40.3125 c -3.207752,1.082626 -6.570034,1.84375 -10.15625,1.84375 -17.7192,0 -32,-14.278847 -32,-32 0,-3.585667 0.76081,-6.948876 1.84375,-10.15625 z m 100.53125,22.59375 6.125,0 L -4,56.25 l 0,6.0625 z"
         id="path3553"
         inkscape:connector-curvature="0"
         sodipodi:nodetypes="sccccsscccccccccccccssccsccsscccccsscccccc" /></g><g
       id="g3555"
       transform="translate(3192.502,38.0938)"><path
         style="font-size:medium;font-style:normal;font-variant:normal;font-weight:normal;font-stretch:normal;text-indent:0;text-align:start;text-decoration:none;line-height:normal;letter-spacing:normal;word-spacing:normal;text-transform:none;direction:ltr;block-progression:tb;writing-mode:lr-tb;text-anchor:start;baseline-shift:baseline;color:#000000;fill:#231f20;fill-opacity:1;stroke:none;stroke-width:8;marker:none;visibility:visible;display:inline;overflow:visible;enable-background:accumulate;font-family:Sans;-inkscape-font-specification:Sans"
         d="m 3984.5625,355.46875 0,26.875 41.6563,0 -41,65.3125 11.75,0 41,-65.3125 11.4062,0 -41.5938,65.3125 11.8438,0 47.9688,-75.3125 -23.3438,0 10.625,-16.875 z m 10,10 42.25,0 -4.3437,6.875 -37.9063,0 z"
         transform="matrix(0.8,0,0,-0.8,-3192.502,387.1032)"
         id="path3557"
         inkscape:connector-curvature="0"
         sodipodi:nodetypes="cccccccccccccccccc" /></g><g
       id="g3561"
       transform="translate(3330.2568,130.0625)"><path
         style="font-size:medium;font-style:normal;font-variant:normal;font-weight:normal;font-stretch:normal;text-indent:0;text-align:start;text-decoration:none;line-height:normal;letter-spacing:normal;word-spacing:normal;text-transform:none;direction:ltr;block-progression:tb;writing-mode:lr-tb;text-anchor:start;baseline-shift:baseline;color:#000000;fill:#231f20;fill-opacity:1;stroke:none;stroke-width:8;marker:none;visibility:visible;display:inline;overflow:visible;enable-background:accumulate;font-family:Sans;-inkscape-font-specification:Sans"
         d="m -7.90625,-69.5625 -11.3125,1.8125 c -13.946966,2.205691 -24.59375,14.291816 -24.59375,28.8125 0,3.828174 0.871908,7.45317 2.21875,10.8125 -1.346955,3.35999 -2.21875,6.984326 -2.21875,10.8125 0,16.0779239 13.10854,29.1875 29.1875,29.1875 8.5026336,0 16.1967931,-3.674699 21.53125,-9.5 l 7.75,-8.4375 L 3.34375,-4.25 C 2.2580407,-4.0768916 1.138642,-4 0,-4 c -11.75504,0 -21.1875,-9.433424 -21.1875,-21.1875 0,-3.262671 0.723641,-6.341465 2.03125,-9.09375 l 0.8125,-1.71875 -0.8125,-1.71875 c -1.30788,-2.752856 -2.03125,-5.831079 -2.03125,-9.09375 0,-5.538584 2.10444,-10.533406 5.5625,-14.3125 l 7.71875,-8.4375 z m -19.8125,14 c -0.880829,2.783158 -1.46875,5.686082 -1.46875,8.75 0,3.828174 0.871908,7.45317 2.21875,10.8125 -1.346955,3.35999 -2.21875,6.984326 -2.21875,10.8125 0,13.274739 8.987565,24.38374101 21.15625,27.90625 -2.085285,0.6864852 -4.268253,1.15625 -6.59375,1.15625 -11.75504,0 -21.1875,-9.4334239 -21.1875,-21.1875 0,-3.262671 0.723641,-6.341465 2.03125,-9.09375 l 0.8125,-1.71875 -0.8125,-1.71875 c -1.30788,-2.752856 -2.03125,-5.831079 -2.03125,-9.09375 0,-6.781965 3.172702,-12.751934 8.09375,-16.625 z"
         id="path3563"
         inkscape:connector-curvature="0" /></g><g
       id="g3565"
       transform="translate(3324.3857,94.209)"><path
         style="font-size:medium;font-style:normal;font-variant:normal;font-weight:normal;font-stretch:normal;text-indent:0;text-align:start;text-decoration:none;line-height:normal;letter-spacing:normal;word-spacing:normal;text-transform:none;direction:ltr;block-progression:tb;writing-mode:lr-tb;text-anchor:start;baseline-shift:baseline;color:#000000;fill:#231f20;fill-opacity:1;stroke:none;stroke-width:8;marker:none;visibility:visible;display:inline;overflow:visible;enable-background:accumulate;font-family:Sans;-inkscape-font-specification:Sans"
         d="m 6.78125,-25.21875 c -8.6228944,0 -15.71875,7.064193 -15.71875,15.6875 0,3.5893935 1.2985447,6.8776017 3.34375,9.53125 -2.0451832,2.6530411 -3.34375,5.9418565 -3.34375,9.53125 0,8.623307 7.0954428,15.6875 15.71875,15.6875 8.623973,0 15.6875,-7.064193 15.6875,-15.6875 0,-3.5881688 -1.26924,-6.8790896 -3.3125,-9.53125 2.043282,-2.6527673 3.3125,-5.9430812 3.3125,-9.53125 0,-8.623307 -7.06394,-15.6875 -15.6875,-15.6875 z m 0,8 c 4.30044,0 7.6875,3.388807 7.6875,7.6875 0,2.613526 -1.281508,4.8792448 -3.25,6.28125 L 6.78125,-0.09375 2.3125,-3.25 c -1.96891858,-1.4018383 -3.25,-3.6670463 -3.25,-6.28125 0,-4.298693 3.4196444,-7.6875 7.71875,-7.6875 z m 0,17.3125 4.4375,3.15625 c 1.96946,1.4026944 3.25,3.667724 3.25,6.28125 0,4.298693 -3.387473,7.6875 -7.6875,7.6875 -4.2986928,0 -7.71875,-3.388807 -7.71875,-7.6875 0,-2.6142037 1.2801136,-4.8787226 3.25,-6.28125 L 6.78125,0.09375 z"
         id="path3567"
         inkscape:connector-curvature="0" /></g><g
       id="g3569"
       transform="translate(2883.4082,115.4375)"><path
         style="font-size:medium;font-style:normal;font-variant:normal;font-weight:normal;font-stretch:normal;text-indent:0;text-align:start;text-decoration:none;line-height:normal;letter-spacing:normal;word-spacing:normal;text-transform:none;direction:ltr;block-progression:tb;writing-mode:lr-tb;text-anchor:start;baseline-shift:baseline;color:#000000;fill:#231f20;fill-opacity:1;stroke:none;stroke-width:8;marker:none;visibility:visible;display:inline;overflow:visible;enable-background:accumulate;font-family:Sans;-inkscape-font-specification:Sans"
         d="m 3609.25,345.40625 -81.5625,83.34375 71.5625,0 0,21.71875 10,0 0,-21.71875 18.9062,0 0,-10 -18.9062,0 z m -10,24.53125 0,15.21875 -32.9062,33.59375 -14.9063,0 z m 0,29.53125 0,19.28125 -18.875,0 18.5938,-19 z"
         transform="matrix(0.8,0,0,-0.8,-2883.4082,309.7595)"
         id="path3571"
         inkscape:connector-curvature="0"
         sodipodi:nodetypes="cccccccccccccccccccc" /></g><g
       id="g3573"
       transform="translate(2883.4082,139.0625)" /><g
       id="g3577"
       transform="translate(2902.5332,86.1875)" /></g></svg>