<?xml version="1.0" standalone="no"?>
<!DOCTYPE svg PUBLIC "-//W3C//DTD SVG 1.1//EN" "http://www.w3.org/Graphics/SVG/1.1/DTD/svg11.dtd" >
<svg xmlns="http://www.w3.org/2000/svg">
<metadata></metadata>
<defs>
<font id="KurtzRegularRegular" horiz-adv-x="1024" >
<font-face units-per-em="2048" ascent="1536" descent="-512" />
<missing-glyph horiz-adv-x="376" />
<glyph horiz-adv-x="0" />
<glyph horiz-adv-x="2048" />
<glyph unicode=" "  horiz-adv-x="376" />
<glyph unicode="&#x09;" horiz-adv-x="376" />
<glyph unicode="&#xa0;" horiz-adv-x="376" />
<glyph unicode="!" horiz-adv-x="311" d="M102 47q0 21 16 36t38 15t37.5 -14.5t15.5 -36.5q0 -23 -15.5 -38t-37.5 -15t-38 15t-16 38zM102 207v764q0 23 16 38t38 15t37.5 -15t15.5 -38v-764q0 -22 -15.5 -37.5t-37.5 -15.5t-38 15.5t-16 37.5z" />
<glyph unicode="&#x22;" horiz-adv-x="448" d="M102 846v131q0 20 15 34t37 13q20 -1 34.5 -17t14.5 -36v-131q0 -22 -14.5 -35.5t-36.5 -11.5q-22 0 -35 16q-15 15 -15 37zM246 846v131q0 21 15 34.5t36 12.5q20 -1 34.5 -17t14.5 -36v-131q0 -22 -14.5 -35.5t-36.5 -11.5q-22 0 -35 16q-14 17 -14 37z" />
<glyph unicode="#" />
<glyph unicode="$" d="M307 203q0 22 14.5 36.5t36.5 14.5t37 -14.5t15 -36.5q0 -43 30.5 -74t73.5 -31q41 0 70.5 29.5t31.5 71.5l-51 77v-69q0 -22 -14.5 -37.5t-36.5 -15.5q-23 0 -38 15.5t-15 37.5v235l-131 205q-11 17 -6.5 38.5t22.5 31.5q19 11 39.5 6t30.5 -23l45 -67v272 q-51 -30 -51 -90q0 -21 -15 -36t-37 -15q-21 0 -36 15t-15 36q0 71 43.5 126.5t110.5 72.5v30q0 22 15 38t38 16q21 0 36 -16t15 -38v-30q67 -17 110.5 -72.5t43.5 -126.5q0 -21 -15 -36t-36 -15q-22 0 -37 15t-15 36q0 60 -51 90v-375v-2v-61l146 -227q8 -13 8 -33v-4 q0 -70 -43.5 -126t-110.5 -73v-35q0 -23 -14.5 -38t-36.5 -15q-23 0 -38 15t-15 38v35q-67 17 -110.5 72.5t-43.5 126.5z" />
<glyph unicode="%" />
<glyph unicode="&#x26;" horiz-adv-x="817" d="M51 209v4v6v451q0 20 14.5 34.5t36.5 14.5h512q22 0 37 -14.5t15 -34.5q0 -22 -15 -37t-37 -15h-153v-399q0 -1 -1 -3t-1 -3q2 -2 2 -4q0 -43 29.5 -73t72.5 -30q42 0 72.5 30.5t30.5 72.5q0 22 14.5 36.5t34.5 14.5q22 0 36.5 -14.5t14.5 -36.5q0 -85 -59 -145t-144 -60 q-90 0 -153 70q-67 -70 -154 -70q-85 0 -145 60t-60 145zM51 817q0 85 60 145t145 60t144 -60t59 -145q0 -22 -14.5 -36.5t-36.5 -14.5q-20 0 -35 15t-15 36q0 43 -30 73t-72 30q-43 0 -72.5 -30t-29.5 -73q0 -21 -15.5 -36t-36.5 -15q-22 0 -36.5 14.5t-14.5 36.5zM152 213 q2 0 2 -4q0 -43 29.5 -73t72.5 -30q42 0 72 30t30 73v8v2v399h-204v-399q0 -4 -2 -6z" />
<glyph unicode="(" horiz-adv-x="462" d="M102 207v229q0 22 15 36.5t37 14.5t36.5 -14.5t14.5 -36.5v-229q0 -43 30.5 -73t73.5 -30q20 0 35.5 -15.5t15.5 -35.5q0 -21 -15 -36t-36 -15q-86 0 -146.5 60t-60.5 145zM102 592v229q0 85 60.5 145t146.5 60q21 0 36 -15t15 -36t-15 -36t-36 -15q-43 0 -73.5 -30 t-30.5 -73v-229q0 -22 -14.5 -36.5t-36.5 -14.5t-37 14.5t-15 36.5z" />
<glyph unicode=")" horiz-adv-x="462" d="M102 53q0 21 15 36t37 15q43 0 73.5 30t30.5 73v229q0 22 14.5 36.5t36.5 14.5q21 0 36 -15t15 -36v-229q-2 -85 -62 -145t-144 -60q-22 0 -37 14.5t-15 36.5zM102 975q0 22 15 36.5t37 14.5q84 0 144 -60t62 -145v-229q0 -21 -15 -36t-36 -15q-22 0 -36.5 14.5 t-14.5 36.5v229q0 43 -30.5 73t-73.5 30q-22 0 -37 14.5t-15 36.5z" />
<glyph unicode="*" horiz-adv-x="331" d="M23 909q6 17 22 25.5t33 3.5l43 -14v49q0 19 12 31t31 12t32 -12t13 -31v-49l45 14q17 5 33 -3.5t22 -25.5q5 -19 -3 -35t-25 -20l-41 -14l28 -29q12 -12 12 -30.5t-12 -30.5q-16 -13 -32 -13q-18 0 -31 13l-41 41l-39 -41q-16 -13 -33 -13q-18 0 -31 13q-12 12 -12 30.5 t12 30.5l29 31l-39 12q-17 5 -25.5 20.5t-2.5 34.5z" />
<glyph unicode="+" horiz-adv-x="743" d="M51 319q0 19 13 32.5t32 15.5h230v227q0 19 13 33t32 14t32 -13.5t13 -33.5l2 -275v-98v-176q0 -19 -13.5 -32t-33.5 -13q-19 0 -32 13t-13 32v176v53h-230q-19 0 -32 13t-13 32zM436 319q0 20 13.5 34t33.5 14h162q20 0 33.5 -14t13.5 -34q0 -19 -13.5 -32t-33.5 -13 h-162q-20 0 -33.5 13t-13.5 32z" />
<glyph unicode="," horiz-adv-x="274" d="M37 -20q0 22 14.5 36.5t36.5 14.5q10 0 16 6q7 7 7 16q0 22 14.5 36.5t36.5 14.5t36.5 -14.5t14.5 -34.5q0 -50 -37 -90q-38 -35 -88 -35q-22 0 -36.5 15t-14.5 35z" />
<glyph unicode="-" horiz-adv-x="604" d="M51 510q0 21 15 36t36 15h400q22 0 36.5 -14.5t14.5 -36.5q0 -8 -4 -16q-11 -35 -47 -35h-400q-21 0 -36 15t-15 36z" />
<glyph unicode="." horiz-adv-x="145" d="M20 53q0 22 15.5 36.5t38.5 14.5q22 0 36.5 -14.5t14.5 -36.5q0 -23 -14.5 -38t-36.5 -15q-23 0 -38.5 15t-15.5 38z" />
<glyph unicode="/" horiz-adv-x="512" d="M53 66l307 923q7 20 26.5 29.5t39.5 3.5q20 -7 29.5 -26.5t3.5 -39.5l-307 -923q-14 -35 -50 -35l-8 2l-8 2q-20 6 -29.5 25t-3.5 39z" />
<glyph unicode="0" horiz-adv-x="514" d="M51 205v4v4v463q0 22 14.5 36.5t36.5 14.5t37 -14.5t15 -36.5v-463v-4v-4q0 -43 30.5 -74t71.5 -31q43 0 73.5 31t30.5 74v4v4v463q0 22 15 36.5t37 14.5q21 0 36 -15t15 -36v-463q0 -2 -2 -4l2 -4q0 -86 -60.5 -146.5t-146.5 -60.5q-85 0 -145 60.5t-60 146.5zM51 817 q0 85 60 145t145 60q86 0 146.5 -60t60.5 -145q0 -21 -15 -36t-36 -15q-22 0 -37 14.5t-15 36.5q0 41 -31 72t-73 31q-41 0 -71.5 -31t-30.5 -72q0 -22 -15 -36.5t-37 -14.5t-36.5 14.5t-14.5 36.5z" />
<glyph unicode="1" horiz-adv-x="327" d="M36.5 866q-1.5 22 12.5 39l82 96v3l2 2q2 0 2 2l2 2q1 0 2 1t2 1l2 2q2 0 2 2h5l2 2h2q2 0 2 2h2h2h4h2q0 2 4 2t4 -2h2h4h4l2 -2h2q2 0 2 -2h3h2l4 -4q1 0 2 -1t2 -1q0 -1 1 -2t1 -2h2q1 -1 3 -3.5t3 -3.5v-2q0 -2 2 -2v-2l2 -2v-2q2 -2 2 -4v-4v-2q2 0 2 -4v-4v-920 q0 -22 -14.5 -36.5t-36.5 -14.5t-36.5 14.5t-14.5 36.5v780q-14 -11 -32 -11t-32 11q-17 13 -18.5 35z" />
<glyph unicode="2" horiz-adv-x="520" d="M51 41v14v2v4q2 0 2 5q0 1 1 3t1 3l256 612q7 20 27 28.5t41 0.5q20 -9 28.5 -28.5t0.5 -39.5l-228 -543h234q22 0 36.5 -14.5t14.5 -36.5t-14.5 -36.5t-36.5 -14.5h-312h-4h-2h-4q-2 0 -2 2h-2q-6 2 -14 6l-2 2h-2q0 1 -1 2t-1 2h-2q0 2 -3 2v2l-2 2l-2 3v2l-2 2v2l-2 2 v2q-2 0 -2 4q0 2 -2 4zM55 813q0 86 60.5 146.5t146.5 60.5t146.5 -60.5t60.5 -146.5q0 -22 -14.5 -36.5t-36.5 -14.5t-36.5 14.5t-14.5 36.5q0 43 -31 74t-74 31t-73.5 -31t-30.5 -74q0 -22 -15 -36.5t-37 -14.5t-36.5 14.5t-14.5 36.5z" />
<glyph unicode="3" horiz-adv-x="512" d="M51 49q0 20 14.5 34.5t36.5 14.5q106 0 181 76t75 182t-75 182t-181 76q-22 0 -36.5 15t-14.5 35v2v2q0 20 14.5 34.5t36.5 14.5q41 0 71 30.5t30 71.5t-30 72t-71 31q-22 0 -36.5 14.5t-14.5 34.5q0 22 14.5 36.5t36.5 14.5q84 0 143.5 -59.5t59.5 -143.5 q0 -79 -55 -137q95 -43 153 -131t58 -195q0 -148 -105.5 -253t-253.5 -105q-22 0 -36.5 14.5t-14.5 36.5z" />
<glyph unicode="4" horiz-adv-x="593" d="M51 322v2q0 13 6 22l316 649q0 2 2 2v2l2 2q0 3 2 3v2q2 0 2 2q2 0 2 2h2q0 2 2 2v2q1 0 2 1t2 1l2 2h2q0 2 2 2h2l2 2h2h3l2 2h4h2h2h2h2h4h2h2h2q1 0 2 -1t2 -1h2h2l2 -2h2l2 -2q2 0 2 -2h3l2 -2l2 -2q2 0 2 -2h2q0 -1 1 -2t1 -2l2 -2l2 -3q0 -2 2 -2v-4l2 -2v-2v-2 l2 -2v-2v-2q0 -2 2 -4v-2v-2v-2v-598h21q22 0 36.5 -14.5t14.5 -36.5t-14.5 -37t-36.5 -15h-21v-219q0 -22 -14.5 -36.5t-36.5 -14.5t-36.5 14.5t-14.5 36.5v699l-185 -377h76q22 0 36.5 -14.5t14.5 -36.5t-14.5 -37t-36.5 -15h-158q-20 0 -35 14t-16 36z" />
<glyph unicode="5" horiz-adv-x="514" d="M51 207q0 22 14.5 36.5t36.5 14.5t37 -14.5t15 -36.5q0 -43 30.5 -74t71.5 -31q43 0 73.5 31t30.5 74v4v6v248q0 43 -30.5 72.5t-73.5 29.5h-117q-21 0 -36 15t-15 36q0 22 15 37t36 15h117q86 0 146.5 -60t60.5 -145v-248q0 -4 -2 -6q2 0 2 -4q0 -86 -60.5 -146.5 t-146.5 -60.5q-85 0 -145 60.5t-60 146.5zM88 778v197q0 20 15.5 35.5t35.5 15.5h273q20 0 35.5 -15.5t15.5 -35.5q0 -21 -15 -36t-36 -15h-222v-146q0 -21 -15 -36t-36 -15q-20 0 -35.5 15.5t-15.5 35.5z" />
<glyph unicode="6" horiz-adv-x="514" d="M51 203v6v4v463q0 22 14.5 36.5t36.5 14.5t37 -14.5t15 -36.5v-37q50 29 104 29q85 0 145 -60.5t60 -146.5v-248v-4v-6q0 -85 -60 -145t-145 -60q-86 0 -146.5 60t-60.5 145zM51 817q0 86 60.5 146.5t146.5 60.5q85 0 145 -61t60 -146q0 -22 -14.5 -36.5t-36.5 -14.5 t-37 14.5t-15 36.5q0 43 -30.5 74t-71.5 31q-43 0 -73.5 -31t-30.5 -74q0 -22 -15 -36.5t-37 -14.5t-36.5 14.5t-14.5 36.5zM154 203q0 -43 30.5 -73t73.5 -30q42 0 72 30t30 73v6v4v248q0 43 -30.5 73.5t-71.5 30.5q-43 0 -73.5 -30.5t-30.5 -73.5v-248v-4v-6z" />
<glyph unicode="7" horiz-adv-x="507" d="M53 63l254 771q7 20 26.5 29t41.5 3q20 -7 29.5 -26t3.5 -39l-254 -770q-6 -17 -20 -27t-30 -10q-8 0 -16 4q-21 6 -31 25t-4 40zM76 973q0 22 15.5 37.5t37.5 15.5h277q22 0 36.5 -15.5t14.5 -37.5t-14.5 -36.5t-36.5 -14.5h-277q-22 0 -37.5 14.5t-15.5 36.5z" />
<glyph unicode="8" horiz-adv-x="514" d="M51 205v4v6v246q0 35 12 69q8 20 27 29t39 2q20 -8 29 -26.5t2 -38.5q-6 -15 -6 -35v-246v-6v-4q0 -43 30.5 -74t71.5 -31q43 0 73.5 31t30.5 74v4v6v246q0 43 -30.5 73.5t-73.5 30.5q-87 0 -150 88q-52 74 -55 156v8q0 85 60 145t145 60q84 0 145 -61q60 -60 60 -138 q2 -2 2 -8q0 -49 -25 -94q-13 -29 -45 -29q-13 0 -22 6q-20 10 -26 30.5t3 39.5q8 12 12 43v6q0 42 -30 72q-28 31 -74 31q-40 0 -70.5 -29t-31.5 -70v-6q0 -48 32.5 -97.5t69.5 -49.5q86 0 146.5 -60.5t60.5 -146.5v-246v-6v-4q0 -86 -60.5 -146.5t-146.5 -60.5 q-85 0 -145 60.5t-60 146.5z" />
<glyph unicode="9" horiz-adv-x="512" d="M51 205q0 22 14.5 36.5t36.5 14.5t37 -14.5t15 -36.5q0 -43 29.5 -73t72.5 -30t72.5 30t29.5 73q0 22 15 36.5t37 14.5t36.5 -14.5t14.5 -36.5q0 -85 -60 -145t-145 -60t-145 60t-60 145zM51 559v246v6v4q0 85 60 145t145 60t145 -60t60 -145v-4v-6v-461q0 -21 -15 -36 t-36 -15q-22 0 -37 15.5t-15 35.5v37q-52 -27 -102 -27q-85 0 -145 60t-60 145zM154 559q0 -43 29.5 -72.5t72.5 -29.5t72.5 29.5t29.5 72.5v246v6v4q0 43 -29.5 73t-72.5 30t-72.5 -30t-29.5 -73v-4v-6v-246z" />
<glyph unicode=":" horiz-adv-x="188" d="M41 53q0 22 15 36.5t38 14.5q22 0 36.5 -14.5t14.5 -36.5q0 -23 -14.5 -38t-36.5 -15q-23 0 -38 15t-15 38zM41 369q0 22 15 37.5t38 15.5q22 0 36.5 -15.5t14.5 -37.5t-15 -38t-36 -16q-23 0 -38 16t-15 38z" />
<glyph unicode=";" horiz-adv-x="274" d="M37 -20q0 22 14.5 36.5t36.5 14.5q10 0 16 6q7 7 7 16q0 22 14.5 36.5t36.5 14.5t36.5 -14.5t14.5 -34.5q0 -50 -37 -90q-38 -35 -88 -35q-22 0 -36.5 15t-14.5 35zM106 369q0 22 16 37.5t38 15.5t37.5 -15.5t15.5 -37.5t-15.5 -38t-37.5 -16t-38 16t-16 38z" />
<glyph unicode="&#x3c;" />
<glyph unicode="=" horiz-adv-x="602" d="M51 383q0 22 14.5 36.5t36.5 14.5h398q21 0 36 -15t15 -36q0 -12 -2 -16q-5 -15 -18.5 -25t-30.5 -10h-398q-22 0 -36.5 14.5t-14.5 36.5zM51 635q0 22 14.5 36.5t36.5 14.5h398q22 0 36.5 -14.5t14.5 -36.5q0 -11 -2 -17q-5 -15 -18.5 -24.5t-30.5 -9.5h-398 q-22 0 -36.5 14.5t-14.5 36.5z" />
<glyph unicode="&#x3e;" />
<glyph unicode="?" horiz-adv-x="606" d="M102 819q0 83 59 142t142 59t142 -59t59 -142q0 -63 -45 -107t-107 -44q-20 0 -33.5 -13t-13.5 -32v-414q0 -23 -15 -38t-38 -15q-22 0 -36.5 15t-14.5 38v414q0 63 44 107t107 44q19 0 32 13t13 32q0 39 -27.5 66.5t-66.5 27.5q-40 0 -67 -27t-27 -67q0 -22 -15.5 -37.5 t-37.5 -15.5t-38 15.5t-16 37.5zM197 51q0 22 15.5 36.5t37.5 14.5t37.5 -14.5t15.5 -36.5q0 -23 -15.5 -38t-37.5 -15t-37.5 15t-15.5 38z" />
<glyph unicode="@" horiz-adv-x="1236" d="M164 299v406q0 19 13 32t32 13q20 0 33.5 -13t13.5 -32v-406q0 -151 106 -258t256 -107q19 0 32.5 -13t13.5 -32q0 -20 -13.5 -33.5t-32.5 -13.5q-123 0 -227.5 61t-165.5 166.5t-61 229.5zM164 838q0 124 61 228.5t165.5 165t227.5 60.5q189 0 322 -132.5t133 -321.5 q0 -19 -13 -32t-32 -13t-33 13t-14 32q0 151 -106 257.5t-257 106.5t-256.5 -106.5t-105.5 -257.5q0 -19 -13.5 -32t-33.5 -13q-19 0 -32 13t-13 32zM428 152v553q0 19 13.5 32t33.5 13h125q19 0 32 -13t13 -32t-13 -32.5t-32 -13.5h-80v-507q0 -20 -13 -34t-32 -14 q-20 0 -33.5 14t-13.5 34zM428 838q0 76 54.5 130t129.5 54q77 0 131 -54t54 -130v-4v-5v-530q0 -38 27 -65t65 -27t65 27t27 65v406q0 19 14 32t33 13t32 -13t13 -32v-406v-2q0 -75 -54 -128.5t-130 -53.5q-75 0 -128.5 53.5t-55.5 128.5v2v406v124q0 3 2 5l-2 4 q0 38 -27.5 65t-65.5 27t-65 -27t-27 -65q0 -19 -13 -32t-32 -13q-20 0 -33.5 13t-13.5 32z" />
<glyph unicode="A" horiz-adv-x="552" d="M63 55v617q0 20 15 34.5t37 14.5h139q22 0 36.5 -14.5t14.5 -34.5q0 -22 -14.5 -36.5t-36.5 -14.5h-88v-566q0 -21 -15 -36t-36 -15t-36.5 15t-15.5 36zM63 819q0 85 60 145t145 60t145 -60t60 -145v-764q0 -21 -15 -36t-36 -15t-36 15t-15 36v764q0 43 -30 73t-73 30 t-72.5 -30t-29.5 -73q0 -22 -14.5 -36.5t-36.5 -14.5t-37 14.5t-15 36.5z" />
<glyph unicode="B" horiz-adv-x="626" d="M39 74v901q0 20 14.5 34.5t34.5 14.5q22 0 36.5 -14.5t14.5 -34.5v-901q0 -22 -14.5 -36.5t-36.5 -14.5q-20 0 -34.5 14.5t-14.5 36.5zM190 57q0 22 15 37t35 15q106 0 181 75t75 181q0 104 -75 178.5t-181 74.5q-20 0 -35 15t-15 37v2q0 21 14.5 35t35.5 14 q41 0 71.5 30.5t30.5 71.5t-30.5 71t-71.5 30q-20 0 -35 15t-15 36q0 20 15 34.5t35 14.5q83 0 141.5 -59t58.5 -142q0 -80 -51 -137q92 -42 149.5 -129t57.5 -192q0 -148 -104 -252.5t-252 -104.5q-20 0 -35 14.5t-15 34.5z" />
<glyph unicode="C" horiz-adv-x="495" d="M37 209v471q0 22 14.5 36.5t36.5 14.5t36.5 -14.5t14.5 -36.5v-471q0 -42 30.5 -72.5t72.5 -30.5t72 30.5t30 72.5q0 22 14.5 36.5t36.5 14.5t36.5 -14.5t14.5 -36.5q0 -85 -59.5 -145t-144.5 -60t-145 60t-60 145zM37 819q0 85 60 145t145 60t144.5 -60t59.5 -145 q0 -22 -14.5 -36.5t-36.5 -14.5t-36.5 14.5t-14.5 36.5q0 43 -29.5 73t-72.5 30t-73 -30t-30 -73q0 -22 -14.5 -36.5t-36.5 -14.5t-36.5 14.5t-14.5 36.5z" />
<glyph unicode="D" horiz-adv-x="530" d="M61 57v916q0 22 15 36.5t37 14.5q21 0 36 -15t15 -36v-916q0 -20 -15.5 -34.5t-35.5 -14.5q-22 0 -37 14.5t-15 34.5zM215 57q0 22 14.5 37t36.5 15q42 0 72.5 30t30.5 72v608q0 42 -30.5 72.5t-72.5 30.5q-21 0 -36 15t-15 36q0 22 14.5 36.5t36.5 14.5q85 0 144 -60 t59 -145v-608q0 -85 -59 -145t-144 -60q-22 0 -36.5 14.5t-14.5 36.5z" />
<glyph unicode="E" horiz-adv-x="507" d="M61 209v463q0 20 15 34.5t37 14.5h204q22 0 37 -14.5t15 -34.5q0 -22 -15 -36.5t-37 -14.5h-153v-412q0 -43 29.5 -73t72.5 -30t73 30t30 73q0 22 14.5 36.5t36.5 14.5t36.5 -14.5t14.5 -36.5q0 -85 -60 -145t-145 -60t-145 60t-60 145zM61 819q0 85 60 145t145 60 t145 -60t60 -145q0 -22 -14.5 -36.5t-36.5 -14.5t-36.5 14.5t-14.5 36.5q0 43 -30 73t-73 30t-72.5 -30t-29.5 -73q0 -22 -14.5 -36.5t-36.5 -14.5t-37 14.5t-15 36.5z" />
<glyph unicode="F" horiz-adv-x="522" d="M78 53v617q0 22 14.5 36.5t36.5 14.5h205q22 0 36.5 -14.5t14.5 -36.5q0 -20 -14.5 -34.5t-36.5 -14.5h-154v-568q0 -20 -14.5 -34.5t-36.5 -14.5t-36.5 14.5t-14.5 34.5zM78 819q0 85 60 145t145 60t144.5 -60t59.5 -145q0 -22 -14.5 -36.5t-36.5 -14.5t-36.5 14.5 t-14.5 36.5q0 43 -29.5 73t-72.5 30t-73 -30t-30 -73q0 -22 -14.5 -36.5t-36.5 -14.5t-36.5 14.5t-14.5 36.5z" />
<glyph unicode="G" horiz-adv-x="479" d="M39 215v467q0 22 14.5 36.5t36.5 14.5q20 0 34.5 -14.5t14.5 -36.5v-467q0 -41 31 -71.5t72 -30.5t70.5 29t31.5 69q-2 4 -2 14v92h-80q-22 0 -36.5 15t-14.5 37q0 20 14.5 34.5t36.5 14.5h131q20 0 34.5 -14.5t14.5 -34.5v-140q2 -4 2 -14q0 -85 -58.5 -144t-143.5 -59 t-144 59t-59 144zM39 821q0 85 59 144t144 59t143.5 -59t58.5 -144q0 -22 -14.5 -36.5t-34.5 -14.5q-22 0 -36.5 14.5t-14.5 36.5q0 42 -30 72.5t-72 30.5q-41 0 -72 -31t-31 -72q0 -22 -14.5 -36.5t-34.5 -14.5q-22 0 -36.5 14.5t-14.5 36.5z" />
<glyph unicode="H" horiz-adv-x="489" d="M37 57v916q0 22 14.5 36.5t36.5 14.5t36.5 -14.5t14.5 -36.5v-916q0 -20 -14.5 -34.5t-36.5 -14.5t-36.5 14.5t-14.5 34.5zM195 657q0 22 14.5 37t34.5 15h100v264q0 22 14.5 36.5t36.5 14.5t36.5 -14.5t14.5 -36.5v-303q0 -2 1.5 -6.5t1.5 -6.5t-1.5 -6t-1.5 -6v-588 q0 -20 -14.5 -34.5t-36.5 -14.5t-36.5 14.5t-14.5 34.5v549h-100q-20 0 -34.5 14.5t-14.5 36.5z" />
<glyph unicode="I" horiz-adv-x="286" d="M82 61v611q0 22 14.5 36.5t36.5 14.5t36.5 -14.5t14.5 -36.5v-611q0 -21 -15 -36t-36 -15t-36 15t-15 36zM82 840v133q0 22 14.5 36.5t36.5 14.5t36.5 -14.5t14.5 -36.5v-133q0 -22 -14.5 -37t-36.5 -15t-36.5 15t-14.5 37z" />
<glyph unicode="J" horiz-adv-x="393" d="M25 82q6 20 24.5 30.5t38.5 4.5q10 -4 31 -4q43 0 72.5 29.5t29.5 72.5v457q0 22 14.5 36.5t36.5 14.5t37 -14.5t15 -36.5v-457q0 -85 -60 -145t-145 -60q-36 0 -60 8q-20 6 -30 25q-6 12 -6 24q0 7 2 15zM221 840v133q0 22 14.5 36.5t36.5 14.5t37 -14.5t15 -36.5v-133 q0 -22 -15 -37t-37 -15t-36.5 15t-14.5 37z" />
<glyph unicode="K" horiz-adv-x="462" d="M63 59v914q0 20 15 34.5t37 14.5q20 0 34.5 -14.5t14.5 -34.5v-914q0 -20 -14.5 -34.5t-34.5 -14.5q-22 0 -37 14.5t-15 34.5zM201 682l94 305q7 21 25 31q12 7 24 6q7 0 14 -2q20 -6 30.5 -23.5t4.5 -37.5l-92 -297h2l148 -592q2 -7 2 -13q0 -15 -8 -27q-11 -18 -31 -22 q-4 -2 -13 -2q-17 0 -30.5 11t-18.5 28l-147 592q-2 4 -2 12q-3 9 -3 19q0 6 1 12z" />
<glyph unicode="L" horiz-adv-x="299" d="M78 193v780q0 22 14.5 36.5t36.5 14.5t37.5 -14.5t15.5 -36.5v-780q0 -63 51 -91q17 -12 22 -32q2 -7 2 -13q0 -13 -7 -26q-16 -25 -45 -25q-15 0 -27 6q-47 29 -73.5 77t-26.5 104z" />
<glyph unicode="M" horiz-adv-x="532" d="M55 57v916q0 34 33 49q9 3 18 3q22 0 39 -19l191 -230q14 -15 12.5 -36.5t-18.5 -34.5t-37.5 -11t-34.5 17l-100 120v-774q0 -22 -15 -36.5t-37 -14.5t-36.5 14.5t-14.5 36.5zM317 875q0 19 13 32l80 99h2q0 2 2 4q1 0 2 1t2 1v2h2l4 4h2q1 0 2 1t2 1h2q0 2 2 2h4 q2 0 2 2h21v-2h6l2 -2h2l2 -2h2l2 -2h2q0 -1 1 -2t1 -2h2l2 -2q1 -1 3.5 -4.5t3.5 -4.5q2 -2 2 -4h2v-4h2v-6q2 0 2 -4v-6q2 -2 2 -4v-916q0 -21 -15 -36t-36 -15q-22 0 -37 14.5t-15 36.5v777q-13 -9 -31.5 -8.5t-31.5 10.5q-19 15 -19 39z" />
<glyph unicode="N" horiz-adv-x="561" d="M59 57v916q0 34 33 49q10 3 19 3q23 0 39 -19l190 -230q14 -15 12.5 -36.5t-18.5 -34.5t-37.5 -11t-34.5 17l-100 120v-774q0 -22 -14.5 -36.5t-36.5 -14.5t-37 14.5t-15 36.5zM403 57v916q0 22 15 36.5t37 14.5q21 0 36 -15t15 -36v-916q0 -21 -15 -36t-36 -15 q-22 0 -37 14.5t-15 36.5z" />
<glyph unicode="O" horiz-adv-x="526" d="M61 209v471q0 22 15 36.5t37 14.5t36.5 -14.5t14.5 -36.5v-471q0 -42 30 -72.5t72 -30.5t72.5 30.5t30.5 72.5v471q0 22 14.5 36.5t36.5 14.5t36.5 -14.5t14.5 -36.5v-471q0 -85 -60 -144t-145 -59t-145 59t-60 144zM61 819q0 85 60 145t145 60t145 -60t60 -145 q0 -22 -14.5 -36.5t-36.5 -14.5t-36.5 14.5t-14.5 36.5q0 43 -30 73t-73 30t-72.5 -30t-29.5 -73q0 -22 -14.5 -36.5t-36.5 -14.5t-37 14.5t-15 36.5z" />
<glyph unicode="P" horiz-adv-x="516" d="M61 51v922q0 22 15 36.5t37 14.5t36.5 -14.5t14.5 -36.5v-922q0 -22 -14.5 -36.5t-36.5 -14.5t-37 14.5t-15 36.5zM217 664q0 22 14.5 36.5t36.5 14.5q41 0 72 30.5t31 71.5q0 43 -31 74t-72 31q-22 0 -36.5 14.5t-14.5 36.5t14.5 36.5t36.5 14.5q85 0 145 -60.5 t60 -146.5q0 -85 -60 -145t-145 -60q-22 0 -36.5 15t-14.5 37z" />
<glyph unicode="Q" horiz-adv-x="516" d="M45 207v471q0 22 14.5 36.5t36.5 14.5t36.5 -14.5t14.5 -36.5v-471q0 -60 52 -90l2 63q0 20 14.5 35.5t34.5 15.5h2q20 0 34.5 -15.5t14.5 -35.5v-63q53 31 53 90v471q0 22 15 36.5t37 14.5q20 0 34.5 -14.5t14.5 -36.5v-471q0 -71 -43.5 -126.5t-110.5 -72.5v-63 q0 -20 -14.5 -34.5t-36.5 -14.5t-36.5 14.5t-14.5 36.5v61q-67 17 -110.5 72.5t-43.5 126.5zM45 819q0 85 60 145t145 60q86 0 145.5 -60t59.5 -145q0 -22 -14.5 -36.5t-34.5 -14.5q-22 0 -37 14.5t-15 36.5q0 43 -30.5 73t-73.5 30t-73 -30t-30 -73q0 -22 -14.5 -36.5 t-36.5 -14.5t-36.5 14.5t-14.5 36.5z" />
<glyph unicode="R" horiz-adv-x="489" d="M37 53v920q0 22 14.5 36.5t36.5 14.5t36.5 -14.5t14.5 -36.5v-920q0 -22 -14.5 -36.5t-36.5 -14.5t-36.5 14.5t-14.5 36.5zM190 973q0 21 15.5 36t36.5 15q86 0 146.5 -60t60.5 -145q0 -68 -40.5 -121.5t-103.5 -74.5l135 -560q5 -20 -6 -38.5t-31 -22.5q-4 -2 -12 -2 q-18 0 -32 11t-17 28l-149 612q-5 21 4.5 38.5t29.5 23.5q2 0 2 2h13q43 0 73.5 30.5t30.5 73.5t-30.5 73t-73.5 30q-21 0 -36.5 15t-15.5 36z" />
<glyph unicode="S" horiz-adv-x="481" d="M29 211q0 22 14.5 36.5t36.5 14.5q21 0 36 -15t15 -36q0 -43 29.5 -72.5t72.5 -29.5q41 0 71.5 28.5t31.5 69.5l-285 444q-11 19 -6 39.5t23 30.5q17 12 37 7.5t32 -21.5l291 -459q9 -11 9 -24q0 -4 -1 -7v-6q0 -85 -59 -145t-144 -60t-144.5 60t-59.5 145zM29 819 q0 85 59.5 145t144.5 60t144 -60t59 -145q0 -20 -14.5 -34.5t-34.5 -14.5q-22 0 -36.5 14.5t-14.5 34.5q0 42 -30.5 72.5t-72.5 30.5q-43 0 -72.5 -30t-29.5 -73q0 -20 -15.5 -34.5t-35.5 -14.5q-22 0 -36.5 14.5t-14.5 34.5z" />
<glyph unicode="T" horiz-adv-x="376" d="M37 973q0 22 14.5 36.5t36.5 14.5h209q22 0 36.5 -14.5t14.5 -36.5t-14.5 -36.5t-36.5 -14.5h-209q-22 0 -36.5 14.5t-14.5 36.5zM141 51v774q0 22 15 37t37 15t36.5 -15t14.5 -37v-774q0 -21 -15 -36t-36 -15t-36.5 15t-15.5 36z" />
<glyph unicode="U" horiz-adv-x="516" d="M41 190v783q0 22 14.5 36.5t36.5 14.5t37.5 -14.5t15.5 -36.5v-783q0 -58 52 -90q18 -10 22.5 -31t-6.5 -40q-16 -25 -45 -25q-16 0 -27 8q-47 28 -73.5 75t-26.5 103zM281 69q5 21 24 31q51 33 51 90v783q0 22 15 36.5t37 14.5t36.5 -14.5t14.5 -36.5v-783 q0 -56 -27 -103t-74 -75q-11 -8 -26 -8q-29 0 -45 25q-8 13 -8 27q0 6 2 13z" />
<glyph unicode="V" horiz-adv-x="550" d="M47 948q-2 8 -2 15q0 15 9 31q13 22 38 26q7 1 13 1q17 0 33 -10q22 -14 26 -38l135 -643l135 643q4 24 26 38q16 10 33 10q6 0 13 -1q25 -4 38 -26q9 -15 9 -31q0 -8 -2 -15l-189 -899q-4 -23 -22 -37q-14 -11 -33 -11q-4 0 -8 1q-4 -1 -8 -1q-19 -1 -33 11 q-18 14 -22 37z" />
<glyph unicode="W" horiz-adv-x="583" d="M68 57v916q0 22 14.5 36.5t36.5 14.5t36.5 -14.5t14.5 -36.5v-776l100 120q13 17 34 19t38 -10q17 -13 18.5 -35t-12.5 -37l-190 -229q-18 -20 -40 -20q-8 0 -18 3q-32 14 -32 49zM348 195q14 11 32 11t32 -11v778q0 22 14.5 36.5t36.5 14.5q21 0 36 -15t15 -36v-916 q0 -1 -1 -3t-1 -3v-4v-2q0 -2 -2 -2v-2v-4h-2v-4q-2 0 -2 -2l-2 -2q-3 -6 -6 -9l-2 -2l-2 -2q-2 0 -2 -2h-3l-2 -2h-2l-2 -2h-2l-2 -2h-2q-2 0 -4 -2h-6h-4h-2h-2h-2h-4h-2l-2 2h-3q-2 0 -2 2h-2q-2 0 -4 2h-2l-2 2h-2q0 2 -2 2v2q-2 0 -4 2t-2 5h-2l-80 98q-13 14 -13 33 q0 25 19 39z" />
<glyph unicode="X" horiz-adv-x="485" d="M41 78l147 436l-147 442q-2 8 -2 15q-1 13 5 25q10 20 30 26q8 2 15 2q11 0 23 -6q18 -10 25 -29l307 -917q2 -8 2 -16q0 -12 -5 -24q-9 -18 -29 -24q-6 -2 -17 -2q-37 0 -49 35l-104 313l-105 -309q-4 -16 -17.5 -25.5t-29.5 -9.5q-10 0 -16 2q-20 6 -30 25q-6 12 -5 24 q0 8 2 17zM264 739l82 250q6 19 26 29q12 6 25 6q8 0 15 -2q20 -6 29 -26q5 -12 5 -24q0 -8 -2 -16l-84 -249q-14 -35 -49 -35q-10 0 -16 2q-20 8 -29 26q-5 10 -5 22q0 8 3 17z" />
<glyph unicode="Y" horiz-adv-x="557" d="M50 980q3 22 20 34q14 10 31 10h7q21 -3 33 -20l115 -154q12 -17 9.5 -37.5t-19.5 -32.5q-13 -10 -31 -10q-26 0 -41 21l-115 151q-10 14 -10 30q0 4 1 8zM240 57v650q0 15 10 28l190 269q12 17 34 20h7q17 0 31 -10q17 -12 20 -32q1 -5 1 -10q0 -15 -9 -28l-182 -254 v-633q0 -22 -14.5 -36.5t-36.5 -14.5t-36.5 14.5t-14.5 36.5z" />
<glyph unicode="Z" horiz-adv-x="415" d="M18 76l256 766q7 20 26.5 29t39.5 3t30 -24q6 -11 5 -24q0 -8 -2 -17l-236 -705h162q22 0 36.5 -14.5t14.5 -36.5t-14.5 -36.5t-36.5 -14.5h-207q-13 0 -22 6h-2q-11 0 -17 2q-19 6 -29 26q-6 12 -6 24q0 8 2 16zM41 973q0 22 14.5 36.5t36.5 14.5h207q22 0 36.5 -14.5 t14.5 -36.5t-14.5 -36.5t-36.5 -14.5h-207q-22 0 -36.5 14.5t-14.5 36.5z" />
<glyph unicode="[" />
<glyph unicode="\" horiz-adv-x="512" d="M53 956q-6 20 3.5 39.5t29.5 26.5q20 6 39.5 -3.5t26.5 -29.5l307 -923q6 -20 -3.5 -39t-29.5 -25q-8 -4 -16 -4q-15 0 -29.5 10t-20.5 25z" />
<glyph unicode="]" />
<glyph unicode="^" horiz-adv-x="352" d="M51 1110q0 51 37 88t88 37q52 0 88.5 -36.5t36.5 -88.5q0 -22 -14.5 -36.5t-34.5 -14.5q-22 0 -36.5 14.5t-14.5 36.5q0 9 -7.5 17t-17.5 8q-12 0 -16 -9q-6 -6 -6 -16q0 -22 -15 -36.5t-37 -14.5t-36.5 14.5t-14.5 36.5z" />
<glyph unicode="_" horiz-adv-x="602" d="M51 53q0 22 14.5 36.5t36.5 14.5h398q22 0 36.5 -14.5t14.5 -36.5q0 -10 -2 -16q-5 -15 -18.5 -25t-30.5 -10h-398q-22 0 -36.5 14.5t-14.5 36.5z" />
<glyph unicode="`" horiz-adv-x="301" d="M416 1203q0 21 14 36q15 15 36 15t36 -15l94 -94q14 -13 14 -35t-14 -35q-16 -16 -37 -16q-22 0 -35 16l-94 92q-14 15 -14 36z" />
<glyph unicode="a" horiz-adv-x="552" d="M63 55v617q0 20 15 34.5t37 14.5h139q22 0 36.5 -14.5t14.5 -34.5q0 -22 -14.5 -36.5t-36.5 -14.5h-88v-566q0 -21 -15 -36t-36 -15t-36.5 15t-15.5 36zM63 819q0 85 60 145t145 60t145 -60t60 -145v-764q0 -21 -15 -36t-36 -15t-36 15t-15 36v764q0 43 -30 73t-73 30 t-72.5 -30t-29.5 -73q0 -22 -14.5 -36.5t-36.5 -14.5t-37 14.5t-15 36.5z" />
<glyph unicode="b" horiz-adv-x="626" d="M39 74v901q0 20 14.5 34.5t34.5 14.5q22 0 36.5 -14.5t14.5 -34.5v-901q0 -22 -14.5 -36.5t-36.5 -14.5q-20 0 -34.5 14.5t-14.5 36.5zM190 57q0 22 15 37t35 15q106 0 181 75t75 181q0 104 -75 178.5t-181 74.5q-20 0 -35 15t-15 37v2q0 21 14.5 35t35.5 14 q41 0 71.5 30.5t30.5 71.5t-30.5 71t-71.5 30q-20 0 -35 15t-15 36q0 20 15 34.5t35 14.5q83 0 141.5 -59t58.5 -142q0 -80 -51 -137q92 -42 149.5 -129t57.5 -192q0 -148 -104 -252.5t-252 -104.5q-20 0 -35 14.5t-15 34.5z" />
<glyph unicode="c" horiz-adv-x="495" d="M37 209v471q0 22 14.5 36.5t36.5 14.5t36.5 -14.5t14.5 -36.5v-471q0 -42 30.5 -72.5t72.5 -30.5t72 30.5t30 72.5q0 22 14.5 36.5t36.5 14.5t36.5 -14.5t14.5 -36.5q0 -85 -59.5 -145t-144.5 -60t-145 60t-60 145zM37 819q0 85 60 145t145 60t144.5 -60t59.5 -145 q0 -22 -14.5 -36.5t-36.5 -14.5t-36.5 14.5t-14.5 36.5q0 43 -29.5 73t-72.5 30t-73 -30t-30 -73q0 -22 -14.5 -36.5t-36.5 -14.5t-36.5 14.5t-14.5 36.5z" />
<glyph unicode="d" horiz-adv-x="530" d="M61 57v916q0 22 15 36.5t37 14.5q21 0 36 -15t15 -36v-916q0 -20 -15.5 -34.5t-35.5 -14.5q-22 0 -37 14.5t-15 34.5zM215 57q0 22 14.5 37t36.5 15q42 0 72.5 30t30.5 72v608q0 42 -30.5 72.5t-72.5 30.5q-21 0 -36 15t-15 36q0 22 14.5 36.5t36.5 14.5q85 0 144 -60 t59 -145v-608q0 -85 -59 -145t-144 -60q-22 0 -36.5 14.5t-14.5 36.5z" />
<glyph unicode="e" horiz-adv-x="507" d="M61 209v463q0 20 15 34.5t37 14.5h204q22 0 37 -14.5t15 -34.5q0 -22 -15 -36.5t-37 -14.5h-153v-412q0 -43 29.5 -73t72.5 -30t73 30t30 73q0 22 14.5 36.5t36.5 14.5t36.5 -14.5t14.5 -36.5q0 -85 -60 -145t-145 -60t-145 60t-60 145zM61 819q0 85 60 145t145 60 t145 -60t60 -145q0 -22 -14.5 -36.5t-36.5 -14.5t-36.5 14.5t-14.5 36.5q0 43 -30 73t-73 30t-72.5 -30t-29.5 -73q0 -22 -14.5 -36.5t-36.5 -14.5t-37 14.5t-15 36.5z" />
<glyph unicode="f" horiz-adv-x="522" d="M78 53v617q0 22 14.5 36.5t36.5 14.5h205q22 0 36.5 -14.5t14.5 -36.5q0 -20 -14.5 -34.5t-36.5 -14.5h-154v-568q0 -20 -14.5 -34.5t-36.5 -14.5t-36.5 14.5t-14.5 34.5zM78 819q0 85 60 145t145 60t144.5 -60t59.5 -145q0 -22 -14.5 -36.5t-36.5 -14.5t-36.5 14.5 t-14.5 36.5q0 43 -29.5 73t-72.5 30t-73 -30t-30 -73q0 -22 -14.5 -36.5t-36.5 -14.5t-36.5 14.5t-14.5 36.5z" />
<glyph unicode="g" horiz-adv-x="479" d="M39 215v467q0 22 14.5 36.5t36.5 14.5q20 0 34.5 -14.5t14.5 -36.5v-467q0 -41 31 -71.5t72 -30.5t70.5 29t31.5 69q-2 4 -2 14v92h-80q-22 0 -36.5 15t-14.5 37q0 20 14.5 34.5t36.5 14.5h131q20 0 34.5 -14.5t14.5 -34.5v-140q2 -4 2 -14q0 -85 -58.5 -144t-143.5 -59 t-144 59t-59 144zM39 821q0 85 59 144t144 59t143.5 -59t58.5 -144q0 -22 -14.5 -36.5t-34.5 -14.5q-22 0 -36.5 14.5t-14.5 36.5q0 42 -30 72.5t-72 30.5q-41 0 -72 -31t-31 -72q0 -22 -14.5 -36.5t-34.5 -14.5q-22 0 -36.5 14.5t-14.5 36.5z" />
<glyph unicode="h" horiz-adv-x="489" d="M37 57v916q0 22 14.5 36.5t36.5 14.5t36.5 -14.5t14.5 -36.5v-916q0 -20 -14.5 -34.5t-36.5 -14.5t-36.5 14.5t-14.5 34.5zM195 657q0 22 14.5 37t34.5 15h100v264q0 22 14.5 36.5t36.5 14.5t36.5 -14.5t14.5 -36.5v-303q0 -2 1.5 -6.5t1.5 -6.5t-1.5 -6t-1.5 -6v-588 q0 -20 -14.5 -34.5t-36.5 -14.5t-36.5 14.5t-14.5 34.5v549h-100q-20 0 -34.5 14.5t-14.5 36.5z" />
<glyph unicode="i" horiz-adv-x="286" d="M82 61v611q0 22 14.5 36.5t36.5 14.5t36.5 -14.5t14.5 -36.5v-611q0 -21 -15 -36t-36 -15t-36 15t-15 36zM82 840v133q0 22 14.5 36.5t36.5 14.5t36.5 -14.5t14.5 -36.5v-133q0 -22 -14.5 -37t-36.5 -15t-36.5 15t-14.5 37z" />
<glyph unicode="j" horiz-adv-x="393" d="M25 82q6 20 24.5 30.5t38.5 4.5q10 -4 31 -4q43 0 72.5 29.5t29.5 72.5v457q0 22 14.5 36.5t36.5 14.5t37 -14.5t15 -36.5v-457q0 -85 -60 -145t-145 -60q-36 0 -60 8q-20 6 -30 25q-6 12 -6 24q0 7 2 15zM221 840v133q0 22 14.5 36.5t36.5 14.5t37 -14.5t15 -36.5v-133 q0 -22 -15 -37t-37 -15t-36.5 15t-14.5 37z" />
<glyph unicode="k" horiz-adv-x="462" d="M63 59v914q0 20 15 34.5t37 14.5q20 0 34.5 -14.5t14.5 -34.5v-914q0 -20 -14.5 -34.5t-34.5 -14.5q-22 0 -37 14.5t-15 34.5zM201 682l94 305q7 21 25 31q12 7 24 6q7 0 14 -2q20 -6 30.5 -23.5t4.5 -37.5l-92 -297h2l148 -592q2 -7 2 -13q0 -15 -8 -27q-11 -18 -31 -22 q-4 -2 -13 -2q-17 0 -30.5 11t-18.5 28l-147 592q-2 4 -2 12q-3 9 -3 19q0 6 1 12z" />
<glyph unicode="l" horiz-adv-x="299" d="M78 193v780q0 22 14.5 36.5t36.5 14.5t37.5 -14.5t15.5 -36.5v-780q0 -63 51 -91q17 -12 22 -32q2 -7 2 -13q0 -13 -7 -26q-16 -25 -45 -25q-15 0 -27 6q-47 29 -73.5 77t-26.5 104z" />
<glyph unicode="m" horiz-adv-x="532" d="M55 57v916q0 34 33 49q9 3 18 3q22 0 39 -19l191 -230q14 -15 12.5 -36.5t-18.5 -34.5t-37.5 -11t-34.5 17l-100 120v-774q0 -22 -15 -36.5t-37 -14.5t-36.5 14.5t-14.5 36.5zM317 875q0 19 13 32l80 99h2q0 2 2 4q1 0 2 1t2 1v2h2l4 4h2q1 0 2 1t2 1h2q0 2 2 2h4 q2 0 2 2h21v-2h6l2 -2h2l2 -2h2l2 -2h2q0 -1 1 -2t1 -2h2l2 -2q1 -1 3.5 -4.5t3.5 -4.5q2 -2 2 -4h2v-4h2v-6q2 0 2 -4v-6q2 -2 2 -4v-916q0 -21 -15 -36t-36 -15q-22 0 -37 14.5t-15 36.5v777q-13 -9 -31.5 -8.5t-31.5 10.5q-19 15 -19 39z" />
<glyph unicode="n" horiz-adv-x="561" d="M59 57v916q0 34 33 49q10 3 19 3q23 0 39 -19l190 -230q14 -15 12.5 -36.5t-18.5 -34.5t-37.5 -11t-34.5 17l-100 120v-774q0 -22 -14.5 -36.5t-36.5 -14.5t-37 14.5t-15 36.5zM403 57v916q0 22 15 36.5t37 14.5q21 0 36 -15t15 -36v-916q0 -21 -15 -36t-36 -15 q-22 0 -37 14.5t-15 36.5z" />
<glyph unicode="o" horiz-adv-x="526" d="M61 209v471q0 22 15 36.5t37 14.5t36.5 -14.5t14.5 -36.5v-471q0 -42 30 -72.5t72 -30.5t72.5 30.5t30.5 72.5v471q0 22 14.5 36.5t36.5 14.5t36.5 -14.5t14.5 -36.5v-471q0 -85 -60 -144t-145 -59t-145 59t-60 144zM61 819q0 85 60 145t145 60t145 -60t60 -145 q0 -22 -14.5 -36.5t-36.5 -14.5t-36.5 14.5t-14.5 36.5q0 43 -30 73t-73 30t-72.5 -30t-29.5 -73q0 -22 -14.5 -36.5t-36.5 -14.5t-37 14.5t-15 36.5z" />
<glyph unicode="p" horiz-adv-x="516" d="M61 51v922q0 22 15 36.5t37 14.5t36.5 -14.5t14.5 -36.5v-922q0 -22 -14.5 -36.5t-36.5 -14.5t-37 14.5t-15 36.5zM217 664q0 22 14.5 36.5t36.5 14.5q41 0 72 30.5t31 71.5q0 43 -31 74t-72 31q-22 0 -36.5 14.5t-14.5 36.5t14.5 36.5t36.5 14.5q85 0 145 -60.5 t60 -146.5q0 -85 -60 -145t-145 -60q-22 0 -36.5 15t-14.5 37z" />
<glyph unicode="q" horiz-adv-x="516" d="M45 207v471q0 22 14.5 36.5t36.5 14.5t36.5 -14.5t14.5 -36.5v-471q0 -60 52 -90l2 63q0 20 14.5 35.5t34.5 15.5h2q20 0 34.5 -15.5t14.5 -35.5v-63q53 31 53 90v471q0 22 15 36.5t37 14.5q20 0 34.5 -14.5t14.5 -36.5v-471q0 -71 -43.5 -126.5t-110.5 -72.5v-63 q0 -20 -14.5 -34.5t-36.5 -14.5t-36.5 14.5t-14.5 36.5v61q-67 17 -110.5 72.5t-43.5 126.5zM45 819q0 85 60 145t145 60q86 0 145.5 -60t59.5 -145q0 -22 -14.5 -36.5t-34.5 -14.5q-22 0 -37 14.5t-15 36.5q0 43 -30.5 73t-73.5 30t-73 -30t-30 -73q0 -22 -14.5 -36.5 t-36.5 -14.5t-36.5 14.5t-14.5 36.5z" />
<glyph unicode="r" horiz-adv-x="489" d="M37 53v920q0 22 14.5 36.5t36.5 14.5t36.5 -14.5t14.5 -36.5v-920q0 -22 -14.5 -36.5t-36.5 -14.5t-36.5 14.5t-14.5 36.5zM190 973q0 21 15.5 36t36.5 15q86 0 146.5 -60t60.5 -145q0 -68 -40.5 -121.5t-103.5 -74.5l135 -560q5 -20 -6 -38.5t-31 -22.5q-4 -2 -12 -2 q-18 0 -32 11t-17 28l-149 612q-5 21 4.5 38.5t29.5 23.5q2 0 2 2h13q43 0 73.5 30.5t30.5 73.5t-30.5 73t-73.5 30q-21 0 -36.5 15t-15.5 36z" />
<glyph unicode="s" horiz-adv-x="481" d="M29 211q0 22 14.5 36.5t36.5 14.5q21 0 36 -15t15 -36q0 -43 29.5 -72.5t72.5 -29.5q41 0 71.5 28.5t31.5 69.5l-285 444q-11 19 -6 39.5t23 30.5q17 12 37 7.5t32 -21.5l291 -459q9 -11 9 -24q0 -4 -1 -7v-6q0 -85 -59 -145t-144 -60t-144.5 60t-59.5 145zM29 819 q0 85 59.5 145t144.5 60t144 -60t59 -145q0 -20 -14.5 -34.5t-34.5 -14.5q-22 0 -36.5 14.5t-14.5 34.5q0 42 -30.5 72.5t-72.5 30.5q-43 0 -72.5 -30t-29.5 -73q0 -20 -15.5 -34.5t-35.5 -14.5q-22 0 -36.5 14.5t-14.5 34.5z" />
<glyph unicode="t" horiz-adv-x="376" d="M37 973q0 22 14.5 36.5t36.5 14.5h209q22 0 36.5 -14.5t14.5 -36.5t-14.5 -36.5t-36.5 -14.5h-209q-22 0 -36.5 14.5t-14.5 36.5zM141 51v774q0 22 15 37t37 15t36.5 -15t14.5 -37v-774q0 -21 -15 -36t-36 -15t-36.5 15t-15.5 36z" />
<glyph unicode="u" horiz-adv-x="516" d="M41 190v783q0 22 14.5 36.5t36.5 14.5t37.5 -14.5t15.5 -36.5v-783q0 -58 52 -90q18 -10 22.5 -31t-6.5 -40q-16 -25 -45 -25q-16 0 -27 8q-47 28 -73.5 75t-26.5 103zM281 69q5 21 24 31q51 33 51 90v783q0 22 15 36.5t37 14.5t36.5 -14.5t14.5 -36.5v-783 q0 -56 -27 -103t-74 -75q-11 -8 -26 -8q-29 0 -45 25q-8 13 -8 27q0 6 2 13z" />
<glyph unicode="v" horiz-adv-x="550" d="M47 948q-2 8 -2 15q0 15 9 31q13 22 38 26q7 1 13 1q17 0 33 -10q22 -14 26 -38l135 -643l135 643q4 24 26 38q16 10 33 10q6 0 13 -1q25 -4 38 -26q9 -15 9 -31q0 -8 -2 -15l-189 -899q-4 -23 -22 -37q-14 -11 -33 -11q-4 0 -8 1q-4 -1 -8 -1q-19 -1 -33 11 q-18 14 -22 37z" />
<glyph unicode="w" horiz-adv-x="583" d="M68 57v916q0 22 14.5 36.5t36.5 14.5t36.5 -14.5t14.5 -36.5v-776l100 120q13 17 34 19t38 -10q17 -13 18.5 -35t-12.5 -37l-190 -229q-18 -20 -40 -20q-8 0 -18 3q-32 14 -32 49zM348 195q14 11 32 11t32 -11v778q0 22 14.5 36.5t36.5 14.5q21 0 36 -15t15 -36v-916 q0 -1 -1 -3t-1 -3v-4v-2q0 -2 -2 -2v-2v-4h-2v-4q-2 0 -2 -2l-2 -2q-3 -6 -6 -9l-2 -2l-2 -2q-2 0 -2 -2h-3l-2 -2h-2l-2 -2h-2l-2 -2h-2q-2 0 -4 -2h-6h-4h-2h-2h-2h-4h-2l-2 2h-3q-2 0 -2 2h-2q-2 0 -4 2h-2l-2 2h-2q0 2 -2 2v2q-2 0 -4 2t-2 5h-2l-80 98q-13 14 -13 33 q0 25 19 39z" />
<glyph unicode="x" horiz-adv-x="485" d="M41 78l147 436l-147 442q-2 8 -2 15q-1 13 5 25q10 20 30 26q8 2 15 2q11 0 23 -6q18 -10 25 -29l307 -917q2 -8 2 -16q0 -12 -5 -24q-9 -18 -29 -24q-6 -2 -17 -2q-37 0 -49 35l-104 313l-105 -309q-4 -16 -17.5 -25.5t-29.5 -9.5q-10 0 -16 2q-20 6 -30 25q-6 12 -5 24 q0 8 2 17zM264 739l82 250q6 19 26 29q12 6 25 6q8 0 15 -2q20 -6 29 -26q5 -12 5 -24q0 -8 -2 -16l-84 -249q-14 -35 -49 -35q-10 0 -16 2q-20 8 -29 26q-5 10 -5 22q0 8 3 17z" />
<glyph unicode="y" horiz-adv-x="581" d="M50 980q3 22 20 34q14 10 31 10h7q21 -3 33 -20l115 -154q12 -17 9.5 -37.5t-19.5 -32.5q-13 -10 -31 -10q-26 0 -41 21l-115 151q-10 14 -10 30q0 4 1 8zM240 57v650q0 15 10 28l190 269q12 17 34 20h7q17 0 31 -10q17 -12 20 -32q1 -5 1 -10q0 -15 -9 -28l-182 -254 v-633q0 -22 -14.5 -36.5t-36.5 -14.5t-36.5 14.5t-14.5 36.5z" />
<glyph unicode="z" horiz-adv-x="415" d="M18 76l256 766q7 20 26.5 29t39.5 3t30 -24q6 -11 5 -24q0 -8 -2 -17l-236 -705h162q22 0 36.5 -14.5t14.5 -36.5t-14.5 -36.5t-36.5 -14.5h-207q-13 0 -22 6h-2q-11 0 -17 2q-19 6 -29 26q-6 12 -6 24q0 8 2 16zM41 973q0 22 14.5 36.5t36.5 14.5h207q22 0 36.5 -14.5 t14.5 -36.5t-14.5 -36.5t-36.5 -14.5h-207q-22 0 -36.5 14.5t-14.5 36.5z" />
<glyph unicode="{" />
<glyph unicode="|" horiz-adv-x="206" d="M51 969q0 22 14.5 36.5t36.5 14.5t37 -14.5t15 -36.5l2 -918q0 -21 -15.5 -36t-36.5 -15q-3 0 -8.5 1t-7.5 1q-35 14 -35 49z" />
<glyph unicode="}" />
<glyph unicode="~" d="M322 475q0 52 36 88q37 37 88 37q73 0 109 -61l2 -2q9 -13 21 -13q9 0 15.5 8t6.5 17q0 22 14.5 36.5t36.5 14.5t36.5 -14.5t14.5 -36.5q0 -52 -36.5 -88.5t-87.5 -36.5q-74 0 -111 63q-7 13 -21 13q-8 0 -16 -8q-6 -6 -6 -17q0 -22 -14.5 -36.5t-36.5 -14.5t-36.5 14.5 t-14.5 36.5z" />
<glyph unicode="&#xa1;" horiz-adv-x="208" d="M51 47v764q0 22 15.5 37.5t37.5 15.5t38 -15.5t16 -37.5v-764q0 -23 -16 -38t-38 -15t-37.5 15t-15.5 38zM51 971q0 23 15.5 38t37.5 15t38 -15t16 -38q0 -21 -16 -36t-38 -15t-37.5 14.5t-15.5 36.5z" />
<glyph unicode="&#xa2;" d="M303 80l21 65q-7 28 -7 52v6v4v459q0 20 15 34.5t35 14.5q22 0 36.5 -14.5t14.5 -34.5v-238l155 463q-22 14 -53 14q-43 0 -72.5 -29.5t-29.5 -72.5q0 -20 -14.5 -34.5t-36.5 -14.5q-20 0 -35 14.5t-15 34.5q0 85 59 145t144 60q44 0 84 -19l2 2q6 20 25 29.5t39 3.5 q20 -7 29 -26.5t3 -39.5l-14 -40q35 -50 35 -115q0 -20 -14.5 -34.5t-34.5 -14.5q-23 0 -37 14l-207 -621q31 -53 90 -53q41 0 72 31t31 72q0 22 14.5 36.5t36.5 14.5q20 0 34.5 -14.5t14.5 -36.5q0 -84 -59.5 -143.5t-143.5 -59.5q-73 0 -127 45q-13 -25 -43 -25 q-10 0 -16 2q-20 7 -29.5 26t-1.5 38z" />
<glyph unicode="&#xa3;" />
<glyph unicode="&#xa4;" />
<glyph unicode="&#xa5;" />
<glyph unicode="&#xa6;" />
<glyph unicode="&#xa7;" />
<glyph unicode="&#xa8;" horiz-adv-x="518" d="M227 1147q0 22 15 36.5t37 14.5t36.5 -14.5t14.5 -36.5q0 -20 -14.5 -34.5t-36.5 -14.5t-37 14.5t-15 34.5zM369 1147q0 22 14.5 36.5t36.5 14.5q20 0 34.5 -14.5t14.5 -36.5q0 -20 -14.5 -34.5t-34.5 -14.5q-22 0 -36.5 14.5t-14.5 34.5z" />
<glyph unicode="&#xa9;" />
<glyph unicode="&#xaa;" />
<glyph unicode="&#xab;" horiz-adv-x="348" d="M51 846v131q0 21 15 34.5t36 12.5q20 -2 35 -17.5t15 -35.5v-131q0 -22 -15 -35.5t-37 -11.5q-18 0 -34 16q-15 19 -15 37zM195 846l2 131q0 20 14.5 34t34.5 13q22 -1 36.5 -17t14.5 -36l-2 -131q0 -22 -14.5 -35.5t-34.5 -11.5q-21 0 -37 16q-14 17 -14 37z" />
<glyph unicode="&#xac;" />
<glyph unicode="&#xad;" horiz-adv-x="604" d="M51 510q0 21 15 36t36 15h400q22 0 36.5 -14.5t14.5 -36.5q0 -8 -4 -16q-11 -35 -47 -35h-400q-21 0 -36 15t-15 36z" />
<glyph unicode="&#xae;" />
<glyph unicode="&#xaf;" horiz-adv-x="352" d="M51 1110q0 51 37 88t88 37q52 0 88.5 -36.5t36.5 -88.5q0 -22 -14.5 -36.5t-34.5 -14.5q-22 0 -36.5 14.5t-14.5 36.5q0 9 -7.5 17t-17.5 8q-12 0 -16 -9q-6 -6 -6 -16q0 -22 -15 -36.5t-37 -14.5t-36.5 14.5t-14.5 36.5z" />
<glyph unicode="&#xb0;" horiz-adv-x="352" d="M51 895q0 51 36.5 88t88.5 37t88.5 -36t36.5 -89t-36.5 -89t-88.5 -36q-54 0 -88 37q-37 34 -37 88zM152 895q0 -12 8 -16q4 -9 16 -9q10 0 17.5 7t7.5 18q0 9 -7.5 17t-17.5 8q-9 0 -16.5 -8t-7.5 -17z" />
<glyph unicode="&#xb1;" />
<glyph unicode="&#xb2;" />
<glyph unicode="&#xb3;" />
<glyph unicode="&#xb4;" horiz-adv-x="296" d="M52 1110q0 22 14 35l94 94q14 15 35 15t36 -15q13 -15 13 -36t-13 -36l-94 -92q-16 -16 -35 -16q-20 0 -36 16q-14 13 -14 35z" />
<glyph unicode="&#xb6;" d="M217 819q0 85 60 145t145 60q22 0 36.5 -14.5t14.5 -36.5q0 -21 -15 -36t-36 -15q-43 0 -73 -30t-30 -73t30 -73.5t73 -30.5q22 0 36.5 -14.5t14.5 -36.5q0 -21 -15 -36.5t-36 -15.5q-85 0 -145 60.5t-60 146.5zM526 51v922q0 37 31 47q6 4 21 4h147q22 0 36.5 -14.5 t14.5 -36.5v-922q0 -21 -15 -36t-36 -15t-36 15t-15 36v871h-45v-871q0 -21 -15 -36t-36 -15q-22 0 -37 15t-15 36z" />
<glyph unicode="&#xb7;" horiz-adv-x="206" d="M51 510q0 22 15 37.5t38 15.5q22 0 37 -15.5t15 -37.5t-15 -37.5t-37 -15.5q-23 0 -38 15.5t-15 37.5z" />
<glyph unicode="&#xb8;" horiz-adv-x="280" d="M51 -88q0 21 15 36t36 15q51 0 91 -37q36 -39 36 -90q0 -52 -37.5 -89.5t-89.5 -37.5q-22 0 -36.5 14.5t-14.5 36.5t14.5 37t36.5 15q9 0 17 7t8 17q0 13 -8 17q-4 8 -17 8q-22 0 -36.5 14.5t-14.5 36.5z" />
<glyph unicode="&#xb9;" />
<glyph unicode="&#xba;" d="M51 895q0 51 36.5 88t88.5 37t88.5 -36t36.5 -89t-36.5 -89t-88.5 -36q-54 0 -88 37q-37 34 -37 88zM152 895q0 -12 8 -16q4 -9 16 -9q10 0 17.5 7t7.5 18q0 9 -7.5 17t-17.5 8q-9 0 -16.5 -8t-7.5 -17z" />
<glyph unicode="&#xbb;" horiz-adv-x="348" d="M51 846v131q0 21 15 34.5t36 12.5q20 -2 35 -17.5t15 -35.5v-131q0 -22 -15 -35.5t-37 -11.5q-18 0 -34 16q-15 19 -15 37zM195 846l2 131q0 20 14.5 34t34.5 13q22 -1 36.5 -17t14.5 -36l-2 -131q0 -22 -14.5 -35.5t-34.5 -11.5q-21 0 -37 16q-14 17 -14 37z" />
<glyph unicode="&#xbc;" />
<glyph unicode="&#xbd;" />
<glyph unicode="&#xbf;" d="M365 199q0 22 15 36.5t38 14.5q22 0 36.5 -14.5t14.5 -36.5q0 -40 28 -68.5t68 -28.5q38 0 66 28.5t28 68.5q0 19 -13.5 32t-33.5 13q-62 0 -106.5 44t-44.5 107v414q0 23 15.5 38t37.5 15t37.5 -15t15.5 -38v-414q0 -19 13 -32t32 -13q63 0 107.5 -44.5t44.5 -106.5 q0 -83 -58.5 -142t-140.5 -59q-83 0 -141.5 59t-58.5 142zM459 967q0 22 15.5 37.5t37.5 15.5t37.5 -15.5t15.5 -37.5t-15.5 -38t-37.5 -16t-37.5 16t-15.5 38z" />
<glyph unicode="&#xc0;" horiz-adv-x="614" d="M102 51v617q0 22 15 36.5t37 14.5h139q22 0 36.5 -14.5t14.5 -36.5t-14.5 -37t-36.5 -15h-88v-565q0 -22 -14.5 -36.5t-36.5 -14.5t-37 14.5t-15 36.5zM102 817q0 85 60 145t145 60q86 0 145.5 -60t59.5 -145v-766q0 -22 -14.5 -36.5t-34.5 -14.5q-22 0 -36.5 14.5 t-14.5 36.5v766q0 41 -31 72t-74 31q-41 0 -71.5 -31t-30.5 -72q0 -22 -14.5 -36.5t-36.5 -14.5t-37 14.5t-15 36.5zM212 1203q0 21 13 36q15 15 36 15t36 -15l94 -94q13 -13 13 -35t-13 -35q-16 -16 -37 -16q-22 0 -35 16l-94 92q-13 15 -13 36z" />
<glyph unicode="&#xc1;" horiz-adv-x="614" d="M102 51v617q0 22 15 36.5t37 14.5h139q22 0 36.5 -14.5t14.5 -36.5t-14.5 -37t-36.5 -15h-88v-565q0 -22 -14.5 -36.5t-36.5 -14.5t-37 14.5t-15 36.5zM102 817q0 85 60 145t145 60q86 0 145.5 -60t59.5 -145v-766q0 -22 -14.5 -36.5t-34.5 -14.5q-22 0 -36.5 14.5 t-14.5 36.5v766q0 41 -31 72t-74 31q-41 0 -71.5 -31t-30.5 -72q0 -22 -14.5 -36.5t-36.5 -14.5t-37 14.5t-15 36.5zM212 1110q0 22 13 35l94 94q13 15 35 15t37 -15q13 -15 13 -36t-13 -36l-94 -92q-16 -16 -35 -16q-21 0 -37 16q-13 13 -13 35z" />
<glyph unicode="&#xc2;" horiz-adv-x="614" d="M102 51v617q0 22 15 36.5t37 14.5h139q22 0 36.5 -14.5t14.5 -36.5t-14.5 -37t-36.5 -15h-88v-565q0 -22 -14.5 -36.5t-36.5 -14.5t-37 14.5t-15 36.5zM102 817q0 85 60 145t145 60q86 0 145.5 -60t59.5 -145v-766q0 -22 -14.5 -36.5t-34.5 -14.5q-22 0 -36.5 14.5 t-14.5 36.5v766q0 41 -31 72t-74 31q-41 0 -71.5 -31t-30.5 -72q0 -22 -14.5 -36.5t-36.5 -14.5t-37 14.5t-15 36.5zM182 1110q0 51 37 88t88 37q53 0 89 -36.5t36 -88.5q0 -22 -14.5 -36.5t-34.5 -14.5q-22 0 -36.5 14.5t-14.5 36.5q0 9 -7.5 17t-17.5 8q-11 0 -16 -9 q-6 -6 -6 -16q0 -22 -15 -36.5t-37 -14.5t-36.5 14.5t-14.5 36.5z" />
<glyph unicode="&#xc3;" horiz-adv-x="614" d="M102 51v617q0 22 15 36.5t37 14.5h139q22 0 36.5 -14.5t14.5 -36.5t-14.5 -37t-36.5 -15h-88v-565q0 -22 -14.5 -36.5t-36.5 -14.5t-37 14.5t-15 36.5zM102 817q0 85 60 145t145 60q86 0 145.5 -60t59.5 -145v-766q0 -22 -14.5 -36.5t-34.5 -14.5q-22 0 -36.5 14.5 t-14.5 36.5v766q0 41 -31 72t-74 31q-41 0 -71.5 -31t-30.5 -72q0 -22 -14.5 -36.5t-36.5 -14.5t-37 14.5t-15 36.5zM119 1110q0 54 37 88q34 37 88 37q70 0 106 -61l2 -3q7 -10 21 -10q9 0 16.5 7t7.5 16q0 22 14.5 36.5t34.5 14.5q22 0 37 -14.5t15 -36.5q0 -51 -37 -88 t-88 -37q-72 0 -109 63q-10 13 -20 13t-19 -9q-6 -6 -6 -16q0 -22 -14.5 -36.5t-36.5 -14.5q-20 0 -34.5 14.5t-14.5 36.5z" />
<glyph unicode="&#xc4;" horiz-adv-x="614" d="M102 51v617q0 22 15 36.5t37 14.5h139q22 0 36.5 -14.5t14.5 -36.5q0 -21 -15 -36.5t-36 -15.5h-88v-565q0 -21 -15 -36t-36 -15q-22 0 -37 14.5t-15 36.5zM102 817q0 85 60 145t145 60t145 -60t60 -145v-766q0 -22 -14.5 -36.5t-36.5 -14.5q-21 0 -36 15t-15 36v766 q0 43 -30 74t-73 31q-42 0 -72 -31t-30 -74q0 -21 -15 -36t-36 -15q-22 0 -37 14.5t-15 36.5zM186 1149q0 22 15 36.5t37 14.5q20 0 34.5 -14.5t14.5 -36.5t-14.5 -36.5t-34.5 -14.5q-22 0 -37 14.5t-15 36.5zM328 1149q0 22 14.5 36.5t34.5 14.5q22 0 36.5 -14.5 t14.5 -36.5t-14.5 -36.5t-36.5 -14.5q-20 0 -34.5 14.5t-14.5 36.5z" />
<glyph unicode="&#xc5;" horiz-adv-x="614" d="M102 51v617q0 22 15 36.5t37 14.5h139q22 0 36.5 -14.5t14.5 -36.5t-14.5 -37t-36.5 -15h-88v-565q0 -22 -14.5 -36.5t-36.5 -14.5t-37 14.5t-15 36.5zM102 817q0 85 60 145t145 60q86 0 145.5 -60t59.5 -145v-766q0 -22 -14.5 -36.5t-34.5 -14.5q-22 0 -36.5 14.5 t-14.5 36.5v766q0 41 -31 72t-74 31q-41 0 -71.5 -31t-30.5 -72q0 -22 -14.5 -36.5t-36.5 -14.5t-37 14.5t-15 36.5zM182 1186q0 52 37 88.5t88 36.5q53 0 89 -36.5t36 -88.5q0 -51 -36.5 -88t-88.5 -37q-48 0 -88 37q-37 40 -37 88zM285 1186q0 -11 6 -17t16 -6t17.5 7 t7.5 16q0 10 -7 17t-18 7q-9 0 -15.5 -7t-6.5 -17z" />
<glyph unicode="&#xc6;" d="M154 51v617q0 22 14.5 36.5t36.5 14.5h139q22 0 36.5 -14.5t14.5 -36.5t-14.5 -37t-36.5 -15h-88v-565q0 -22 -14.5 -36.5t-36.5 -14.5t-36.5 14.5t-14.5 36.5zM154 817q0 85 59.5 145t144.5 60q91 0 154 -70q67 70 156 70q85 0 144.5 -60t59.5 -145q0 -22 -14.5 -36.5 t-36.5 -14.5t-36.5 14.5t-14.5 36.5q0 41 -30.5 72t-71.5 31q-43 0 -74 -31t-31 -72v-88h174q22 0 36.5 -14.5t14.5 -36.5t-14.5 -36.5t-36.5 -14.5h-174v-412q0 -42 31 -72t74 -30q42 0 72 30t30 72q0 22 14.5 36.5t36.5 14.5t36.5 -14.5t14.5 -36.5q0 -85 -59.5 -145 t-144.5 -60q-86 0 -145.5 60t-61.5 145v592q0 2 2 4q-2 2 -2 6q0 42 -30.5 72.5t-72.5 30.5t-72 -30.5t-30 -72.5q0 -22 -14.5 -36.5t-36.5 -14.5t-36.5 14.5t-14.5 36.5z" />
<glyph unicode="&#xc7;" horiz-adv-x="614" d="M102 205v471q0 22 15 36.5t37 14.5t36.5 -14.5t14.5 -36.5v-471q0 -43 30.5 -73t71.5 -30q43 0 74 30t31 73q0 22 14.5 36.5t36.5 14.5q20 0 34.5 -14.5t14.5 -36.5q0 -85 -59.5 -145t-145.5 -60q-85 0 -145 60t-60 145zM102 817q0 85 60 145t145 60q86 0 145.5 -60 t59.5 -145q0 -22 -14.5 -36.5t-34.5 -14.5q-22 0 -36.5 14.5t-14.5 36.5q0 41 -31 72t-74 31q-41 0 -71.5 -31t-30.5 -72q0 -22 -14.5 -36.5t-36.5 -14.5t-37 14.5t-15 36.5zM219 -90q0 22 14.5 36.5t36.5 14.5q54 0 88 -37q37 -34 37 -88q0 -52 -36.5 -88.5t-88.5 -36.5 q-20 0 -35 14.5t-16 36.5q0 20 14.5 35t36.5 15q10 0 17.5 7.5t7.5 16.5q0 13 -8 17q-4 8 -17 8q-20 0 -34.5 14.5t-16.5 34.5z" />
<glyph unicode="&#xc8;" horiz-adv-x="614" d="M102 205v463q0 20 15 34.5t37 14.5h204q22 0 37 -14.5t15 -34.5q0 -22 -15 -37t-37 -15h-155v-411q0 -43 30.5 -73t73.5 -30q42 0 72.5 30.5t30.5 72.5q0 22 14.5 36.5t36.5 14.5q21 0 36 -15t15 -36q0 -85 -60 -145t-145 -60t-145 60t-60 145zM102 815q0 85 60 145 t145 60t145 -60t60 -145q0 -21 -15 -36t-36 -15q-22 0 -36.5 14.5t-14.5 36.5q0 42 -30.5 72.5t-72.5 30.5q-43 0 -73.5 -30t-30.5 -73q0 -22 -14.5 -36.5t-34.5 -14.5q-22 0 -37 14.5t-15 36.5zM210 1207q0 21 13 36q15 15 37 15t35 -15l94 -94q15 -13 15 -35t-15 -37 q-17 -14 -37 -14q-18 0 -35 14l-94 94q-13 15 -13 36z" />
<glyph unicode="&#xc9;" horiz-adv-x="614" d="M102 205v463q0 20 15 34.5t37 14.5h204q22 0 37 -14.5t15 -34.5q0 -22 -15 -37t-37 -15h-155v-411q0 -43 30.5 -73t73.5 -30q42 0 72.5 30.5t30.5 72.5q0 22 14.5 36.5t36.5 14.5q21 0 36 -15t15 -36q0 -85 -60 -145t-145 -60t-145 60t-60 145zM102 815q0 85 60 145 t145 60t145 -60t60 -145q0 -21 -15 -36t-36 -15q-22 0 -36.5 14.5t-14.5 36.5q0 42 -30.5 72.5t-72.5 30.5q-43 0 -73.5 -30t-30.5 -73q0 -22 -14.5 -36.5t-34.5 -14.5q-22 0 -37 14.5t-15 36.5zM210 1114q0 22 13 35l94 94q15 15 36 15t36 -15t15 -36t-15 -36l-94 -94 q-17 -14 -35 -14q-20 0 -37 14q-13 15 -13 37z" />
<glyph unicode="&#xca;" horiz-adv-x="614" d="M102 205v463q0 20 15 34.5t37 14.5h204q22 0 37 -14.5t15 -34.5q0 -22 -15 -37t-37 -15h-155v-411q0 -43 30.5 -73t73.5 -30q42 0 72.5 30.5t30.5 72.5q0 22 14.5 36.5t36.5 14.5q21 0 36 -15t15 -36q0 -85 -60 -145t-145 -60t-145 60t-60 145zM102 815q0 85 60 145 t145 60t145 -60t60 -145q0 -21 -15 -36t-36 -15q-22 0 -36.5 14.5t-14.5 36.5q0 42 -30.5 72.5t-72.5 30.5q-43 0 -73.5 -30t-30.5 -73q0 -22 -14.5 -36.5t-34.5 -14.5q-22 0 -37 14.5t-15 36.5zM180 1114q0 51 37 88t90 37q51 0 88 -36.5t37 -88.5q0 -22 -14.5 -36.5 t-36.5 -14.5q-20 0 -34.5 14.5t-16.5 36.5q0 9 -7 17t-16 8t-18 -9q-6 -6 -6 -16q0 -22 -15 -36.5t-37 -14.5q-21 0 -36 15t-15 36z" />
<glyph unicode="&#xcb;" horiz-adv-x="620" d="M102 205v459q0 22 15 37.5t37 15.5h227q22 0 37.5 -15.5t15.5 -37.5t-15.5 -37t-37.5 -15h-176v-405q0 -43 30.5 -74t73.5 -31q44 0 74.5 31t30.5 74q0 22 15.5 36.5t37.5 14.5t36.5 -14.5t14.5 -36.5q0 -86 -61.5 -147.5t-147.5 -61.5q-85 0 -146 61t-61 146zM102 815 q0 86 61 146.5t146 60.5q86 0 147.5 -60.5t61.5 -146.5q0 -22 -14.5 -36.5t-36.5 -14.5t-37.5 14.5t-15.5 36.5q0 43 -30.5 74t-74.5 31q-43 0 -73.5 -31t-30.5 -74q0 -22 -14.5 -36.5t-36.5 -14.5t-37 14.5t-15 36.5zM186 1155q0 22 15 36.5t37 14.5t37.5 -14.5t15.5 -36.5 t-15.5 -36.5t-37.5 -14.5t-37 14.5t-15 36.5zM330 1155q0 22 15.5 36.5t37.5 14.5q21 0 36 -15t15 -36t-15 -36t-36 -15q-22 0 -37.5 14.5t-15.5 36.5z" />
<glyph unicode="&#xcc;" horiz-adv-x="378" d="M82 973q0 21 14 35q15 15 36 15t36 -15l94 -93q14 -15 14 -35.5t-14 -35.5q-15 -15 -37 -15q-23 0 -35 15l-94 94q-14 14 -14 35zM129 49v604q0 22 14.5 37t34.5 15q22 0 36.5 -15t14.5 -37v-604q0 -20 -14.5 -34.5t-36.5 -14.5q-20 0 -34.5 14.5t-14.5 34.5z" />
<glyph unicode="&#xcd;" horiz-adv-x="378" d="M82 879.5q0 20.5 14 35.5l94 93q13 15 35 15t37 -15q14 -14 14 -35t-14 -35l-94 -94q-15 -15 -35 -15q-22 0 -37 15q-14 15 -14 35.5zM129 49v604q0 22 14.5 37t34.5 15q22 0 36.5 -15t14.5 -37v-604q0 -20 -14.5 -34.5t-36.5 -14.5q-20 0 -34.5 14.5t-14.5 34.5z" />
<glyph unicode="&#xce;" horiz-adv-x="434" d="M82 899q0 48 37 88q40 37 88 37q52 0 88.5 -37t36.5 -88q0 -22 -14.5 -36.5t-34.5 -14.5q-22 0 -37 14.5t-15 36.5q0 9 -7 16t-17 7t-17 -7q-6 -6 -6 -16q0 -22 -14.5 -36.5t-36.5 -14.5t-36.5 14.5t-14.5 36.5zM158 49v604q0 22 14.5 37t34.5 15q22 0 36.5 -15t14.5 -37 v-604q0 -20 -14.5 -34.5t-36.5 -14.5q-20 0 -34.5 14.5t-14.5 34.5z" />
<glyph unicode="&#xcf;" horiz-adv-x="284" d="M82 49v604q0 22 14.5 37t34.5 15q22 0 36.5 -15t14.5 -37v-604q0 -20 -14.5 -34.5t-36.5 -14.5q-20 0 -34.5 14.5t-14.5 34.5zM82 829q0 20 14.5 35t34.5 15q21 0 36 -14.5t15 -35.5q0 -22 -14.5 -36.5t-36.5 -14.5q-20 0 -34.5 14.5t-14.5 36.5zM82 969q0 22 14.5 36.5 t34.5 14.5q22 0 36.5 -14.5t14.5 -36.5q0 -20 -14.5 -34.5t-36.5 -14.5q-20 0 -34.5 14.5t-14.5 34.5z" />
<glyph unicode="&#xd0;" />
<glyph unicode="&#xd1;" horiz-adv-x="651" d="M102 51v918q0 15 10 29t25 18q15 6 31 1.5t25 -16.5l192 -229q13 -17 11 -37.5t-17 -34.5q-17 -14 -38.5 -12t-33.5 19l-102 120v-776q0 -22 -14.5 -36.5t-36.5 -14.5q-21 0 -36.5 15t-15.5 36zM137 1110q0 54 37 88q34 37 88 37q71 0 107 -61l2 -3q7 -10 20 -10 q9 0 17 7t8 16q0 22 14.5 36.5t34.5 14.5q22 0 36.5 -14.5t14.5 -36.5q0 -51 -37 -88t-88 -37q-71 0 -108 63q-10 13 -21 13q-9 0 -18 -9q-6 -6 -6 -16q0 -22 -15 -36.5t-37 -14.5q-20 0 -34.5 14.5t-14.5 36.5zM446 51v918q0 21 15.5 36t36.5 15q22 0 36.5 -14.5 t14.5 -36.5v-918q0 -22 -14.5 -36.5t-36.5 -14.5q-21 0 -36.5 15t-15.5 36z" />
<glyph unicode="&#xd2;" horiz-adv-x="614" d="M102 205v471q0 22 15 36.5t37 14.5t36.5 -14.5t14.5 -36.5v-471q0 -43 30.5 -73t71.5 -30q43 0 74 30t31 73v471q0 22 14.5 36.5t36.5 14.5q20 0 34.5 -14.5t14.5 -36.5v-471q0 -85 -59.5 -145t-145.5 -60q-85 0 -145 60t-60 145zM102 817q0 85 60 145t145 60 q86 0 145.5 -60t59.5 -145q0 -22 -14.5 -36.5t-34.5 -14.5q-22 0 -36.5 14.5t-14.5 36.5q0 41 -31 72t-74 31q-41 0 -71.5 -31t-30.5 -72q0 -22 -14.5 -36.5t-36.5 -14.5t-37 14.5t-15 36.5zM212 1203q0 21 13 36q15 15 36 15t36 -15l94 -94q13 -13 13 -35t-13 -35 q-16 -16 -37 -16q-22 0 -35 16l-94 92q-13 15 -13 36z" />
<glyph unicode="&#xd3;" horiz-adv-x="614" d="M102 205v471q0 22 15 36.5t37 14.5t36.5 -14.5t14.5 -36.5v-471q0 -43 30.5 -73t71.5 -30q43 0 74 30t31 73v471q0 22 14.5 36.5t36.5 14.5q20 0 34.5 -14.5t14.5 -36.5v-471q0 -85 -59.5 -145t-145.5 -60q-85 0 -145 60t-60 145zM102 817q0 85 60 145t145 60 q86 0 145.5 -60t59.5 -145q0 -22 -14.5 -36.5t-34.5 -14.5q-22 0 -36.5 14.5t-14.5 36.5q0 41 -31 72t-74 31q-41 0 -71.5 -31t-30.5 -72q0 -22 -14.5 -36.5t-36.5 -14.5t-37 14.5t-15 36.5zM212 1110q0 22 13 35l94 94q13 15 35 15t37 -15q13 -15 13 -36t-13 -36l-94 -92 q-16 -16 -35 -16q-21 0 -37 16q-13 13 -13 35z" />
<glyph unicode="&#xd4;" horiz-adv-x="614" d="M102 205v471q0 22 15 36.5t37 14.5t36.5 -14.5t14.5 -36.5v-471q0 -43 30.5 -73t71.5 -30q43 0 74 30t31 73v471q0 22 14.5 36.5t36.5 14.5q20 0 34.5 -14.5t14.5 -36.5v-471q0 -85 -59.5 -145t-145.5 -60q-85 0 -145 60t-60 145zM102 817q0 85 60 145t145 60 q86 0 145.5 -60t59.5 -145q0 -22 -14.5 -36.5t-34.5 -14.5q-22 0 -36.5 14.5t-14.5 36.5q0 41 -31 72t-74 31q-41 0 -71.5 -31t-30.5 -72q0 -22 -14.5 -36.5t-36.5 -14.5t-37 14.5t-15 36.5zM182 1110q0 51 37 88t88 37q53 0 89 -36.5t36 -88.5q0 -22 -14.5 -36.5 t-34.5 -14.5q-22 0 -36.5 14.5t-14.5 36.5q0 9 -7.5 17t-17.5 8q-11 0 -16 -9q-6 -6 -6 -16q0 -22 -15 -36.5t-37 -14.5t-36.5 14.5t-14.5 36.5z" />
<glyph unicode="&#xd5;" horiz-adv-x="614" d="M102 205v471q0 22 15 36.5t37 14.5t36.5 -14.5t14.5 -36.5v-471q0 -43 30.5 -73t71.5 -30q43 0 74 30t31 73v471q0 22 14.5 36.5t36.5 14.5q20 0 34.5 -14.5t14.5 -36.5v-471q0 -85 -59.5 -145t-145.5 -60q-85 0 -145 60t-60 145zM102 817q0 85 60 145t145 60 q86 0 145.5 -60t59.5 -145q0 -22 -14.5 -36.5t-34.5 -14.5q-22 0 -36.5 14.5t-14.5 36.5q0 41 -31 72t-74 31q-41 0 -71.5 -31t-30.5 -72q0 -22 -14.5 -36.5t-36.5 -14.5t-37 14.5t-15 36.5zM119 1110q0 54 37 88q34 37 88 37q70 0 106 -61l2 -3q7 -10 21 -10q9 0 16.5 7 t7.5 16q0 22 14.5 36.5t34.5 14.5q22 0 37 -14.5t15 -36.5q0 -51 -37 -88t-88 -37q-72 0 -109 63q-10 13 -20 13t-19 -9q-6 -6 -6 -16q0 -22 -14.5 -36.5t-36.5 -14.5q-20 0 -34.5 14.5t-14.5 36.5z" />
<glyph unicode="&#xd6;" horiz-adv-x="614" d="M102 205v471q0 22 15 36.5t37 14.5t36.5 -14.5t14.5 -36.5v-471q0 -43 30.5 -73t71.5 -30q43 0 74 30t31 73v471q0 22 14.5 36.5t36.5 14.5q20 0 34.5 -14.5t14.5 -36.5v-471q0 -85 -59.5 -145t-145.5 -60q-85 0 -145 60t-60 145zM102 817q0 85 60 145t145 60 q86 0 145.5 -60t59.5 -145q0 -22 -14.5 -36.5t-34.5 -14.5q-22 0 -36.5 14.5t-14.5 36.5q0 41 -31 72t-74 31q-41 0 -71.5 -31t-30.5 -72q0 -22 -14.5 -36.5t-36.5 -14.5t-37 14.5t-15 36.5zM186 1147q0 22 15 36.5t37 14.5t36.5 -14.5t14.5 -36.5q0 -20 -14.5 -34.5 t-36.5 -14.5t-37 14.5t-15 34.5zM328 1147q0 22 14.5 36.5t36.5 14.5q20 0 34.5 -14.5t14.5 -36.5q0 -20 -14.5 -34.5t-34.5 -14.5q-22 0 -36.5 14.5t-14.5 34.5z" />
<glyph unicode="&#xd7;" horiz-adv-x="581" d="M52 44q0 20 14 32l161 162l-161 161q-14 13 -14 33t14 33q12 12 30.5 12t32.5 -12l195 -195l69 -69l125 -125q12 -12 12 -31t-12 -33q-14 -14 -33 -14t-32 14l-125 125l-37 37l-162 -162q-12 -14 -31.5 -14t-31.5 14q-14 12 -14 32zM324 317q0 19 14 31l115 117 q13 13 32 13t33 -13q12 -14 12 -33.5t-12 -32.5l-117 -114q-12 -13 -31.5 -13t-31.5 13q-14 13 -14 32z" />
<glyph unicode="&#xd8;" horiz-adv-x="638" d="M104 76l29 88q-2 12 -2 39v4v6v457q0 22 14.5 36.5t34.5 14.5q22 0 36.5 -14.5t14.5 -36.5v-215l148 444q-18 12 -45 12q-42 0 -72.5 -30.5t-30.5 -71.5q0 -22 -14.5 -36.5t-36.5 -14.5q-20 0 -34.5 14.5t-14.5 36.5q0 85 59 144t144 59q38 0 80 -17q8 15 24.5 22t34.5 1 q20 -6 29.5 -25t1.5 -39l-8 -24q41 -50 41 -121q0 -21 -14.5 -36t-35.5 -15q-28 0 -41 20l-206 -616q12 -28 37.5 -45t56.5 -17q42 0 72 30t30 73v4v6v457q0 22 14.5 36.5t36.5 14.5q21 0 35.5 -14.5t14.5 -36.5v-457v-6v-4q0 -85 -59 -145t-144 -60q-76 0 -131 49l-2 -4 q-4 -15 -18 -25t-29 -10q-9 0 -17 4q-20 6 -29.5 25t-3.5 39z" />
<glyph unicode="&#xd9;" horiz-adv-x="624" d="M102 186v785q0 23 15 38t37 15t37.5 -15t15.5 -38v-785q0 -59 51 -90q19 -10 23.5 -31t-7.5 -40q-16 -25 -45 -25q-15 0 -26 8q-47 28 -74 75t-27 103zM216 1203q0 21 13 36q15 15 36 15t36 -15l94 -94q13 -13 13 -35t-13 -35q-16 -16 -37 -16t-34 16l-95 92 q-13 15 -13 36zM342.5 65q5.5 21 24.5 31q51 31 51 90v785q0 23 14.5 38t36.5 15q23 0 38 -15t15 -38v-785q0 -55 -27.5 -102.5t-74.5 -75.5q-11 -8 -27 -8q-29 0 -45 25q-11 19 -5.5 40z" />
<glyph unicode="&#xda;" horiz-adv-x="624" d="M102 186v785q0 23 15 38t37 15t37.5 -15t15.5 -38v-785q0 -59 51 -90q19 -10 23.5 -31t-7.5 -40q-16 -25 -45 -25q-15 0 -26 8q-47 28 -74 75t-27 103zM216 1110q0 22 13 35l95 94q14 15 35 15t36 -15q13 -15 13 -36t-13 -36l-94 -92q-16 -16 -35 -16q-21 0 -37 16 q-13 13 -13 35zM342.5 65q5.5 21 24.5 31q51 31 51 90v785q0 23 14.5 38t36.5 15q23 0 38 -15t15 -38v-785q0 -55 -27.5 -102.5t-74.5 -75.5q-11 -8 -27 -8q-29 0 -45 25q-11 19 -5.5 40z" />
<glyph unicode="&#xdb;" horiz-adv-x="624" d="M102 186v785q0 23 15 38t37 15t37.5 -15t15.5 -38v-785q0 -59 51 -90q19 -10 23.5 -31t-7.5 -40q-16 -25 -45 -25q-15 0 -26 8q-47 28 -74 75t-27 103zM186 1110q0 51 37 88t88 37q53 0 89 -36.5t36 -88.5q0 -22 -14.5 -36.5t-34.5 -14.5q-22 0 -36.5 14.5t-14.5 36.5 q0 9 -7.5 17t-17.5 8q-11 0 -16 -9q-6 -6 -6 -16q0 -22 -14.5 -36.5t-36.5 -14.5t-37 14.5t-15 36.5zM342.5 65q5.5 21 24.5 31q51 31 51 90v785q0 23 14.5 38t36.5 15q23 0 38 -15t15 -38v-785q0 -55 -27.5 -102.5t-74.5 -75.5q-11 -8 -27 -8q-29 0 -45 25q-11 19 -5.5 40z " />
<glyph unicode="&#xdc;" horiz-adv-x="624" d="M102 186v785q0 23 15 38t37 15t37.5 -15t15.5 -38v-785q0 -59 51 -90q19 -10 23.5 -31t-7.5 -40q-16 -25 -45 -25q-15 0 -26 8q-47 28 -74 75t-27 103zM190 1147q0 22 15 36.5t37 14.5t36.5 -14.5t14.5 -36.5q0 -20 -14.5 -34.5t-36.5 -14.5t-37 14.5t-15 34.5zM332 1147 q0 22 14.5 36.5t36.5 14.5q20 0 34.5 -14.5t14.5 -36.5q0 -20 -14.5 -34.5t-34.5 -14.5q-22 0 -36.5 14.5t-14.5 34.5zM342.5 65q5.5 21 24.5 31q51 31 51 90v785q0 23 14.5 38t36.5 15q23 0 38 -15t15 -38v-785q0 -55 -27.5 -102.5t-74.5 -75.5q-11 -8 -27 -8q-29 0 -45 25 q-11 19 -5.5 40z" />
<glyph unicode="&#xdd;" horiz-adv-x="690" d="M103.5 976.5q2.5 21.5 19.5 33.5t38.5 9t33.5 -20l114 -153q12 -17 9.5 -38t-19.5 -34q-17 -10 -31 -10q-24 0 -41 20l-114 154q-12 17 -9.5 38.5zM247 1110q0 22 15 35l94 94q14 15 35.5 15t34.5 -15q15 -15 15 -36t-15 -36l-92 -92q-16 -16 -35 -16q-21 0 -37 16 q-15 13 -15 35zM293 51v649q0 18 10 31l191 266q12 18 33 21.5t38 -8.5t21 -32.5t-8 -37.5l-183 -256v-633q0 -22 -14.5 -36.5t-36.5 -14.5q-21 0 -36 15t-15 36z" />
<glyph unicode="&#xde;" />
<glyph unicode="&#xdf;" horiz-adv-x="1079" d="M102 205q0 22 15 36.5t37 14.5t36.5 -14.5t14.5 -36.5q0 -43 30.5 -74t73.5 -31t73 30t32 73v620q0 85 59.5 144t144.5 59q59 0 108.5 -31.5t74.5 -83.5v-2q20 -45 20 -88q0 -78 -53 -137q94 -43 151.5 -132t57.5 -196q0 -148 -105.5 -253t-253.5 -105q-22 0 -36.5 14.5 t-14.5 36.5q0 20 14.5 34.5t36.5 14.5q106 0 182.5 76t76.5 182q0 107 -76.5 182.5t-182.5 75.5q-21 0 -36 15.5t-15 36.5v2q0 22 14.5 36.5t36.5 14.5q42 0 71.5 29.5t29.5 72.5q0 41 -30 72t-71 31h-10q-37 -3 -63 -29.5t-29 -63.5v-630q-1 -85 -61.5 -144t-145.5 -59 q-86 0 -146.5 60.5t-60.5 146.5z" />
<glyph unicode="&#xe0;" horiz-adv-x="552" d="M63 51v617q0 22 15 36.5t37 14.5h139q22 0 36.5 -14.5t14.5 -36.5t-14.5 -37t-36.5 -15h-88v-565q0 -22 -14.5 -36.5t-36.5 -14.5t-37 14.5t-15 36.5zM63 817q0 85 60 145t145 60q86 0 145.5 -60t59.5 -145v-766q0 -22 -14.5 -36.5t-34.5 -14.5q-22 0 -36.5 14.5 t-14.5 36.5v766q0 41 -31 72t-74 31q-41 0 -71.5 -31t-30.5 -72q0 -22 -14.5 -36.5t-36.5 -14.5t-37 14.5t-15 36.5zM172 1203q0 21 14 36q15 15 36 15t36 -15l94 -94q14 -13 14 -35t-14 -35q-16 -16 -37 -16t-34 16l-95 92q-14 15 -14 36z" />
<glyph unicode="&#xe1;" horiz-adv-x="614" d="M102 51v617q0 22 15 36.5t37 14.5h139q22 0 36.5 -14.5t14.5 -36.5t-14.5 -37t-36.5 -15h-88v-565q0 -22 -14.5 -36.5t-36.5 -14.5t-37 14.5t-15 36.5zM102 817q0 85 60 145t145 60q86 0 145.5 -60t59.5 -145v-766q0 -22 -14.5 -36.5t-34.5 -14.5q-22 0 -36.5 14.5 t-14.5 36.5v766q0 41 -31 72t-74 31q-41 0 -71.5 -31t-30.5 -72q0 -22 -14.5 -36.5t-36.5 -14.5t-37 14.5t-15 36.5zM212 1110q0 22 13 35l94 94q13 15 35 15t37 -15q13 -15 13 -36t-13 -36l-94 -92q-16 -16 -35 -16q-21 0 -37 16q-13 13 -13 35z" />
<glyph unicode="&#xe2;" horiz-adv-x="614" d="M102 51v617q0 22 15 36.5t37 14.5h139q22 0 36.5 -14.5t14.5 -36.5t-14.5 -37t-36.5 -15h-88v-565q0 -22 -14.5 -36.5t-36.5 -14.5t-37 14.5t-15 36.5zM102 817q0 85 60 145t145 60q86 0 145.5 -60t59.5 -145v-766q0 -22 -14.5 -36.5t-34.5 -14.5q-22 0 -36.5 14.5 t-14.5 36.5v766q0 41 -31 72t-74 31q-41 0 -71.5 -31t-30.5 -72q0 -22 -14.5 -36.5t-36.5 -14.5t-37 14.5t-15 36.5zM182 1110q0 51 37 88t88 37q53 0 89 -36.5t36 -88.5q0 -22 -14.5 -36.5t-34.5 -14.5q-22 0 -36.5 14.5t-14.5 36.5q0 9 -7.5 17t-17.5 8q-11 0 -16 -9 q-6 -6 -6 -16q0 -22 -15 -36.5t-37 -14.5t-36.5 14.5t-14.5 36.5z" />
<glyph unicode="&#xe3;" horiz-adv-x="614" d="M102 51v617q0 22 15 36.5t37 14.5h139q22 0 36.5 -14.5t14.5 -36.5t-14.5 -37t-36.5 -15h-88v-565q0 -22 -14.5 -36.5t-36.5 -14.5t-37 14.5t-15 36.5zM102 817q0 85 60 145t145 60q86 0 145.5 -60t59.5 -145v-766q0 -22 -14.5 -36.5t-34.5 -14.5q-22 0 -36.5 14.5 t-14.5 36.5v766q0 41 -31 72t-74 31q-41 0 -71.5 -31t-30.5 -72q0 -22 -14.5 -36.5t-36.5 -14.5t-37 14.5t-15 36.5zM119 1110q0 54 37 88q34 37 88 37q70 0 106 -61l2 -3q7 -10 21 -10q9 0 16.5 7t7.5 16q0 22 14.5 36.5t34.5 14.5q22 0 37 -14.5t15 -36.5q0 -51 -37 -88 t-88 -37q-72 0 -109 63q-10 13 -20 13t-19 -9q-6 -6 -6 -16q0 -22 -14.5 -36.5t-36.5 -14.5q-20 0 -34.5 14.5t-14.5 36.5z" />
<glyph unicode="&#xe4;" horiz-adv-x="614" d="M102 51v617q0 22 15 36.5t37 14.5h139q22 0 36.5 -14.5t14.5 -36.5q0 -21 -15 -36.5t-36 -15.5h-88v-565q0 -21 -15 -36t-36 -15q-22 0 -37 14.5t-15 36.5zM102 817q0 85 60 145t145 60t145 -60t60 -145v-766q0 -22 -14.5 -36.5t-36.5 -14.5q-21 0 -36 15t-15 36v766 q0 43 -30 74t-73 31q-42 0 -72 -31t-30 -74q0 -21 -15 -36t-36 -15q-22 0 -37 14.5t-15 36.5zM186 1149q0 22 15 36.5t37 14.5q20 0 34.5 -14.5t14.5 -36.5t-14.5 -36.5t-34.5 -14.5q-22 0 -37 14.5t-15 36.5zM328 1149q0 22 14.5 36.5t34.5 14.5q22 0 36.5 -14.5 t14.5 -36.5t-14.5 -36.5t-36.5 -14.5q-20 0 -34.5 14.5t-14.5 36.5z" />
<glyph unicode="&#xe5;" horiz-adv-x="614" d="M102 51v617q0 22 15 36.5t37 14.5h139q22 0 36.5 -14.5t14.5 -36.5t-14.5 -37t-36.5 -15h-88v-565q0 -22 -14.5 -36.5t-36.5 -14.5t-37 14.5t-15 36.5zM102 817q0 85 60 145t145 60q86 0 145.5 -60t59.5 -145v-766q0 -22 -14.5 -36.5t-34.5 -14.5q-22 0 -36.5 14.5 t-14.5 36.5v766q0 41 -31 72t-74 31q-41 0 -71.5 -31t-30.5 -72q0 -22 -14.5 -36.5t-36.5 -14.5t-37 14.5t-15 36.5zM182 1186q0 52 37 88.5t88 36.5q53 0 89 -36.5t36 -88.5q0 -51 -36.5 -88t-88.5 -37q-48 0 -88 37q-37 40 -37 88zM285 1186q0 -11 6 -17t16 -6t17.5 7 t7.5 16q0 10 -7 17t-18 7q-9 0 -15.5 -7t-6.5 -17z" />
<glyph unicode="&#xe6;" d="M154 51v617q0 22 14.5 36.5t36.5 14.5h139q22 0 36.5 -14.5t14.5 -36.5t-14.5 -37t-36.5 -15h-88v-565q0 -22 -14.5 -36.5t-36.5 -14.5t-36.5 14.5t-14.5 36.5zM154 817q0 85 59.5 145t144.5 60q91 0 154 -70q67 70 156 70q85 0 144.5 -60t59.5 -145q0 -22 -14.5 -36.5 t-36.5 -14.5t-36.5 14.5t-14.5 36.5q0 41 -30.5 72t-71.5 31q-43 0 -74 -31t-31 -72v-88h174q22 0 36.5 -14.5t14.5 -36.5t-14.5 -36.5t-36.5 -14.5h-174v-412q0 -42 31 -72t74 -30q42 0 72 30t30 72q0 22 14.5 36.5t36.5 14.5t36.5 -14.5t14.5 -36.5q0 -85 -59.5 -145 t-144.5 -60q-86 0 -145.5 60t-61.5 145v592q0 2 2 4q-2 2 -2 6q0 42 -30.5 72.5t-72.5 30.5t-72 -30.5t-30 -72.5q0 -22 -14.5 -36.5t-36.5 -14.5t-36.5 14.5t-14.5 36.5z" />
<glyph unicode="&#xe7;" horiz-adv-x="495" d="M37 205v471q0 22 14.5 36.5t36.5 14.5t36.5 -14.5t14.5 -36.5v-471q0 -42 30.5 -72.5t72.5 -30.5q43 0 73.5 30t30.5 73q0 22 14.5 36.5t36.5 14.5q20 0 34.5 -14.5t14.5 -36.5q0 -85 -59 -145t-145 -60q-85 0 -145 60t-60 145zM37 817q0 85 60 145t145 60q86 0 145 -60 t59 -145q0 -22 -14.5 -36.5t-34.5 -14.5q-22 0 -36.5 14.5t-14.5 36.5q0 41 -31 72t-73 31q-41 0 -72 -31t-31 -72q0 -22 -14.5 -36.5t-36.5 -14.5t-36.5 14.5t-14.5 36.5zM154 -90q0 22 14.5 36.5t36.5 14.5q54 0 88 -37q37 -34 37 -88q0 -52 -36 -88.5t-89 -36.5 q-20 0 -34.5 14.5t-16.5 36.5q0 20 15 35t36 15q10 0 17 7.5t7 16.5q0 13 -8 17q-4 8 -16 8q-20 0 -34.5 14.5t-16.5 34.5z" />
<glyph unicode="&#xe8;" horiz-adv-x="507" d="M61 205v463q0 20 15 34.5t37 14.5h204q22 0 37 -14.5t15 -34.5q0 -22 -15 -37t-37 -15h-155v-411q0 -43 30.5 -73t73.5 -30q42 0 72.5 30.5t30.5 72.5q0 22 14.5 36.5t36.5 14.5q21 0 36 -15t15 -36q0 -85 -60 -145t-145 -60t-145 60t-60 145zM61 815q0 85 60 145t145 60 t145 -60t60 -145q0 -21 -15 -36t-36 -15q-22 0 -36.5 14.5t-14.5 36.5q0 42 -30.5 72.5t-72.5 30.5q-43 0 -73.5 -30t-30.5 -73q0 -22 -14.5 -36.5t-34.5 -14.5q-22 0 -37 14.5t-15 36.5zM168 1207q0 21 14 36q15 15 36.5 15t35.5 -15l94 -94q15 -13 15 -35t-15 -37 q-17 -14 -37 -14q-17 0 -35 14l-94 94q-14 15 -14 36z" />
<glyph unicode="&#xe9;" horiz-adv-x="507" d="M61 205v463q0 20 15 34.5t37 14.5h204q22 0 37 -14.5t15 -34.5q0 -22 -15 -37t-37 -15h-155v-411q0 -43 30.5 -73t73.5 -30q42 0 72.5 30.5t30.5 72.5q0 22 14.5 36.5t36.5 14.5q21 0 36 -15t15 -36q0 -85 -60 -145t-145 -60t-145 60t-60 145zM61 815q0 85 60 145t145 60 t145 -60t60 -145q0 -21 -15 -36t-36 -15q-22 0 -36.5 14.5t-14.5 36.5q0 42 -30.5 72.5t-72.5 30.5q-43 0 -73.5 -30t-30.5 -73q0 -22 -14.5 -36.5t-34.5 -14.5q-22 0 -37 14.5t-15 36.5zM168 1114q0 22 14 35l94 94q15 15 36 15t36 -15t15 -36t-15 -36l-94 -94 q-17 -14 -35 -14q-20 0 -37 14q-14 15 -14 37z" />
<glyph unicode="&#xea;" horiz-adv-x="512" d="M61 205v463q0 20 15 34.5t37 14.5h204q22 0 37 -14.5t15 -34.5q0 -22 -15 -37t-37 -15h-155v-411q0 -43 30.5 -73t73.5 -30q42 0 72.5 30.5t30.5 72.5q0 22 14.5 36.5t36.5 14.5q21 0 36 -15t15 -36q0 -85 -60 -145t-145 -60t-145 60t-60 145zM61 815q0 85 60 145t145 60 t145 -60t60 -145q0 -21 -15 -36t-36 -15q-22 0 -36.5 14.5t-14.5 36.5q0 42 -30.5 72.5t-72.5 30.5q-43 0 -73.5 -30t-30.5 -73q0 -22 -14.5 -36.5t-34.5 -14.5q-22 0 -37 14.5t-15 36.5zM139 1114q0 51 37 88t90 37q51 0 88 -36.5t37 -88.5q0 -22 -14.5 -36.5t-36.5 -14.5 q-20 0 -35 14.5t-16 36.5q0 9 -7 17t-16 8t-18 -9q-6 -6 -6 -16q0 -22 -15 -36.5t-37 -14.5q-21 0 -36 15t-15 36z" />
<glyph unicode="&#xeb;" d="M305 205v459q0 22 14.5 37.5t36.5 15.5h228q22 0 37.5 -15.5t15.5 -37.5t-15.5 -37t-37.5 -15h-174v-405q0 -43 30 -74t72 -31q44 0 74 31t30 74q0 21 16 36t38 15t36.5 -14.5t14.5 -36.5q0 -86 -61 -147.5t-146 -61.5q-86 0 -147.5 61t-61.5 146zM305 815q0 86 61 146.5 t146 60.5q86 0 147.5 -60.5t61.5 -146.5q0 -22 -14.5 -36.5t-36.5 -14.5t-38 15t-16 36q0 43 -30 74t-74 31q-42 0 -72 -31t-30 -74q0 -21 -16 -36t-38 -15t-36.5 14.5t-14.5 36.5zM389 1155q0 22 14.5 36.5t36.5 14.5t38 -15t16 -36t-16 -36t-38 -15t-36.5 14.5t-14.5 36.5 zM532 1155q0 21 16 36t38 15t36.5 -14.5t14.5 -36.5t-14.5 -36.5t-36.5 -14.5t-38 15t-16 36z" />
<glyph unicode="&#xec;" horiz-adv-x="378" d="M82 973q0 21 14 35q15 15 36 15t36 -15l94 -93q14 -15 14 -35.5t-14 -35.5q-15 -15 -37 -15q-23 0 -35 15l-94 94q-14 14 -14 35zM129 49v604q0 22 14.5 37t34.5 15q22 0 36.5 -15t14.5 -37v-604q0 -20 -14.5 -34.5t-36.5 -14.5q-20 0 -34.5 14.5t-14.5 34.5z" />
<glyph unicode="&#xed;" horiz-adv-x="378" d="M82 879.5q0 20.5 14 35.5l94 93q13 15 35 15t37 -15q14 -14 14 -35t-14 -35l-94 -94q-15 -15 -35 -15q-22 0 -37 15q-14 15 -14 35.5zM129 49v604q0 22 14.5 37t34.5 15q22 0 36.5 -15t14.5 -37v-604q0 -20 -14.5 -34.5t-36.5 -14.5q-20 0 -34.5 14.5t-14.5 34.5z" />
<glyph unicode="&#xee;" horiz-adv-x="434" d="M82 899q0 48 37 88q40 37 88 37q52 0 88.5 -37t36.5 -88q0 -22 -14.5 -36.5t-34.5 -14.5q-22 0 -37 14.5t-15 36.5q0 9 -7 16t-17 7t-17 -7q-6 -6 -6 -16q0 -22 -14.5 -36.5t-36.5 -14.5t-36.5 14.5t-14.5 36.5zM158 49v604q0 22 14.5 37t34.5 15q22 0 36.5 -15t14.5 -37 v-604q0 -20 -14.5 -34.5t-36.5 -14.5q-20 0 -34.5 14.5t-14.5 34.5z" />
<glyph unicode="&#xef;" horiz-adv-x="284" d="M82 49v604q0 22 14.5 37t34.5 15q22 0 36.5 -15t14.5 -37v-604q0 -20 -14.5 -34.5t-36.5 -14.5q-20 0 -34.5 14.5t-14.5 34.5zM82 829q0 20 14.5 35t34.5 15q21 0 36 -14.5t15 -35.5q0 -22 -14.5 -36.5t-36.5 -14.5q-20 0 -34.5 14.5t-14.5 36.5zM82 969q0 22 14.5 36.5 t34.5 14.5q22 0 36.5 -14.5t14.5 -36.5q0 -20 -14.5 -34.5t-36.5 -14.5q-20 0 -34.5 14.5t-14.5 34.5z" />
<glyph unicode="&#xf0;" />
<glyph unicode="&#xf1;" d="M289 51v918q0 15 10 29t25 18q34 13 55 -15l192 -229q13 -17 11 -37.5t-17 -34.5q-17 -14 -38 -12t-33 19l-103 120v-776q0 -22 -14.5 -36.5t-36.5 -14.5q-21 0 -36 15t-15 36zM324 1110q0 55 36 88q34 37 89 37q70 0 106 -61l2 -3q7 -10 21 -10q9 0 16.5 7t7.5 16 q0 22 14.5 36.5t34.5 14.5q22 0 36.5 -14.5t14.5 -36.5q0 -51 -36.5 -88t-87.5 -37q-72 0 -109 63q-10 13 -20 13t-19 -9q-6 -6 -6 -16q0 -22 -14.5 -36.5t-36.5 -14.5q-20 0 -34.5 14.5t-14.5 36.5zM633 51v918q0 21 15 36t36 15q22 0 36.5 -14.5t14.5 -36.5v-918 q0 -22 -14.5 -36.5t-36.5 -14.5q-21 0 -36 15t-15 36z" />
<glyph unicode="&#xf2;" horiz-adv-x="614" d="M102 205v471q0 22 15 36.5t37 14.5t36.5 -14.5t14.5 -36.5v-471q0 -43 30.5 -73t71.5 -30q43 0 74 30t31 73v471q0 22 14.5 36.5t36.5 14.5q20 0 34.5 -14.5t14.5 -36.5v-471q0 -85 -59.5 -145t-145.5 -60q-85 0 -145 60t-60 145zM102 817q0 85 60 145t145 60 q86 0 145.5 -60t59.5 -145q0 -22 -14.5 -36.5t-34.5 -14.5q-22 0 -36.5 14.5t-14.5 36.5q0 41 -31 72t-74 31q-41 0 -71.5 -31t-30.5 -72q0 -22 -14.5 -36.5t-36.5 -14.5t-37 14.5t-15 36.5zM212 1203q0 21 13 36q15 15 36 15t36 -15l94 -94q13 -13 13 -35t-13 -35 q-16 -16 -37 -16q-22 0 -35 16l-94 92q-13 15 -13 36z" />
<glyph unicode="&#xf3;" horiz-adv-x="614" d="M102 205v471q0 22 15 36.5t37 14.5t36.5 -14.5t14.5 -36.5v-471q0 -43 30.5 -73t71.5 -30q43 0 74 30t31 73v471q0 22 14.5 36.5t36.5 14.5q20 0 34.5 -14.5t14.5 -36.5v-471q0 -85 -59.5 -145t-145.5 -60q-85 0 -145 60t-60 145zM102 817q0 85 60 145t145 60 q86 0 145.5 -60t59.5 -145q0 -22 -14.5 -36.5t-34.5 -14.5q-22 0 -36.5 14.5t-14.5 36.5q0 41 -31 72t-74 31q-41 0 -71.5 -31t-30.5 -72q0 -22 -14.5 -36.5t-36.5 -14.5t-37 14.5t-15 36.5zM212 1110q0 22 13 35l94 94q13 15 35 15t37 -15q13 -15 13 -36t-13 -36l-94 -92 q-16 -16 -35 -16q-21 0 -37 16q-13 13 -13 35z" />
<glyph unicode="&#xf4;" horiz-adv-x="614" d="M102 205v471q0 22 15 36.5t37 14.5t36.5 -14.5t14.5 -36.5v-471q0 -43 30.5 -73t71.5 -30q43 0 74 30t31 73v471q0 22 14.5 36.5t36.5 14.5q20 0 34.5 -14.5t14.5 -36.5v-471q0 -85 -59.5 -145t-145.5 -60q-85 0 -145 60t-60 145zM102 817q0 85 60 145t145 60 q86 0 145.5 -60t59.5 -145q0 -22 -14.5 -36.5t-34.5 -14.5q-22 0 -36.5 14.5t-14.5 36.5q0 41 -31 72t-74 31q-41 0 -71.5 -31t-30.5 -72q0 -22 -14.5 -36.5t-36.5 -14.5t-37 14.5t-15 36.5zM182 1110q0 51 37 88t88 37q53 0 89 -36.5t36 -88.5q0 -22 -14.5 -36.5 t-34.5 -14.5q-22 0 -36.5 14.5t-14.5 36.5q0 9 -7.5 17t-17.5 8q-11 0 -16 -9q-6 -6 -6 -16q0 -22 -15 -36.5t-37 -14.5t-36.5 14.5t-14.5 36.5z" />
<glyph unicode="&#xf5;" horiz-adv-x="614" d="M102 205v471q0 22 15 36.5t37 14.5t36.5 -14.5t14.5 -36.5v-471q0 -43 30.5 -73t71.5 -30q43 0 74 30t31 73v471q0 22 14.5 36.5t36.5 14.5q20 0 34.5 -14.5t14.5 -36.5v-471q0 -85 -59.5 -145t-145.5 -60q-85 0 -145 60t-60 145zM102 817q0 85 60 145t145 60 q86 0 145.5 -60t59.5 -145q0 -22 -14.5 -36.5t-34.5 -14.5q-22 0 -36.5 14.5t-14.5 36.5q0 41 -31 72t-74 31q-41 0 -71.5 -31t-30.5 -72q0 -22 -14.5 -36.5t-36.5 -14.5t-37 14.5t-15 36.5zM119 1110q0 54 37 88q34 37 88 37q70 0 106 -61l2 -3q7 -10 21 -10q9 0 16.5 7 t7.5 16q0 22 14.5 36.5t34.5 14.5q22 0 37 -14.5t15 -36.5q0 -51 -37 -88t-88 -37q-72 0 -109 63q-10 13 -20 13t-19 -9q-6 -6 -6 -16q0 -22 -14.5 -36.5t-36.5 -14.5q-20 0 -34.5 14.5t-14.5 36.5z" />
<glyph unicode="&#xf6;" horiz-adv-x="614" d="M102 205v471q0 22 15 36.5t37 14.5t36.5 -14.5t14.5 -36.5v-471q0 -43 30.5 -73t71.5 -30q43 0 74 30t31 73v471q0 22 14.5 36.5t36.5 14.5q20 0 34.5 -14.5t14.5 -36.5v-471q0 -85 -59.5 -145t-145.5 -60q-85 0 -145 60t-60 145zM102 817q0 85 60 145t145 60 q86 0 145.5 -60t59.5 -145q0 -22 -14.5 -36.5t-34.5 -14.5q-22 0 -36.5 14.5t-14.5 36.5q0 41 -31 72t-74 31q-41 0 -71.5 -31t-30.5 -72q0 -22 -14.5 -36.5t-36.5 -14.5t-37 14.5t-15 36.5zM186 1147q0 22 15 36.5t37 14.5t36.5 -14.5t14.5 -36.5q0 -20 -14.5 -34.5 t-36.5 -14.5t-37 14.5t-15 34.5zM328 1147q0 22 14.5 36.5t36.5 14.5q20 0 34.5 -14.5t14.5 -36.5q0 -20 -14.5 -34.5t-34.5 -14.5q-22 0 -36.5 14.5t-14.5 34.5z" />
<glyph unicode="&#xf7;" horiz-adv-x="602" d="M51 281q0 22 14.5 36.5t36.5 14.5h398q22 0 36.5 -14.5t14.5 -36.5q0 -11 -2 -17q-5 -15 -18.5 -25t-30.5 -10h-398q-22 0 -36.5 15t-14.5 37zM248 53q0 22 15.5 36.5t37.5 14.5t36.5 -14.5t14.5 -36.5q0 -23 -14.5 -38t-36.5 -15t-37.5 15t-15.5 38zM248 510 q0 22 15.5 37.5t37.5 15.5t36.5 -15.5t14.5 -37.5t-14.5 -37.5t-36.5 -15.5t-37.5 15.5t-15.5 37.5z" />
<glyph unicode="&#xf8;" horiz-adv-x="638" d="M104 76l29 88q-2 12 -2 39v4v6v457q0 22 14.5 36.5t34.5 14.5q22 0 36.5 -14.5t14.5 -36.5v-215l148 444q-18 12 -45 12q-42 0 -72.5 -30.5t-30.5 -71.5q0 -22 -14.5 -36.5t-36.5 -14.5q-20 0 -34.5 14.5t-14.5 36.5q0 85 59 144t144 59q38 0 80 -17q8 15 24.5 22t34.5 1 q20 -6 29.5 -25t1.5 -39l-8 -24q41 -50 41 -121q0 -21 -14.5 -36t-35.5 -15q-28 0 -41 20l-206 -616q12 -28 37.5 -45t56.5 -17q42 0 72 30t30 73v4v6v457q0 22 14.5 36.5t36.5 14.5q21 0 35.5 -14.5t14.5 -36.5v-457v-6v-4q0 -85 -59 -145t-144 -60q-76 0 -131 49l-2 -4 q-4 -15 -18 -25t-29 -10q-9 0 -17 4q-20 6 -29.5 25t-3.5 39z" />
<glyph unicode="&#xf9;" horiz-adv-x="624" d="M102 186v785q0 23 15 38t37 15t37.5 -15t15.5 -38v-785q0 -59 51 -90q19 -10 23.5 -31t-7.5 -40q-16 -25 -45 -25q-15 0 -26 8q-47 28 -74 75t-27 103zM216 1203q0 21 13 36q15 15 36 15t36 -15l94 -94q13 -13 13 -35t-13 -35q-16 -16 -37 -16t-34 16l-95 92 q-13 15 -13 36zM342.5 65q5.5 21 24.5 31q51 31 51 90v785q0 23 14.5 38t36.5 15q23 0 38 -15t15 -38v-785q0 -55 -27.5 -102.5t-74.5 -75.5q-11 -8 -27 -8q-29 0 -45 25q-11 19 -5.5 40z" />
<glyph unicode="&#xfa;" horiz-adv-x="624" d="M102 186v785q0 23 15 38t37 15t37.5 -15t15.5 -38v-785q0 -59 51 -90q19 -10 23.5 -31t-7.5 -40q-16 -25 -45 -25q-15 0 -26 8q-47 28 -74 75t-27 103zM216 1110q0 22 13 35l95 94q14 15 35 15t36 -15q13 -15 13 -36t-13 -36l-94 -92q-16 -16 -35 -16q-21 0 -37 16 q-13 13 -13 35zM342.5 65q5.5 21 24.5 31q51 31 51 90v785q0 23 14.5 38t36.5 15q23 0 38 -15t15 -38v-785q0 -55 -27.5 -102.5t-74.5 -75.5q-11 -8 -27 -8q-29 0 -45 25q-11 19 -5.5 40z" />
<glyph unicode="&#xfb;" horiz-adv-x="624" d="M102 186v785q0 23 15 38t37 15t37.5 -15t15.5 -38v-785q0 -59 51 -90q19 -10 23.5 -31t-7.5 -40q-16 -25 -45 -25q-15 0 -26 8q-47 28 -74 75t-27 103zM186 1110q0 51 37 88t88 37q53 0 89 -36.5t36 -88.5q0 -22 -14.5 -36.5t-34.5 -14.5q-22 0 -36.5 14.5t-14.5 36.5 q0 9 -7.5 17t-17.5 8q-11 0 -16 -9q-6 -6 -6 -16q0 -22 -14.5 -36.5t-36.5 -14.5t-37 14.5t-15 36.5zM342.5 65q5.5 21 24.5 31q51 31 51 90v785q0 23 14.5 38t36.5 15q23 0 38 -15t15 -38v-785q0 -55 -27.5 -102.5t-74.5 -75.5q-11 -8 -27 -8q-29 0 -45 25q-11 19 -5.5 40z " />
<glyph unicode="&#xfc;" horiz-adv-x="624" d="M102 186v785q0 23 15 38t37 15t37.5 -15t15.5 -38v-785q0 -59 51 -90q19 -10 23.5 -31t-7.5 -40q-16 -25 -45 -25q-15 0 -26 8q-47 28 -74 75t-27 103zM190 1147q0 22 15 36.5t37 14.5t36.5 -14.5t14.5 -36.5q0 -20 -14.5 -34.5t-36.5 -14.5t-37 14.5t-15 34.5zM332 1147 q0 22 14.5 36.5t36.5 14.5q20 0 34.5 -14.5t14.5 -36.5q0 -20 -14.5 -34.5t-34.5 -14.5q-22 0 -36.5 14.5t-14.5 34.5zM342.5 65q5.5 21 24.5 31q51 31 51 90v785q0 23 14.5 38t36.5 15q23 0 38 -15t15 -38v-785q0 -55 -27.5 -102.5t-74.5 -75.5q-11 -8 -27 -8q-29 0 -45 25 q-11 19 -5.5 40z" />
<glyph unicode="&#xfd;" d="M271.5 976.5q2.5 21.5 19.5 33.5t38 9t33 -20l115 -153q12 -17 9.5 -38t-19.5 -34q-17 -10 -31 -10q-24 0 -41 20l-114 154q-12 17 -9.5 38.5zM416 1110q0 22 14 35l94 94q14 15 35.5 15t36.5 -15q14 -15 14 -36t-14 -36l-94 -92q-16 -16 -35 -16q-21 0 -37 16 q-14 13 -14 35zM461 51v649q0 18 10 31l191 266q12 18 33 21.5t38 -8.5t20.5 -32.5t-8.5 -37.5l-182 -256v-633q0 -22 -14.5 -36.5t-36.5 -14.5q-21 0 -36 15t-15 36z" />
<glyph unicode="&#xfe;" />
<glyph unicode="&#xff;" d="M50 980.5q3 21.5 20 33.5t38 9.5t33 -19.5l115 -154q12 -17 9.5 -37.5t-19.5 -32.5q-13 -10 -31 -10q-26 0 -41 21l-115 151q-12 17 -9 38.5zM174 1147q0 22 14.5 36.5t36.5 14.5t36.5 -14.5t14.5 -36.5q0 -20 -14.5 -34.5t-36.5 -14.5t-36.5 14.5t-14.5 34.5zM240 57 v650q0 15 10 28l190 269q12 17 33.5 19.5t38.5 -9.5t20.5 -32.5t-8.5 -37.5l-182 -254v-633q0 -22 -14.5 -36.5t-36.5 -14.5t-36.5 14.5t-14.5 36.5zM315 1147q0 22 15 36.5t37 14.5q20 0 34.5 -14.5t14.5 -36.5q0 -20 -14.5 -34.5t-34.5 -14.5q-22 0 -37 14.5t-15 34.5z " />
<glyph unicode="&#x2c6;" d="M141 1110q0 51 37 88t88 37q52 0 88.5 -36.5t36.5 -88.5q0 -22 -14.5 -36.5t-34.5 -14.5q-22 0 -36.5 14.5t-14.5 36.5q0 9 -7.5 17t-17.5 8q-12 0 -16 -9q-6 -6 -6 -16q0 -22 -14.5 -36.5t-36.5 -14.5t-37 14.5t-15 36.5z" />
<glyph unicode="&#x2dc;" horiz-adv-x="483" d="M51 1110q0 53 37 90q35 35 88 35q72 0 109 -59l2 -5q3 -10 18 -10q11 0 18 7.5t7 17.5q0 20 14.5 34.5t36.5 14.5t36.5 -14.5t14.5 -34.5q0 -52 -37 -88.5t-90 -36.5q-73 0 -108 63q-7 11 -21 11q-9 0 -16 -7q-1 -1 -2.5 -3t-2.5 -3.5t-2 -5t-1 -6.5q0 -20 -15 -34.5 t-35 -14.5q-22 0 -36.5 14.5t-14.5 34.5z" />
<glyph unicode="&#x2000;" horiz-adv-x="655" />
<glyph unicode="&#x2001;" horiz-adv-x="1311" />
<glyph unicode="&#x2002;" horiz-adv-x="655" />
<glyph unicode="&#x2003;" horiz-adv-x="1311" />
<glyph unicode="&#x2004;" horiz-adv-x="437" />
<glyph unicode="&#x2005;" horiz-adv-x="327" />
<glyph unicode="&#x2006;" horiz-adv-x="218" />
<glyph unicode="&#x2007;" horiz-adv-x="218" />
<glyph unicode="&#x2008;" horiz-adv-x="163" />
<glyph unicode="&#x2009;" horiz-adv-x="262" />
<glyph unicode="&#x200a;" horiz-adv-x="72" />
<glyph unicode="&#x2010;" horiz-adv-x="604" d="M51 510q0 21 15 36t36 15h400q22 0 36.5 -14.5t14.5 -36.5q0 -8 -4 -16q-11 -35 -47 -35h-400q-21 0 -36 15t-15 36z" />
<glyph unicode="&#x2011;" horiz-adv-x="604" d="M51 510q0 21 15 36t36 15h400q22 0 36.5 -14.5t14.5 -36.5q0 -8 -4 -16q-11 -35 -47 -35h-400q-21 0 -36 15t-15 36z" />
<glyph unicode="&#x2012;" horiz-adv-x="604" d="M51 510q0 21 15 36t36 15h400q22 0 36.5 -14.5t14.5 -36.5q0 -8 -4 -16q-11 -35 -47 -35h-400q-21 0 -36 15t-15 36z" />
<glyph unicode="&#x2013;" horiz-adv-x="1126" d="M51 510q0 21 30.5 36t73.5 15h816q45 0 74.5 -14.5t29.5 -36.5q0 -8 -8 -16q-23 -35 -96 -35h-816q-43 0 -73.5 15t-30.5 36z" />
<glyph unicode="&#x2014;" horiz-adv-x="2150" d="M51 510q0 21 61 36t147 15h1632q90 0 149 -14.5t59 -36.5q0 -8 -16 -16q-45 -35 -192 -35h-1632q-86 0 -147 15t-61 36z" />
<glyph unicode="&#x2018;" horiz-adv-x="276" d="M51 897q0 22 14.5 36.5t34.5 14.5q11 0 19 8q6 6 6 17q0 20 14.5 34.5t36.5 16.5q20 0 34.5 -14.5t14.5 -36.5q0 -54 -37 -88q-34 -37 -88 -37q-20 0 -34.5 14.5t-14.5 34.5z" />
<glyph unicode="&#x2019;" horiz-adv-x="278" d="M51 897q0 22 14.5 36.5t36.5 14.5q13 0 17 8q6 6 6 17q0 20 14.5 34.5t36.5 16.5q22 0 36.5 -14.5t14.5 -36.5q0 -51 -37 -88t-88 -37q-22 0 -36.5 14.5t-14.5 34.5z" />
<glyph unicode="&#x202f;" horiz-adv-x="262" />
<glyph unicode="&#x205f;" horiz-adv-x="327" />
<glyph unicode="&#xe000;" d="M0 0v1024h1024v-1024h-1024z" />
</font>
</defs>
</svg>
