<?xml version="1.0" standalone="no"?>
<!DOCTYPE svg PUBLIC "-//W3C//DTD SVG 1.1//EN" "http://www.w3.org/Graphics/SVG/1.1/DTD/svg11.dtd" >
<svg xmlns="http://www.w3.org/2000/svg">
<metadata>
This is a custom SVG webfont generated by Font Squirrel.
Copyright   : Copyright c 2010 by BSozoo All rights reserved3
Designer    : BSozoo
Foundry     : BSozoo
</metadata>
<defs>
<font id="NemoyMedium" horiz-adv-x="1701" >
<font-face units-per-em="2048" ascent="1638" descent="-410" />
<missing-glyph horiz-adv-x="659" />
<glyph unicode=" "  horiz-adv-x="659" />
<glyph unicode="&#x09;" horiz-adv-x="659" />
<glyph unicode="&#xa0;" horiz-adv-x="659" />
<glyph unicode="!" horiz-adv-x="526" d="M117 -24.5q0 24.5 16 42.5l45 45l-43 43q-18 18 -18 44t17 43q18 18 43.5 18t43.5 -16l43 -45l45 45q18 16 43 16t43 -18q19 -17 19 -42.5t-19 -44.5l-43 -43l45 -45q16 -18 16.5 -42.5t-17.5 -42.5q-17 -19 -42.5 -19t-44.5 18l-45 43l-43 -43q-18 -18 -43.5 -18 t-43.5 19q-17 18 -17 42.5zM205 406v1101q0 25 18.5 43.5t42.5 18.5q25 0 43.5 -18.5t18.5 -43.5v-1101q0 -25 -18.5 -43.5t-43.5 -18.5q-24 0 -42.5 18.5t-18.5 43.5z" />
<glyph unicode="&#x22;" horiz-adv-x="464" d="M25 1432v227q0 25 18 43t43 18t43 -18.5t18 -42.5v-227q0 -25 -18 -43.5t-43 -18.5t-43 18.5t-18 43.5zM291 1432v227q0 25 18.5 43t42.5 18q25 0 43.5 -18.5t18.5 -42.5v-227q0 -25 -18.5 -43.5t-43.5 -18.5q-24 0 -42.5 18.5t-18.5 43.5z" />
<glyph unicode="#" horiz-adv-x="1525" d="M29 398q0 26 18.5 44.5t42.5 18.5h223l121 239h-192q-25 0 -43.5 18.5t-18.5 43.5q0 26 18.5 43.5t43.5 17.5h252l151 305q13 24 36 31q8 2 20 4q13 0 26 -7q23 -11 31 -35.5t-2 -47.5l-125 -250h364l152 305q11 24 35 31q8 2 20 4q14 0 27 -7q23 -11 31 -35.5t-5 -47.5 l-122 -250h127q27 0 44 -17.5t17 -43.5q0 -25 -17.5 -43.5t-43.5 -18.5h-189l-119 -239h156q27 0 44 -18t17 -45q0 -25 -17 -42.5t-44 -17.5h-217l-182 -365q-11 -23 -35 -30q-7 -2 -21 -4q-15 0 -26 7q-23 11 -31 34.5t4 46.5l154 311h-365l-180 -365q-12 -23 -36 -30 q-8 -2 -20 -4l-27 7q-24 11 -32 34.5t4 46.5l154 311h-162q-25 0 -43 17.5t-18 42.5zM451 461h364l119 239h-363z" />
<glyph unicode="$" horiz-adv-x="1304" d="M137 1032q0 221 158 379q135 135 313 154v188q0 25 18.5 43t42.5 18q25 0 43.5 -18.5t18.5 -42.5v-184h320q41 0 56 -38q5 -15 5 -25q0 -22 -18 -42l-701 -700q71 -80 326 -315l424 -406q19 -19 18 -41q0 -11 -5 -26q-15 -39 -56 -37h-369v-188q0 -25 -18.5 -43.5 t-43.5 -18.5q-24 0 -42.5 18.5t-18.5 43.5v188h-407q-27 0 -44.5 18t-17.5 43t17.5 43t44.5 18h749l-240 229l-207 191q-65 60 -154 152q-80 83 -120 140q-92 133 -92 259zM260 1018q4 -74 57 -156l586 584h-229q-170 0 -291 -120t-123 -288q2 -8 2 -12q0 -2 -2 -8z" />
<glyph unicode="%" horiz-adv-x="1501" d="M53 1192q0 160 93 268q94 109 222 109t221 -109q93 -108 93 -268t-93 -269q-93 -108 -221 -108t-222 108q-93 109 -93 269zM176 1192q0 -107 58 -180q59 -74 135 -74q73 0 132 72q58 73 58 182q0 110 -58 181q-57 73 -132 73q-77 0 -135 -73q-58 -71 -58 -181zM406 -49 q0 9 3 20l541 1592q8 23 30 33q13 7 27 7q11 0 20 -4q24 -8 35 -30.5t2 -46.5l-540 -1592q-7 -22 -31 -33q-13 -7 -26 -7q-11 0 -20 4q-25 8 -35 30q-8 14 -6 27zM806 315q0 160 93 268q94 109 222 109t221 -109q93 -108 93 -268q0 -159 -93 -268q-93 -108 -221 -108 q-127 0 -222 108q-93 109 -93 268zM929 315q0 -109 57 -182q58 -72 134 -72t134 73t58 181q0 106 -59 180t-133 74q-75 0 -133 -73q-58 -71 -58 -181z" />
<glyph unicode="&#x26;" horiz-adv-x="1734" d="M84 479.5q0 24.5 18 44.5l441 441q-29 27 -66 64q-19 20 -56 67q-65 82 -65 194q0 118 79 198q79 81 196 81q123 0 200 -92q78 -91 78 -205q0 -44 -15 -84q-15 -41 -50 -85q-32 -40 -58 -68l-67 -70l397 -398l244 244q18 18 44 18t44 -18t18 -43t-18 -43l-244 -244 l436 -438q18 -18 18.5 -43t-18.5 -43q-18 -18 -42.5 -18t-43.5 18l-438 436l-440 -440q-20 -20 -45 -20.5t-43 20.5l-486 483q-18 19 -18 43.5zM233 479l398 -397l399 399l-399 398zM479 1290q0 -44 20 -86q22 -42 43 -66q26 -28 72 -71q10 -9 17 -14q61 61 76 78 q23 24 51 68q28 41 28 73q0 68 -44 121t-111 53q-65 0 -109 -47q-43 -46 -43 -109z" />
<glyph unicode="'" horiz-adv-x="718" d="M-47 1563v309q0 27 17.5 44t43.5 17h299q41 0 57 -37q6 -14 5 -26q0 -21 -17 -41l-299 -309q-20 -20 -41 -20q-11 0 -26 5q-39 17 -39 58zM76 1714l92 96h-92v-96z" />
<glyph unicode="(" horiz-adv-x="714" d="M264 740q0 437 197 829q11 24 36 32q10 3 18 2l29 -7q24 -10 30 -34q3 -10 3 -20q0 -14 -6 -26q-184 -367 -184 -776q0 -408 184 -775q6 -13 6 -27q0 -10 -3 -19q-8 -25 -30 -35q-13 -7 -29 -7l-18 3q-25 8 -36 32q-197 392 -197 828z" />
<glyph unicode=")" horiz-adv-x="714" d="M148 -62q0 14 6 27q184 367 184 775q0 409 -184 776q-6 14 -6 26q0 10 3 20q7 23 30 34q13 7 29 7l18 -2q25 -8 36 -32q197 -392 197 -829q0 -436 -197 -828q-11 -24 -36 -32q-9 -3 -18 -3l-29 7q-22 10 -30 35q-3 11 -3 19z" />
<glyph unicode="*" horiz-adv-x="755" d="M45 1507q0 25 18.5 43.5t42.5 18.5h78l-55 53q-16 18 -16 44t17 43t43 17t44 -16l53 -55v74q0 26 18 43.5t43 17.5t43.5 -17.5t18.5 -43.5v-74l51 53q18 18 44 18t44 -18q19 -18 19 -44t-19 -44l-53 -51h74q26 0 43.5 -18.5t17.5 -43.5t-17.5 -43t-43.5 -18h-74l53 -51 q18 -18 18.5 -44t-18.5 -45q-18 -18 -43.5 -18t-44.5 19l-51 53v-78q0 -25 -18.5 -43t-43.5 -18q-24 0 -42.5 18t-18.5 43v78l-53 -55q-18 -16 -43.5 -16.5t-43.5 16.5q-17 18 -17 43.5t16 44.5l55 53h-78q-25 0 -43 18.5t-18 42.5z" />
<glyph unicode="+" horiz-adv-x="755" d="M16 279q0 26 17.5 43.5t44.5 17.5h217v215q0 25 18.5 43t42.5 18q25 0 43.5 -18t18.5 -43v-215h215q25 0 43 -17.5t18 -43.5q0 -25 -18.5 -43.5t-42.5 -18.5h-215v-217q0 -25 -18.5 -43t-43.5 -18q-24 0 -42.5 18t-18.5 43v217h-217q-26 0 -44 18.5t-18 43.5z" />
<glyph unicode="," horiz-adv-x="679" d="M-35 158q0 27 17.5 44t44.5 17h374q39 0 56 -36q6 -13 6 -26q0 -20 -17 -40l-374 -428q-17 -21 -43 -23q-9 0 -24 5q-40 15 -40 59v428zM88 96v-202l178 202h-178z" />
<glyph unicode="-" horiz-adv-x="671" d="M49 596q0 25 18.5 43t43.5 18h448q25 0 43.5 -18t18.5 -43t-18.5 -43t-43.5 -18h-448q-25 0 -43.5 18t-18.5 43z" />
<glyph unicode="." horiz-adv-x="471" d="M70 -24.5q0 24.5 18 42.5l45 45l-45 43q-16 18 -16 44t17 43q17 18 43 18t44 -16l43 -45l43 45q18 16 44 16t44 -18q19 -17 19 -42.5t-19 -44.5l-43 -43l43 -45q18 -18 18.5 -42.5t-18.5 -42.5q-18 -19 -42.5 -19t-43.5 18l-45 43l-43 -43q-18 -18 -44 -18t-44 19 q-18 18 -18 42.5z" />
<glyph unicode="/" horiz-adv-x="888" d="M113 -49q2 12 4 20l540 1592q7 22 31 33q13 7 27 7q11 0 19 -4q25 -8 35 -30q7 -13 7 -27q0 -11 -4 -20l-541 -1592q-7 -22 -30 -33q-13 -7 -27 -7q-11 0 -19 4q-25 8 -35 30q-7 13 -7 27z" />
<glyph unicode="0" horiz-adv-x="1531" d="M82 761q0 220 89 409q89 188 241 295q153 108 332 108q108 0 210 -41l11 31q7 23 30 33q13 7 27 7q11 0 19 -4q25 -8 35 -30q7 -13 7 -27q0 -11 -4 -20l-16 -47q1 0 5.5 -4t7.5 -6q152 -106 243 -295q90 -188 90 -409q0 -223 -90 -410t-243 -295q-152 -107 -332 -107 q-97 0 -188 32l-17 -51q-7 -22 -31 -33q-13 -7 -27 -7q-11 0 -19 4q-25 8 -35 30q-7 13 -7 27q2 12 4 20l21 63l-33 22q-153 109 -241 295q-89 189 -89 410zM205 761q0 -291 160 -490q56 -69 121 -116l429 1261q-78 34 -170 34q-219 0 -380 -200q-160 -199 -160 -489z M596 97q69 -25 149 -25q220 0 380 199q161 200 161 490q0 289 -161 489q-49 61 -103 103z" />
<glyph unicode="1" horiz-adv-x="811" d="M12 1069q0 20 13 37l331 438q19 25 47 25q10 0 22 -3q42 -14 42 -59v-1446h178q25 0 43.5 -18t18.5 -43t-18.5 -43t-43.5 -18h-479q-25 0 -43.5 18t-18.5 43t18.5 43t43.5 18h178v947h-270q-40 -1 -56 33q-8 14 -6 28zM197 1130h147v195z" />
<glyph unicode="2" horiz-adv-x="1304" d="M80 2q0 23 18 41l340 330l272 258q83 80 158 172q74 90 99 162h-758q-27 0 -44.5 17t-17.5 44q0 153 50 273q51 120 163 195t275 75q219 0 345 -131q126 -130 126 -346q0 -39 -4 -72q-6 -68 -36 -134q-30 -64 -69 -120q-36 -52 -119 -139l-150 -150l-202 -190l-235 -226 h749q27 0 44.5 -18t17.5 -43t-17.5 -43t-44.5 -18h-899q-41 -2 -56 37q-5 15 -5 26zM272 1087h711v5q0 159 -89 257q-88 97 -259 97q-91 0 -162.5 -30.5t-111.5 -84.5q-77 -106 -89 -244z" />
<glyph unicode="3" horiz-adv-x="1304" d="M20 446q0 20 12 36q20 35 63 24t48 -49q27 -168 156 -279q127 -112 297 -117h10q181 0 309 121q61 60 97.5 142.5t36.5 164.5v7q-1 119 -70 221q-15 21 -33 41q-49 -48 -112 -80q-100 -51 -216 -51q-39 0 -75 6q-154 25 -262 135q-18 18 -19 41.5t17 44.5 q111 116 264 147q47 9 108 11q102 0 195 -37q44 -17 82 -43l6 10q39 76 39 160q0 30 -6 55q-18 120 -106 200q-88 82 -206 89h-24q-131 0 -228 -88q-51 -45 -79.5 -110t-28.5 -134q0 -27 -18 -44t-45 -17q-24 0 -42 18.5t-18 42.5q0 93 38 181t109 153q130 121 312 121h33 q161 -12 280 -123q119 -110 146 -268q6 -38 6 -76q0 -114 -54 -215q-8 -17 -18 -33q34 -34 57 -70q89 -129 90 -288v-7q0 -111 -45 -215t-127 -180q-164 -156 -393 -155h-14q-214 5 -375 145q-81 72 -140 169q-57 96 -57 193zM418 813q67 -46 143 -59q25 -4 57 -4 q82 0 160 38q39 18 72 48q-34 18 -51 26q-71 27 -148 27q-39 0 -82 -8q-79 -16 -151 -68z" />
<glyph unicode="4" horiz-adv-x="1259" d="M122 517q0 20 15 38l805 991q20 23 44 23q12 0 24 -4q41 -14 41 -58v-1507q0 -27 -17.5 -44t-44.5 -17h-375q-25 0 -43 18t-18 43t18.5 43t42.5 18h314v394h-744q-38 -1 -55 34q-7 13 -7 28zM313 578h615v755z" />
<glyph unicode="5" horiz-adv-x="1333" d="M171 221q0 7 1 11q3 26 25 40.5t47.5 11t38.5 -25.5q67 -91 163 -142t207 -55h11q55 0 104 13q120 28 204.5 109t119.5 198q14 54 14 108v7q0 97 -49 185t-131 144q-79 52 -174 68q-48 8 -90 8q-192 0 -347 -119q-16 -13 -35 -13q-15 0 -28 7q-35 17 -35 55v676 q0 27 17.5 44.5t44.5 17.5h749q47 0 59 -46q3 -11 3 -20q0 -33 -33 -49l-717 -389v-121q152 80 322 80q51 0 110 -8q122 -22 221 -88q36 -24 80 -64q73 -73 114.5 -170.5t41.5 -197.5v-7q0 -74 -19 -141q-42 -151 -153 -254q-50 -49 -121 -88q-66 -35 -139 -51 q-64 -16 -133 -16h-15q-67 1 -135 18q-98 27 -184 86.5t-148 142.5q-11 17 -11 35zM340 1204l444 242h-444v-242z" />
<glyph unicode="6" horiz-adv-x="1196" d="M82 504v12q0 198 72 385q74 191 206 336q232 258 574 330q10 2 14 2q18 0 32 -10q35 -20 26 -63.5t-48 -47.5q-301 -66 -507 -293q-93 -104 -152 -229q153 119 344 118q231 0 394 -162q163 -160 163 -391q0 -229 -163 -391q-164 -161 -394 -161q-226 0 -390 158 q-163 159 -171 407zM209 491q0 -178 127 -304q128 -126 307 -126t307 126q127 126 127 304q0 179 -127 305q-128 126 -307 126t-307 -126q-127 -126 -127 -305z" />
<glyph unicode="7" horiz-adv-x="1099" d="M79 1506q0 12 6 26q15 37 56 37h842q33 0 51 -27q11 -17 11 -33q0 -11 -5 -24l-596 -1508q-11 -26 -32 -33q-23 -11 -47 0q-24 9 -33.5 31.5t-1.5 47.5l317 800h-309q-25 0 -43.5 18.5t-18.5 42.5q0 25 18.5 43.5t43.5 18.5h250l-492 518q-17 20 -17 42zM285 1446 l428 -453l180 453h-608z" />
<glyph unicode="8" horiz-adv-x="1304" d="M92 481q0 201 131 353q-72 116 -71 251q0 201 141 342q141 142 342 142t342 -142q141 -141 141 -342q0 -136 -71 -251q131 -152 131 -353q0 -225 -159 -384q-160 -158 -384 -158t-384 158q-159 159 -159 384zM215 481q0 -174 123 -297t297 -123t297 123t123 297 q0 141 -86 254q-140 -133 -334 -133t-334 133q-86 -113 -86 -254zM274 1085q0 -88 41 -165q143 104 319 104q177 0 320 -104q41 79 41 165q0 150 -106 255q-105 106 -255 106q-149 0 -255 -106q-105 -105 -105 -255zM389 821q103 -96 245 -96t247 96q-112 80 -246 80 t-246 -80z" />
<glyph unicode="9" horiz-adv-x="1196" d="M-20 1015q0 230 162 392q164 162 395 162q227 0 390 -159q164 -159 171 -406v-13q0 -199 -73 -385q-74 -189 -206 -336q-233 -259 -573 -329q-10 -2 -15 -2q-18 0 -31 10q-23 12 -27.5 37.5t9.5 47.5t39 25q300 66 508 293q92 103 152 230q-152 -119 -344 -119 q-230 0 -394 161q-163 162 -163 391zM102 1016q0 -178 127 -304t307 -126t308 126q127 126 127 304t-127 304q-128 126 -308 126t-307 -126t-127 -304z" />
<glyph unicode=":" horiz-adv-x="444" d="M70 -24.5q0 24.5 18 42.5l45 45l-45 43q-16 18 -16 44t17 43q17 18 43 18t44 -16l43 -45l43 45q18 16 44 16t44 -18q19 -17 19 -42.5t-19 -44.5l-43 -43l43 -45q18 -18 18.5 -42.5t-18.5 -42.5q-18 -19 -42.5 -19t-43.5 18l-45 43l-43 -43q-18 -18 -44 -18t-44 19 q-18 18 -18 42.5zM70 909.5q0 24.5 18 42.5l45 45l-45 43q-16 18 -16 44t17 43q17 18 43 18t44 -17l43 -45l43 45q18 16 44 16.5t44 -17.5q19 -17 19 -42.5t-19 -44.5l-43 -43l43 -45q18 -18 18.5 -42.5t-18.5 -43.5q-18 -18 -42.5 -18t-43.5 18l-45 43l-43 -43 q-18 -18 -44 -18t-44 18q-18 19 -18 43.5z" />
<glyph unicode=";" horiz-adv-x="471" d="M-14 -176v428q0 27 17 44t44 17h375q38 0 55 -35q6 -14 6 -27q0 -21 -16 -40l-375 -428q-18 -22 -42 -22q-9 0 -24 5q-40 15 -40 58zM70 909.5q0 24.5 18 42.5l45 45l-45 43q-16 18 -16 44t17 43q17 18 43 18t44 -17l43 -45l43 45q18 16 44 16.5t44 -17.5 q19 -17 19 -42.5t-19 -44.5l-43 -43l43 -45q18 -18 18.5 -42.5t-18.5 -43.5q-18 -18 -42.5 -18t-43.5 18l-45 43l-43 -43q-18 -18 -44 -18t-44 18q-18 19 -18 43.5zM109 -12l178 202h-178v-202z" />
<glyph unicode="&#x3c;" horiz-adv-x="641" d="M91 640q0 22 18 40l196 221q18 21 43 21q12 0 24 -4q40 -13 40 -58v-418q0 -41 -38 -56q-15 -5 -26 -5q-23 0 -41 18l-196 197q-20 20 -20 44zM238 641l51 -51v108z" />
<glyph unicode="=" horiz-adv-x="770" d="M49 348q0 25 18.5 43.5t43.5 18.5h561q25 0 43 -18.5t18 -43.5q0 -24 -18.5 -42.5t-42.5 -18.5h-561q-25 0 -43.5 18.5t-18.5 42.5zM49 596q0 25 18.5 43t43.5 18h561q25 0 43 -18t18 -43t-18.5 -43t-42.5 -18h-561q-25 0 -43.5 18t-18.5 43z" />
<glyph unicode="&#x3e;" horiz-adv-x="641" d="M190 442v418q0 43 40 58q16 5 24 4q24 0 43 -21l197 -221q17 -17 17 -40q0 -25 -19 -44l-197 -197q-19 -19 -41 -18q-11 0 -26 5q-38 15 -38 56zM313 590l52 51l-52 57v-108z" />
<glyph unicode="?" horiz-adv-x="991" d="M57 1506q0 10 5 25q15 38 57 38h768q38 0 55 -35q7 -14 7 -28q0 -20 -13 -36l-404 -518v-590q0 -25 -18 -43t-43 -18t-43 18.5t-18 42.5v611q0 21 12 37l47 59l-393 395q-19 19 -19 42zM266 1446l279 -279l217 279h-496zM328 -24.5q0 24.5 18 42.5l45 45l-45 43 q-16 18 -16 44t17 43q18 18 43.5 18t43.5 -16l43 -45l43 45q18 16 44 16t44 -18q19 -17 19 -42.5t-19 -44.5l-43 -43l43 -45q18 -18 18.5 -42.5t-18.5 -42.5q-18 -19 -42.5 -19t-43.5 18l-45 43l-43 -43q-18 -18 -43.5 -18t-44.5 19q-18 18 -18 42.5z" />
<glyph unicode="@" horiz-adv-x="1748" d="M57 704q0 320 227 547q228 228 547 228q321 0 547 -228q228 -227 228 -546q0 -105 -25.5 -188.5t-66.5 -127.5q-77 -84 -166 -84q-52 0 -98 27t-70 74l-121 227l-156 -234q-17 -27 -50 -27q-33 1 -50 27l-158 234l-119 -227q-12 -23 -36.5 -30.5t-47.5 4.5 q-21 11 -28.5 35.5t2.5 47.5l381 723q17 33 54 33t54 -33l381 -723q20 -35 62 -35q49 0 92 67t43 210q0 269 -191 460t-461 191t-461 -191q-190 -190 -190 -461t190 -461t461 -190q207 0 345 84q14 8 32 8q33 0 52 -28q10 -13 10 -33q0 -33 -31 -51q-166 -101 -408 -103 q-318 0 -547 227q-227 229 -227 547zM709 756l143 -211l141 211l-141 270z" />
<glyph unicode="A" d="M-4 1q0 15 6 28l793 1507q18 33 55 33q36 0 53 -33l797 -1507q6 -13 6 -28q0 -10 -3 -19q-9 -38 -53 -42q-4 0 -7 -1q-37 0 -54 32l-301 572l-385 -578q-17 -26 -49 -26h-2q-33 0 -51 26l-389 578l-299 -572q-17 -32 -52 -32q-4 1 -9 1q-42 4 -53 42q-3 10 -3 19z M477 666l375 -555l371 557l-373 708z" />
<glyph unicode="B" horiz-adv-x="1439" d="M143 0v1507q0 27 17.5 44.5t44.5 17.5h389q211 0 365 -145q156 -145 169 -353q99 -93 154 -217.5t55 -261.5q0 -176 -88 -327q-89 -150 -239 -238q-149 -88 -326 -88h-479q-27 0 -44.5 17t-17.5 44zM266 61h418q220 0 374 156q156 156 156 375q0 172 -100 311 q-43 -177 -189 -293q-145 -114 -331 -114h-328v-435zM266 618h328q167 0 285 115q120 116 129 281q-142 110 -321 110h-3h-418v-506zM266 1247h418q159 0 299 -73q-45 120 -152 196q-106 76 -237 76h-328v-199z" />
<glyph unicode="C" horiz-adv-x="1513" d="M47 753q0 221 113 414q109 184 293 293q194 113 413 113q153 0 293 -55q137 -53 248 -150q18 -16 20.5 -42t-15.5 -45q-17 -19 -43 -20t-44 15q-94 82 -211 127q-120 47 -248 47q-188 0 -350 -96q-158 -92 -250 -250q-96 -162 -96 -350t96 -351q91 -157 250 -249 q160 -93 350 -95q127 0 250 47q117 45 211 127q18 18 44 16.5t42 -20.5q14 -16 16 -41q0 -28 -20 -45q-113 -99 -248 -151q-141 -55 -295 -55q-220 0 -413 110q-183 109 -293 295q-113 191 -113 411z" />
<glyph unicode="D" horiz-adv-x="1390" d="M160 0v1507q0 27 17.5 44.5t43.5 17.5h305q207 0 366.5 -62t255.5 -176q191 -224 191 -577q0 -352 -195 -577q-98 -113 -257 -175.5t-361 -62.5h-305q-27 0 -44 17t-17 44zM283 61h243q178 0 315 54t218 152q158 193 158 487q0 219 -86 383q-48 94 -123 160 q-77 69 -202 109t-280 40h-243v-1385z" />
<glyph unicode="E" horiz-adv-x="1372" d="M141 0v1507q0 27 17.5 44.5t44.5 17.5h921q40 0 57 -38q5 -15 5 -25q0 -23 -19 -42l-817 -817h774q25 0 43.5 -18.5t18.5 -43.5q0 -24 -18.5 -42.5t-43.5 -18.5h-860v-463h860q25 0 43.5 -18t18.5 -43t-18.5 -43t-43.5 -18h-921q-27 0 -44.5 17t-17.5 44zM264 733 l713 713h-713v-713z" />
<glyph unicode="F" horiz-adv-x="1372" d="M141 0v1507q0 27 17.5 44.5t44.5 17.5h921q40 0 57 -38q5 -15 5 -25q0 -23 -19 -42l-817 -817h774q25 0 43.5 -18.5t18.5 -43.5q0 -24 -18.5 -42.5t-43.5 -18.5h-860v-524q0 -25 -18.5 -43t-43.5 -18q-24 0 -42.5 18t-18.5 43zM264 733l713 713h-713v-713z" />
<glyph unicode="G" horiz-adv-x="1847" d="M96 754q0 224 109 411t298 298q190 110 412 110q153 0 295 -56q144 -56 246 -149q18 -18 19.5 -44t-15.5 -44q-16 -18 -41.5 -19t-44.5 15q-89 79 -209 126q-121 48 -250 48q-189 0 -349 -93q-159 -92 -254 -254q-93 -161 -93 -350q0 -187 93 -348q95 -159 254 -253 q160 -93 349 -93q224 0 400 136l-533 516q-19 19 -18 41q0 10 5 25q15 38 56 38h828q27 0 44 -17.5t17 -43.5q0 -262 -153 -478q-22 -29 -68 -83l154 -148q18 -18 18 -44t-18 -44q-17 -18 -42.5 -18t-43.5 16l-158 154q-212 -172 -488 -172q-224 0 -412 109 q-188 110 -298 298q-109 187 -109 410zM977 692l428 -413q32 37 55 71q112 154 129 342h-612z" />
<glyph unicode="H" horiz-adv-x="1509" d="M213 0v1507q0 25 18.5 43.5t42.5 18.5q25 0 43.5 -18.5t18.5 -43.5v-768l379 379q18 18 43.5 18.5t44.5 -18.5l373 -379v768q0 25 18 43.5t43 18.5t43 -18.5t18 -43.5v-1507q0 -25 -18 -43t-43 -18t-43 18t-18 43v528h-840v-528q0 -25 -18.5 -43t-43.5 -18 q-24 0 -42.5 18t-18.5 43zM422 651h668l-332 336z" />
<glyph unicode="I" horiz-adv-x="811" d="M104 0q0 25 18.5 43t43.5 18h178v1385h-178q-25 0 -43.5 18.5t-18.5 42.5q0 25 18.5 43.5t43.5 18.5h479q25 0 43.5 -18.5t18.5 -43.5q0 -24 -18.5 -42.5t-43.5 -18.5h-178v-1385h178q25 0 43.5 -18t18.5 -43t-18.5 -43t-43.5 -18h-479q-25 0 -43.5 18t-18.5 43z" />
<glyph unicode="J" horiz-adv-x="1216" d="M188 377q0 26 18.5 43.5t43.5 17.5q26 0 43.5 -17.5t17.5 -43.5q0 -131 93 -224q95 -92 225 -92q138 0 227 82q90 83 90 234v350l-737 737q-19 19 -19 42q0 12 6 25q15 38 56 38h756q27 0 44 -17.5t17 -44.5v-1130q0 -197 -124 -318q-125 -120 -316 -120q-181 0 -312 128 q-129 127 -129 310zM399 1446l547 -547v547h-547z" />
<glyph unicode="K" horiz-adv-x="1622" d="M246 0v1507q0 45 42 59q10 3 18 3h4q27 0 46 -25l383 -500l430 504q17 18 42 21h6q23 0 39 -15q19 -16 21.5 -41.5t-13.5 -46.5l-449 -520l696 -909q12 -17 12 -37q0 -30 -24 -48q-20 -15 -44.5 -12t-41.5 23l-680 887l-364 -424v-426q0 -25 -18.5 -43t-43.5 -18 q-24 0 -42.5 18t-18.5 43zM369 614l288 336l-288 377v-713z" />
<glyph unicode="L" horiz-adv-x="1249" d="M246 0v1507q0 25 18.5 43.5t42.5 18.5q25 0 43.5 -18.5t18.5 -43.5v-764l700 -700q19 -19 19 -41q0 -12 -6 -26q-14 -37 -52 -37h-4h-719q-27 0 -44 17t-17 44zM369 61h510l-510 510v-510z" />
<glyph unicode="M" horiz-adv-x="1708" d="M166 0v1507q0 39 36 56q12 6 24 6h3q21 0 37 -15l586 -495l584 495q18 15 38 15q14 0 28 -6q36 -17 36 -56v-1507q0 -25 -18.5 -43t-44.5 -18q-25 0 -42.5 18t-17.5 43v420l-563 477l-563 -477v-420q0 -25 -18.5 -43t-44.5 -18q-25 0 -42.5 18t-17.5 43zM289 582l467 397 l-467 395v-792zM946 979l469 -397v792z" />
<glyph unicode="N" horiz-adv-x="1505" d="M166 0v1507q0 25 15.5 43.5t43.5 18.5q35 0 54 -27l919 -1343v1308q0 25 18.5 43.5t42.5 18.5q25 0 43.5 -18.5t18.5 -43.5v-1507q0 -61 -70 -61h-1024q-27 0 -44 17t-17 44zM289 61h854l-854 1248v-1248z" />
<glyph unicode="O" horiz-adv-x="1855" d="M80 754q0 224 109 411t298 298q190 110 411 110q222 0 410 -110q189 -109 298 -298q110 -188 110 -411q0 -222 -110 -410q-111 -189 -298 -298t-410 -109t-411 109q-188 110 -298 298q-109 187 -109 410zM203 753q0 -187 93 -348q92 -158 254 -253q160 -93 349 -93 q187 0 348 93q160 94 253 253q93 161 93 348q0 189 -93 350q-94 162 -253 254q-161 93 -348 93q-189 0 -349 -93q-161 -93 -254 -254t-93 -350z" />
<glyph unicode="P" horiz-adv-x="1323" d="M193 0v1507q0 27 17 44.5t44 17.5h389q221 0 379 -158t158 -379t-158 -379q-157 -157 -379 -157h-328v-496q0 -25 -18 -43t-43 -18t-43 18t-18 43zM315 618h328q172 0 293 121t121 293t-121 293t-293 121h-328v-828z" />
<glyph unicode="Q" d="M31 754q0 164 63.5 314.5t172 261.5t261 177t321.5 66q162 0 312 -63.5t261.5 -171.5t178 -261t66.5 -323q0 -182 -74 -339t-193 -267q-110 -101 -253.5 -152.5t-299.5 -51.5q-247 0 -436 118.5t-308 355.5q-72 142 -72 336zM154 754q0 -152 63.5 -289t175.5 -236 l408 605q17 26 51 26q33 0 51 -26l402 -605q114 99 176.5 235.5t62.5 289.5q0 137 -53.5 264.5t-145 222.5t-221 152t-274.5 57q-183 0 -342.5 -90t-256.5 -251.5t-97 -354.5zM494 158q164 -99 356 -99t356 99l-354 530z" />
<glyph unicode="R" horiz-adv-x="1443" d="M186 0v1507q0 45 43 60h4q6 2 11 2h4h387q223 0 379 -158q157 -157 157 -379q0 -137 -64 -255q-62 -116 -173 -191l366 -551q11 -17 11 -34q0 -8 -1 -13q-4 -26 -27 -39q-17 -11 -33 -11q-3 0 -13 2q-25 4 -39 25l-375 565q-90 -34 -183 -34h-5h-326v-496 q0 -25 -18.5 -43t-43.5 -18q-24 0 -42.5 18t-18.5 43zM309 618h326q59 0 119 17l-445 670v-687zM362 1446l504 -758q85 58 134 148.5t49 195.5q0 172 -121 293t-293 121h-273z" />
<glyph unicode="S" horiz-adv-x="1304" d="M137 1032q0 143 73 267t197 197t267 73h377q26 0 43.5 -17.5t17.5 -45.5q-2 -26 -18 -42l-701 -700q64 -73 326 -315l424 -406q18 -18 18 -41q0 -30 -17.5 -46.5t-43.5 -16.5h-899q-27 0 -44.5 18t-17.5 43t17.5 43t44.5 18h749l-240 229l-207 191q-74 68 -157 155.5 t-117 136.5q-92 134 -92 259zM260 1018q4 -74 57 -156l586 584h-229q-83 0 -159 -32.5t-131.5 -88.5t-89 -136t-34.5 -171z" />
<glyph unicode="T" horiz-adv-x="1536" d="M80 1025q0 31 24 50l621 481q18 14 37 15l37 -15l620 -481q19 -17 24 -42q1 -2 1 -4t-1 -4q0 -21 -12 -37q-15 -19 -41 -22t-44 11l-523 405v-1382q0 -25 -18.5 -43t-43.5 -18q-24 0 -42.5 18t-18.5 43v1382l-522 -405q-18 -14 -43.5 -11t-41.5 22q-13 16 -13 37z" />
<glyph unicode="U" horiz-adv-x="1353" d="M102 479v1030q0 27 17.5 44.5t42.5 17.5q27 0 45 -17.5t18 -44.5v-1030q0 -169 132 -293q133 -125 319 -125q190 0 321 119t131 299v1030q0 27 17.5 44.5t42.5 17.5q27 0 45 -17.5t18 -44.5v-1030q0 -233 -168 -387q-168 -153 -407 -153q-236 0 -405 159 q-169 160 -169 381z" />
<glyph unicode="V" horiz-adv-x="1353" d="M101 1510q0 14 7 27q11 24 35 32q11 3 21 3q14 0 26 -6q24 -11 31 -36l455 -1340l454 1340q7 25 32 36q11 6 22 6h6l19 -3q24 -8 35 -32q7 -13 7 -27q0 -11 -4 -19l-514 -1511q-14 -41 -58 -41q-43 0 -57 41l-514 1511q-3 9 -3 19z" />
<glyph unicode="W" horiz-adv-x="1708" d="M166 0v1507q0 25 17.5 43.5t42.5 18.5q26 0 44.5 -18.5t18.5 -43.5v-420l563 -477l563 477v420q0 25 17.5 43.5t42.5 18.5q26 0 44.5 -18.5t18.5 -43.5v-1507q0 -38 -36 -55q-13 -7 -28 -7q-20 0 -38 15l-584 496l-586 -496q-16 -15 -37 -15q-14 0 -27 7q-36 17 -36 55z M289 133l467 395l-467 398v-793zM946 528l469 -395v793z" />
<glyph unicode="X" horiz-adv-x="1705" d="M159 -1q0 20 15 38l604 756l-542 673q-16 20 -13.5 46t22.5 41q17 14 39 14h6q26 -2 40 -23l526 -655l524 655q17 20 41 23h6q20 0 39 -14q20 -15 23.5 -40.5t-12.5 -44.5l-541 -675l604 -756q15 -17 15 -37q0 -14 -7 -28q-17 -35 -53 -35h-2h-1272h-2q-36 0 -53 34 q-7 13 -7 28zM350 59h1014l-508 635z" />
<glyph unicode="Y" horiz-adv-x="1533" d="M41 1505v6q0 11 6 22q17 36 55 36h1356q38 0 55 -36q5 -12 7 -27q0 -20 -17 -40l-674 -757v-709q0 -25 -18 -43t-43 -18t-43 18t-18 43v709l-652 757q-15 19 -14 39zM236 1446l532 -621l553 621h-1085z" />
<glyph unicode="Z" horiz-adv-x="1691" d="M147 2q0 20 13 37l628 792l-485 639q-13 17 -13 37q0 15 7 28q16 34 55 34h1049q38 0 55 -35q7 -14 7 -29q0 -20 -13 -37l-1114 -1407h1151q25 0 43 -18t18 -43t-18.5 -43t-42.5 -18h-1278h-2q-36 0 -53 34q-7 14 -7 29zM475 1446l391 -516l408 516h-799z" />
<glyph unicode="[" horiz-adv-x="751" d="M209 -104v1712q0 27 17.5 44t43.5 17h271q25 0 43 -18.5t18 -44.5q0 -24 -18.5 -42t-42.5 -18h-209v-1589h205q25 0 43 -17.5t18 -42.5q0 -26 -18.5 -44.5t-42.5 -18.5h-267q-27 0 -44 17.5t-17 44.5z" />
<glyph unicode="\" horiz-adv-x="888" d="M115 1542q0 14 7 27q10 22 35 30q8 4 19 4q14 0 27 -7q23 -10 30 -33l541 -1592q4 -9 4 -20q0 -14 -7 -27q-10 -22 -35 -30q-8 -4 -19 -4q-14 0 -27 7q-24 11 -31 33l-540 1592q-2 8 -4 20z" />
<glyph unicode="]" horiz-adv-x="751" d="M135 1606q0 26 18.5 44.5t43.5 18.5h270q27 0 44 -17t17 -44v-1712q0 -27 -17 -44.5t-44 -17.5h-266q-25 0 -43.5 18.5t-18.5 44.5q0 25 18.5 42.5t43.5 17.5h205v1589h-209q-25 0 -43.5 17.5t-18.5 42.5z" />
<glyph unicode="^" horiz-adv-x="731" d="M92 1822.5q0 24.5 19 43.5l217 217q18 18 42.5 18t43.5 -18l217 -217q18 -18 18 -43t-19 -44q-18 -18 -42.5 -18t-42.5 19l-174 174l-174 -174q-18 -18 -44 -18.5t-44 17.5q-17 19 -17 43.5z" />
<glyph unicode="_" horiz-adv-x="1046" d="M0 0q0 25 18.5 43t42.5 18h842q25 0 43.5 -18t18.5 -43t-18.5 -43t-43.5 -18h-842q-25 0 -43 18t-18 43z" />
<glyph unicode="`" horiz-adv-x="884" d="M78 1997q0 10 5 25q15 38 56 38h310q27 0 44 -17.5t17 -43.5v-299q0 -41 -37 -56q-14 -5 -25 -6q-23 0 -42 19l-310 299q-19 19 -18 41zM291 1937l96 -92v92h-96z" />
<glyph unicode="a" d="M-4 1q0 15 6 28l793 1507q18 33 55 33q36 0 53 -33l797 -1507q6 -13 6 -28q0 -10 -3 -19q-9 -38 -53 -42q-4 0 -7 -1q-37 0 -54 32l-301 572l-385 -578q-17 -26 -49 -26h-2q-33 0 -51 26l-389 578l-299 -572q-17 -32 -52 -32q-4 1 -9 1q-42 4 -53 42q-3 10 -3 19z M477 666l375 -555l371 557l-373 708z" />
<glyph unicode="b" horiz-adv-x="1439" d="M143 0v1507q0 27 17.5 44.5t44.5 17.5h389q211 0 365 -145q156 -145 169 -353q99 -93 154 -217.5t55 -261.5q0 -176 -88 -327q-89 -150 -239 -238q-149 -88 -326 -88h-479q-27 0 -44.5 17t-17.5 44zM266 61h418q220 0 374 156q156 156 156 375q0 172 -100 311 q-43 -177 -189 -293q-145 -114 -331 -114h-328v-435zM266 618h328q167 0 285 115q120 116 129 281q-142 110 -321 110h-3h-418v-506zM266 1247h418q159 0 299 -73q-45 120 -152 196q-106 76 -237 76h-328v-199z" />
<glyph unicode="c" horiz-adv-x="1513" d="M47 753q0 221 113 414q109 184 293 293q194 113 413 113q153 0 293 -55q137 -53 248 -150q18 -16 20.5 -42t-15.5 -45q-17 -19 -43 -20t-44 15q-94 82 -211 127q-120 47 -248 47q-188 0 -350 -96q-158 -92 -250 -250q-96 -162 -96 -350t96 -351q91 -157 250 -249 q160 -93 350 -95q127 0 250 47q117 45 211 127q18 18 44 16.5t42 -20.5q14 -16 16 -41q0 -28 -20 -45q-113 -99 -248 -151q-141 -55 -295 -55q-220 0 -413 110q-183 109 -293 295q-113 191 -113 411z" />
<glyph unicode="d" horiz-adv-x="1390" d="M160 0v1507q0 27 17.5 44.5t43.5 17.5h305q207 0 366.5 -62t255.5 -176q191 -224 191 -577q0 -352 -195 -577q-98 -113 -257 -175.5t-361 -62.5h-305q-27 0 -44 17t-17 44zM283 61h243q178 0 315 54t218 152q158 193 158 487q0 219 -86 383q-48 94 -123 160 q-77 69 -202 109t-280 40h-243v-1385z" />
<glyph unicode="e" horiz-adv-x="1372" d="M141 0v1507q0 27 17.5 44.5t44.5 17.5h921q40 0 57 -38q5 -15 5 -25q0 -23 -19 -42l-817 -817h774q25 0 43.5 -18.5t18.5 -43.5q0 -24 -18.5 -42.5t-43.5 -18.5h-860v-463h860q25 0 43.5 -18t18.5 -43t-18.5 -43t-43.5 -18h-921q-27 0 -44.5 17t-17.5 44zM264 733 l713 713h-713v-713z" />
<glyph unicode="f" horiz-adv-x="1372" d="M141 0v1507q0 27 17.5 44.5t44.5 17.5h921q40 0 57 -38q5 -15 5 -25q0 -23 -19 -42l-817 -817h774q25 0 43.5 -18.5t18.5 -43.5q0 -24 -18.5 -42.5t-43.5 -18.5h-860v-524q0 -25 -18.5 -43t-43.5 -18q-24 0 -42.5 18t-18.5 43zM264 733l713 713h-713v-713z" />
<glyph unicode="g" horiz-adv-x="1847" d="M96 754q0 224 109 411t298 298q190 110 412 110q153 0 295 -56q144 -56 246 -149q18 -18 19.5 -44t-15.5 -44q-16 -18 -41.5 -19t-44.5 15q-89 79 -209 126q-121 48 -250 48q-189 0 -349 -93q-159 -92 -254 -254q-93 -161 -93 -350q0 -187 93 -348q95 -159 254 -253 q160 -93 349 -93q224 0 400 136l-533 516q-19 19 -18 41q0 10 5 25q15 38 56 38h828q27 0 44 -17.5t17 -43.5q0 -262 -153 -478q-22 -29 -68 -83l154 -148q18 -18 18 -44t-18 -44q-17 -18 -42.5 -18t-43.5 16l-158 154q-212 -172 -488 -172q-224 0 -412 109 q-188 110 -298 298q-109 187 -109 410zM977 692l428 -413q32 37 55 71q112 154 129 342h-612z" />
<glyph unicode="h" horiz-adv-x="1509" d="M213 0v1507q0 25 18.5 43.5t42.5 18.5q25 0 43.5 -18.5t18.5 -43.5v-768l379 379q18 18 43.5 18.5t44.5 -18.5l373 -379v768q0 25 18 43.5t43 18.5t43 -18.5t18 -43.5v-1507q0 -25 -18 -43t-43 -18t-43 18t-18 43v528h-840v-528q0 -25 -18.5 -43t-43.5 -18 q-24 0 -42.5 18t-18.5 43zM422 651h668l-332 336z" />
<glyph unicode="i" horiz-adv-x="811" d="M104 0q0 25 18.5 43t43.5 18h178v1385h-178q-25 0 -43.5 18.5t-18.5 42.5q0 25 18.5 43.5t43.5 18.5h479q25 0 43.5 -18.5t18.5 -43.5q0 -24 -18.5 -42.5t-43.5 -18.5h-178v-1385h178q25 0 43.5 -18t18.5 -43t-18.5 -43t-43.5 -18h-479q-25 0 -43.5 18t-18.5 43z" />
<glyph unicode="j" horiz-adv-x="1216" d="M188 377q0 26 18.5 43.5t43.5 17.5q26 0 43.5 -17.5t17.5 -43.5q0 -131 93 -224q95 -92 225 -92q138 0 227 82q90 83 90 234v350l-737 737q-19 19 -19 42q0 12 6 25q15 38 56 38h756q27 0 44 -17.5t17 -44.5v-1130q0 -197 -124 -318q-125 -120 -316 -120q-181 0 -312 128 q-129 127 -129 310zM399 1446l547 -547v547h-547z" />
<glyph unicode="k" horiz-adv-x="1622" d="M246 0v1507q0 45 42 59q10 3 18 3h4q27 0 46 -25l383 -500l430 504q17 18 42 21h6q23 0 39 -15q19 -16 21.5 -41.5t-13.5 -46.5l-449 -520l696 -909q12 -17 12 -37q0 -30 -24 -48q-20 -15 -44.5 -12t-41.5 23l-680 887l-364 -424v-426q0 -25 -18.5 -43t-43.5 -18 q-24 0 -42.5 18t-18.5 43zM369 614l288 336l-288 377v-713z" />
<glyph unicode="l" horiz-adv-x="1249" d="M246 0v1507q0 25 18.5 43.5t42.5 18.5q25 0 43.5 -18.5t18.5 -43.5v-764l700 -700q19 -19 19 -41q0 -12 -6 -26q-14 -37 -52 -37h-4h-719q-27 0 -44 17t-17 44zM369 61h510l-510 510v-510z" />
<glyph unicode="m" horiz-adv-x="1708" d="M166 0v1507q0 39 36 56q12 6 24 6h3q21 0 37 -15l586 -495l584 495q18 15 38 15q14 0 28 -6q36 -17 36 -56v-1507q0 -25 -18.5 -43t-44.5 -18q-25 0 -42.5 18t-17.5 43v420l-563 477l-563 -477v-420q0 -25 -18.5 -43t-44.5 -18q-25 0 -42.5 18t-17.5 43zM289 582l467 397 l-467 395v-792zM946 979l469 -397v792z" />
<glyph unicode="n" horiz-adv-x="1505" d="M166 0v1507q0 46 43 59q8 4 16 4l6 -1q29 0 48 -27l919 -1343v1308q0 25 18.5 43.5t42.5 18.5q25 0 43.5 -18.5t18.5 -43.5v-1507q0 -61 -70 -61h-1024q-27 0 -44 17t-17 44zM289 61h854l-854 1248v-1248z" />
<glyph unicode="o" horiz-adv-x="1855" d="M80 754q0 224 109 411t298 298q190 110 411 110q222 0 410 -110q189 -109 298 -298q110 -188 110 -411q0 -222 -110 -410q-111 -189 -298 -298t-410 -109t-411 109q-188 110 -298 298q-109 187 -109 410zM203 753q0 -187 93 -348q92 -158 254 -253q160 -93 349 -93 q187 0 348 93q160 94 253 253q93 161 93 348q0 189 -93 350q-94 162 -253 254q-161 93 -348 93q-189 0 -349 -93q-161 -93 -254 -254t-93 -350z" />
<glyph unicode="p" horiz-adv-x="1323" d="M193 0v1507q0 27 17 44.5t44 17.5h389q221 0 379 -158t158 -379t-158 -379q-157 -157 -379 -157h-328v-496q0 -25 -18 -43t-43 -18t-43 18t-18 43zM315 618h328q172 0 293 121t121 293t-121 293t-293 121h-328v-828z" />
<glyph unicode="q" d="M31 754q0 224 109 411t298 298q190 110 411 110q222 0 410 -110q189 -109 298 -298q110 -188 110 -411q0 -194 -85 -371q-86 -177 -285 -312q-200 -134 -448 -134q-249 0 -451 139q-202 140 -284 312q-83 174 -83 366zM154 754q0 -155 64 -290q63 -134 175 -235l408 605 q18 27 51 26q33 0 51 -26l402 -605q113 98 176 234q63 137 63 291q0 188 -93 349q-94 162 -253 254q-160 93 -348 93t-349 -93t-254 -254t-93 -349zM494 158q163 -97 356 -99q192 0 356 99l-354 530z" />
<glyph unicode="r" horiz-adv-x="1443" d="M186 0v1507q0 45 43 60h4q6 2 11 2h4h387q223 0 379 -158q157 -157 157 -379q0 -137 -64 -255q-62 -116 -173 -191l366 -551q11 -17 11 -34q0 -8 -1 -13q-4 -26 -27 -39q-17 -11 -33 -11q-3 0 -13 2q-25 4 -39 25l-375 565q-90 -34 -183 -34h-5h-326v-496 q0 -25 -18.5 -43t-43.5 -18q-24 0 -42.5 18t-18.5 43zM309 618h326q59 0 119 17l-445 670v-687zM362 1446l504 -758q85 58 134 148.5t49 195.5q0 172 -121 293t-293 121h-273z" />
<glyph unicode="s" horiz-adv-x="1304" d="M137 1032q0 221 158 379t379 158h377q41 0 56 -38q5 -15 5 -25q0 -22 -18 -42l-701 -700q71 -80 326 -315l424 -406q18 -18 18 -39q0 -13 -5 -28q-14 -37 -52 -37h-4h-899q-27 0 -44.5 18t-17.5 43t17.5 43t44.5 18h749l-240 229l-207 191q-65 60 -154 152 q-80 83 -120 140q-92 133 -92 259zM260 1018q4 -74 57 -156l586 584h-229q-170 0 -291 -120t-123 -288q2 -8 2 -12q0 -2 -2 -8z" />
<glyph unicode="t" horiz-adv-x="1536" d="M80 1025q0 31 24 50l621 481q18 14 37 15l37 -15l620 -481q19 -17 24 -42q1 -2 1 -4t-1 -4q0 -21 -12 -37q-15 -19 -41 -22t-44 11l-523 405v-1382q0 -25 -18.5 -43t-43.5 -18q-24 0 -42.5 18t-18.5 43v1382l-522 -405q-18 -14 -43.5 -11t-41.5 22q-13 16 -13 37z" />
<glyph unicode="u" horiz-adv-x="1353" d="M102 479v1030q0 27 17.5 44.5t42.5 17.5q27 0 45 -17.5t18 -44.5v-1030q0 -169 132 -293q133 -125 319 -125q190 0 321 119t131 299v1030q0 27 17.5 44.5t42.5 17.5q27 0 45 -17.5t18 -44.5v-1030q0 -233 -168 -387q-168 -153 -407 -153q-236 0 -405 159 q-169 160 -169 381z" />
<glyph unicode="v" horiz-adv-x="1353" d="M101 1510q0 14 7 27q11 24 35 32q11 3 21 3q14 0 26 -6q24 -11 31 -36l455 -1340l454 1340q7 25 32 36q11 6 22 6h6l19 -3q24 -8 35 -32q7 -13 7 -27q0 -11 -4 -19l-514 -1511q-14 -41 -58 -41q-43 0 -57 41l-514 1511q-3 9 -3 19z" />
<glyph unicode="w" horiz-adv-x="1708" d="M166 0v1507q0 25 17.5 43.5t42.5 18.5q26 0 44.5 -18.5t18.5 -43.5v-420l563 -477l563 477v420q0 25 17.5 43.5t42.5 18.5q26 0 44.5 -18.5t18.5 -43.5v-1507q0 -38 -36 -55q-13 -7 -28 -7q-20 0 -38 15l-584 496l-586 -496q-16 -15 -37 -15q-14 0 -27 7q-36 17 -36 55z M289 133l467 395l-467 398v-793zM946 528l469 -395v793z" />
<glyph unicode="x" horiz-adv-x="1705" d="M159 -1q0 20 15 38l604 756l-542 673q-16 20 -13.5 46t22.5 41q17 14 39 14h6q26 -2 40 -23l526 -655l524 655q17 20 41 23h6q20 0 39 -14q20 -15 23.5 -40.5t-12.5 -44.5l-541 -675l604 -756q15 -17 15 -37q0 -14 -7 -28q-17 -35 -53 -35h-2h-1272h-2q-36 0 -53 34 q-7 13 -7 28zM350 59h1014l-508 635z" />
<glyph unicode="y" horiz-adv-x="1533" d="M41 1505v6q0 11 6 22q17 36 55 36h1356q38 0 55 -36q5 -12 7 -27q0 -20 -17 -40l-674 -757v-709q0 -25 -18 -43t-43 -18t-43 18t-18 43v709l-652 757q-15 19 -14 39zM236 1446l532 -621l553 621h-1085z" />
<glyph unicode="z" horiz-adv-x="1691" d="M147 2q0 20 13 37l628 792l-485 639q-13 17 -13 37q0 15 7 28q16 34 55 34h1049q38 0 55 -35q7 -14 7 -29q0 -20 -13 -37l-1114 -1407h1151q25 0 43 -18t18 -43t-18.5 -43t-42.5 -18h-1278h-2q-36 0 -53 34q-7 14 -7 29zM475 1446l391 -516l408 516h-799z" />
<glyph unicode="{" horiz-adv-x="628" d="M51 803q0 28 18 46q16 16 37 17q8 0 41 11q32 10 54 36.5t24 69.5q0 72 4 625q0 25 18.5 43t43.5 18q26 0 43.5 -18t17.5 -43q-4 -553 -4 -625q0 -119 -90 -184q96 -77 96 -181q0 -2 -0.5 -81t-1 -254.5t-0.5 -378.5v-8q0 -25 -18.5 -43.5t-44.5 -18.5q-25 0 -42.5 18.5 t-17.5 43.5q0 205 0.5 382t1 257.5t0.5 82.5q0 46 -47 82q-19 16 -41 26q-13 7 -23.5 11t-16 5.5t-7.5 2.5q-45 13 -45 58z" />
<glyph unicode="|" horiz-adv-x="512" d="M195 0v1507q0 25 18 43.5t43 18.5t43 -18.5t18 -43.5v-1507q0 -25 -18 -43t-43 -18t-43 18t-18 43z" />
<glyph unicode="}" horiz-adv-x="628" d="M301 618q0 104 96 181q-90 65 -90 184q0 72 -4 625q0 24 18 42.5t42 18.5q26 0 44.5 -18t18.5 -43q4 -553 4 -625q2 -43 24 -69.5t53 -36.5q34 -11 42 -11q23 -2 38 -17q17 -19 17 -46q0 -45 -45 -58q-2 -1 -7 -2.5t-16 -5.5t-24 -11q-22 -10 -41 -26q-47 -37 -47 -82 q0 -2 0.5 -82.5t1 -257.5t0.5 -382q0 -25 -17.5 -43.5t-43.5 -18.5q-25 0 -43.5 18.5t-18.5 43.5v8q0 203 -0.5 378.5t-1 254.5t-0.5 81z" />
<glyph unicode="~" horiz-adv-x="813" d="M104 881q0 71 43 123q31 37 76 55q35 8 45 8q8 2 15 2q20 0 36 -4q47 -11 87 -45q22 -19 51 -59l37 -48q16 -15 32 -22l15 -4h6q6 0 16 2q17 6 31 24q20 23 20 54q0 2 -2 8q-2 27 14.5 46t41.5 21q27 2 46 -13t21 -42q2 -14 2 -20q0 -73 -47 -131q-39 -48 -92 -64 q-27 -8 -51 -8q-16 2 -17 2q-13 0 -49 10q-42 17 -75 53q-18 18 -48 58q-19 28 -34 41q-12 11 -31 16q-6 2 -10 2h-4l-13 -4q-14 -5 -24 -16q-14 -18 -15 -45v-13q6 -26 -8.5 -46.5t-40.5 -25.5q-24 -5 -44.5 9t-27.5 41q-2 22 -2 35z" />
<glyph unicode="&#xa1;" horiz-adv-x="565" d="M109 1356.5q0 25.5 18 44.5l43 43l-45 45q-16 18 -16 42.5t17 42.5q17 19 43 19t44 -18l45 -43l43 43q18 18 44 18t43 -19q18 -18 18 -42.5t-17 -42.5l-45 -45l43 -43q18 -18 18.5 -44t-17.5 -44q-17 -17 -43 -17t-44 17l-43 45l-45 -45q-18 -16 -43 -16.5t-43 16.5 q-18 18 -18 43.5zM195 0v1102q0 25 18 43t43 18t43 -18.5t18 -42.5v-1102q0 -25 -18 -43t-43 -18t-43 18t-18 43z" />
<glyph unicode="&#xa2;" horiz-adv-x="1064" d="M45 499q0 153 72 283q71 126 196 203q99 59 213 74v90q0 25 17.5 43t42.5 18q26 0 44.5 -18t18.5 -43v-90q67 -7 133 -35q92 -38 164 -102q18 -18 19.5 -44t-15.5 -45q-16 -18 -41.5 -19t-44.5 15q-59 55 -127 82q-73 29 -149 29q-114 0 -211 -59q-96 -59 -152 -158 q-57 -103 -57 -223q0 -119 57 -224q57 -100 152 -157q91 -55 198 -60q14 5 23 0q72 1 139 31q70 26 127 80q18 16 44 15t43 -19q15 -15 17 -41q0 -27 -20 -45q-73 -67 -166 -105q-62 -26 -133 -34v-131q0 -25 -18.5 -43.5t-44.5 -18.5q-25 0 -42.5 18.5t-17.5 43.5v131 q-113 13 -213 73q-127 78 -196 203q-72 131 -72 282z" />
<glyph unicode="&#xa3;" horiz-adv-x="1495" d="M78 164q0 62 33 117q41 71 120 96q42 14 86 14q33 0 70 -8v324h-172q-25 0 -43 18t-18 43t18 43t43 18h172v443q11 97 68 172q71 92 180 125q49 16 104 16q58 0 115 -20q94 -31 160 -103t90 -166q10 -43 10 -92q0 -27 -17.5 -44t-43.5 -17q-25 0 -43.5 17.5t-18.5 43.5 q0 34 -6 62q-15 65 -59.5 112.5t-108.5 71.5q-39 12 -78 12q-37 0 -67 -10q-73 -22 -119 -82q-37 -46 -43 -108v-433h289q25 0 43 -18t18 -43t-18.5 -43t-42.5 -18h-289v-379q30 -18 70 -54q17 -12 46 -37l47 -40l42 -34q12 -9 45 -32l586 346q28 16 58 2q29 -13 34 -49 q2 -30 2 -49q0 -161 -103 -283q-117 -141 -305 -159q-30 -2 -45 -2q-132 0 -256 67l-2 2q-32 17 -64 40l-50 38l-57 48l-48 40v-33q0 -60 -35 -112q-31 -43 -78 -66t-94 -22h-2q-81 0 -145 53q-62 53 -76 133q-2 26 -2 39zM201 164q0 -7 2 -19q6 -36 34 -60t64 -24h2 q45 0 70 35q14 20 14 43v115l-2 2q-35 12 -68 12q-25 0 -45 -6q-37 -13 -57 -47q-14 -23 -14 -51zM899 70q40 -9 88 -11q11 0 33 2q138 12 223 117q49 57 66 135z" />
<glyph unicode="&#xa4;" horiz-adv-x="700" d="M94 904.5q0 25.5 17 42.5q18 18 43.5 18t44.5 -17l22 -24q60 35 127 34q72 0 133 -36l25 26q18 16 43 16.5t43 -17.5q18 -17 18 -43t-16 -44l-27 -26q33 -57 33 -126t-33 -128l25 -25q16 -18 16 -44t-18 -43q-17 -17 -42.5 -17t-43.5 18l-25 23q-58 -37 -131 -37 q-69 0 -127 34l-20 -20q-18 -18 -44 -18t-44 17q-17 17 -17 43t19 44l20 20q-39 60 -39 132t37 131l-20 22q-19 19 -19 44.5zM225 668l41 39l-41 38q-13 -39 0 -77zM315 582q15 -4 33 -4q20 0 41 6l-37 37zM315 831l37 -36l37 34q-17 5 -41 7q-22 -2 -33 -5zM438 707l35 -35 q8 37 0 69z" />
<glyph unicode="&#xa5;" horiz-adv-x="1533" d="M41 1505q-2 14 6 28q17 36 55 36h1356q38 0 55 -36q5 -12 7 -27q0 -20 -17 -40l-601 -675h165q25 0 43 -18.5t18 -43.5q0 -24 -18 -42.5t-43 -18.5h-238v-125h238q25 0 43 -18.5t18 -43.5q0 -24 -18 -42.5t-43 -18.5h-238v-420q0 -25 -18 -43t-43 -18t-43 18t-18 43v420 h-201q-25 0 -43.5 18.5t-18.5 42.5q0 25 18.5 43.5t43.5 18.5h201v125h-201q-25 0 -43.5 18.5t-18.5 42.5q0 25 18.5 43.5t43.5 18.5h130l-581 675q-15 19 -14 39zM236 1446l532 -621l553 621h-1085z" />
<glyph unicode="&#xa6;" horiz-adv-x="540" d="M209 -37v565q0 25 18.5 43.5t42.5 18.5q25 0 43.5 -18.5t18.5 -43.5v-565q0 -25 -18.5 -43t-43.5 -18q-24 0 -42.5 18t-18.5 43zM209 963v565q0 25 18.5 43t42.5 18q25 0 43.5 -18.5t18.5 -42.5v-565q0 -25 -18.5 -43.5t-43.5 -18.5q-24 0 -42.5 18.5t-18.5 43.5z" />
<glyph unicode="&#xa7;" horiz-adv-x="1304" d="M25 -321q0 24 18 42.5t43 18.5h752l-241 228l-207 192q-58 54 -154 151q-80 85 -119 140q-92 134 -92 260q0 257 196 411q31 190 180 318q150 129 349 129h376q40 0 57 -38q5 -15 5 -25q0 -23 -19 -42l-696 -704q68 -77 324 -314l422 -403q19 -19 18 -41q0 -11 -5 -26 q-15 -39 -56 -37h-367l221 -218q19 -19 19 -41q0 -12 -6 -25q-15 -38 -56 -38h-901q-25 0 -43 18.5t-18 43.5zM147 696q1 -36 17 -73l145 145q-69 97 -88 180q-73 -98 -74 -231v-21zM225 510q18 -24 50 -60l56 -61q30 -31 75 -74l75 -72l97 -89l100 -93h348l-338 318 q-217 201 -301 295zM336 1018q5 -77 61 -160l582 588h-229q-170 0 -291 -120t-123 -288v-20z" />
<glyph unicode="&#xa8;" horiz-adv-x="851" d="M70 1801.5q0 25.5 18 43.5l45 43l-45 45q-16 18 -16 43t17 43q17 19 43 19t44 -19l43 -43l43 43q18 18 44 18.5t44 -18.5q19 -18 19 -42.5t-19 -43.5l-43 -45l43 -43q18 -18 18.5 -43.5t-18.5 -43.5q-18 -17 -42.5 -17t-43.5 16l-45 45l-43 -45q-18 -16 -44 -16t-44 17 q-18 18 -18 43.5zM477 1801.5q0 25.5 17 43.5l45 43l-43 45q-18 18 -18.5 43t16.5 43q18 19 43.5 19t44.5 -19l43 -43l45 43q18 18 42.5 18.5t42.5 -18.5q19 -18 19 -42.5t-18 -43.5l-43 -45l45 -43q16 -18 16 -43.5t-18 -43.5q-17 -17 -42.5 -17t-43.5 16l-45 45l-43 -45 q-18 -16 -44 -16t-44 17q-17 18 -17 43.5z" />
<glyph unicode="&#xa9;" horiz-adv-x="493" d="M-47 1340q0 111 80 191q79 79 193 79q115 0 194 -79q80 -80 80 -191q0 -110 -80 -190q-79 -79 -194 -79q-114 0 -193 79q-80 80 -80 190zM14 1341q0 -85 62 -147q62 -61 150 -61t149 61q63 62 63 147q0 86 -63 146q-61 61 -149 61t-150 -61q-62 -60 -62 -146zM121 1276 q-37 62 0 125q13 28 43 45q28 18 61 18q21 0 45 -8q21 -8 37 -24q12 -10 12 -22q0 -11 -10 -21q-20 -23 -43 -3q-17 17 -41 17q-34 0 -51 -33q-18 -31 0 -65q18 -31 51 -31q25 0 41 16q24 20 43 -2q10 -10 10 -21t-12 -22q-17 -17 -37 -24q-22 -7 -45 -9q-32 0 -61 17 q-30 19 -43 47z" />
<glyph unicode="&#xaa;" horiz-adv-x="612" d="M2 1077q0 13 6 27l101 190q2 7 6 11l129 243q16 33 53 33t55 -33l234 -444q8 -15 7 -29q0 -6 -2 -18q-11 -38 -53 -42t-61 32l-55 104l-72 -111q-18 -27 -51 -27q-33 1 -51 27l-76 111l-53 -104q-19 -36 -61 -32t-53 42q-3 11 -3 20zM238 1274l59 -88l59 88l-59 115z" />
<glyph unicode="&#xab;" horiz-adv-x="641" d="M11 640q0 22 18 40l196 221q18 21 43 21q12 0 24 -4q40 -13 40 -58v-112l176 200q17 21 42 23q9 0 24 -5q40 -15 40 -57v-510q0 -41 -37 -56q-15 -5 -26 -5q-23 0 -41 18l-178 183v-97q0 -41 -38 -56q-15 -5 -25 -5q-23 0 -42 18l-196 197q-20 20 -20 44zM158 641l51 -51 v108zM403 641l89 -90v192z" />
<glyph unicode="&#xac;" horiz-adv-x="790" d="M20 819q0 25 18.5 43.5t43.5 18.5h590q27 0 44 -17.5t17 -44.5v-237q0 -25 -18.5 -43.5t-43.5 -18.5q-24 0 -42.5 18.5t-18.5 43.5v176h-528q-25 0 -43.5 18.5t-18.5 42.5z" />
<glyph unicode="&#xad;" horiz-adv-x="790" d="M20 819q0 25 18.5 43.5t43.5 18.5h590q25 0 43 -18.5t18 -43.5q0 -24 -18.5 -42.5t-42.5 -18.5h-590q-25 0 -43.5 18.5t-18.5 42.5z" />
<glyph unicode="&#xae;" horiz-adv-x="493" d="M-47 1340q0 111 80 191q79 79 193 79q115 0 194 -79q80 -80 80 -191q0 -110 -80 -190q-79 -79 -194 -79q-114 0 -193 79q-80 80 -80 190zM14 1341q0 -85 62 -147q62 -61 150 -61t149 61q63 62 63 147q0 86 -63 146q-61 61 -149 61t-150 -61q-62 -60 -62 -146zM152 1255 v185q0 12 9 21t21 9h47q37 0 63.5 -25.5t26.5 -62.5q0 -36 -22 -59l33 -51q8 -12 7 -20q0 -13 -14 -22q-10 -7 -19 -7q-13 0 -23 16l-39 55q-8 -2 -13 -2h-16v-37q0 -12 -9 -21t-22 -9q-12 0 -21 9t-9 21zM213 1354h16q3 0 13 2v2q16 6 16 24q0 10 -8.5 18.5t-20.5 8.5h-16 v-55z" />
<glyph unicode="&#xaf;" horiz-adv-x="604" d="M74 1658q0 25 18.5 43.5t42.5 18.5h320q25 0 43 -18.5t18 -43.5q0 -24 -18.5 -42.5t-42.5 -18.5h-320q-25 0 -43 18.5t-18 42.5z" />
<glyph unicode="&#xb0;" horiz-adv-x="491" d="M49 442q0 68 37 117q20 24 37 37q46 37 104 37h6q62 -1 111 -37q24 -20 37 -37q37 -46 37 -104v-6q-1 -62 -37 -111q-20 -24 -37 -37q-46 -37 -104 -37h-7q-62 1 -110 37q-24 20 -37 37q-37 46 -37 104zM172 449q0 -17 12 -37l13 -13q13 -11 36 -12q17 0 37 12l13 13 q10 13 12 37q0 18 -12 36l-13 13q-13 10 -37 12q-18 0 -36 -12l-13 -13q-10 -13 -12 -36z" />
<glyph unicode="&#xb1;" horiz-adv-x="755" d="M16 1044q0 26 17.5 43.5t44.5 17.5h217v215q0 25 18.5 43t42.5 18q25 0 43.5 -18t18.5 -43v-215h215q25 0 43 -17.5t18 -43.5q0 -25 -18.5 -43.5t-42.5 -18.5h-215v-217q0 -25 -18.5 -43t-43.5 -18q-24 0 -42.5 18t-18.5 43v217h-217q-26 0 -44 18.5t-18 43.5zM61 469 q0 25 18.5 43.5t43.5 18.5h448q25 0 43.5 -18.5t18.5 -43.5q0 -24 -18.5 -42.5t-43.5 -18.5h-448q-25 0 -43.5 18.5t-18.5 42.5z" />
<glyph unicode="&#xb2;" horiz-adv-x="612" d="M132 1140q0 22 20 42l112 108l100 94q45 45 58 62h-203q-27 0 -44 17.5t-17 43.5q0 102 55 169t160 67q76 0 129 -41l24 -21q48 -51 56 -151q0 -1 -2 -29q-6 -62 -49 -114q-40 -50 -150 -154q-19 -19 -35 -33h172q25 0 43.5 -18.5t18.5 -44.5q0 -25 -18.5 -42.5 t-43.5 -17.5h-323q-41 0 -58 38q-6 14 -5 25zM291 1569h162q-4 16 -17 26l-8 9q-19 16 -55 16q-63 0 -82 -51z" />
<glyph unicode="&#xb3;" horiz-adv-x="612" d="M112 1301q0 17 11 34q20 33 63.5 23.5t46.5 -47.5q8 -47 43 -78t82 -33h2q52 0 86 33q35 35 35 82v2q0 18 -8 39l-12 -8q-46 -23 -94 -23q-20 0 -35 4q-69 11 -115 60q-18 18 -19 41.5t17 44.5l6 4q-24 2 -39.5 20t-15.5 41q0 90 65 150q59 53 140 53h14q74 -5 125 -53 q53 -50 63 -121q3 -11 5 -33q0 -45 -19 -84l6 -8q39 -57 39 -125v-4q0 -99 -74 -170q-71 -68 -170 -68h-4q-91 1 -161 62q-69 63 -82 151q-1 3 -1 11zM287 1524q37 18 92 18q39 0 76 -12v6q0 4 -2 14q-4 29 -25 48.5t-51 21.5h-6q-33 0 -56 -21q-27 -26 -26 -59q0 -6 -2 -16 z" />
<glyph unicode="&#xb4;" horiz-adv-x="718" d="M-47 1563v309q0 27 17.5 44t43.5 17h299q41 0 57 -37q6 -14 5 -26q0 -21 -17 -41l-299 -309q-20 -20 -41 -20q-11 0 -26 5q-39 17 -39 58zM76 1714l92 96h-92v-96z" />
<glyph unicode="&#xb5;" horiz-adv-x="1353" d="M102 -414v1923q0 27 17.5 44.5t42.5 17.5q27 0 45 -17.5t18 -44.5v-1030q0 -169 132 -293q133 -125 319 -125q190 0 321 119t131 299v1030q0 27 17.5 44.5t42.5 17.5q27 0 45 -17.5t18 -44.5v-1030q0 -233 -168 -387q-168 -153 -407 -153q-132 0 -252 56 q-119 56 -199 152v-561q0 -25 -18.5 -43t-44.5 -18q-25 0 -42.5 18t-17.5 43z" />
<glyph unicode="&#xb6;" horiz-adv-x="1181" d="M31 1032q0 222 157 379q158 158 379 158h160q27 0 44 -17.5t17 -44.5v-1507q0 -25 -18 -43t-43 -18t-43 18t-18 43v1446h-99q-172 0 -293 -121q-120 -121 -120 -293t120 -293q121 -121 293 -121q25 0 43.5 -18t18.5 -43t-18.5 -43t-43.5 -18q-222 0 -379 157t-157 379z M915 0v1507q0 25 18.5 43.5t42.5 18.5q25 0 43.5 -18.5t18.5 -43.5v-1507q0 -25 -18.5 -43t-43.5 -18q-24 0 -42.5 18t-18.5 43z" />
<glyph unicode="&#xb7;" horiz-adv-x="471" d="M70 737.5q0 24.5 18 42.5l45 45l-45 43q-16 18 -16 44t17 43q17 18 43 18t44 -17l43 -45l43 45q18 16 44 16.5t44 -17.5q19 -17 19 -42.5t-19 -44.5l-43 -43l43 -45q18 -18 18.5 -42.5t-18.5 -43.5q-18 -18 -42.5 -18t-43.5 18l-45 43l-43 -43q-18 -18 -44 -18t-44 18 q-18 19 -18 43.5z" />
<glyph unicode="&#xb8;" horiz-adv-x="1513" d="M566 -515q2 32 26 51q20 15 46 11t40 -24q28 -37 72 -55q24 -9 57 -11q16 0 31 4q45 8 77.5 40t40.5 75q2 16 2 25q0 42 -22 71q-28 42 -80 47h-8q-22 0 -43 -8q-24 -11 -41 -33q-18 -27 -46 -27q-11 0 -22 4q-43 13 -43 58v289q0 25 18.5 43t42.5 18q25 0 43.5 -18 t18.5 -43v-170q33 10 72 10h20q107 -11 168 -100q45 -62 45 -141q0 -23 -6 -45q-13 -81 -74 -142q-58 -56 -141 -73q-24 -5 -53 -7q-53 0 -102 21q-74 28 -125 94q-12 15 -14 36z" />
<glyph unicode="&#xb9;" horiz-adv-x="434" d="M108 1446q0 20 13 37l119 157q19 25 45 25q12 0 23 -4q42 -13 42 -57v-482h25q27 0 44 -18t17 -45q0 -25 -17.5 -42.5t-43.5 -17.5h-172q-25 0 -43.5 17.5t-18.5 42.5q0 26 18.5 44.5t43.5 18.5h24v262h-57q-39 0 -55 34q-7 13 -7 28z" />
<glyph unicode="&#xba;" horiz-adv-x="491" d="M49 279q0 67 37 116q63 74 141 74h6q74 -2 129.5 -53.5t55.5 -124.5v-6q-2 -74 -53.5 -129.5t-124.5 -55.5h-7q-74 2 -129 53.5t-55 125.5zM172 285q0 -17 12 -37l13 -12q13 -10 36 -13q18 0 37 13l13 12q11 14 12 37q0 17 -12 37l-13 12q-14 11 -37 12q-18 0 -36 -12 l-13 -12q-11 -14 -12 -37z" />
<glyph unicode="&#xbb;" horiz-adv-x="641" d="M0 399v510q0 42 40 57q15 5 24 5q25 -2 42 -23l177 -200v112q0 45 40 58q12 4 24 4q24 0 42 -21l197 -221q17 -19 17 -40q1 -24 -19 -44l-197 -197q-18 -18 -41 -18q-10 0 -25 5q-38 15 -38 56v97l-179 -183q-18 -18 -41 -18q-10 0 -25 5q-38 15 -38 56zM123 551l88 90 l-88 102v-192zM406 590l51 51l-51 57v-108z" />
<glyph unicode="&#xbc;" horiz-adv-x="1214" d="M117 1q0 21 14 38l946 1180q14 19 39.5 21.5t46.5 -13t22 -40.5v-8q0 -21 -14 -38l-946 -1180q-13 -18 -40 -21q-3 -1 -8 -1q-21 0 -37 13q-23 18 -23 49zM218 1159q0 20 13 37l119 158q19 25 46 24q12 0 23 -4q42 -14 42 -57v-481h24q27 0 44.5 -18t17.5 -45 q0 -25 -17.5 -42.5t-44.5 -17.5h-172q-25 0 -43 17.5t-18 42.5q0 26 18.5 44.5t42.5 18.5h25v262h-57q-40 0 -56 34q-7 13 -7 27zM651 185q0 20 15 38l297 367q20 23 44 23q10 0 23 -5q41 -14 41 -57v-539q0 -25 -17.5 -43t-43.5 -18q-25 0 -43.5 18.5t-18.5 42.5v111h-235 q-39 0 -56 35q-7 14 -6 27zM842 246h106v133z" />
<glyph unicode="&#xbd;" horiz-adv-x="1214" d="M117 1q0 21 14 38l946 1180q14 19 39.5 21.5t46.5 -13t22 -40.5v-8q0 -21 -14 -38l-946 -1180q-13 -18 -40 -21q-3 -1 -8 -1q-21 0 -37 13q-23 18 -23 49zM218 1159q0 20 13 37l119 158q19 25 46 24q12 0 23 -4q42 -14 42 -57v-481h24q27 0 44.5 -18t17.5 -45 q0 -25 -17.5 -42.5t-44.5 -17.5h-172q-25 0 -43 17.5t-18 42.5q0 26 18.5 44.5t42.5 18.5h25v262h-57q-40 0 -56 34q-7 13 -7 27zM715 4q0 23 20 41l113 109l99 94q45 45 59 61h-203q-27 0 -44.5 17.5t-17.5 44.5q0 103 55 168q55 67 160 67q76 0 129 -41l25 -20 q49 -52 55 -152q0 -2 -2 -28q-6 -61 -48 -114q-39 -48 -150 -155q-19 -19 -35 -33h172q25 0 43 -18t18 -44t-18 -43t-43 -17h-324q-40 -1 -57 37q-6 14 -6 26zM874 432h162q-5 17 -16 27l-8 8q-19 16 -56 16q-62 0 -82 -51z" />
<glyph unicode="&#xbe;" horiz-adv-x="1214" d="M112 938q0 18 11 35q13 21 39 24.5t47.5 -10.5t23.5 -39q8 -47 43 -77.5t82 -32.5h2q51 0 86 32q35 35 35 82v2q0 18 -8 39l-12 -8q-47 -23 -94 -22q-20 0 -35 4q-70 11 -115 59q-18 18 -19 42t17 44l6 4q-24 2 -39.5 20t-15.5 42q0 90 65 149q59 53 140 53h14 q74 -5 125 -53q53 -50 63 -121q3 -12 5 -32q0 -45 -19 -84l6 -9q39 -57 39 -125v-4q0 -99 -74 -170q-72 -68 -170 -67h-4q-91 1 -161 62q-69 63 -82 151q-1 3 -1 10zM117 1q0 21 14 38l946 1180q14 19 39.5 21.5t46.5 -13t22 -40.5v-8q0 -21 -14 -38l-946 -1180 q-13 -18 -40 -21q-3 -1 -8 -1q-21 0 -37 13q-23 18 -23 49zM287 1161q39 19 92 19q40 0 76 -13v7q0 4 -2 14q-4 29 -25 48t-51 21h-6q-33 0 -56 -20q-27 -26 -26 -59q0 -7 -2 -17zM651 185q0 20 15 38l297 367q20 23 44 23q10 0 23 -5q41 -14 41 -57v-539q0 -25 -17.5 -43 t-43.5 -18q-25 0 -43.5 18.5t-18.5 42.5v111h-235q-39 0 -56 35q-7 14 -6 27zM842 246h106v133z" />
<glyph unicode="&#xbf;" horiz-adv-x="991" d="M16 0q0 19 13 35l403 518v590q0 25 18.5 43t42.5 18q25 0 43.5 -18.5t18.5 -42.5v-611q0 -20 -12 -36l-47 -60l393 -395q19 -19 19 -41q0 -12 -6 -26q-15 -39 -56 -37h-768q-38 -1 -55 34q-7 14 -7 29zM203 59h495l-278 279zM338 1354.5q0 25.5 18 44.5l43 43l-43 45 q-18 18 -18 42.5t18 42.5q19 19 43.5 19t42.5 -18l45 -43l43 43q18 18 44 18t44 -19q19 -18 19 -42.5t-19 -42.5l-45 -45l45 -43q16 -18 16.5 -44t-17.5 -44q-17 -17 -42.5 -17t-44.5 17l-43 45l-43 -45q-18 -16 -43.5 -16.5t-44.5 16.5q-18 18 -18 43.5z" />
<glyph unicode="&#xc0;" d="M-4 1q0 15 6 28l344 651q1 10 10 22l439 834q18 33 55 33q36 0 53 -33l797 -1507q6 -13 6 -28q0 -10 -3 -19q-9 -39 -52.5 -42.5t-61.5 31.5l-301 572l-385 -578q-18 -27 -51 -26q-33 0 -51 26l-389 578l-299 -572q-19 -36 -61 -31.5t-53 42.5q-3 10 -3 19zM477 666 l375 -555l371 557l-373 708zM530 2115q1 11 6 25q15 39 56 39h311q27 0 44.5 -17.5t17.5 -43.5v-299q0 -41 -38 -58q-13 -6 -27 -6q-22 0 -40 19l-309 299q-19 19 -21 42zM745 2056l97 -94v94h-97z" />
<glyph unicode="&#xc1;" d="M-4 1q0 15 6 28l344 651q1 10 10 22l439 834q18 33 55 33q36 0 53 -33l797 -1507q6 -13 6 -28q0 -10 -3 -19q-9 -39 -52.5 -42.5t-61.5 31.5l-301 572l-385 -578q-18 -27 -51 -26q-33 0 -51 26l-389 578l-299 -572q-19 -36 -61 -31.5t-53 42.5q-3 10 -3 19zM477 666 l375 -555l371 557l-373 708zM788 1798v309q0 27 17.5 44.5t44.5 17.5h299q38 0 55 -38q6 -13 6 -26q0 -21 -18 -41l-299 -309q-20 -20 -42 -20q-10 0 -25 5q-38 15 -38 58zM911 1950l93 96h-93v-96z" />
<glyph unicode="&#xc2;" d="M-4 1q0 15 6 28l344 651q1 10 10 22l439 834q18 33 55 33q36 0 53 -33l797 -1507q6 -13 6 -28q0 -10 -3 -19q-9 -39 -52.5 -42.5t-61.5 31.5l-301 572l-385 -578q-18 -27 -51 -26q-33 0 -51 26l-389 578l-299 -572q-19 -36 -61 -31.5t-53 42.5q-3 10 -3 19zM477 666 l375 -555l371 557l-373 708zM571 1797.5q0 25.5 17 43.5l217 217q20 18 44.5 18.5t43.5 -18.5l217 -217q18 -18 18 -43.5t-18 -43.5q-18 -17 -44 -17t-42 16l-174 174l-174 -174q-18 -16 -44 -16t-44 17q-17 18 -17 43.5z" />
<glyph unicode="&#xc3;" d="M-4 1q0 15 6 28l344 651q1 10 10 22l439 834q18 33 55 33q36 0 53 -33l797 -1507q6 -13 6 -28q0 -10 -3 -19q-9 -39 -52.5 -42.5t-61.5 31.5l-301 572l-385 -578q-18 -27 -51 -26q-33 0 -51 26l-389 578l-299 -572q-19 -36 -61 -31.5t-53 42.5q-3 10 -3 19zM477 666 l375 -555l371 557l-373 708zM532 1851q0 71 43 123q32 40 78 56q9 2 19 4.5t15.5 4t8.5 1.5h15q22 0 39 -4q45 -10 84 -45q23 -18 53 -60q26 -36 37 -45q16 -17 30 -22q9 -4 17 -4h4q6 0 16 2q19 6 33 22q18 22 18 55v9q-2 25 13.5 44t40.5 22q26 3 45.5 -13t23.5 -41v-21 q0 -76 -45 -133q-39 -45 -94 -63q-26 -6 -51 -6h-17q-13 2 -47 12q-41 14 -77 51q-30 37 -46 58q-22 28 -34 40q-17 14 -31 17q-8 2 -12 2h-4q-1 0 -13 -2q-12 -4 -22 -19q-15 -17 -17 -45q0 -4 2 -12q4 -25 -10 -46t-39 -26q-24 -4 -45.5 11t-25.5 39q-5 18 -5 34z" />
<glyph unicode="&#xc4;" d="M-4 1q0 15 6 28l793 1507q18 33 55 33q36 0 53 -33l797 -1507q6 -13 6 -28q0 -10 -3 -19q-9 -39 -52.5 -42.5t-61.5 31.5l-301 572l-385 -578q-18 -27 -51 -26q-33 0 -51 26l-389 578l-299 -572q-19 -36 -61 -31.5t-53 42.5q-3 10 -3 19zM477 666l375 -555l371 557 l-373 708zM498 1797.5q0 25.5 16 43.5l45 45l-43 43q-18 18 -18 43t18 43q19 19 43.5 19t42.5 -19l45 -43l43 43q18 18 43 18.5t43 -18.5q19 -18 19 -42.5t-19 -43.5l-43 -43l45 -45q16 -18 16.5 -43.5t-17.5 -43.5q-17 -17 -42.5 -17t-44.5 16l-43 45l-45 -45 q-18 -16 -44 -16t-43 17q-17 18 -17 43.5zM903 1797.5q0 25.5 19 43.5l43 45l-43 43q-18 18 -18.5 43t17.5 43q19 19 44.5 19t42.5 -19l45 -43l43 43q18 18 43.5 18.5t42.5 -18.5q18 -18 18 -43t-16 -43l-45 -43l45 -45q18 -18 18 -43.5t-19 -43.5q-18 -17 -43.5 -17 t-43.5 16l-43 45l-45 -45q-18 -16 -43.5 -16t-43.5 17q-18 18 -18 43.5z" />
<glyph unicode="&#xc5;" d="M-4 1q0 15 6 28l344 651q1 10 10 22l439 834q18 33 55 33q36 0 53 -33l797 -1507q6 -13 6 -28q0 -10 -3 -19q-9 -39 -52.5 -42.5t-61.5 31.5l-301 572l-385 -578q-18 -27 -51 -26q-33 0 -51 26l-389 578l-299 -572q-19 -36 -61 -31.5t-53 42.5q-3 10 -3 19zM477 666 l375 -555l371 557l-373 708zM670 1933q0 64 37 111q13 19 34 35q51 39 113 39q63 -2 111 -39q21 -14 34 -35q39 -51 39 -111q-1 -65 -39 -112q-13 -19 -34 -35q-49 -37 -105 -37h-6q-67 0 -113 37q-21 14 -34 35q-39 50 -37 112zM793 1933q-2 -20 12 -37q5 -8 12 -12 q13 -12 37 -12h5l32 12q6 4 12 12q10 13 12 37q0 17 -12 37l-12 12q-13 10 -37 13q-21 0 -37 -13q-7 -6 -12 -12q-12 -14 -12 -37z" />
<glyph unicode="&#xc6;" horiz-adv-x="2502" d="M-4 1q0 15 6 28l344 651q1 10 10 22l439 834q18 33 55 33q36 0 53 -33l332 -629v600q0 27 17.5 44.5t43.5 17.5h605q38 0 54 -34q8 -17 7 -29q0 -18 -12 -33l-535 -750h533q25 0 43 -18.5t18 -43.5q0 -24 -18.5 -42.5t-42.5 -18.5h-590v-539h860q25 0 43 -18t18 -43 t-18 -43t-43 -18h-922q-27 0 -44 17t-17 44v463l-332 -498q-18 -27 -51 -26q-33 0 -51 26l-389 578l-299 -572q-19 -36 -61 -31.5t-53 42.5q-3 10 -3 19zM477 666l375 -555l371 557l-373 708zM1358 854l424 592h-424v-592z" />
<glyph unicode="&#xc7;" horiz-adv-x="1513" d="M47 753q0 221 113 414q109 184 293 293q194 113 413 113q153 0 293 -55q137 -53 248 -150q18 -16 20.5 -42t-15.5 -45q-17 -19 -43 -20t-44 15q-94 82 -211 127q-120 47 -248 47q-188 0 -350 -96q-158 -92 -250 -250q-96 -162 -96 -350t96 -351q91 -157 250 -249 q160 -93 350 -95q127 0 250 47q117 45 211 127q18 18 44 16.5t42 -20.5q14 -16 16 -41q0 -28 -20 -45q-113 -99 -248 -151q-141 -55 -295 -55q-42 0 -90 5v-110q33 10 72 10h20q107 -11 168 -100q45 -62 45 -141q0 -23 -6 -45q-13 -81 -74 -142q-58 -56 -141 -73 q-24 -5 -53 -7q-53 0 -102 21q-74 28 -125 94q-12 15 -14 36q2 32 26 51q20 15 46 11t40 -24q28 -37 72 -55q24 -9 57 -11q16 0 31 4q45 8 77.5 40t40.5 75q2 16 2 25q0 42 -22 71q-28 42 -80 47h-8q-22 0 -43 -8q-24 -11 -41 -33q-18 -27 -46 -27q-11 0 -22 4 q-43 13 -43 58v252q-106 28 -200 82q-183 109 -293 295q-113 191 -113 411z" />
<glyph unicode="&#xc8;" horiz-adv-x="1372" d="M141 0v1507q0 27 17.5 44.5t44.5 17.5h921q40 0 57 -38q5 -15 5 -25q0 -23 -19 -42l-817 -817h774q25 0 43.5 -18.5t18.5 -43.5q0 -24 -18.5 -42.5t-43.5 -18.5h-860v-463h860q25 0 43.5 -18t18.5 -43t-18.5 -43t-43.5 -18h-921q-27 0 -44.5 17t-17.5 44zM264 733 l713 713h-713v-713zM345 2114q-1 12 5 26q16 39 58 39h309q27 0 44 -17.5t17 -43.5v-299q0 -41 -38 -58q-14 -6 -26 -6q-22 0 -40 19l-309 299q-20 20 -20 41zM559 2056l96 -94v94h-96z" />
<glyph unicode="&#xc9;" horiz-adv-x="1372" d="M141 0v1507q0 27 17.5 44.5t44.5 17.5h921q40 0 57 -38q5 -15 5 -25q0 -23 -19 -42l-817 -817h774q25 0 43.5 -18.5t18.5 -43.5q0 -24 -18.5 -42.5t-43.5 -18.5h-860v-463h860q25 0 43.5 -18t18.5 -43t-18.5 -43t-43.5 -18h-921q-27 0 -44.5 17t-17.5 44zM264 733 l713 713h-713v-713zM602 1798v309q0 27 17.5 44.5t44.5 17.5h299q41 0 56 -38q5 -15 5 -25q0 -22 -18 -42l-297 -309q-20 -20 -43 -20q-10 0 -25 5q-39 15 -39 58zM725 1950l92 96h-92v-96z" />
<glyph unicode="&#xca;" horiz-adv-x="1372" d="M141 0v1507q0 27 17.5 44.5t44.5 17.5h921q40 0 57 -38q5 -15 5 -25q0 -23 -19 -42l-817 -817h774q25 0 43.5 -18.5t18.5 -43.5q0 -24 -18.5 -42.5t-43.5 -18.5h-860v-463h860q25 0 43.5 -18t18.5 -43t-18.5 -43t-43.5 -18h-921q-27 0 -44.5 17t-17.5 44zM264 733 l713 713h-713v-713zM385 1797.5q0 25.5 18 43.5l218 217q18 18 42.5 18.5t43.5 -18.5l217 -217q18 -18 18 -43.5t-19 -43.5q-18 -17 -42.5 -17t-42.5 16l-174 174l-175 -174q-18 -16 -43 -16t-43 17q-18 18 -18 43.5z" />
<glyph unicode="&#xcb;" horiz-adv-x="1372" d="M141 0v1507q0 27 17.5 44.5t44.5 17.5h921q40 0 57 -38q5 -15 5 -25q0 -23 -19 -42l-817 -817h774q25 0 43.5 -18.5t18.5 -43.5q0 -24 -18.5 -42.5t-43.5 -18.5h-860v-463h860q25 0 43.5 -18t18.5 -43t-18.5 -43t-43.5 -18h-921q-27 0 -44.5 17t-17.5 44zM264 733 l713 713h-713v-713zM311 1797.5q0 25.5 19 43.5l43 45l-43 43q-18 18 -18.5 43t17.5 43q19 19 44.5 19t44.5 -19l43 -43l43 43q18 18 43.5 18.5t42.5 -18.5q18 -18 18 -43t-16 -43l-45 -43l45 -45q18 -18 18 -43.5t-19 -43.5q-18 -17 -43.5 -17t-43.5 16l-43 45l-45 -45 q-18 -16 -43.5 -16t-43.5 17q-18 18 -18 43.5zM717 1797.5q0 25.5 18 43.5l45 45l-45 43q-16 18 -16 43t17 43q18 19 43.5 19t43.5 -19l43 -43l43 43q18 18 44 18.5t44 -18.5q19 -18 19 -42.5t-19 -43.5l-43 -43l43 -45q18 -18 18.5 -43.5t-18.5 -43.5q-18 -17 -42.5 -17 t-43.5 16l-45 45l-43 -45q-18 -16 -44 -16t-44 17q-18 18 -18 43.5z" />
<glyph unicode="&#xcc;" horiz-adv-x="811" d="M86 2114q0 12 6 26q16 39 58 39h309q27 0 44 -17.5t17 -43.5v-299q0 -41 -38 -58q-14 -6 -26 -6q-22 0 -40 19l-310 299q-20 20 -20 41zM104 0q0 25 18.5 43t43.5 18h178v1385h-178q-25 0 -43.5 18.5t-18.5 42.5q0 25 18.5 43.5t43.5 18.5h479q25 0 43.5 -18.5 t18.5 -43.5q0 -24 -18.5 -42.5t-43.5 -18.5h-178v-1385h178q25 0 43.5 -18t18.5 -43t-18.5 -43t-43.5 -18h-479q-25 0 -43.5 18t-18.5 43zM301 2056l96 -94v94h-96z" />
<glyph unicode="&#xcd;" horiz-adv-x="811" d="M104 0q0 25 18.5 43t43.5 18h178v1385h-178q-25 0 -43.5 18.5t-18.5 42.5q0 25 18.5 43.5t43.5 18.5h479q25 0 43.5 -18.5t18.5 -43.5q0 -24 -18.5 -42.5t-43.5 -18.5h-178v-1385h178q25 0 43.5 -18t18.5 -43t-18.5 -43t-43.5 -18h-479q-25 0 -43.5 18t-18.5 43z M344 1798v309q0 27 17.5 44.5t44.5 17.5h299q41 0 56 -38q5 -15 5 -25q0 -22 -18 -42l-297 -309q-20 -20 -43 -20q-10 0 -25 5q-39 15 -39 58zM467 1950l92 96h-92v-96z" />
<glyph unicode="&#xce;" horiz-adv-x="811" d="M104 0q0 25 18.5 43t43.5 18h178v1385h-178q-25 0 -43.5 18.5t-18.5 42.5q0 25 18.5 43.5t43.5 18.5h479q25 0 43.5 -18.5t18.5 -43.5q0 -24 -18.5 -42.5t-43.5 -18.5h-178v-1385h178q25 0 43.5 -18t18.5 -43t-18.5 -43t-43.5 -18h-479q-25 0 -43.5 18t-18.5 43z M127 1797.5q0 25.5 18 43.5l217 217q18 18 43 18.5t44 -18.5l217 -217q18 -18 18 -43.5t-19 -43.5q-18 -17 -42.5 -17t-42.5 16l-174 174l-175 -174q-18 -16 -43 -16t-43 17q-18 18 -18 43.5z" />
<glyph unicode="&#xcf;" horiz-adv-x="811" d="M53 1797.5q0 25.5 19 43.5l43 45l-43 43q-18 18 -18.5 43t17.5 43q19 19 44.5 19t44.5 -19l43 -43l43 43q18 18 43.5 18.5t42.5 -18.5q18 -18 18 -43t-16 -43l-45 -43l45 -45q18 -18 18 -43.5t-19 -43.5q-18 -17 -43.5 -17t-43.5 16l-43 45l-45 -45q-18 -16 -43.5 -16 t-43.5 17q-18 18 -18 43.5zM104 0q0 25 18.5 43t43.5 18h178v1385h-178q-25 0 -43.5 18.5t-18.5 42.5q0 25 18.5 43.5t43.5 18.5h479q25 0 43.5 -18.5t18.5 -43.5q0 -24 -18.5 -42.5t-43.5 -18.5h-178v-1385h178q25 0 43.5 -18t18.5 -43t-18.5 -43t-43.5 -18h-479 q-25 0 -43.5 18t-18.5 43zM459 1797.5q0 25.5 18 43.5l45 45l-45 43q-16 18 -16 43t17 43q18 19 43.5 19t43.5 -19l43 -43l43 43q18 18 44 18.5t44 -18.5q19 -18 19 -42.5t-19 -43.5l-43 -43l43 -45q18 -18 18.5 -43.5t-18.5 -43.5q-18 -17 -42.5 -17t-43.5 16l-45 45 l-43 -45q-18 -16 -44 -16t-44 17q-18 18 -18 43.5z" />
<glyph unicode="&#xd0;" horiz-adv-x="1538" d="M49 761q0 25 18.5 43.5t43.5 18.5h98v684q0 27 17.5 44.5t43.5 17.5h305q207 0 366.5 -62t255.5 -176q192 -225 192 -577q0 -351 -196 -577q-98 -113 -257 -175.5t-361 -62.5h-305q-27 0 -44 17t-17 44v700h-98q-25 0 -43.5 18.5t-18.5 42.5zM332 61h243q178 0 315 54 t218 152q158 193 158 487q0 218 -85 383q-48 94 -123 160q-77 69 -202.5 109t-280.5 40h-243v-623h227q25 0 43.5 -18.5t18.5 -43.5q0 -24 -18.5 -42.5t-43.5 -18.5h-227v-639z" />
<glyph unicode="&#xd1;" horiz-adv-x="1505" d="M166 0v1507q0 46 43 59q11 5 22 3q29 0 48 -27l919 -1343v1308q0 25 18.5 43.5t42.5 18.5q25 0 43.5 -18.5t18.5 -43.5v-1507q0 -43 -41 -57l-2 -1q-1 -1 -4 -1q-8 -3 -15 -3q-5 0 -8 1h-1024q-27 0 -44 17t-17 44zM289 61h854l-854 1248v-1248zM426 1851q0 71 43 123 q34 40 78 56q9 2 19 4.5t15.5 4t8.5 1.5h16q20 0 37 -4q47 -11 86 -45q23 -19 51 -60q29 -37 37 -45q16 -17 33 -22q7 -4 14 -4h6q5 0 15 2q20 6 33 22q18 22 18 55v9q-2 24 14.5 43.5t40.5 22.5q25 3 45.5 -13t22.5 -41v-21q0 -76 -45 -133q-38 -45 -92 -63q-26 -6 -52 -6 h-16q-11 1 -49 12q-42 14 -76 51q-14 14 -47 58q-20 30 -35 40q-17 14 -31 17q-8 2 -10 2h-4q-4 0 -12 -2q-15 -5 -25 -19q-16 -17 -16 -45q0 -4 2 -12q4 -25 -10.5 -46t-39.5 -26q-24 -4 -45.5 11t-25.5 39q-4 15 -4 34z" />
<glyph unicode="&#xd2;" horiz-adv-x="1855" d="M80 754q0 224 109 411t298 298q190 110 411 110q222 0 410 -110q189 -109 298 -298q110 -188 110 -411q0 -222 -110 -410q-111 -189 -298 -298t-410 -109t-411 109q-188 110 -298 298q-109 187 -109 410zM203 753q0 -187 93 -348q92 -158 254 -253q160 -93 349 -93 q187 0 348 93q160 94 253 253q93 161 93 348q0 189 -93 350q-94 162 -253 254q-161 93 -348 93q-189 0 -349 -93q-161 -93 -254 -254t-93 -350zM580 2115q0 10 5 25q15 39 56 39h311q27 0 44.5 -17.5t17.5 -43.5v-299q0 -41 -38 -58q-14 -6 -26 -6q-22 0 -41 19l-309 299 q-20 20 -20 42zM795 2056l96 -94v94h-96z" />
<glyph unicode="&#xd3;" horiz-adv-x="1855" d="M80 754q0 224 109 411t298 298q190 110 411 110q222 0 410 -110q189 -109 298 -298q110 -188 110 -411q0 -222 -110 -410q-111 -189 -298 -298t-410 -109t-411 109q-188 110 -298 298q-109 187 -109 410zM203 753q0 -187 93 -348q92 -158 254 -253q160 -93 349 -93 q187 0 348 93q160 94 253 253q93 161 93 348q0 189 -93 350q-94 162 -253 254q-161 93 -348 93q-189 0 -349 -93q-161 -93 -254 -254t-93 -350zM838 1798v309q0 27 17 44.5t44 17.5h299q38 0 55 -38q6 -13 6 -26q0 -21 -18 -41l-299 -309q-20 -20 -42 -20q-11 0 -24 5 q-38 15 -38 58zM961 1950l92 96h-92v-96z" />
<glyph unicode="&#xd4;" horiz-adv-x="1855" d="M80 754q0 224 109 411t298 298q190 110 411 110q222 0 410 -110q189 -109 298 -298q110 -188 110 -411q0 -222 -110 -410q-111 -189 -298 -298t-410 -109t-411 109q-188 110 -298 298q-109 187 -109 410zM203 753q0 -187 93 -348q92 -158 254 -253q160 -93 349 -93 q187 0 348 93q160 94 253 253q93 161 93 348q0 189 -93 350q-94 162 -253 254q-161 93 -348 93q-189 0 -349 -93q-161 -93 -254 -254t-93 -350zM621 1797.5q0 25.5 16 43.5l217 217q20 18 45 18.5t43 -18.5l217 -217q18 -18 18.5 -43.5t-18.5 -43.5q-18 -17 -43 -17t-43 16 l-174 174l-174 -174q-18 -16 -44 -16t-43 17q-17 18 -17 43.5z" />
<glyph unicode="&#xd5;" horiz-adv-x="1855" d="M80 754q0 224 109 411t298 298q190 110 411 110q222 0 410 -110q189 -109 298 -298q110 -188 110 -411q0 -222 -110 -410q-111 -189 -298 -298t-410 -109t-411 109q-188 110 -298 298q-109 187 -109 410zM203 753q0 -187 93 -348q92 -158 254 -253q160 -93 349 -93 q187 0 348 93q160 94 253 253q93 161 93 348q0 189 -93 350q-94 162 -253 254q-161 93 -348 93q-189 0 -349 -93q-161 -93 -254 -254t-93 -350zM582 1851q0 71 43 123q32 40 77 56q9 2 19 4.5t15.5 4t8.5 1.5h15q22 0 39 -4q45 -10 84 -45q23 -18 53 -60q26 -36 37 -45 q16 -18 31 -22q9 -4 16 -4h4q6 0 16 2q19 6 33 22q17 22 19 55v9q-2 25 13 44t40 22q26 3 45.5 -13t23.5 -41v-21q0 -76 -45 -133q-39 -45 -94 -63q-25 -6 -51 -6h-16q-13 2 -47 12q-41 13 -78 51q-18 22 -45 58q-24 30 -35 40q-17 14 -31 17q-8 2 -12 2h-4q-1 0 -13 -2 q-12 -4 -22 -19q-16 -17 -16 -45q0 -4 2 -12q4 -25 -10.5 -46t-39.5 -26q-24 -4 -45.5 11t-25.5 39q-4 15 -4 34z" />
<glyph unicode="&#xd6;" horiz-adv-x="1855" d="M80 754q0 224 109 411t298 298q190 110 411 110q222 0 410 -110q189 -109 298 -298q110 -188 110 -411q0 -222 -110 -410q-111 -189 -298 -298t-410 -109t-411 109q-188 110 -298 298q-109 187 -109 410zM203 753q0 -187 93 -348q92 -158 254 -253q160 -93 349 -93 q187 0 348 93q160 94 253 253q93 161 93 348q0 189 -93 350q-94 162 -253 254q-161 93 -348 93q-189 0 -349 -93q-161 -93 -254 -254t-93 -350zM547 1797.5q0 25.5 16 43.5l45 45l-43 43q-18 18 -18 43t18 43q19 19 43.5 19t42.5 -19l45 -43l43 43q18 18 43 18.5t43 -18.5 q19 -18 19 -42.5t-19 -43.5l-43 -43l45 -45q16 -18 16.5 -43.5t-17.5 -43.5q-17 -17 -42.5 -17t-44.5 16l-43 45l-45 -45q-18 -16 -43.5 -16t-43.5 17q-17 18 -17 43.5zM952 1797.5q0 25.5 19 43.5l43 45l-43 43q-18 18 -18.5 43t17.5 43q19 19 44.5 19t42.5 -19l45 -43 l43 43q18 18 43.5 18.5t42.5 -18.5q18 -18 18 -43t-16 -43l-45 -43l45 -45q18 -18 18 -43.5t-19 -43.5q-18 -17 -43.5 -17t-43.5 16l-43 45l-45 -45q-18 -16 -43.5 -16t-43.5 17q-18 18 -18 43.5z" />
<glyph unicode="&#xd7;" horiz-adv-x="755" d="M94 3q0 26 19 44l153 154l-153 153q-18 18 -18.5 43t17.5 43q19 19 44.5 19t44.5 -19l153 -153l152 151q18 18 42.5 18.5t42.5 -18.5q19 -18 19 -42.5t-18 -43.5l-152 -151l152 -152q18 -18 18 -43.5t-19 -43.5q-18 -19 -42.5 -19t-42.5 18l-152 152l-153 -154 q-18 -18 -44 -18t-45 18q-18 18 -18 44z" />
<glyph unicode="&#xd8;" horiz-adv-x="1531" d="M82 761q0 220 89 409q89 188 241 295q153 108 332 108q108 0 210 -41l11 31q7 23 30 33q13 7 27 7q11 0 19 -4q25 -8 35 -30q7 -13 7 -27q0 -11 -4 -20l-16 -47q1 0 5.5 -4t7.5 -6q152 -106 243 -295q90 -188 90 -409q0 -223 -90 -410t-243 -295q-152 -107 -332 -107 q-97 0 -188 32l-17 -51q-7 -22 -31 -33q-13 -7 -27 -7q-11 0 -19 4q-25 8 -35 30q-7 13 -7 27q2 12 4 20l21 63l-33 22q-153 109 -241 295q-89 189 -89 410zM205 761q0 -291 160 -490q56 -69 121 -116l429 1261q-78 34 -170 34q-219 0 -380 -200q-160 -199 -160 -489z M596 97q69 -25 149 -25q220 0 380 199q161 200 161 490q0 289 -161 489q-49 61 -103 103z" />
<glyph unicode="&#xd9;" horiz-adv-x="1353" d="M102 479v1030q0 27 17.5 44.5t42.5 17.5q27 0 45 -17.5t18 -44.5v-1030q0 -169 132 -293q133 -125 319 -125q190 0 321 119t131 299v1030q0 27 17.5 44.5t42.5 17.5q27 0 45 -17.5t18 -44.5v-1030q0 -233 -168 -387q-168 -153 -407 -153q-236 0 -405 159 q-169 160 -169 381zM358 2114q2 13 6 26q15 39 56 39h309q27 0 44.5 -17.5t17.5 -43.5v-299q0 -42 -37 -58q-14 -6 -26 -6q-23 0 -42 19l-309 299q-19 19 -19 41zM571 2056l97 -94v94h-97z" />
<glyph unicode="&#xda;" horiz-adv-x="1353" d="M102 479v1030q0 27 17.5 44.5t42.5 17.5q27 0 45 -17.5t18 -44.5v-1030q0 -169 132 -293q133 -125 319 -125q190 0 321 119t131 299v1030q0 27 17.5 44.5t42.5 17.5q27 0 45 -17.5t18 -44.5v-1030q0 -233 -168 -387q-168 -153 -407 -153q-236 0 -405 159 q-169 160 -169 381zM614 1798v309q0 27 17.5 44.5t44.5 17.5h299q41 0 56 -38q6 -13 6 -27q0 -21 -17 -40l-299 -309q-20 -20 -43 -20q-10 0 -25 5q-39 15 -39 58zM737 1950l92 96h-92v-96z" />
<glyph unicode="&#xdb;" horiz-adv-x="1353" d="M102 479v1030q0 27 17.5 44.5t42.5 17.5q27 0 45 -17.5t18 -44.5v-1030q0 -169 132 -293q133 -125 319 -125q190 0 321 119t131 299v1030q0 27 17.5 44.5t42.5 17.5q27 0 45 -17.5t18 -44.5v-1030q0 -233 -168 -387q-168 -153 -407 -153q-236 0 -405 159 q-169 160 -169 381zM397 1797.5q0 25.5 19 43.5l217 217q18 18 42.5 18.5t43.5 -18.5l219 -217q16 -18 16 -43.5t-17 -43.5q-17 -17 -43 -17t-44 16l-174 174l-174 -174q-16 -16 -42.5 -16t-44.5 17q-18 18 -18 43.5z" />
<glyph unicode="&#xdc;" horiz-adv-x="1353" d="M102 479v1030q0 27 17.5 44.5t42.5 17.5q27 0 45 -17.5t18 -44.5v-1030q0 -169 132 -293q133 -125 319 -125q190 0 321 119t131 299v1030q0 27 17.5 44.5t42.5 17.5q27 0 45 -17.5t18 -44.5v-1030q0 -233 -168 -387q-168 -153 -407 -153q-236 0 -405 159 q-169 160 -169 381zM324 1797.5q0 25.5 18 43.5l45 45l-45 43q-16 18 -16 43t17 43q17 19 43 19t44 -19l43 -43l43 43q18 18 44 18.5t44 -18.5q19 -18 19 -42.5t-19 -43.5l-43 -43l43 -45q18 -18 18.5 -43.5t-18.5 -43.5q-18 -17 -43 -17t-43 16l-45 45l-45 -45 q-16 -16 -42 -16t-44 17q-18 18 -18 43.5zM731 1797.5q0 25.5 17 43.5l45 45l-43 43q-18 18 -18.5 43t16.5 43q18 19 43.5 19t44.5 -19l43 -43l45 43q16 18 41.5 18.5t43.5 -18.5q19 -18 19 -42.5t-18 -43.5l-43 -43l43 -45q18 -18 18 -43.5t-18 -43.5q-17 -17 -42.5 -17 t-43.5 16l-45 45l-43 -45q-18 -16 -44 -16t-44 17q-17 18 -17 43.5z" />
<glyph unicode="&#xdd;" horiz-adv-x="1533" d="M41 1505q-2 14 6 28q17 36 55 36h1356q38 0 55 -36q5 -12 7 -27q0 -20 -17 -40l-674 -757v-709q0 -25 -18 -43t-43 -18t-43 18t-18 43v709l-652 757q-15 19 -14 39zM236 1446l532 -621l553 621h-1085zM719 1798v309q0 27 17.5 44.5t43.5 17.5h299q39 0 56 -38 q6 -13 6 -26q0 -22 -19 -41l-299 -309q-20 -20 -42 -20q-11 0 -24 5q-38 15 -38 58zM842 1950l92 96h-92v-96z" />
<glyph unicode="&#xde;" horiz-adv-x="1323" d="M193 -184v1837q0 25 18 43t43 18t43 -18.5t18 -42.5v-84h201q221 0 379 -158t158 -379t-158 -379q-157 -157 -379 -157h-201v-680q0 -25 -18 -43.5t-43 -18.5t-43 18.5t-18 43.5zM315 618h201q172 0 293 121t121 293t-121 293t-293 121h-201v-828z" />
<glyph unicode="&#xdf;" horiz-adv-x="1439" d="M107 17q0 16 9 31q13 22 37.5 28t45.5 -6q23 -14 51 -15q13 0 24 4q37 9 45 39q6 10 7 23q0 2 -2 8v1176q6 59 36 110q47 78 134 119q73 35 153 35h15q142 -5 245 -96q113 -98 125 -238v-29q0 -115 -67 -200q-84 -104 -215 -113h-43q-28 0 -39 -4q-11 -1 -19 -6 q-5 -5 -6 -9v-10q1 -5 12 -10q11 -6 31 -6q10 -2 12 -2q4 0 21.5 1t19.5 1h13q204 0 346 -127l2 -2q71 -62 111 -152q42 -90 42 -188v-12q-2 -90 -41 -174.5t-110 -145.5q-128 -111 -299 -110q-11 0 -39 2q-194 17 -318 165q-2 -30 -12 -55q-18 -40 -53 -69q-32 -27 -74 -39 q-29 -7 -57 -9q-61 0 -113 31q-22 13 -28 39q-2 10 -2 15zM446 217l515 453q-94 55 -209 55h-9q-3 0 -20 -1t-25 -1t-18 2q-47 2 -82 20q-47 26 -68 70q-10 26 -10 55q0 23 8 50q13 36 50 61q29 20 65 29q25 6 66 6h32q78 5 127 65q41 53 41 125v17q-7 91 -82 155 q-74 64 -170 68h-10q-54 0 -100 -23q-53 -26 -80 -69q-17 -27 -21 -60v-1077zM565 158q91 -87 211 -97q16 -2 27 -2q125 0 217 80q105 91 110 232v8q0 117 -75 211z" />
<glyph unicode="&#xe0;" d="M-4 1q0 15 6 28l793 1507q18 33 55 33q36 0 53 -33l797 -1507q6 -13 6 -28q0 -10 -3 -19q-9 -39 -52.5 -42.5t-61.5 31.5l-301 572l-385 -578q-18 -27 -51 -26q-33 0 -51 26l-389 578l-299 -572q-19 -36 -61 -31.5t-53 42.5q-3 10 -3 19zM477 666l375 -555l371 557 l-373 708zM530 2115q1 11 6 25q15 39 56 39h311q27 0 44.5 -17.5t17.5 -43.5v-299q0 -41 -38 -58q-13 -6 -27 -6q-22 0 -40 19l-309 299q-19 19 -21 42zM745 2056l97 -94v94h-97z" />
<glyph unicode="&#xe1;" d="M-4 1q0 15 6 28l793 1507q18 33 55 33q36 0 53 -33l797 -1507q6 -13 6 -28q0 -10 -3 -19q-9 -39 -52.5 -42.5t-61.5 31.5l-301 572l-385 -578q-18 -27 -51 -26q-33 0 -51 26l-389 578l-299 -572q-19 -36 -61 -31.5t-53 42.5q-3 10 -3 19zM477 666l375 -555l371 557 l-373 708zM788 1798v309q0 27 17.5 44.5t44.5 17.5h299q38 0 55 -38q6 -13 6 -26q0 -21 -18 -41l-299 -309q-20 -20 -42 -20q-10 0 -25 5q-38 15 -38 58zM911 1950l93 96h-93v-96z" />
<glyph unicode="&#xe2;" d="M-4 1q0 15 6 28l793 1507q18 33 55 33q36 0 53 -33l797 -1507q6 -13 6 -28q0 -10 -3 -19q-9 -39 -52.5 -42.5t-61.5 31.5l-301 572l-385 -578q-18 -27 -51 -26q-33 0 -51 26l-389 578l-299 -572q-19 -36 -61 -31.5t-53 42.5q-3 10 -3 19zM477 666l375 -555l371 557 l-373 708zM571 1797.5q0 25.5 17 43.5l217 217q20 18 44.5 18.5t43.5 -18.5l217 -217q18 -18 18 -43.5t-18 -43.5q-18 -17 -44 -17t-42 16l-174 174l-174 -174q-18 -16 -44 -16t-44 17q-17 18 -17 43.5z" />
<glyph unicode="&#xe3;" horiz-adv-x="1673" d="M-32 1q0 15 6 28l793 1507q18 33 55 33q36 0 53 -33l797 -1507q6 -13 6 -28q0 -10 -3 -19q-9 -39 -52.5 -42.5t-61.5 31.5l-301 572l-385 -578q-18 -27 -51 -26q-33 0 -51 26l-389 578l-299 -572q-19 -36 -61 -31.5t-53 42.5q-3 10 -3 19zM449 666l375 -555l371 557 l-373 708zM504 1851q0 71 43 123q32 40 78 56q9 2 19 4.5t15.5 4t8.5 1.5h15q22 0 39 -4q45 -10 84 -45q23 -18 53 -60q26 -36 37 -45q16 -17 30 -22q9 -4 17 -4h4q6 0 16 2q19 6 33 22q18 22 18 55v9q-2 25 13.5 44t40.5 22q26 3 45.5 -13t23.5 -41v-21q0 -76 -45 -133 q-39 -45 -94 -63q-26 -6 -51 -6h-17q-13 2 -47 12q-41 14 -77 51q-30 37 -46 58q-22 28 -34 40q-17 14 -31 17q-8 2 -12 2h-4q-1 0 -13 -2q-12 -4 -22 -19q-15 -17 -17 -45q0 -4 2 -12q4 -25 -10 -46t-39 -26q-24 -4 -45.5 11t-25.5 39q-5 18 -5 34z" />
<glyph unicode="&#xe4;" d="M-4 1q0 15 6 28l344 651q1 10 10 22l439 834q18 33 55 33q36 0 53 -33l797 -1507q6 -13 6 -28q0 -10 -3 -19q-9 -39 -52.5 -42.5t-61.5 31.5l-301 572l-385 -578q-18 -27 -51 -26q-33 0 -51 26l-389 578l-299 -572q-19 -36 -61 -31.5t-53 42.5q-3 10 -3 19zM477 666 l375 -555l371 557l-373 708zM498 1797.5q0 25.5 16 43.5l45 45l-43 43q-18 18 -18 43t18 43q19 19 43.5 19t42.5 -19l45 -43l43 43q18 18 43 18.5t43 -18.5q19 -18 19 -42.5t-19 -43.5l-43 -43l45 -45q16 -18 16.5 -43.5t-17.5 -43.5q-17 -17 -42.5 -17t-44.5 16l-43 45 l-45 -45q-18 -16 -44 -16t-43 17q-17 18 -17 43.5zM903 1797.5q0 25.5 19 43.5l43 45l-43 43q-18 18 -18.5 43t17.5 43q19 19 44.5 19t42.5 -19l45 -43l43 43q18 18 43.5 18.5t42.5 -18.5q18 -18 18 -43t-16 -43l-45 -43l45 -45q18 -18 18 -43.5t-19 -43.5 q-18 -17 -43.5 -17t-43.5 16l-43 45l-45 -45q-18 -16 -43.5 -16t-43.5 17q-18 18 -18 43.5z" />
<glyph unicode="&#xe5;" d="M-4 1q0 15 6 28l793 1507q18 33 55 33q36 0 53 -33l797 -1507q6 -13 6 -28q0 -10 -3 -19q-9 -39 -52.5 -42.5t-61.5 31.5l-301 572l-385 -578q-18 -27 -51 -26q-33 0 -51 26l-389 578l-299 -572q-19 -36 -61 -31.5t-53 42.5q-3 10 -3 19zM477 666l375 -555l371 557 l-373 708zM672 1929q0 64 37 111q13 19 34 35q51 39 113 39q63 -2 111 -39q21 -14 34 -35q39 -51 39 -111q-1 -65 -39 -112q-13 -19 -34 -35q-49 -37 -105 -37h-6q-67 0 -113 37q-21 14 -34 35q-39 50 -37 112zM795 1929q-2 -20 12 -37q5 -8 12 -12q13 -12 37 -12h5l32 12 q6 4 12 12q10 13 13 37q0 18 -13 37l-12 12q-13 10 -37 13q-21 0 -37 -13q-7 -6 -12 -12q-12 -14 -12 -37z" />
<glyph unicode="&#xe6;" horiz-adv-x="2502" d="M-4 1q0 15 6 28l344 651q1 10 10 22l439 834q18 33 55 33q36 0 53 -33l332 -629v600q0 27 17.5 44.5t43.5 17.5h605q38 0 54 -34q8 -17 7 -29q0 -18 -12 -33l-535 -750h533q25 0 43 -18.5t18 -43.5q0 -24 -18.5 -42.5t-42.5 -18.5h-590v-539h860q25 0 43 -18t18 -43 t-18 -43t-43 -18h-922q-27 0 -44 17t-17 44v463l-332 -498q-18 -27 -51 -26q-33 0 -51 26l-389 578l-299 -572q-19 -36 -61 -31.5t-53 42.5q-3 10 -3 19zM477 666l375 -555l371 557l-373 708zM1358 854l424 592h-424v-592z" />
<glyph unicode="&#xe7;" horiz-adv-x="1513" d="M47 753q0 221 113 414q109 184 293 293q194 113 413 113q153 0 293 -55q137 -53 248 -150q18 -16 20.5 -42t-15.5 -45q-17 -19 -43 -20t-44 15q-94 82 -211 127q-120 47 -248 47q-188 0 -350 -96q-158 -92 -250 -250q-96 -162 -96 -350t96 -351q91 -157 250 -249 q160 -93 350 -95q127 0 250 47q117 45 211 127q18 18 44 16.5t42 -20.5q14 -16 16 -41q0 -28 -20 -45q-113 -99 -248 -151q-141 -55 -295 -55q-42 0 -90 5v-110q33 10 72 10h20q107 -11 168 -100q45 -62 45 -141q0 -23 -6 -45q-13 -81 -74 -142q-58 -56 -141 -73 q-24 -5 -53 -7q-53 0 -102 21q-74 28 -125 94q-12 15 -14 36q2 32 26 51q20 15 46 11t40 -24q28 -37 72 -55q24 -9 57 -11q16 0 31 4q45 8 77.5 40t40.5 75q2 16 2 25q0 42 -22 71q-28 42 -80 47h-8q-22 0 -43 -8q-24 -11 -41 -33q-18 -27 -46 -27q-11 0 -22 4 q-43 13 -43 58v252q-106 28 -200 82q-183 109 -293 295q-113 191 -113 411z" />
<glyph unicode="&#xe8;" horiz-adv-x="1372" d="M141 0v1507q0 27 17.5 44.5t44.5 17.5h921q40 0 57 -38q5 -15 5 -25q0 -23 -19 -42l-817 -817h774q25 0 43.5 -18.5t18.5 -43.5q0 -24 -18.5 -42.5t-43.5 -18.5h-860v-463h860q25 0 43.5 -18t18.5 -43t-18.5 -43t-43.5 -18h-921q-27 0 -44.5 17t-17.5 44zM264 733 l713 713h-713v-713zM345 2114q-1 12 5 26q16 39 58 39h309q27 0 44 -17.5t17 -43.5v-299q0 -41 -38 -58q-14 -6 -26 -6q-22 0 -40 19l-309 299q-20 20 -20 41zM559 2056l96 -94v94h-96z" />
<glyph unicode="&#xe9;" horiz-adv-x="1372" d="M141 0v1507q0 27 17.5 44.5t44.5 17.5h921q40 0 57 -38q5 -15 5 -25q0 -23 -19 -42l-817 -817h774q25 0 43.5 -18.5t18.5 -43.5q0 -24 -18.5 -42.5t-43.5 -18.5h-860v-463h860q25 0 43.5 -18t18.5 -43t-18.5 -43t-43.5 -18h-921q-27 0 -44.5 17t-17.5 44zM264 733 l713 713h-713v-713zM602 1798v309q0 27 17.5 44.5t44.5 17.5h299q41 0 56 -38q5 -15 5 -25q0 -22 -18 -42l-297 -309q-20 -20 -43 -20q-10 0 -25 5q-39 15 -39 58zM725 1950l92 96h-92v-96z" />
<glyph unicode="&#xea;" horiz-adv-x="1372" d="M141 0v1507q0 27 17.5 44.5t44.5 17.5h921q40 0 57 -38q5 -15 5 -25q0 -23 -19 -42l-817 -817h774q25 0 43.5 -18.5t18.5 -43.5q0 -24 -18.5 -42.5t-43.5 -18.5h-860v-463h860q25 0 43.5 -18t18.5 -43t-18.5 -43t-43.5 -18h-921q-27 0 -44.5 17t-17.5 44zM264 733 l713 713h-713v-713zM385 1797.5q0 25.5 18 43.5l218 217q18 18 42.5 18.5t43.5 -18.5l217 -217q18 -18 18 -43.5t-19 -43.5q-18 -17 -42.5 -17t-42.5 16l-174 174l-175 -174q-18 -16 -43 -16t-43 17q-18 18 -18 43.5z" />
<glyph unicode="&#xeb;" horiz-adv-x="1372" d="M141 0v1507q0 27 17.5 44.5t44.5 17.5h921q40 0 57 -38q5 -15 5 -25q0 -23 -19 -42l-817 -817h774q25 0 43.5 -18.5t18.5 -43.5q0 -24 -18.5 -42.5t-43.5 -18.5h-860v-463h860q25 0 43.5 -18t18.5 -43t-18.5 -43t-43.5 -18h-921q-27 0 -44.5 17t-17.5 44zM264 733 l713 713h-713v-713zM311 1797.5q0 25.5 19 43.5l43 45l-43 43q-18 18 -18.5 43t17.5 43q19 19 44.5 19t44.5 -19l43 -43l43 43q18 18 43.5 18.5t42.5 -18.5q18 -18 18 -43t-16 -43l-45 -43l45 -45q18 -18 18 -43.5t-19 -43.5q-18 -17 -43.5 -17t-43.5 16l-43 45l-45 -45 q-18 -16 -43.5 -16t-43.5 17q-18 18 -18 43.5zM717 1797.5q0 25.5 18 43.5l45 45l-45 43q-16 18 -16 43t17 43q18 19 43.5 19t43.5 -19l43 -43l43 43q18 18 44 18.5t44 -18.5q19 -18 19 -42.5t-19 -43.5l-43 -43l43 -45q18 -18 18.5 -43.5t-18.5 -43.5q-18 -17 -42.5 -17 t-43.5 16l-45 45l-43 -45q-18 -16 -44 -16t-44 17q-18 18 -18 43.5z" />
<glyph unicode="&#xec;" horiz-adv-x="811" d="M86 2114q0 12 6 26q16 39 58 39h309q27 0 44 -17.5t17 -43.5v-299q0 -41 -38 -58q-14 -6 -26 -6q-22 0 -40 19l-310 299q-20 20 -20 41zM104 0q0 25 18.5 43t43.5 18h178v1385h-178q-25 0 -43.5 18.5t-18.5 42.5q0 25 18.5 43.5t43.5 18.5h479q25 0 43.5 -18.5 t18.5 -43.5q0 -24 -18.5 -42.5t-43.5 -18.5h-178v-1385h178q25 0 43.5 -18t18.5 -43t-18.5 -43t-43.5 -18h-479q-25 0 -43.5 18t-18.5 43zM301 2056l96 -94v94h-96z" />
<glyph unicode="&#xed;" horiz-adv-x="811" d="M104 0q0 25 18.5 43t43.5 18h178v1385h-178q-25 0 -43.5 18.5t-18.5 42.5q0 25 18.5 43.5t43.5 18.5h479q25 0 43.5 -18.5t18.5 -43.5q0 -24 -18.5 -42.5t-43.5 -18.5h-178v-1385h178q25 0 43.5 -18t18.5 -43t-18.5 -43t-43.5 -18h-479q-25 0 -43.5 18t-18.5 43z M344 1798v309q0 27 17.5 44.5t44.5 17.5h299q41 0 56 -38q5 -15 5 -25q0 -22 -18 -42l-297 -309q-20 -20 -43 -20q-10 0 -25 5q-39 15 -39 58zM467 1950l92 96h-92v-96z" />
<glyph unicode="&#xee;" horiz-adv-x="811" d="M104 0q0 25 18.5 43t43.5 18h178v1385h-178q-25 0 -43.5 18.5t-18.5 42.5q0 25 18.5 43.5t43.5 18.5h479q25 0 43.5 -18.5t18.5 -43.5q0 -24 -18.5 -42.5t-43.5 -18.5h-178v-1385h178q25 0 43.5 -18t18.5 -43t-18.5 -43t-43.5 -18h-479q-25 0 -43.5 18t-18.5 43z M127 1797.5q0 25.5 18 43.5l217 217q18 18 43 18.5t44 -18.5l217 -217q18 -18 18 -43.5t-19 -43.5q-18 -17 -42.5 -17t-42.5 16l-174 174l-175 -174q-18 -16 -43 -16t-43 17q-18 18 -18 43.5z" />
<glyph unicode="&#xef;" horiz-adv-x="811" d="M53 1797.5q0 25.5 19 43.5l43 45l-43 43q-18 18 -18.5 43t17.5 43q19 19 44.5 19t44.5 -19l43 -43l43 43q18 18 43.5 18.5t42.5 -18.5q18 -18 18 -43t-16 -43l-45 -43l45 -45q18 -18 18 -43.5t-19 -43.5q-18 -17 -43.5 -17t-43.5 16l-43 45l-45 -45q-18 -16 -43.5 -16 t-43.5 17q-18 18 -18 43.5zM104 0q0 25 18.5 43t43.5 18h178v1385h-178q-25 0 -43.5 18.5t-18.5 42.5q0 25 18.5 43.5t43.5 18.5h479q25 0 43.5 -18.5t18.5 -43.5q0 -24 -18.5 -42.5t-43.5 -18.5h-178v-1385h178q25 0 43.5 -18t18.5 -43t-18.5 -43t-43.5 -18h-479 q-25 0 -43.5 18t-18.5 43zM459 1797.5q0 25.5 18 43.5l45 45l-45 43q-16 18 -16 43t17 43q18 19 43.5 19t43.5 -19l43 -43l43 43q18 18 44 18.5t44 -18.5q19 -18 19 -42.5t-19 -43.5l-43 -43l43 -45q18 -18 18.5 -43.5t-18.5 -43.5q-18 -17 -42.5 -17t-43.5 16l-45 45 l-43 -45q-18 -16 -44 -16t-44 17q-18 18 -18 43.5z" />
<glyph unicode="&#xf0;" horiz-adv-x="1538" d="M49 761q0 25 18.5 43.5t43.5 18.5h98v684q0 27 17.5 44.5t43.5 17.5h305q207 0 366.5 -62t255.5 -176q192 -225 192 -577q0 -351 -196 -577q-98 -113 -257 -175.5t-361 -62.5h-305q-27 0 -44 17t-17 44v700h-98q-25 0 -43.5 18.5t-18.5 42.5zM332 61h243q178 0 315 54 t218 152q158 193 158 487q0 218 -85 383q-48 94 -123 160q-77 69 -202.5 109t-280.5 40h-243v-623h227q25 0 43.5 -18.5t18.5 -43.5q0 -24 -18.5 -42.5t-43.5 -18.5h-227v-639z" />
<glyph unicode="&#xf1;" horiz-adv-x="1505" d="M166 0v1507q0 46 43 59q11 5 22 3q29 0 48 -27l919 -1343v1308q0 25 18.5 43.5t42.5 18.5q25 0 43.5 -18.5t18.5 -43.5v-1507q0 -43 -41 -57l-2 -1q-1 -1 -4 -1q-8 -3 -15 -3q-5 0 -8 1h-1024q-27 0 -44 17t-17 44zM289 61h854l-854 1248v-1248zM426 1851q0 71 43 123 q34 40 78 56q9 2 19 4.5t15.5 4t8.5 1.5h16q20 0 37 -4q47 -11 86 -45q23 -19 51 -60q29 -37 37 -45q16 -17 33 -22q7 -4 14 -4h6q5 0 15 2q20 6 33 22q18 22 18 55v9q-2 24 14.5 43.5t40.5 22.5q25 3 45.5 -13t22.5 -41v-21q0 -76 -45 -133q-38 -45 -92 -63q-26 -6 -52 -6 h-16q-11 1 -49 12q-42 14 -76 51q-14 14 -47 58q-20 30 -35 40q-17 14 -31 17q-8 2 -10 2h-4q-4 0 -12 -2q-15 -5 -25 -19q-16 -17 -16 -45q0 -4 2 -12q4 -25 -10.5 -46t-39.5 -26q-24 -4 -45.5 11t-25.5 39q-4 15 -4 34z" />
<glyph unicode="&#xf2;" horiz-adv-x="1855" d="M80 754q0 224 109 411t298 298q190 110 411 110q222 0 410 -110q189 -109 298 -298q110 -188 110 -411q0 -222 -110 -410q-111 -189 -298 -298t-410 -109t-411 109q-188 110 -298 298q-109 187 -109 410zM203 753q0 -187 93 -348q92 -158 254 -253q160 -93 349 -93 q187 0 348 93q160 94 253 253q93 161 93 348q0 189 -93 350q-94 162 -253 254q-161 93 -348 93q-189 0 -349 -93q-161 -93 -254 -254t-93 -350zM580 2115q0 10 5 25q15 39 56 39h311q27 0 44.5 -17.5t17.5 -43.5v-299q0 -41 -38 -58q-14 -6 -26 -6q-22 0 -41 19l-309 299 q-20 20 -20 42zM795 2056l96 -94v94h-96z" />
<glyph unicode="&#xf3;" horiz-adv-x="1855" d="M80 754q0 224 109 411t298 298q190 110 411 110q222 0 410 -110q189 -109 298 -298q110 -188 110 -411q0 -222 -110 -410q-111 -189 -298 -298t-410 -109t-411 109q-188 110 -298 298q-109 187 -109 410zM203 753q0 -187 93 -348q92 -158 254 -253q160 -93 349 -93 q187 0 348 93q160 94 253 253q93 161 93 348q0 189 -93 350q-94 162 -253 254q-161 93 -348 93q-189 0 -349 -93q-161 -93 -254 -254t-93 -350zM838 1798v309q0 27 17 44.5t44 17.5h299q38 0 55 -38q6 -13 6 -26q0 -21 -18 -41l-299 -309q-20 -20 -42 -20q-11 0 -24 5 q-38 15 -38 58zM961 1950l92 96h-92v-96z" />
<glyph unicode="&#xf4;" horiz-adv-x="1855" d="M80 754q0 224 109 411t298 298q190 110 411 110q222 0 410 -110q189 -109 298 -298q110 -188 110 -411q0 -222 -110 -410q-111 -189 -298 -298t-410 -109t-411 109q-188 110 -298 298q-109 187 -109 410zM203 753q0 -187 93 -348q92 -158 254 -253q160 -93 349 -93 q187 0 348 93q160 94 253 253q93 161 93 348q0 189 -93 350q-94 162 -253 254q-161 93 -348 93q-189 0 -349 -93q-161 -93 -254 -254t-93 -350zM621 1797.5q0 25.5 16 43.5l217 217q20 18 45 18.5t43 -18.5l217 -217q18 -18 18.5 -43.5t-18.5 -43.5q-18 -17 -43 -17t-43 16 l-174 174l-174 -174q-18 -16 -44 -16t-43 17q-17 18 -17 43.5z" />
<glyph unicode="&#xf5;" horiz-adv-x="1855" d="M80 754q0 224 109 411t298 298q190 110 411 110q222 0 410 -110q189 -109 298 -298q110 -188 110 -411q0 -222 -110 -410q-111 -189 -298 -298t-410 -109t-411 109q-188 110 -298 298q-109 187 -109 410zM203 753q0 -187 93 -348q92 -158 254 -253q160 -93 349 -93 q187 0 348 93q160 94 253 253q93 161 93 348q0 189 -93 350q-94 162 -253 254q-161 93 -348 93q-189 0 -349 -93q-161 -93 -254 -254t-93 -350zM582 1851q0 71 43 123q32 40 77 56q9 2 19 4.5t15.5 4t8.5 1.5h15q22 0 39 -4q45 -10 84 -45q23 -18 53 -60q26 -36 37 -45 q16 -18 31 -22q9 -4 16 -4h4q6 0 16 2q19 6 33 22q17 22 19 55v9q-2 25 13 44t40 22q26 3 45.5 -13t23.5 -41v-21q0 -76 -45 -133q-39 -45 -94 -63q-25 -6 -51 -6h-16q-13 2 -47 12q-41 13 -78 51q-18 22 -45 58q-24 30 -35 40q-17 14 -31 17q-8 2 -12 2h-4q-1 0 -13 -2 q-12 -4 -22 -19q-16 -17 -16 -45q0 -4 2 -12q4 -25 -10.5 -46t-39.5 -26q-24 -4 -45.5 11t-25.5 39q-4 15 -4 34z" />
<glyph unicode="&#xf6;" horiz-adv-x="1855" d="M80 754q0 224 109 411t298 298q190 110 411 110q222 0 410 -110q189 -109 298 -298q110 -188 110 -411q0 -222 -110 -410q-111 -189 -298 -298t-410 -109t-411 109q-188 110 -298 298q-109 187 -109 410zM203 753q0 -187 93 -348q92 -158 254 -253q160 -93 349 -93 q187 0 348 93q160 94 253 253q93 161 93 348q0 189 -93 350q-94 162 -253 254q-161 93 -348 93q-189 0 -349 -93q-161 -93 -254 -254t-93 -350zM547 1797.5q0 25.5 16 43.5l45 45l-43 43q-18 18 -18 43t18 43q19 19 43.5 19t42.5 -19l45 -43l43 43q18 18 43 18.5t43 -18.5 q19 -18 19 -42.5t-19 -43.5l-43 -43l45 -45q16 -18 16.5 -43.5t-17.5 -43.5q-17 -17 -42.5 -17t-44.5 16l-43 45l-45 -45q-18 -16 -43.5 -16t-43.5 17q-17 18 -17 43.5zM952 1797.5q0 25.5 19 43.5l43 45l-43 43q-18 18 -18.5 43t17.5 43q19 19 44.5 19t42.5 -19l45 -43 l43 43q18 18 43.5 18.5t42.5 -18.5q18 -18 18 -43t-16 -43l-45 -43l45 -45q18 -18 18 -43.5t-19 -43.5q-18 -17 -43.5 -17t-43.5 16l-43 45l-45 -45q-18 -16 -43.5 -16t-43.5 17q-18 18 -18 43.5z" />
<glyph unicode="&#xf7;" horiz-adv-x="620" d="M25 538q0 25 18 43.5t43 18.5h449q25 0 43 -18.5t18 -43.5q0 -24 -18.5 -42.5t-42.5 -18.5h-449q-25 0 -43 18.5t-18 42.5zM160 -6.5q0 24.5 18 43.5l45 45l-45 43q-16 18 -16 44t17 43q18 17 43.5 17t43.5 -16l43 -45l43 45q18 16 44 16t44 -17q19 -17 19 -43t-19 -44 l-43 -43l43 -45q18 -18 18.5 -43t-18.5 -43q-18 -19 -42.5 -19t-43.5 19l-45 43l-43 -43q-18 -18 -43.5 -18.5t-44.5 18.5q-18 18 -18 42.5zM160 927.5q0 24.5 18 43.5l45 45l-45 43q-16 18 -16 43.5t17 42.5q18 18 43.5 18t43.5 -16l43 -45l43 45q18 16 44 16t44 -18 q19 -17 19 -42.5t-19 -43.5l-43 -43l43 -45q18 -18 18.5 -43t-18.5 -44q-18 -18 -42.5 -18t-43.5 19l-45 43l-43 -43q-18 -18 -43.5 -18.5t-44.5 17.5q-18 19 -18 43.5z" />
<glyph unicode="&#xf8;" horiz-adv-x="1531" d="M82 761q0 220 89 409q89 188 241 295q153 108 332 108q108 0 210 -41l11 31q7 23 30 33q13 7 27 7q11 0 19 -4q25 -8 35 -30q7 -13 7 -27q0 -11 -4 -20l-16 -47q1 0 5.5 -4t7.5 -6q152 -106 243 -295q90 -188 90 -409q0 -223 -90 -410t-243 -295q-152 -107 -332 -107 q-97 0 -188 32l-17 -51q-7 -22 -31 -33q-13 -7 -27 -7q-11 0 -19 4q-25 8 -35 30q-7 13 -7 27q2 12 4 20l21 63l-33 22q-153 109 -241 295q-89 189 -89 410zM205 761q0 -291 160 -490q56 -69 121 -116l429 1261q-78 34 -170 34q-219 0 -380 -200q-160 -199 -160 -489z M596 97q69 -25 149 -25q220 0 380 199q161 200 161 490q0 289 -161 489q-49 61 -103 103z" />
<glyph unicode="&#xf9;" horiz-adv-x="1353" d="M102 479v1030q0 27 17.5 44.5t42.5 17.5q27 0 45 -17.5t18 -44.5v-1030q0 -169 132 -293q133 -125 319 -125q190 0 321 119t131 299v1030q0 27 17.5 44.5t42.5 17.5q27 0 45 -17.5t18 -44.5v-1030q0 -233 -168 -387q-168 -153 -407 -153q-236 0 -405 159 q-169 160 -169 381zM358 2114q2 13 6 26q15 39 56 39h309q27 0 44.5 -17.5t17.5 -43.5v-299q0 -42 -37 -58q-14 -6 -26 -6q-23 0 -42 19l-309 299q-19 19 -19 41zM571 2056l97 -94v94h-97z" />
<glyph unicode="&#xfa;" horiz-adv-x="1353" d="M102 479v1030q0 27 17.5 44.5t42.5 17.5q27 0 45 -17.5t18 -44.5v-1030q0 -169 132 -293q133 -125 319 -125q190 0 321 119t131 299v1030q0 27 17.5 44.5t42.5 17.5q27 0 45 -17.5t18 -44.5v-1030q0 -233 -168 -387q-168 -153 -407 -153q-236 0 -405 159 q-169 160 -169 381zM614 1798v309q0 27 17.5 44.5t44.5 17.5h299q41 0 56 -38q6 -13 6 -27q0 -21 -17 -40l-299 -309q-20 -20 -43 -20q-10 0 -25 5q-39 15 -39 58zM737 1950l92 96h-92v-96z" />
<glyph unicode="&#xfb;" horiz-adv-x="1353" d="M102 479v1030q0 27 17.5 44.5t42.5 17.5q27 0 45 -17.5t18 -44.5v-1030q0 -169 132 -293q133 -125 319 -125q190 0 321 119t131 299v1030q0 27 17.5 44.5t42.5 17.5q27 0 45 -17.5t18 -44.5v-1030q0 -233 -168 -387q-168 -153 -407 -153q-236 0 -405 159 q-169 160 -169 381zM397 1797.5q0 25.5 19 43.5l217 217q18 18 42.5 18.5t43.5 -18.5l219 -217q16 -18 16 -43.5t-17 -43.5q-17 -17 -43 -17t-44 16l-174 174l-174 -174q-16 -16 -42.5 -16t-44.5 17q-18 18 -18 43.5z" />
<glyph unicode="&#xfc;" horiz-adv-x="1353" d="M102 479v1030q0 27 17.5 44.5t42.5 17.5q27 0 45 -17.5t18 -44.5v-1030q0 -169 132 -293q133 -125 319 -125q190 0 321 119t131 299v1030q0 27 17.5 44.5t42.5 17.5q27 0 45 -17.5t18 -44.5v-1030q0 -233 -168 -387q-168 -153 -407 -153q-236 0 -405 159 q-169 160 -169 381zM324 1797.5q0 25.5 18 43.5l45 45l-45 43q-16 18 -16 43t17 43q17 19 43 19t44 -19l43 -43l43 43q18 18 44 18.5t44 -18.5q19 -18 19 -42.5t-19 -43.5l-43 -43l43 -45q18 -18 18.5 -43.5t-18.5 -43.5q-18 -17 -43 -17t-43 16l-45 45l-45 -45 q-16 -16 -42 -16t-44 17q-18 18 -18 43.5zM731 1797.5q0 25.5 17 43.5l45 45l-43 43q-18 18 -18.5 43t16.5 43q18 19 43.5 19t44.5 -19l43 -43l45 43q16 18 41.5 18.5t43.5 -18.5q19 -18 19 -42.5t-18 -43.5l-43 -43l43 -45q18 -18 18 -43.5t-18 -43.5q-17 -17 -42.5 -17 t-43.5 16l-45 45l-43 -45q-18 -16 -44 -16t-44 17q-17 18 -17 43.5z" />
<glyph unicode="&#xfd;" horiz-adv-x="1533" d="M41 1505q-2 14 6 28q17 36 55 36h1356q38 0 55 -36q5 -12 7 -27q0 -20 -17 -40l-674 -757v-709q0 -25 -18 -43t-43 -18t-43 18t-18 43v709l-652 757q-15 19 -14 39zM236 1446l532 -621l553 621h-1085zM719 1798v309q0 27 17.5 44.5t43.5 17.5h299q39 0 56 -38 q6 -13 6 -26q0 -22 -19 -41l-299 -309q-20 -20 -42 -20q-11 0 -24 5q-38 15 -38 58zM842 1950l92 96h-92v-96z" />
<glyph unicode="&#xfe;" horiz-adv-x="1323" d="M193 -184v1837q0 25 18 43t43 18t43 -18.5t18 -42.5v-84h201q221 0 379 -158t158 -379t-158 -379q-157 -157 -379 -157h-201v-680q0 -25 -18 -43.5t-43 -18.5t-43 18.5t-18 43.5zM315 618h201q172 0 293 121t121 293t-121 293t-293 121h-201v-828z" />
<glyph unicode="&#xff;" horiz-adv-x="1533" d="M41 1505q-2 14 6 28q17 36 55 36h1356q38 0 55 -36q5 -12 7 -27q0 -20 -17 -40l-674 -757v-709q0 -25 -18 -43t-43 -18t-43 18t-18 43v709l-652 757q-15 19 -14 39zM236 1446l532 -621l553 621h-1085zM428 1797.5q0 25.5 18 43.5l43 45l-43 43q-18 18 -18 43t18 43 q19 19 43.5 19t42.5 -19l46 -43l43 43q18 18 43.5 18.5t42.5 -18.5q18 -18 18 -42.5t-18 -43.5l-43 -43l45 -45q16 -18 16 -43.5t-18 -43.5q-17 -17 -42.5 -17t-43.5 16l-43 45l-46 -45q-18 -16 -43.5 -16t-43.5 17q-17 18 -17 43.5zM834 1797.5q0 25.5 18 43.5l43 45 l-43 43q-18 18 -18 43t18 43q18 19 44 19t44 -19l43 -43l43 43q18 18 44 18.5t43 -18.5q17 -18 17 -42.5t-16 -43.5l-45 -43l45 -45q18 -18 18.5 -43.5t-18.5 -43.5q-18 -17 -44 -17t-44 16l-43 45l-45 -45q-18 -16 -43 -16t-43 17q-18 18 -18 43.5z" />
<glyph unicode="&#x152;" horiz-adv-x="3227" d="M80 754q0 224 109 411t298 298q190 110 411 110q222 0 410 -110q189 -109 298 -298q110 -188 110 -411q0 -222 -110 -410q-111 -189 -298 -298t-410 -109t-411 109q-188 110 -298 298q-109 187 -109 410zM203 753q0 -187 93 -348q92 -158 254 -253q160 -93 349 -93 q187 0 348 93q160 94 253 253q93 161 93 348q0 189 -93 350q-94 162 -253 254q-161 93 -348 93q-189 0 -349 -93q-161 -93 -254 -254t-93 -350zM1996 0v1507q0 27 17.5 44.5t44.5 17.5h921q40 0 57 -38q5 -15 5 -25q0 -23 -19 -42l-817 -817h774q25 0 43.5 -18.5t18.5 -43.5 q0 -24 -18.5 -42.5t-43.5 -18.5h-860v-463h860q25 0 43.5 -18t18.5 -43t-18.5 -43t-43.5 -18h-921q-27 0 -44.5 17t-17.5 44zM2119 733l713 713h-713v-713z" />
<glyph unicode="&#x153;" horiz-adv-x="3227" d="M80 754q0 224 109 411t298 298q190 110 411 110q222 0 410 -110q189 -109 298 -298q110 -188 110 -411q0 -222 -110 -410q-111 -189 -298 -298t-410 -109t-411 109q-188 110 -298 298q-109 187 -109 410zM203 753q0 -187 93 -348q92 -158 254 -253q160 -93 349 -93 q187 0 348 93q160 94 253 253q93 161 93 348q0 189 -93 350q-94 162 -253 254q-161 93 -348 93q-189 0 -349 -93q-161 -93 -254 -254t-93 -350zM1996 0v1507q0 27 17.5 44.5t44.5 17.5h921q40 0 57 -38q5 -15 5 -25q0 -23 -19 -42l-817 -817h774q25 0 43.5 -18.5t18.5 -43.5 q0 -24 -18.5 -42.5t-43.5 -18.5h-860v-463h860q25 0 43.5 -18t18.5 -43t-18.5 -43t-43.5 -18h-921q-27 0 -44.5 17t-17.5 44zM2119 733l713 713h-713v-713z" />
<glyph unicode="&#x178;" horiz-adv-x="1533" d="M41 1505q-2 14 6 28q17 36 55 36h1356q38 0 55 -36q5 -12 7 -27q0 -20 -17 -40l-674 -757v-709q0 -25 -18 -43t-43 -18t-43 18t-18 43v709l-652 757q-15 19 -14 39zM236 1446l532 -621l553 621h-1085zM428 1756.5q0 25.5 18 43.5l45 43l-45 45q-16 18 -16 43t17 43 q17 19 43 19t44 -19l43 -43l43 43q18 18 44 18.5t44 -18.5q19 -18 19 -42.5t-19 -43.5l-43 -45l43 -43q18 -18 18.5 -43.5t-18.5 -43.5q-18 -17 -42.5 -17t-43.5 16l-45 45l-43 -45q-18 -16 -44 -16t-44 17q-18 18 -18 43.5zM835 1756.5q0 25.5 17 43.5l45 43l-43 45 q-18 18 -18.5 43t16.5 43q18 19 43.5 19t44.5 -19l43 -43l45 43q18 18 42.5 18.5t42.5 -18.5q19 -18 19 -42.5t-18 -43.5l-43 -45l45 -43q16 -18 16 -43.5t-18 -43.5q-17 -17 -42.5 -17t-43.5 16l-45 45l-43 -45q-18 -16 -44 -16t-44 17q-17 18 -17 43.5z" />
<glyph unicode="&#x2c6;" horiz-adv-x="731" d="M92 1822.5q0 24.5 19 43.5l217 217q18 18 42.5 18t43.5 -18l217 -217q18 -18 18 -43t-19 -44q-18 -18 -42.5 -18t-42.5 19l-174 174l-174 -174q-18 -18 -44 -18.5t-44 17.5q-17 19 -17 43.5z" />
<glyph unicode="&#x2dc;" horiz-adv-x="659" d="M-318 240q0 71 43 123q31 37 76 55q35 8 45 8q8 2 15 2q20 0 36 -4q47 -10 87 -45q22 -19 51 -59l37 -48q16 -15 32 -22l15 -4h6q6 0 16 2q17 6 31 24q20 23 20 54v5q-1 5 -1 10.5t1 12.5t4.5 14.5t9.5 13.5q22 28 64.5 16t42.5 -52q2 -14 2 -20q0 -73 -47 -131 q-39 -48 -92 -64q-27 -8 -51 -8q-16 2 -17 2q-13 0 -49 10q-42 17 -75 53q-18 18 -48 58q-19 28 -34 41q-12 11 -31 16q-6 2 -10 2h-4l-13 -4q-14 -5 -24 -16q-14 -18 -15 -45v-13q6 -26 -8.5 -46.5t-39.5 -25.5t-45.5 9t-27.5 41q-2 22 -2 35z" />
<glyph unicode="&#x2000;" horiz-adv-x="1089" />
<glyph unicode="&#x2001;" horiz-adv-x="2179" />
<glyph unicode="&#x2002;" horiz-adv-x="1089" />
<glyph unicode="&#x2003;" horiz-adv-x="2179" />
<glyph unicode="&#x2004;" horiz-adv-x="726" />
<glyph unicode="&#x2005;" horiz-adv-x="544" />
<glyph unicode="&#x2006;" horiz-adv-x="363" />
<glyph unicode="&#x2007;" horiz-adv-x="363" />
<glyph unicode="&#x2008;" horiz-adv-x="272" />
<glyph unicode="&#x2009;" horiz-adv-x="435" />
<glyph unicode="&#x200a;" horiz-adv-x="121" />
<glyph unicode="&#x2010;" horiz-adv-x="671" d="M49 596q0 25 18.5 43t43.5 18h448q25 0 43.5 -18t18.5 -43t-18.5 -43t-43.5 -18h-448q-25 0 -43.5 18t-18.5 43z" />
<glyph unicode="&#x2011;" horiz-adv-x="671" d="M49 596q0 25 18.5 43t43.5 18h448q25 0 43.5 -18t18.5 -43t-18.5 -43t-43.5 -18h-448q-25 0 -43.5 18t-18.5 43z" />
<glyph unicode="&#x2012;" horiz-adv-x="671" d="M49 596q0 25 18.5 43t43.5 18h448q25 0 43.5 -18t18.5 -43t-18.5 -43t-43.5 -18h-448q-25 0 -43.5 18t-18.5 43z" />
<glyph unicode="&#x2013;" horiz-adv-x="1024" d="M49 535v122h924v-122h-924z" />
<glyph unicode="&#x2014;" horiz-adv-x="2048" d="M49 535v122h1948v-122h-1948z" />
<glyph unicode="&#x2018;" horiz-adv-x="884" d="M78 1997q0 10 5 25q15 38 56 38h310q27 0 44 -17.5t17 -43.5v-299q0 -41 -37 -56q-14 -5 -25 -6q-23 0 -42 19l-310 299q-19 19 -18 41zM291 1937l96 -92v92h-96z" />
<glyph unicode="&#x2019;" horiz-adv-x="718" d="M-47 1563v309q0 27 17.5 44t43.5 17h299q41 0 57 -37q6 -14 5 -26q0 -21 -17 -41l-299 -309q-20 -20 -41 -20q-11 0 -26 5q-39 17 -39 58zM76 1714l92 96h-92v-96z" />
<glyph unicode="&#x201c;" horiz-adv-x="376" d="M25 1432v227q0 25 18 43t43 18t43 -18.5t18 -42.5v-227q0 -25 -18 -43.5t-43 -18.5t-43 18.5t-18 43.5zM188 1432v227q0 25 18.5 43t42.5 18q25 0 43.5 -18.5t18.5 -42.5v-227q0 -25 -18.5 -43.5t-43.5 -18.5q-24 0 -42.5 18.5t-18.5 43.5z" />
<glyph unicode="&#x201d;" horiz-adv-x="376" d="M25 1432v227q0 25 18 43t43 18t43 -18.5t18 -42.5v-227q0 -25 -18 -43.5t-43 -18.5t-43 18.5t-18 43.5zM188 1432v227q0 25 18.5 43t42.5 18q25 0 43.5 -18.5t18.5 -42.5v-227q0 -25 -18.5 -43.5t-43.5 -18.5q-24 0 -42.5 18.5t-18.5 43.5z" />
<glyph unicode="&#x2026;" horiz-adv-x="1413" d="M70 -24.5q0 24.5 18 42.5l45 45l-45 43q-16 18 -16 44t17 43q17 18 43 18t44 -16l43 -45l43 45q18 16 44 16t44 -18q19 -17 19 -42.5t-19 -44.5l-43 -43l43 -45q18 -18 18.5 -42.5t-18.5 -42.5q-18 -19 -42.5 -19t-43.5 18l-45 43l-43 -43q-18 -18 -44 -18t-44 19 q-18 18 -18 42.5zM541 -24.5q0 24.5 18 42.5l45 45l-45 43q-16 18 -16 44t17 43q17 18 43 18t44 -16l43 -45l43 45q18 16 44 16t44 -18q19 -17 19 -42.5t-19 -44.5l-43 -43l43 -45q18 -18 18.5 -42.5t-18.5 -42.5q-18 -19 -42.5 -19t-43.5 18l-45 43l-43 -43 q-18 -18 -44 -18t-44 19q-18 18 -18 42.5zM1012 -24.5q0 24.5 18 42.5l45 45l-45 43q-16 18 -16 44t17 43q17 18 43 18t44 -16l43 -45l43 45q18 16 44 16t44 -18q19 -17 19 -42.5t-19 -44.5l-43 -43l43 -45q18 -18 18.5 -42.5t-18.5 -42.5q-18 -19 -42.5 -19t-43.5 18 l-45 43l-43 -43q-18 -18 -44 -18t-44 19q-18 18 -18 42.5z" />
<glyph unicode="&#x202f;" horiz-adv-x="435" />
<glyph unicode="&#x2039;" horiz-adv-x="641" d="M91 640q0 22 18 40l196 221q18 21 43 21q12 0 24 -4q40 -13 40 -58v-418q0 -41 -38 -56q-15 -5 -26 -5q-23 0 -41 18l-196 197q-20 20 -20 44zM238 641l51 -51v108z" />
<glyph unicode="&#x203a;" horiz-adv-x="641" d="M190 442v418q0 43 40 58q16 5 24 4q24 0 43 -21l197 -221q17 -17 17 -40q0 -25 -19 -44l-197 -197q-19 -19 -41 -18q-11 0 -26 5q-38 15 -38 56zM313 590l52 51l-52 57v-108z" />
<glyph unicode="&#x205f;" horiz-adv-x="544" />
<glyph unicode="&#x2122;" horiz-adv-x="3244" d="M80 1025q0 31 24 50l621 481q18 14 37 15l37 -15l620 -481q19 -17 24 -42q1 -4 0 -8q0 -21 -12 -37q-15 -19 -41 -22t-44 11l-523 405v-1382q0 -25 -18.5 -43t-43.5 -18q-24 0 -42.5 18t-18.5 43v1382l-522 -405q-18 -14 -43.5 -11t-41.5 22q-13 16 -13 37zM1702 0v1507 q0 39 36 56q14 7 27 6q21 0 37 -15l586 -495l584 495q18 15 38 15q14 0 28 -6q36 -17 36 -56v-1507q0 -25 -18.5 -43t-44.5 -18q-25 0 -42.5 18t-17.5 43v420l-563 477l-563 -477v-420q0 -25 -18.5 -43t-44.5 -18q-25 0 -42.5 18t-17.5 43zM1825 582l467 397l-467 395v-792z M2482 979l469 -397v792z" />
<glyph unicode="&#xe000;" horiz-adv-x="1565" d="M0 1565h1565v-1565h-1565v1565z" />
<glyph unicode="&#xfb01;" horiz-adv-x="2183" d="M141 0v1507q0 27 17.5 44.5t44.5 17.5h921q40 0 57 -38q5 -15 5 -25q0 -23 -19 -42l-817 -817h774q25 0 43.5 -18.5t18.5 -43.5q0 -24 -18.5 -42.5t-43.5 -18.5h-860v-524q0 -25 -18.5 -43t-43.5 -18q-24 0 -42.5 18t-18.5 43zM264 733l713 713h-713v-713zM1476 0 q0 25 18.5 43t43.5 18h178v1385h-178q-25 0 -43.5 18.5t-18.5 42.5q0 25 18.5 43.5t43.5 18.5h479q25 0 43.5 -18.5t18.5 -43.5q0 -24 -18.5 -42.5t-43.5 -18.5h-178v-1385h178q25 0 43.5 -18t18.5 -43t-18.5 -43t-43.5 -18h-479q-25 0 -43.5 18t-18.5 43z" />
<glyph unicode="&#xfb02;" horiz-adv-x="2621" d="M141 0v1507q0 27 17.5 44.5t44.5 17.5h921q40 0 57 -38q5 -15 5 -25q0 -23 -19 -42l-817 -817h774q25 0 43.5 -18.5t18.5 -43.5q0 -24 -18.5 -42.5t-43.5 -18.5h-860v-524q0 -25 -18.5 -43t-43.5 -18q-24 0 -42.5 18t-18.5 43zM264 733l713 713h-713v-713zM1618 0v1507 q0 25 18.5 43.5t42.5 18.5q25 0 43.5 -18.5t18.5 -43.5v-764l700 -700q19 -19 19 -41q0 -12 -6 -26q-15 -39 -56 -37h-719q-27 0 -44 17t-17 44zM1741 61h510l-510 510v-510z" />
<glyph unicode="&#xfb03;" horiz-adv-x="3555" d="M141 0v1507q0 27 17.5 44.5t44.5 17.5h921q40 0 57 -38q5 -15 5 -25q0 -23 -19 -42l-817 -817h774q25 0 43.5 -18.5t18.5 -43.5q0 -24 -18.5 -42.5t-43.5 -18.5h-860v-524q0 -25 -18.5 -43t-43.5 -18q-24 0 -42.5 18t-18.5 43zM264 733l713 713h-713v-713zM1513 0v1507 q0 27 17.5 44.5t44.5 17.5h921q40 0 57 -38q5 -15 5 -25q0 -23 -19 -42l-817 -817h774q25 0 43.5 -18.5t18.5 -43.5q0 -24 -18.5 -42.5t-43.5 -18.5h-860v-524q0 -25 -18.5 -43t-43.5 -18q-24 0 -42.5 18t-18.5 43zM1636 733l713 713h-713v-713zM2848 0q0 25 18.5 43 t43.5 18h178v1385h-178q-25 0 -43.5 18.5t-18.5 42.5q0 25 18.5 43.5t43.5 18.5h479q25 0 43.5 -18.5t18.5 -43.5q0 -24 -18.5 -42.5t-43.5 -18.5h-178v-1385h178q25 0 43.5 -18t18.5 -43t-18.5 -43t-43.5 -18h-479q-25 0 -43.5 18t-18.5 43z" />
<glyph unicode="&#xfb04;" horiz-adv-x="3993" d="M141 0v1507q0 27 17.5 44.5t44.5 17.5h921q40 0 57 -38q5 -15 5 -25q0 -23 -19 -42l-817 -817h774q25 0 43.5 -18.5t18.5 -43.5q0 -24 -18.5 -42.5t-43.5 -18.5h-860v-524q0 -25 -18.5 -43t-43.5 -18q-24 0 -42.5 18t-18.5 43zM264 733l713 713h-713v-713zM1513 0v1507 q0 27 17.5 44.5t44.5 17.5h921q40 0 57 -38q5 -15 5 -25q0 -23 -19 -42l-817 -817h774q25 0 43.5 -18.5t18.5 -43.5q0 -24 -18.5 -42.5t-43.5 -18.5h-860v-524q0 -25 -18.5 -43t-43.5 -18q-24 0 -42.5 18t-18.5 43zM1636 733l713 713h-713v-713zM2990 0v1507q0 25 18.5 43.5 t42.5 18.5q25 0 43.5 -18.5t18.5 -43.5v-764l700 -700q19 -19 19 -41q0 -12 -6 -26q-15 -39 -56 -37h-719q-27 0 -44 17t-17 44zM3113 61h510l-510 510v-510z" />
</font>
</defs>
</svg>
