<?xml version="1.0" standalone="no"?>
<!DOCTYPE svg PUBLIC "-//W3C//DTD SVG 1.1//EN" "http://www.w3.org/Graphics/SVG/1.1/DTD/svg11.dtd" >
<svg xmlns="http://www.w3.org/2000/svg">
<metadata>
This is a custom SVG webfont generated by Font Squirrel.
Copyright   : Copyright c 2010 by BSozoo All rights reserved3
Designer    : BSozoo
Foundry     : BSozoo
</metadata>
<defs>
<font id="NemoyLight" horiz-adv-x="1701" >
<font-face units-per-em="2048" ascent="1638" descent="-410" />
<missing-glyph horiz-adv-x="659" />
<glyph unicode=" "  horiz-adv-x="659" />
<glyph unicode="&#x09;" horiz-adv-x="659" />
<glyph unicode="&#xa0;" horiz-adv-x="659" />
<glyph unicode="!" horiz-adv-x="526" d="M145 -16q3 8 11 14l65 65l-65 66q-10 10 -10 20t11 23q22 22 44 0l63 -66l66 66q23 23 44 0q11 -13 11 -23t-10 -20l-66 -66l66 -65q18 -14 7.5 -33.5t-30.5 -21.5q-10 0 -20 10l-68 67l-65 -67q-13 -20 -37 -4q-22 15 -17 35zM236 406v1101q0 31 30 31q31 0 31 -31 v-1101q0 -31 -31 -31q-30 0 -30 31z" />
<glyph unicode="&#x22;" horiz-adv-x="376" d="M55 1432v227q0 31 31 31t31 -31v-227q0 -31 -31 -31t-31 31zM219 1432v227q0 31 31 31t31 -31v-227q0 -31 -31 -31t-31 31z" />
<glyph unicode="#" horiz-adv-x="1525" d="M59 399q0 13 9.5 22t21.5 9h242l151 301h-241q-12 0 -21.5 9.5t-9.5 22.5t9 21.5t22 8.5h272l160 321q8 18 23 18q7 0 17 -5q28 -13 13 -40l-145 -294h432l160 321q10 18 25 18q8 0 16 -5q27 -13 14 -40l-146 -294h177q19 0 26.5 -15.5t0 -31t-26.5 -15.5h-207l-150 -301 h205q19 0 27 -15t0 -30.5t-27 -15.5h-236l-190 -383q-10 -18 -25 -18q-9 0 -17 4q-28 13 -13 42l176 355h-432l-191 -383q-8 -18 -23 -18q-9 0 -17 4q-28 14 -15 42l178 355h-213q-12 0 -21.5 9t-9.5 21zM401 430h433l149 301h-432z" />
<glyph unicode="$" horiz-adv-x="1304" d="M168 1032q0 209 148 357q136 136 323 148v194q0 31 30 30q31 0 31 -30v-193h351q20 0 28 -20q7 -20 -6 -33l-721 -719q72 -86 336 -331l434 -412q9 -9 9 -21q0 -6 -3 -13q-7 -18 -28 -20h-400v-192q0 -31 -31 -31q-30 0 -30 31v192h-438q-20 0 -28.5 15.5t-0.5 31 t29 15.5h825l-255 243l-218 202q-98 90 -163 158q-84 87 -126 142q-96 130 -96 256zM229 1020q5 -98 84 -207l664 664h-297q-10 -1 -21 0q-173 -4 -300 -130q-130 -130 -130 -313v-14z" />
<glyph unicode="%" horiz-adv-x="1374" d="M84 1193q0 141 82 242q82 103 201 103q120 0 202 -103q82 -101 82 -242t-82 -244t-202 -103q-119 0 -201 103t-82 244zM145 1193q0 -121 67 -203q68 -83 156 -83q89 0 155 83q67 82 67 203q0 120 -67 202q-66 82 -155 82t-156 -82t-67 -202zM332 -39l540 1591q5 12 16 18 q6 3 13 3q4 0 10 -2q12 -4 17.5 -15.5t1.5 -23.5l-541 -1591q-5 -12 -15 -18q-6 -3 -13 -3q-3 0 -11 2q-13 5 -17 16q-6 12 -1 23zM635 314q0 141 82 244q83 104 201 104q119 0 202 -104q82 -103 82 -244q0 -140 -82 -243q-82 -102 -202 -102q-118 0 -201 102 q-82 103 -82 243zM696 314q0 -118 66 -201q67 -82 156 -82q90 0 156 82q67 82 67 201q0 121 -67 203q-66 83 -156 83q-88 0 -156 -83q-66 -83 -66 -203z" />
<glyph unicode="&#x26;" horiz-adv-x="1734" d="M125 459q-22 19 0 43l463 463l-38 34q-36 33 -42 40l-35 39q-26 29 -36 47l-24 46q-26 51 -26 119q0 100 68 174q69 74 176 74q109 0 178 -82q70 -82 70 -184q0 -33 -20 -86q-10 -21 -25 -43q-13 -20 -27 -38q-13 -17 -35 -40l-32 -35l-34 -35l-32 -30l442 -441l266 267 q23 20 44 -2q22 -21 -1 -44l-266 -264l461 -458q20 -15 3 -39q-16 -23 -36 -16q-7 2 -12 9l-459 459l-463 -463q-21 -21 -43 0zM190 479l441 -440l442 442l-442 441zM449 1290q0 -52 24 -107q7 -17 32 -48q31 -34 35 -38l46 -45l45 -44l53 53l27 28l27 30l25 30q13 15 22 32 l16 29q16 31 16 62q0 80 -53 142q-52 63 -133 63q-80 0 -131 -56q-51 -55 -51 -131z" />
<glyph unicode="'" horiz-adv-x="718" d="M-16 1399v309q0 14 9 22.5t21 8.5h299q20 0 29 -19q3 -8 3 -13q0 -11 -9 -19l-299 -312q-9 -9 -20 -9q-7 0 -14 3q-19 9 -19 29zM45 1475l197 202h-197v-202z" />
<glyph unicode="(" horiz-adv-x="714" d="M295 740q0 430 194 816q7 18 24 18q9 0 16 -4q17 -9 19 -24q0 -6 -5 -18q-185 -369 -187 -788q0 -417 187 -787q5 -12 5 -18q0 -15 -19 -24q-6 -3 -16 -5q-15 0 -24 18q-194 386 -194 816z" />
<glyph unicode=")" horiz-adv-x="714" d="M177 -65q0 6 5 18q186 371 186 787q2 417 -186 788q-5 12 -5 18q0 15 19 24q8 4 16 4q15 0 24 -18q195 -386 194 -816q0 -430 -194 -816q-8 -18 -24 -18q-8 0 -16 5q-17 9 -19 24z" />
<glyph unicode="*" horiz-adv-x="755" d="M76 1507q0 13 9 22t21 9h152l-106 107q-23 20 -1 42q23 23 44 1l106 -107v148q0 19 15.5 26.5t30.5 0t15 -26.5v-148l105 105q23 23 44 1q21 -23 -1 -45l-104 -104h147q19 0 27 -15t0 -30.5t-27 -15.5h-147l104 -105q23 -23 1 -44t-44 1l-105 105v-152q0 -12 -9 -21.5 t-22 -9.5q-12 0 -21 9.5t-9 21.5v152l-106 -107q-20 -23 -43 0t0 43l106 107h-152q-12 0 -21 9t-9 21z" />
<glyph unicode="+" horiz-adv-x="755" d="M47 278q0 13 9.5 22t21.5 9h248v246q0 12 9 21.5t21 9.5q13 0 22 -9.5t9 -21.5v-246h246q12 0 21.5 -9t9.5 -22q0 -12 -9.5 -21t-21.5 -9h-246v-248q0 -31 -31 -31q-30 0 -30 31v248h-248q-12 0 -21.5 9t-9.5 21z" />
<glyph unicode="," horiz-adv-x="679" d="M-4 158q0 30 31 30h374q18 0 27 -17q3 -7 3 -14q0 -10 -7 -20l-375 -428q-11 -11 -22 -11q-2 0 -12 2q-19 7 -19 30v428zM57 127v-315l277 315h-277z" />
<glyph unicode="-" horiz-adv-x="671" d="M80 596q0 31 31 31h448q31 0 31 -31t-31 -31h-448q-31 0 -31 31z" />
<glyph unicode="." horiz-adv-x="471" d="M99 -25q0 11 12 23l65 65l-65 66q-21 13 -6 36q15 22 34 18q9 -2 15 -11l65 -66l66 66q14 18 33 7.5t21 -28.5q0 -11 -11 -22l-66 -66l68 -65q16 -14 6 -33.5t-30 -21.5q-11 0 -21 10l-66 67l-65 -67q-14 -16 -33.5 -6t-21.5 28z" />
<glyph unicode="/" horiz-adv-x="888" d="M144 -50q-1 5 1 11l541 1591q4 12 15 18q6 3 13 3q3 0 11 -2q13 -5 17 -16q3 -6 3 -12q0 -3 -2 -11l-540 -1591q-5 -12 -16 -18q-6 -3 -12 -3q-3 0 -11 2q-12 5 -18 16q-3 7 -2 12z" />
<glyph unicode="0" horiz-adv-x="1531" d="M113 761q0 209 83 389q82 177 229 285q146 107 320 107q121 0 227 -51l21 61q5 12 16 18q6 3 12 3q3 0 11 -2q12 -5 18 -16q3 -7 2 -12q0 -7 -1 -11l-24 -71q4 -2 38 -26q145 -106 229 -285q84 -178 84 -389t-84 -389q-85 -181 -229 -286q-145 -106 -320 -106 q-109 0 -208 42l-27 -81q-4 -12 -15 -18q-6 -3 -13 -3q-3 0 -11 2q-13 5 -17 16q-6 12 -1 23l30 88q-31 17 -58 37q-146 107 -229 286q-83 180 -83 389zM174 760q0 -195 77 -363q76 -166 209 -261q20 -16 43 -28l449 1324q-97 49 -207 49q-153 0 -285 -96 q-133 -95 -209 -261q-77 -168 -77 -364zM557 80q90 -39 188 -39q154 0 285 95t209 261q78 167 78 363q0 198 -78 364t-209 261q-8 6 -24 16z" />
<glyph unicode="1" horiz-adv-x="811" d="M42 1070q0 10 7 17l332 439q10 13 24 13q3 0 11 -2q20 -8 20 -30v-1476h209q31 0 31 -31t-31 -31h-479q-31 0 -31 31t31 31h209v1007h-301q-19 1 -28 18q-4 7 -4 14zM135 1100h240v315z" />
<glyph unicode="2" horiz-adv-x="1304" d="M110 2q0 10 9 21l296 285l244 232q98 93 169 169q82 89 123 153q40 65 55 133h-797q-14 0 -22.5 9t-8.5 22q0 225 116 368q116 144 341 144q207 0 323 -123q117 -123 117 -323q0 -37 -4 -68v-2q-6 -68 -37 -131q-29 -63 -72 -121q-39 -53 -125 -142l-159 -157l-212 -200 l-251 -240h825q20 0 28.5 -15.5t0.5 -31t-29 -15.5h-899q-21 2 -28 20q-3 7 -3 13zM240 1057h774v35q0 172 -99 278q-98 107 -280 107q-190 0 -289 -116q-99 -117 -106 -304z" />
<glyph unicode="3" horiz-adv-x="1304" d="M51 448q0 9 5 17q11 17 32.5 12t24.5 -26q28 -177 166 -297q135 -118 315 -123h12q193 0 330 131q68 60 105.5 147t37.5 180v7q-1 129 -73 237q-25 34 -60 68q-58 -61 -127 -94q-93 -48 -201 -50q-39 0 -71 7q-141 22 -246 124q-20 23 0 43q101 108 250 140q47 10 100 10 q95 0 183 -35q53 -22 104 -57q14 21 23 39q43 82 43 174q0 33 -7 61q-19 126 -114 215q-96 89 -226 99h-26q-144 0 -250 -97q-54 -52 -85.5 -122.5t-31.5 -143.5q0 -12 -9 -21.5t-22 -9.5q-12 0 -21 9.5t-9 21.5q0 87 36.5 169t100.5 142q124 113 291 113h31 q153 -11 262 -115q111 -102 135 -252q6 -33 6 -69q0 -106 -49 -203q-9 -17 -31 -49q44 -40 70 -82q85 -124 86 -272v-7q0 -104 -43 -202t-119 -170q-155 -146 -373 -148h-12q-204 5 -356 140q-76 67 -132 158q-55 91 -55 181zM369 811q81 -69 188 -86q31 -6 61 -6 q91 0 175 41q61 33 106 82q-41 29 -88 47q-75 31 -160 31q-45 0 -88 -9q-111 -24 -194 -100z" />
<glyph unicode="4" horiz-adv-x="1259" d="M153 517q0 10 7 18l805 991q10 13 23 13q3 0 11 -2q19 -7 21 -30v-1507q0 -31 -31 -31h-375q-31 0 -31 31q1 31 31 31h344v454h-774q-18 1 -27 18q-4 7 -4 14zM250 547h708v874z" />
<glyph unicode="5" horiz-adv-x="1333" d="M201 225q0 11 14 22q25 16 43 -7q66 -94 171 -149.5t222 -59.5h13q56 0 112 12q62 17 117 45q180 101 227 285q15 53 17 116v7q0 104 -53 201.5t-142 152.5q-80 54 -186 74q-50 8 -94 8q-202 0 -365 -125q-14 -12 -31.5 -3t-17.5 27v676q0 31 31 31h749q26 0 30 -24 q5 -23 -16 -33l-733 -398v-192q162 102 353 102q50 0 106 -8q114 -19 209 -84q102 -67 161.5 -175.5t59.5 -229.5v-7q0 -69 -18 -133q-26 -102 -95 -187t-163 -134q-62 -35 -131 -51q-63 -14 -127 -15h-13q-62 1 -129 19q-93 24 -175 81t-138 136q-8 11 -8 20zM309 1153 l598 324h-598v-324z" />
<glyph unicode="6" horiz-adv-x="1196" d="M113 504v12q0 195 70 375q70 181 200 326q226 250 557 321q4 0 5 1q9 0 18 -6q17 -12 13 -31t-24 -25q-312 -66 -524 -301q-147 -163 -213 -379q72 99 186 158q113 59 242 59q217 0 371 -153q155 -152 155 -370q0 -217 -155 -370q-155 -152 -371 -152q-217 0 -371 151 q-154 152 -155 369q-4 7 -4 15zM178 491q0 -190 136 -325t329 -135t329 135t136 325q0 191 -136 326t-329 135t-329 -135t-136 -326z" />
<glyph unicode="7" horiz-adv-x="1099" d="M110 1507q0 5 3 13q7 18 28 18h842q16 0 26 -13q6 -8 5 -17q0 -3 -2 -13l-596 -1507q-4 -10 -17 -16q-8 -3 -13 -2q-7 0 -10 1q-11 4 -16.5 16.5t-1.5 24.5l334 842h-354q-31 0 -31 30q0 31 31 31h321l-540 572q-9 9 -9 20zM213 1477l512 -541l213 541h-725z" />
<glyph unicode="8" horiz-adv-x="1304" d="M123 481q0 200 137 348q-78 117 -78 256q0 186 133 319q134 134 320 134t319 -133t133 -320q0 -138 -77 -256q137 -148 137 -348q0 -213 -151 -363q-151 -149 -361 -149t-362 149q-150 150 -150 363zM184 481q0 -186 132 -318q134 -132 319 -132q186 0 318 132t132 318 q0 172 -114 301q-135 -150 -336 -150q-201 2 -336 150q-115 -128 -115 -301zM244 1085q0 -115 63 -213q140 121 327 121t329 -121q63 98 63 213q0 162 -115 277q-114 115 -276 115t-277 -115q-114 -116 -114 -277zM344 823q117 -129 291 -129t291 129q-124 109 -291 109 t-291 -109z" />
<glyph unicode="9" horiz-adv-x="1196" d="M10 1016q0 218 154 369q154 153 373 153q216 0 370 -152q155 -152 156 -368q4 -5 4 -14v-13q0 -192 -71 -375q-72 -184 -199 -325q-226 -250 -557 -322h-6q-9 0 -17 5q-16 12 -12.5 31.5t22.5 25.5q311 66 525 301q147 163 213 379q-73 -100 -187 -159q-112 -58 -241 -58 q-217 0 -372 152q-155 153 -155 370zM72 1015q0 -190 136 -325t328 -135t329 135q136 135 136 325q0 191 -136 326q-136 136 -329 136q-192 0 -328 -136q-136 -135 -136 -326z" />
<glyph unicode=":" horiz-adv-x="444" d="M99 -25q0 11 12 23l65 65l-65 66q-24 21 0 43q23 23 43 0l65 -66l66 66q23 23 44 0q11 -11 10 -21q0 -11 -11 -22l-66 -66l68 -65q16 -14 6 -33.5t-30 -21.5q-11 0 -21 10l-66 67l-65 -67q-14 -16 -33.5 -6t-21.5 28zM99 909q0 11 12 23l65 65l-65 66q-21 13 -6 36 q15 22 34 18q9 -2 15 -11l65 -66l66 66q16 22 39 4q21 -17 14 -36q-3 -6 -10 -11l-66 -66l68 -65q16 -14 6 -33.5t-30 -21.5q-11 0 -21 10l-66 67l-65 -67q-14 -16 -33.5 -6t-21.5 28z" />
<glyph unicode=";" horiz-adv-x="471" d="M16 -176v428q0 31 31 31h375q18 0 27 -18q3 -7 3 -14q0 -9 -8 -20l-374 -428q-11 -11 -23 -11q-3 0 -11 2q-20 8 -20 30zM78 -94l276 315h-276v-315zM99 909q0 11 12 23l65 65l-65 66q-21 13 -6 36q15 22 34 18q9 -2 15 -11l65 -66l66 66q16 22 39 4q21 -17 14 -36 q-3 -6 -10 -11l-66 -66l68 -65q16 -14 6 -33.5t-30 -21.5q-11 0 -21 10l-66 67l-65 -67q-14 -16 -33.5 -6t-21.5 28z" />
<glyph unicode="&#x3c;" horiz-adv-x="641" d="M131 616q-20 20 0 43l197 222q11 11 21 11q6 0 12 -3q18 -7 20 -29v-418q0 -20 -20 -28q-7 -3 -13 -3q-11 0 -20 9zM197 641l122 -125v264z" />
<glyph unicode="=" horiz-adv-x="770" d="M80 348q0 31 31 31h561q31 0 30 -31q0 -31 -30 -31h-561q-31 0 -31 31zM80 596q0 31 31 31h561q31 0 30 -31q0 -31 -30 -31h-561q-31 0 -31 31z" />
<glyph unicode="&#x3e;" horiz-adv-x="641" d="M221 442v418q0 20 20 29q6 3 12 3q12 0 21 -11l197 -222q19 -21 0 -43l-197 -196q-9 -9 -20 -9q-6 0 -13 3q-20 8 -20 28zM283 516l123 125l-123 139v-264z" />
<glyph unicode="?" horiz-adv-x="991" d="M87 1506q0 6 3 14q8 18 29 18h768q18 0 27 -17q4 -7 4 -15q0 -10 -7 -17l-409 -526v-601q0 -31 -31 -31q-31 1 -31 31v611q0 11 6 18l64 80l-414 414q-9 11 -9 21zM193 1477l354 -357l276 357h-630zM357 -25q0 11 12 23l65 65l-65 66q-21 13 -6 36q15 22 34 18 q9 -2 15 -11l65 -66l66 66q14 18 33 7.5t21 -28.5q0 -11 -11 -22l-66 -66l68 -65q16 -14 6 -33.5t-30 -21.5q-11 0 -21 10l-66 67l-65 -67q-14 -16 -33.5 -6t-21.5 28z" />
<glyph unicode="@" horiz-adv-x="1748" d="M88 704q0 308 218 526t525 218q308 0 526 -218t218 -525q0 -179 -67 -274q-66 -95 -161 -95t-141 84l-145 272l-182 -274q-10 -14 -26.5 -14.5t-25.5 14.5l-186 274l-143 -272q-13 -27 -41 -13q-27 15 -13 42l164 313q1 5 6 10l209 399q10 16 28.5 16.5t27.5 -16.5 l381 -722q28 -50 88 -52q60 0 113 75q52 74 52 233q0 184 -91 341q-92 158 -249 249t-342 91t-342 -91q-156 -91 -248 -249q-91 -157 -91 -342t91 -342t248 -248t342 -91q216 0 361 88q5 4 16 4q16 0 25 -15q6 -6 6 -16q0 -16 -14 -25q-161 -98 -394 -98q-307 0 -525 218 t-218 525zM674 754l178 -265l178 265l-178 338z" />
<glyph unicode="A" d="M26 -3q0 7 5 17l790 1508q10 16 28.5 16t27.5 -16l794 -1508q5 -10 5 -17q0 -15 -17 -24q-10 -5 -17 -5q-15 0 -24 18l-326 618l-413 -620q-10 -14 -26.5 -14.5t-25.5 14.5l-417 618l-326 -616q-9 -16 -24 -18q-7 0 -17 5q-17 9 -17 24zM440 664l412 -609l408 611 l-410 776z" />
<glyph unicode="B" horiz-adv-x="1439" d="M174 0v1507q0 31 31 31h389q204 0 349 -141q146 -139 157 -340q98 -89 152.5 -209.5t54.5 -255.5q0 -258 -183 -441q-182 -182 -440 -182h-479q-31 0 -31 31zM236 31h448q230 0 396 164q165 165 165 397q0 220 -149 381q-20 -187 -165 -318q-145 -129 -337 -129h-358 v-495zM236 588h358q182 0 312 129t132 311q-155 127 -354 127h-448v-567zM236 1217h448q190 0 348 -107q-29 158 -152 262q-122 105 -286 105h-358v-260z" />
<glyph unicode="C" horiz-adv-x="1513" d="M78 754q0 212 108 397q103 177 283 283q182 108 393 108h4q144 0 283 -53q129 -51 237 -143q12 -10 12 -23q0 -11 -9 -21q-20 -24 -43 -4q-98 86 -220 134q-123 49 -260 49q-196 0 -366 -101q-164 -96 -260 -260q-99 -168 -101 -367q0 -195 101 -364q95 -165 260 -262 q170 -98 366 -98q137 0 260 49q121 46 222 133q24 20 43 -2q11 -11 9 -21q0 -11 -11 -22q-104 -93 -240 -146q-138 -53 -283 -53q-212 0 -397 107q-177 103 -283 284q-108 183 -108 396z" />
<glyph unicode="D" horiz-adv-x="1390" d="M190 0v1507q0 31 31 31h305q201 0 355 -60t246 -170q182 -213 182 -554q0 -336 -187 -556q-93 -109 -246.5 -169t-349.5 -60h-305q-31 0 -31 31zM252 31h274q184 0 326 55.5t228 157.5q167 201 167 510q0 310 -163 508q-84 103 -226.5 159t-331.5 56h-274v-1446z" />
<glyph unicode="E" horiz-adv-x="1372" d="M172 0v1507q0 31 31 31h921q20 0 29 -19q3 -7 3 -14q0 -11 -9 -20l-871 -869h848q31 0 31 -31q0 -30 -31 -30h-891v-524h891q31 0 31 -31t-31 -31h-921q-31 0 -31 31zM233 659l818 818h-818v-818z" />
<glyph unicode="F" horiz-adv-x="1372" d="M172 0v1507q0 31 31 31h921q20 0 29 -19q3 -7 3 -14q0 -11 -9 -20l-871 -869h848q31 0 31 -31q0 -30 -31 -30h-891v-555q0 -31 -31 -31q-30 0 -30 31zM233 659l818 818h-818v-818z" />
<glyph unicode="G" horiz-adv-x="1847" d="M127 755q0 213 105 395q107 182 287 286q181 106 396 106q145 0 283 -53q137 -53 238 -146q23 -20 2 -43q-20 -22 -43 -2q-91 82 -218 132q-126 51 -262 51q-199 0 -366 -98q-167 -97 -264 -264q-97 -166 -97 -365q0 -198 97 -364t265 -264q166 -97 365 -97 q251 0 445 164l-555 540q-16 13 -8 32q7 19 28 19h828q30 0 30 -30q0 -252 -147 -459q-39 -53 -86 -102l174 -170q23 -23 1 -44q-21 -22 -42 -2l-178 173q-212 -182 -490 -183q-215 0 -396 105q-181 106 -287 287q-105 181 -105 396zM901 723l504 -487q42 42 82 96 q124 175 135 391h-721z" />
<glyph unicode="H" horiz-adv-x="1509" d="M244 0v1507q-1 18 15 26t31.5 0.5t14.5 -26.5v-841l432 432q20 20 43 0l426 -432v841q0 31 31 31t31 -31v-1507q0 -31 -31 -31t-31 31v559h-901v-559q0 -12 -9 -21.5t-22 -9.5q-12 0 -21 9.5t-9 21.5zM348 621h815l-405 411z" />
<glyph unicode="I" horiz-adv-x="811" d="M135 0q0 31 31 31h209v1446h-209q-31 0 -31 30q0 31 31 31h479q31 0 31 -31q0 -30 -31 -30h-209v-1446h209q31 0 31 -31t-31 -31h-479q-31 0 -31 31z" />
<glyph unicode="J" horiz-adv-x="1216" d="M219 377q0 19 15.5 27t31 0t15.5 -27q0 -143 102 -245q103 -101 246 -101q151 0 249 91q99 92 99 255v362l-748 746q-13 13 -6 33q8 20 29 20h756q31 0 30 -31v-1130q0 -189 -117 -298q-116 -110 -292 -110q-170 0 -290 120t-120 288zM326 1477l651 -652v652h-651z" />
<glyph unicode="K" horiz-adv-x="1622" d="M276 0v1507q0 23 21 30q8 2 11 2q14 0 24 -13l405 -529l457 531q10 12 21 12t21 -9q24 -19 3 -44l-463 -541l711 -928q8 -11 8 -20q0 -12 -14 -23q-11 -7 -18 -7h-2q-12 0 -23 14l-703 917l-397 -463v-436q0 -31 -31 -31t-31 31zM338 530l358 418l-358 469v-887z" />
<glyph unicode="L" horiz-adv-x="1249" d="M276 0v1507q0 31 31 31t31 -31v-776l711 -708q9 -9 9 -21q0 -6 -3 -13q-7 -18 -29 -20h-719q-31 0 -31 31zM338 31h614l-614 614v-614z" />
<glyph unicode="M" horiz-adv-x="1708" d="M197 0v1507q0 20 17 29q6 3 13 3q11 0 21 -9l604 -512l604 512q9 9 20 9q6 0 13 -3q18 -8 18 -29v-1507q0 -12 -9 -21.5t-22 -9.5q-12 0 -21 9.5t-9 21.5v434l-594 504l-594 -504v-434q0 -12 -9 -21.5t-22 -9.5q-12 0 -21 9.5t-9 21.5zM258 514l547 465l-547 463v-928z M899 979l547 -465v928z" />
<glyph unicode="N" horiz-adv-x="1505" d="M197 0v1507q0 23 21 30q8 2 11 2q14 0 23 -15l977 -1426v1409q0 31 30 31q31 0 31 -31v-1507q0 -31 -35 -31h-1028q-30 0 -30 31zM258 31h944l-944 1378v-1378z" />
<glyph unicode="O" horiz-adv-x="1855" d="M111 755q0 213 105 395q107 182 287 286q181 106 395 106t395 -106q183 -106 287 -286q106 -181 106 -395q0 -215 -106 -396q-104 -180 -287 -287q-181 -105 -395 -105t-395 105q-181 106 -287 287q-105 181 -105 396zM172 754q0 -198 97 -364t264 -264q166 -97 365 -97 t365 97q167 98 264 264t97 364q0 199 -97 365q-97 167 -264 264q-167 98 -365 98t-365 -98q-167 -97 -264 -264q-97 -166 -97 -365z" />
<glyph unicode="P" horiz-adv-x="1323" d="M223 0v1507q0 31 31 31h389q208 0 357 -149t149 -357q0 -209 -149 -358q-148 -148 -357 -148h-358v-526q0 -31 -31 -31t-31 31zM285 588h358q184 0 314 130t130 314q0 185 -130 315t-314 130h-358v-889z" />
<glyph unicode="Q" d="M61 754q0 214 105 396q107 182 287 286q181 106 396 106q214 0 395 -106q181 -105 286 -286q106 -181 106 -396q0 -189 -79 -353q-78 -166 -271 -300q-194 -134 -437 -134q-242 0 -435 134q-191 136 -272 300q-81 165 -81 353zM123 754q0 -169 74 -319q74 -147 204 -251 l426 631q8 14 24.5 14t27.5 -14l419 -631q129 102 203 251q74 150 74 319q0 198 -98 365q-97 167 -264 264q-167 98 -364 98q-198 0 -365 -98q-166 -97 -264 -264q-97 -166 -97 -365zM451 147q181 -119 398 -119q220 2 400 119l-397 596z" />
<glyph unicode="R" horiz-adv-x="1443" d="M217 0v1507q0 23 23 29l6 2h389q211 0 358 -149q148 -148 148 -357q0 -136 -68 -254q-68 -117 -182 -182l383 -580q8 -11 8 -19q0 -13 -15 -23q-9 -6 -17 -6h-2q-13 0 -23 16l-389 583q-97 -41 -201 -41h-356v-526q0 -12 -9.5 -21.5t-21.5 -9.5t-21.5 9.5t-9.5 21.5z M279 588h356q87 0 166 30l-522 787v-817zM305 1477l551 -830q102 57 162 160q61 103 61 225q0 184 -130 314q-131 131 -314 131h-330z" />
<glyph unicode="S" horiz-adv-x="1304" d="M168 1032q0 209 148 357q149 149 358 149h377q20 0 28 -20q7 -20 -6 -33l-721 -719q72 -86 336 -331l434 -412q9 -9 9 -21q0 -6 -3 -13q-7 -18 -28 -20h-899q-20 0 -28.5 15.5t-0.5 31t29 15.5h825l-255 243l-218 202q-98 90 -163 158q-84 87 -126 142q-96 130 -96 256z M229 1020q5 -98 84 -207l664 664h-303q-185 0 -315 -130t-130 -313v-14z" />
<glyph unicode="T" horiz-adv-x="1536" d="M109 1028q0 12 14 23l620 481q8 7 19 7l18 -7l621 -481q14 -11 14 -23q0 -9 -8 -20q-18 -25 -43 -7l-571 443v-1444q0 -31 -31 -31t-31 31v1444l-571 -443q-25 -18 -43 7q-8 11 -8 20z" />
<glyph unicode="U" horiz-adv-x="1353" d="M133 479v1030q0 18 15.5 26t31 0.5t15.5 -26.5v-1030q0 -181 141 -315q140 -133 340 -133q204 0 343 127q140 128 140 321v1030q0 12 9 21.5t21 9.5q13 0 22.5 -9t9.5 -22v-1030q0 -219 -159 -365q-158 -145 -386 -145q-222 0 -383 150q-160 151 -160 360z" />
<glyph unicode="V" horiz-adv-x="1353" d="M133 1510q0 7 3 13q4 11 18 15q6 2 10 2q7 0 13 -3q11 -5 16 -17l483 -1426l483 1426q5 13 17 17q8 3 13 3q4 0 10 -2q11 -4 18 -15q3 -6 3 -11q0 -9 -1 -13l-514 -1509q-6 -20 -29 -20h-4q-20 0 -25 20l-512 1509q-2 6 -2 11z" />
<glyph unicode="W" horiz-adv-x="1708" d="M197 0v1507q-1 18 15 26q8 4 16 4q8 1 16 -3q16 -8 14 -27v-434l594 -504l594 504v434q-1 18 15 26q8 4 16 4q7 1 15 -3q16 -8 15 -27v-1507q0 -20 -18 -29q-7 -3 -13 -3q-11 0 -20 9l-604 512l-604 -512q-10 -9 -21 -9q-5 0 -13 3q-17 9 -17 29zM258 66l547 462 l-547 465v-927zM899 528l547 -462v927z" />
<glyph unicode="X" horiz-adv-x="1705" d="M190 -1q0 11 7 19l620 775l-559 694q-18 25 5 43q11 8 21 8q12 0 23 -12l549 -684l549 684q11 12 22 12q9 0 20 -8q24 -18 5 -43l-557 -694l623 -775q7 -8 7 -19q0 -7 -4 -14q-9 -17 -28 -18h-1272q-18 1 -27 18q-4 7 -4 14zM285 29h1145l-574 714z" />
<glyph unicode="Y" horiz-adv-x="1533" d="M70 1507q2 8 4 14q8 17 28 17h1356q18 0 27 -18q3 -8 3 -14q0 -11 -7 -19l-682 -768v-719q0 -31 -31 -31t-31 31v719l-659 768q-6 9 -8 20zM168 1477l600 -699l621 699h-1221z" />
<glyph unicode="Z" horiz-adv-x="1691" d="M177 1q0 10 7 17l643 813l-499 658q-12 14 -3 31.5t27 17.5h1049q18 0 27 -18q11 -17 -3 -31l-1153 -1458h1215q31 0 31 -31t-31 -31h-1278q-19 1 -28 18q-4 7 -4 14zM414 1477l452 -596l471 596h-923z" />
<glyph unicode="[" horiz-adv-x="751" d="M240 -104v1712q0 13 8 21.5t22 8.5h271q12 0 21 -9t9 -22q0 -12 -9 -21t-21 -9h-240v-1651h236q12 0 21 -8.5t9 -20.5q0 -14 -9 -23t-21 -9h-267q-14 0 -22 9t-8 22z" />
<glyph unicode="\" horiz-adv-x="888" d="M146 1543q-1 5 2 12q6 11 18 16q8 2 11 2q6 0 12 -3q11 -6 16 -18l540 -1591q2 -8 2 -11q0 -6 -3 -12q-4 -11 -17 -16q-8 -2 -11 -2q-7 0 -13 3q-11 6 -15 18l-541 1591q-2 6 -1 11z" />
<glyph unicode="]" horiz-adv-x="751" d="M170 -103q0 12 9.5 20.5t21.5 8.5h235v1651h-239q-19 -1 -26.5 14.5t0.5 31.5t26 15h270q14 0 22.5 -9t8.5 -21v-1712q0 -13 -8.5 -22t-22.5 -9h-266q-13 0 -22 9t-9 23z" />
<glyph unicode="^" horiz-adv-x="731" d="M121 1660q0 11 10 21l217 217q9 9 23 11l22 -11l217 -217q10 -10 10 -21q-2 -20 -21.5 -30.5t-33.5 6.5l-194 197l-197 -197q-10 -10 -20 -10q-11 0 -22 11t-11 23z" />
<glyph unicode="_" horiz-adv-x="1046" d="M31 0q0 31 30 31h842q31 0 31 -31t-31 -31h-842q-30 0 -30 31z" />
<glyph unicode="`" horiz-adv-x="884" d="M55 1813q-1 6 2 13q7 19 29 19h309q31 0 31 -30v-299q0 -20 -18 -28l-12 -3q-11 0 -21 10l-309 297q-11 11 -11 21zM162 1784l203 -195v195h-203z" />
<glyph unicode="a" d="M26 -3q0 7 5 17l790 1508q10 16 28.5 16t27.5 -16l794 -1508q5 -10 5 -17q0 -15 -17 -24q-10 -5 -17 -5q-15 0 -24 18l-326 618l-413 -620q-10 -14 -26.5 -14.5t-25.5 14.5l-417 618l-326 -616q-9 -16 -24 -18q-7 0 -17 5q-17 9 -17 24zM440 664l412 -609l408 611 l-410 776z" />
<glyph unicode="b" horiz-adv-x="1439" d="M174 0v1507q0 31 31 31h389q204 0 349 -141q146 -139 157 -340q98 -89 152.5 -209.5t54.5 -255.5q0 -258 -183 -441q-182 -182 -440 -182h-479q-31 0 -31 31zM236 31h448q230 0 396 164q165 165 165 397q0 220 -149 381q-20 -187 -165 -318q-145 -129 -337 -129h-358 v-495zM236 588h358q182 0 312 129t132 311q-155 127 -354 127h-448v-567zM236 1217h448q190 0 348 -107q-29 158 -152 262q-122 105 -286 105h-358v-260z" />
<glyph unicode="c" horiz-adv-x="1513" d="M78 754q0 212 108 397q103 177 283 283q182 108 393 108h4q144 0 283 -53q129 -51 237 -143q12 -10 12 -23q0 -11 -9 -21q-20 -24 -43 -4q-98 86 -220 134q-123 49 -260 49q-196 0 -366 -101q-164 -96 -260 -260q-99 -168 -101 -367q0 -195 101 -364q95 -165 260 -262 q170 -98 366 -98q137 0 260 49q121 46 222 133q24 20 43 -2q11 -11 9 -21q0 -11 -11 -22q-104 -93 -240 -146q-138 -53 -283 -53q-212 0 -397 107q-177 103 -283 284q-108 183 -108 396z" />
<glyph unicode="d" horiz-adv-x="1390" d="M190 0v1507q0 31 31 31h305q201 0 355 -60t246 -170q182 -213 182 -554q0 -336 -187 -556q-93 -109 -246.5 -169t-349.5 -60h-305q-31 0 -31 31zM252 31h274q184 0 326 55.5t228 157.5q167 201 167 510q0 310 -163 508q-84 103 -226.5 159t-331.5 56h-274v-1446z" />
<glyph unicode="e" horiz-adv-x="1372" d="M172 0v1507q0 31 31 31h921q20 0 29 -19q3 -7 3 -14q0 -11 -9 -20l-871 -869h848q31 0 31 -31q0 -30 -31 -30h-891v-524h891q31 0 31 -31t-31 -31h-921q-31 0 -31 31zM233 659l818 818h-818v-818z" />
<glyph unicode="f" horiz-adv-x="1372" d="M172 0v1507q0 31 31 31h921q20 0 29 -19q3 -7 3 -14q0 -11 -9 -20l-871 -869h848q31 0 31 -31q0 -30 -31 -30h-891v-555q0 -31 -31 -31q-30 0 -30 31zM233 659l818 818h-818v-818z" />
<glyph unicode="g" horiz-adv-x="1847" d="M127 755q0 213 105 395q107 182 287 286q181 106 396 106q145 0 283 -53q137 -53 238 -146q23 -20 2 -43q-20 -22 -43 -2q-91 82 -218 132q-126 51 -262 51q-199 0 -366 -98q-167 -97 -264 -264q-97 -166 -97 -365q0 -198 97 -364t265 -264q166 -97 365 -97 q251 0 445 164l-555 540q-16 13 -8 32q7 19 28 19h828q30 0 30 -30q0 -252 -147 -459q-39 -53 -86 -102l174 -170q23 -23 1 -44q-21 -22 -42 -2l-178 173q-212 -182 -490 -183q-215 0 -396 105q-181 106 -287 287q-105 181 -105 396zM901 723l504 -487q42 42 82 96 q124 175 135 391h-721z" />
<glyph unicode="h" horiz-adv-x="1509" d="M244 0v1507q0 31 30 31q31 0 31 -31v-841l432 432q20 20 43 0l426 -432v841q0 31 31 31t31 -31v-1507q0 -31 -31 -31t-31 31v559h-901v-559q0 -31 -31 -31q-30 0 -30 31zM348 621h815l-405 411z" />
<glyph unicode="i" horiz-adv-x="811" d="M135 0q0 31 31 31h209v1446h-209q-31 0 -31 30q0 31 31 31h479q31 0 31 -31q0 -30 -31 -30h-209v-1446h209q31 0 31 -31t-31 -31h-479q-31 0 -31 31z" />
<glyph unicode="j" horiz-adv-x="1216" d="M219 377q0 19 15.5 27t31 0t15.5 -27q0 -143 102 -245q103 -101 246 -101q151 0 249 91q99 92 99 255v362l-748 746q-13 13 -6 33q8 20 29 20h756q31 0 30 -31v-1130q0 -189 -117 -298q-116 -110 -292 -110q-170 0 -290 120t-120 288zM326 1477l651 -652v652h-651z" />
<glyph unicode="k" horiz-adv-x="1622" d="M276 0v1507q0 23 21 30q8 2 11 2q14 0 24 -13l405 -529l457 531q10 12 21 12t21 -9q24 -19 3 -44l-463 -541l711 -928q8 -11 8 -20q0 -12 -14 -23q-11 -7 -18 -7h-2q-12 0 -23 14l-703 917l-397 -463v-436q0 -31 -31 -31t-31 31zM338 530l358 418l-358 469v-887z" />
<glyph unicode="l" horiz-adv-x="1249" d="M276 0v1507q0 31 31 31t31 -31v-776l711 -708q9 -9 9 -21q0 -6 -3 -13q-7 -18 -29 -20h-719q-31 0 -31 31zM338 31h614l-614 614v-614z" />
<glyph unicode="m" horiz-adv-x="1708" d="M197 0v1507q0 20 17 29q6 3 13 3q11 0 21 -9l604 -512l604 512q9 9 20 9q6 0 13 -3q18 -8 18 -29v-1507q0 -12 -9 -21.5t-22 -9.5q-12 0 -21 9.5t-9 21.5v434l-594 504l-594 -504v-434q0 -12 -9 -21.5t-22 -9.5q-12 0 -21 9.5t-9 21.5zM258 514l547 465l-547 463v-928z M899 979l547 -465v928z" />
<glyph unicode="n" horiz-adv-x="1505" d="M197 0v1507q0 23 21 30q8 2 11 2q14 0 23 -15l977 -1426v1409q0 31 30 31q31 0 31 -31v-1507q0 -31 -35 -31h-1028q-30 0 -30 31zM258 31h944l-944 1378v-1378z" />
<glyph unicode="o" horiz-adv-x="1855" d="M111 755q0 213 105 395q107 182 287 286q181 106 395 106t395 -106q183 -106 287 -286q106 -181 106 -395q0 -215 -106 -396q-104 -180 -287 -287q-181 -105 -395 -105t-395 105q-181 106 -287 287q-105 181 -105 396zM172 754q0 -198 97 -364t264 -264q166 -97 365 -97 t365 97q167 98 264 264t97 364q0 199 -97 365q-97 167 -264 264q-167 98 -365 98t-365 -98q-167 -97 -264 -264q-97 -166 -97 -365z" />
<glyph unicode="p" horiz-adv-x="1323" d="M223 0v1507q0 31 31 31h389q208 0 357 -149t149 -357q0 -209 -149 -358q-148 -148 -357 -148h-358v-526q0 -31 -31 -31t-31 31zM285 588h358q184 0 314 130t130 314q0 185 -130 315t-314 130h-358v-889z" />
<glyph unicode="q" d="M61 754q0 214 105 396q107 182 287 286q181 106 396 106q214 0 395 -106q181 -105 286 -286q106 -181 106 -396q0 -189 -79 -353q-78 -166 -271 -300q-194 -134 -437 -134q-242 0 -435 134q-191 136 -272 300q-81 165 -81 353zM123 754q0 -169 74 -319q74 -147 204 -251 l426 631q8 14 24.5 14t27.5 -14l419 -631q129 102 203 251q74 150 74 319q0 198 -98 365q-97 167 -264 264q-167 98 -364 98q-198 0 -365 -98q-166 -97 -264 -264q-97 -166 -97 -365zM451 147q181 -119 398 -119q220 2 400 119l-397 596z" />
<glyph unicode="r" horiz-adv-x="1443" d="M217 0v1507q0 23 23 29l6 2h389q211 0 358 -149q148 -148 148 -357q0 -136 -68 -254q-68 -117 -182 -182l383 -580q8 -11 8 -19q0 -13 -15 -23q-9 -6 -17 -6h-2q-13 0 -23 16l-389 583q-97 -41 -201 -41h-356v-526q0 -31 -31 -31t-31 31zM279 588h356q87 0 166 30 l-522 787v-817zM305 1477l551 -830q102 57 162 160q61 103 61 225q0 184 -130 314q-131 131 -314 131h-330z" />
<glyph unicode="s" horiz-adv-x="1304" d="M168 1032q0 209 148 357q149 149 358 149h377q20 0 28 -20q7 -20 -6 -33l-721 -719q72 -86 336 -331l434 -412q9 -9 9 -21q0 -6 -3 -13q-7 -18 -28 -20h-899q-20 0 -28.5 15.5t-0.5 31t29 15.5h825l-255 243l-218 202q-98 90 -163 158q-84 87 -126 142q-96 130 -96 256z M229 1020q5 -98 84 -207l664 664h-303q-185 0 -315 -130t-130 -313v-14z" />
<glyph unicode="t" horiz-adv-x="1536" d="M109 1028q0 12 14 23l620 481q8 7 19 7l18 -7l621 -481q14 -11 14 -23q0 -9 -8 -20q-18 -25 -43 -7l-571 443v-1444q0 -31 -31 -31t-31 31v1444l-571 -443q-25 -18 -43 7q-8 11 -8 20z" />
<glyph unicode="u" horiz-adv-x="1353" d="M133 479v1030q0 18 15.5 26t31 0.5t15.5 -26.5v-1030q0 -181 141 -315q140 -133 340 -133q204 0 343 127q140 128 140 321v1030q0 12 9 21.5t21 9.5q13 0 22.5 -9t9.5 -22v-1030q0 -219 -159 -365q-158 -145 -386 -145q-222 0 -383 150q-160 151 -160 360z" />
<glyph unicode="v" horiz-adv-x="1353" d="M133 1510q0 7 3 13q4 11 18 15q6 2 10 2q7 0 13 -3q11 -5 16 -17l483 -1426l483 1426q5 13 17 17q8 3 13 3q4 0 10 -2q11 -4 18 -15q3 -6 3 -11q0 -9 -1 -13l-514 -1509q-6 -20 -29 -20h-4q-20 0 -25 20l-512 1509q-2 6 -2 11z" />
<glyph unicode="w" horiz-adv-x="1708" d="M197 0v1507q-1 18 15 26q8 4 16 4q8 1 16 -3q16 -8 14 -27v-434l594 -504l594 504v434q-1 18 15 26q8 4 16 4q7 1 15 -3q16 -8 15 -27v-1507q0 -20 -18 -29q-7 -3 -13 -3q-11 0 -20 9l-604 512l-604 -512q-10 -9 -21 -9q-5 0 -13 3q-17 9 -17 29zM258 66l547 462 l-547 465v-927zM899 528l547 -462v927z" />
<glyph unicode="x" horiz-adv-x="1705" d="M190 -1q0 11 7 19l620 775l-559 694q-18 25 5 43q11 8 21 8q12 0 23 -12l549 -684l549 684q11 12 22 12q9 0 20 -8q24 -18 5 -43l-557 -694l623 -775q7 -8 7 -19q0 -7 -4 -14q-9 -17 -28 -18h-1272q-18 1 -27 18q-4 7 -4 14zM285 29h1145l-574 714z" />
<glyph unicode="y" horiz-adv-x="1533" d="M70 1507q2 8 4 14q8 17 28 17h1356q18 0 27 -18q3 -8 3 -14q0 -11 -7 -19l-682 -768v-719q0 -31 -31 -31t-31 31v719l-659 768q-6 9 -8 20zM168 1477l600 -699l621 699h-1221z" />
<glyph unicode="z" horiz-adv-x="1691" d="M177 1q0 10 7 17l643 813l-499 658q-12 14 -3 31.5t27 17.5h1049q18 0 27 -18q11 -17 -3 -31l-1153 -1458h1215q31 0 31 -31t-31 -31h-1278q-19 1 -28 18q-4 7 -4 14zM414 1477l452 -596l471 596h-923z" />
<glyph unicode="{" horiz-adv-x="628" d="M82 803q0 31 27 33q15 0 51 14q92 33 96 133q0 72 4 625q0 12 9.5 21t21.5 9t21.5 -9t9.5 -21l-5 -625q0 -126 -116 -182q123 -72 123 -183q0 -3 -0.5 -82.5t-1 -255t-0.5 -378.5v-6q0 -18 -15.5 -26t-31 -0.5t-15.5 26.5q0 205 0.5 382t1 257.5t0.5 82.5q0 36 -22 68 t-55 51q-52 32 -81 39q-23 5 -22 27z" />
<glyph unicode="|" horiz-adv-x="512" d="M225 0v1507q0 31 31 31t31 -31v-1507q0 -31 -31 -31t-31 31z" />
<glyph unicode="}" horiz-adv-x="628" d="M332 618q0 111 123 183q-117 55 -117 182l-4 625q0 12 9 21t21 9q13 0 22 -9t9 -21q4 -553 4 -625q3 -99 95 -133q38 -14 53 -14q27 -3 27 -33q0 -22 -23 -27q-26 -7 -81 -39q-33 -19 -55 -51t-22 -68q0 -2 0.5 -82.5t1 -257.5t0.5 -382q1 -19 -14.5 -26.5t-31.5 0.5 t-15 26v6q0 203 -0.5 378.5t-1 255t-0.5 82.5z" />
<glyph unicode="~" horiz-adv-x="813" d="M135 717q0 58 35 102q27 33 63 45q24 10 50 10q18 0 30 -4q39 -8 72 -36q20 -18 47 -56q26 -36 39 -49q20 -23 43 -31q16 -6 33 -6q13 0 24 4q29 8 47 33q27 33 27 74q0 4 -2 12q0 12 8 22.5t20 11.5q13 1 23.5 -7.5t10.5 -20.5q2 -10 2 -18q0 -63 -39 -113 q-33 -39 -80 -53q-20 -6 -41 -6q-30 0 -53 10q-38 13 -66 45q-15 12 -45 55q-23 31 -39 45q-19 17 -45 25q-10 2 -16 2q-13 0 -27 -6q-24 -8 -37 -27q-23 -28 -22 -63v-19q4 -12 -3.5 -23t-20.5 -14q-13 -2 -23.5 5.5t-12.5 19.5q-2 20 -2 31z" />
<glyph unicode="&#xa1;" horiz-adv-x="565" d="M137 1358q0 10 10 20l66 66l-66 65q-18 14 -7.5 34t30.5 21q10 0 20 -10l68 -67l66 67q10 10 20 10q20 -2 30.5 -20.5t-7.5 -34.5l-66 -65l66 -66q10 -10 10 -20t-11 -23q-22 -22 -44 0l-64 66l-65 -66q-23 -23 -45 0q-11 13 -11 23zM225 0v1102q0 31 31 31t31 -31v-1102 q0 -31 -31 -31t-31 31z" />
<glyph unicode="&#xa2;" horiz-adv-x="1064" d="M76 499q0 145 69 269q67 121 183 190q107 63 229 72v119q0 12 8.5 21.5t20.5 9.5q14 0 23 -9.5t9 -21.5v-119q80 -5 154 -35q87 -34 154 -96q12 -12 11 -24q0 -11 -9 -21q-20 -23 -43 0q-60 54 -137 86q-77 31 -160 31q-124 0 -228 -64q-102 -63 -161 -170 q-60 -109 -62 -238q0 -125 62 -237q58 -106 161 -168q99 -60 218 -65q9 5 18 0q79 1 154 32q76 28 135 86q23 20 44 -2q11 -11 10 -21q0 -11 -11 -22q-72 -64 -156 -98q-71 -30 -154 -35v-159q1 -18 -15 -26.5t-32 -0.5t-14 27v159q-122 7 -229 72q-116 71 -183 190 q-69 125 -69 268z" />
<glyph unicode="&#xa3;" horiz-adv-x="1495" d="M109 164q0 53 26 100q38 59 107 84q34 12 75 12q49 0 101 -18v395h-203q-31 0 -31 31t31 31h203v471q7 85 61 155q63 84 166 115q47 14 94 14q53 0 107 -18q82 -28 145 -94q60 -67 82 -152q10 -41 10 -86q2 -19 -14 -27t-32 0t-15 27q0 33 -8 70q-18 71 -68.5 125.5 t-120.5 79.5q-42 14 -86 14q-41 0 -77 -12q-82 -25 -134 -92q-42 -57 -49 -125v-465h320q12 0 21 -9.5t9 -21.5t-9 -21.5t-21 -9.5h-320v-426q37 -24 82 -59q10 -10 47 -42l52 -43l48 -37q30 -23 52 -36l600 357q14 8 29.5 0.5t17.5 -23.5q2 -30 2 -47q0 -150 -94 -262 q-111 -133 -287 -150q-26 -2 -41 -2q-125 0 -242 66q-55 28 -116 80l-57 47q-35 31 -52 43q-19 17 -41 33v-97q0 -53 -30 -96q-27 -36 -66 -55q-36 -17 -80 -19h-2q-71 0 -124 46q-54 47 -66 114q-2 22 -2 35zM170 164q0 -9 2 -23q8 -47 45 -78.5t84 -31.5h2q29 0 53 12 q27 12 43 37q17 26 19 59v135q-14 6 -23 11q-40 14 -78 14q-29 0 -55 -8q-48 -16 -74 -60q-18 -30 -18 -67zM825 61q84 -33 162 -32q11 0 37 2q149 13 244 127q75 90 80 213z" />
<glyph unicode="&#xa4;" horiz-adv-x="700" d="M123 903q2 20 21.5 30.5t31.5 -7.5l41 -41q58 43 131 43q76 0 135 -45l45 43q13 21 37 5q22 -15 17 -34q-1 -9 -11 -14l-45 -45q43 -56 43 -130t-43 -133l43 -43q18 -12 8 -31.5t-30 -21.5q-11 0 -21 10l-43 43q-59 -47 -135 -47q-73 0 -131 43l-39 -39q-10 -10 -20 -10 q-19 2 -29.5 22t6.5 31l39 39q-47 61 -47 135q0 75 47 136l-41 41q-10 10 -10 20zM188 707.5q0 -50.5 29 -91.5l92 91l-92 92q-29 -41 -29 -91.5zM262 573q40 -27 86 -26q52 0 92 28l-88 89zM262 842l90 -92l88 88q-42 29 -92 28q-47 2 -86 -24zM395 707l88 -86q25 39 25 87 t-25 87z" />
<glyph unicode="&#xa5;" horiz-adv-x="1533" d="M70 1507q2 8 4 14q8 17 28 17h1356q18 0 27 -18q3 -8 3 -14q0 -11 -7 -19l-646 -727h232q31 0 31 -31t-31 -31h-268v-186h268q31 0 31 -31q0 -30 -31 -30h-268v-451q0 -31 -31 -31t-31 31v451h-231q-31 0 -31 30q0 31 31 31h231v186h-231q-31 0 -31 31t31 31h196 l-624 727q-6 9 -8 20zM168 1477l600 -699l621 699h-1221z" />
<glyph unicode="&#xa6;" horiz-adv-x="540" d="M240 -37v565q0 31 30 31q31 0 31 -31v-565q0 -31 -31 -31q-30 0 -30 31zM240 963v565q0 31 30 31q31 0 31 -31v-565q0 -31 -31 -31q-30 0 -30 31z" />
<glyph unicode="&#xa7;" horiz-adv-x="1304" d="M55 711q0 247 195 393q26 186 167 310q142 124 333 124h376q20 0 28.5 -18.5t-5.5 -34.5l-719 -723q72 -83 336 -329l432 -410q9 -9 9 -21q0 -6 -3 -13q-7 -18 -28 -20h-445l279 -268q14 -13 6 -33t-29 -20h-901q-17 0 -24.5 15t0 30.5t24.5 15.5h827l-255 244l-218 202 q-96 88 -163 157q-80 82 -125 142q-97 131 -97 257zM117 698q5 -68 37 -131l194 199q-99 129 -104 254q-127 -123 -127 -307q2 -6 2 -8q0 -5 -2 -7zM186 514q17 -27 50 -67l56 -64q32 -33 80 -79l82 -78l103 -95l109 -100h436l-388 367q-244 225 -327 319zM305 1020 q5 -101 88 -211l660 668h-303q-185 0 -315 -130t-130 -313q2 -6 2 -8q0 -4 -2 -6z" />
<glyph unicode="&#xa8;" horiz-adv-x="851" d="M99 1637q0 11 12 22l65 65l-65 66q-18 14 -8 33.5t30 21.5q11 0 21 -10l65 -66l66 66q10 10 21 10q10 0 23 -11q21 -22 -1 -44l-66 -66l68 -65q20 -20 -1 -43q-22 -22 -44 0l-66 65l-65 -65q-14 -18 -34 -7.5t-21 28.5zM505 1644q2 9 11 15l66 65l-66 66q-15 12 -8 30 t23 23t30 -8l64 -66l65 66q12 15 30 8t23 -23t-8 -30l-65 -66l65 -65q21 -13 5 -36q-14 -22 -33 -18q-9 2 -15 11l-67 65l-66 -65q-13 -21 -36 -5q-22 14 -18 33z" />
<glyph unicode="&#xa9;" horiz-adv-x="493" d="M-47 1340q0 111 80 191q79 79 193 79q115 0 194 -79q80 -80 80 -191q0 -110 -80 -190q-79 -79 -194 -79q-114 0 -193 79q-80 80 -80 190zM14 1341q0 -85 62 -147q62 -61 150 -61t149 61q63 62 63 147q0 86 -63 146q-61 61 -149 61t-150 -61q-62 -60 -62 -146zM121 1276 q-37 62 0 125q13 28 43 45q28 18 61 18q21 0 45 -8q21 -8 37 -24q12 -10 12 -22q0 -11 -10 -21q-20 -23 -43 -3q-17 17 -41 17q-34 0 -51 -33q-18 -31 0 -65q18 -31 51 -31q25 0 41 16q24 20 43 -2q10 -10 10 -21t-12 -22q-17 -17 -37 -24q-22 -7 -45 -9q-32 0 -61 17 q-30 19 -43 47z" />
<glyph unicode="&#xaa;" horiz-adv-x="612" d="M32 1072q0 8 5 18l100 190q1 2 2.5 5.5t1.5 4.5l129 244q8 16 26.5 16t27.5 -16l235 -444q5 -10 5 -17q0 -15 -18 -24q-12 -5 -18 -5q-15 0 -24 17l-78 149l-102 -151q-8 -14 -24.5 -14.5t-27.5 14.5l-102 151l-80 -149q-9 -17 -24 -17q-7 0 -17 5q-17 9 -17 23z M203 1272l94 -142l96 142l-96 182z" />
<glyph unicode="&#xab;" horiz-adv-x="641" d="M51 616q-20 20 0 43l197 222q13 16 33 8t20 -29v-194l229 262q11 11 23 11q3 0 11 -2q19 -7 20 -28v-510q0 -21 -19 -28q-6 -3 -12 -3q-10 0 -21 11l-231 235v-172q0 -20 -20 -28q-19 -8 -33 6zM117 641l123 -125v264zM360 641l162 -166v350z" />
<glyph unicode="&#xac;" horiz-adv-x="790" d="M51 819q0 31 31 31h590q31 0 30 -31v-237q0 -31 -31 -31q-30 0 -30 31v206h-559q-31 0 -31 31z" />
<glyph unicode="&#xad;" horiz-adv-x="790" d="M51 819q0 31 31 31h590q31 0 30 -31q0 -31 -30 -31h-590q-31 0 -31 31z" />
<glyph unicode="&#xae;" horiz-adv-x="493" d="M-47 1340q0 111 80 191q79 79 193 79q115 0 194 -79q80 -80 80 -191q0 -110 -80 -190q-79 -79 -194 -79q-114 0 -193 79q-80 80 -80 190zM14 1341q0 -85 62 -147q62 -61 150 -61t149 61q63 62 63 147q0 86 -63 146q-61 61 -149 61t-150 -61q-62 -60 -62 -146zM152 1255 v185q0 12 9 21t21 9h47q37 0 63.5 -25.5t26.5 -62.5q0 -36 -22 -59l33 -51q8 -12 7 -20q0 -13 -14 -22q-10 -7 -19 -7q-13 0 -23 16l-39 55q-8 -2 -13 -2h-16v-37q0 -12 -9 -21t-22 -9q-12 0 -21 9t-9 21zM213 1354h16q3 0 13 2v2q16 6 16 24q0 10 -8.5 18.5t-20.5 8.5h-16 v-55z" />
<glyph unicode="&#xaf;" horiz-adv-x="604" d="M104 1659q0 31 31 31h320q31 0 30 -31q0 -31 -30 -31h-320q-31 0 -31 31z" />
<glyph unicode="&#xb0;" horiz-adv-x="491" d="M80 284q0 64 45 109t108 45q64 0 109 -45t45 -109q0 -63 -45 -108t-109 -45q-63 0 -108 45t-45 108zM141 285q0 -39 27 -66q27 -26 65.5 -26t65.5 26q27 27 27 66t-27 65q-27 27 -65.5 27t-65.5 -27q-27 -26 -27 -65z" />
<glyph unicode="&#xb1;" horiz-adv-x="755" d="M47 278q0 13 9.5 22t21.5 9h248v246q0 12 9 21.5t21 9.5q13 0 22 -9.5t9 -21.5v-246h246q12 0 21.5 -9t9.5 -22q0 -12 -9.5 -21t-21.5 -9h-246v-248q0 -31 -31 -31q-30 0 -30 31v248h-248q-12 0 -21.5 9t-9.5 21zM92 -104q0 30 31 30h448q31 0 31 -30q0 -31 -31 -31h-448 q-31 0 -31 31z" />
<glyph unicode="&#xb2;" horiz-adv-x="612" d="M163 1139q0 11 9 20l114 111l94 89q76 71 99 118h-260q-31 0 -31 30q0 92 48.5 148.5t136.5 56.5q81 0 129.5 -50t48.5 -132q0 -7 -2 -25v-2q-1 -27 -14 -54q-10 -24 -41 -59q-24 -29 -51 -56l-79 -77l-96 -88h250q12 0 21.5 -9t9.5 -23q0 -12 -9.5 -20.5t-21.5 -8.5 h-323q-21 0 -29 18q-3 8 -3 13zM252 1538h237q-2 52 -32 82.5t-84 30.5q-107 0 -121 -113z" />
<glyph unicode="&#xb3;" horiz-adv-x="612" d="M143 1300q0 8 5 18q11 17 31.5 12t23.5 -25q11 -57 54 -96q45 -39 101 -40h2q63 0 107 41q45 44 45 105v2q0 41 -23 76l-6 6q-18 -15 -37 -23q-38 -20 -79 -20q-9 0 -29 2q-60 11 -100 51q-20 23 0 43q40 43 100 55q16 4 41 4q37 0 72 -12l22 -12q12 25 12 49q0 8 -2 18 q-6 39 -35.5 67t-68.5 30h-8q-44 0 -76 -29q-37 -33 -37 -82q0 -12 -9 -21.5t-22 -9.5q-12 0 -21 9.5t-9 21.5q0 76 55 127q51 45 119 45h12q62 -5 106 -46q45 -41 56 -101q2 -18 2 -29q0 -43 -21 -82q-1 -3 -4 -6q7 -7 17 -21q35 -51 34 -108v-4q0 -88 -63 -148 q-62 -59 -150 -59h-4q-78 1 -141 55q-72 65 -72 137zM309 1432q24 -10 37 -13q14 -2 21 -2q30 0 53 13l14 10q-4 0 -6 2q-27 8 -49 8q-9 0 -29 -2q-23 -5 -41 -16z" />
<glyph unicode="&#xb4;" horiz-adv-x="718" d="M-16 1399v309q0 14 9 22.5t21 8.5h299q20 0 29 -19q3 -8 3 -13q0 -11 -9 -19l-299 -312q-9 -9 -20 -9q-7 0 -14 3q-19 9 -19 29zM45 1475l197 202h-197v-202z" />
<glyph unicode="&#xb5;" horiz-adv-x="1353" d="M133 -414v1923q0 18 15.5 26t31 0.5t15.5 -26.5v-1030q0 -181 141 -315q140 -133 340 -133q204 0 343 127q140 128 140 321v1030q0 12 9 21.5t21 9.5q13 0 22.5 -9t9.5 -22v-1030q0 -219 -159 -365q-158 -145 -386 -145q-155 0 -283 76q-129 77 -198 201v-660 q0 -12 -9.5 -21t-21.5 -9t-21.5 9t-9.5 21z" />
<glyph unicode="&#xb6;" horiz-adv-x="1181" d="M61 1032q0 209 148 357q149 149 358 149h160q31 0 31 -31v-1507q0 -31 -31 -31t-31 31v1477h-129q-184 0 -314 -130t-130 -315q0 -184 130 -314t314 -130q31 0 31 -31t-31 -31q-210 0 -358 148t-148 358zM946 0v1507q0 31 31 31t31 -31v-1507q0 -31 -31 -31t-31 31z" />
<glyph unicode="&#xb7;" horiz-adv-x="471" d="M99 737q0 11 12 23l65 65l-65 66q-21 13 -6 36q15 22 34 18q9 -2 15 -11l65 -66l66 66q16 22 39 4q21 -17 14 -36q-3 -6 -10 -11l-66 -66l68 -65q16 -14 6 -33.5t-30 -21.5q-11 0 -21 10l-66 67l-65 -67q-14 -16 -33.5 -6t-21.5 28z" />
<glyph unicode="&#xb8;" horiz-adv-x="1513" d="M596 -513q0 13 14 24q25 18 43 -7q34 -46 84 -65q33 -12 70 -12q20 0 37 4q54 11 92 49t49 92q4 12 4 29q0 52 -28 90q-38 53 -101 59h-12q-30 0 -55 -12q-32 -13 -54 -43q-12 -18 -34 -11q-21 8 -21 29v289q0 31 30 31q31 0 31 -31v-219l21 12q36 15 82 17h16 q92 -8 148 -86q39 -56 39 -125q0 -22 -4 -41q-14 -72 -68 -125q-51 -51 -125 -66q-20 -4 -47 -4q-46 0 -92 17q-67 27 -111 86q-8 11 -8 19z" />
<glyph unicode="&#xb9;" horiz-adv-x="434" d="M138 1446q0 10 7 18l119 158q11 11 23 11q4 0 12 -2q20 -8 20 -27v-512h56q19 0 27 -15.5t0 -31t-27 -15.5h-172q-12 0 -21.5 9t-9.5 21q0 13 9 22.5t22 9.5h55v323h-88q-20 2 -28 17q-4 7 -4 14zM231 1477h27v34z" />
<glyph unicode="&#xba;" horiz-adv-x="491" d="M80 284q0 64 45 109t108 45q64 0 109 -45t45 -109q0 -63 -45 -108t-109 -45q-63 0 -108 45t-45 108zM141 285q0 -39 27 -66q27 -26 65.5 -26t65.5 26q27 27 27 66t-27 65q-27 27 -65.5 27t-65.5 -27q-27 -26 -27 -65z" />
<glyph unicode="&#xbb;" horiz-adv-x="641" d="M31 399v510q0 21 19 28q10 2 12 2q11 0 22 -11l229 -262v194q0 21 20 29q21 8 34 -8l196 -222q20 -23 0 -43l-196 -196q-15 -14 -35 -6q-19 7 -19 28v172l-231 -235q-11 -11 -21 -11q-6 0 -12 3q-18 7 -18 28zM92 475l162 166l-162 184v-350zM375 516l123 125l-123 139 v-264z" />
<glyph unicode="&#xbc;" horiz-adv-x="1214" d="M146 -1q0 8 8 19l946 1180q19 25 44 5q13 -10 13 -23q0 -8 -8 -19l-946 -1179q-11 -14 -24 -14q-9 0 -20 8q-13 10 -13 23zM249 1159q0 9 7 19l119 157q11 11 23 12q4 0 12 -2q20 -8 20 -28v-512h55q19 0 27 -15.5t0.5 -31t-27.5 -15.5h-172q-12 0 -21 8.5t-9 21.5 t9 22.5t21 9.5h56v323h-88q-20 2 -28 17q-4 7 -4 14zM342 1190h27v35zM681 185q0 10 7 18l299 368q9 11 21 12q2 0 12 -2q20 -8 20 -30v-539q0 -13 -8 -21.5t-22 -8.5q-13 0 -22 9t-9 21v142h-266q-19 0 -28 17q-4 7 -4 14zM778 215h201v250z" />
<glyph unicode="&#xbd;" horiz-adv-x="1214" d="M146 -1q0 8 8 19l946 1180q19 25 44 5q13 -10 13 -23q0 -8 -8 -19l-946 -1179q-11 -14 -24 -14q-9 0 -20 8q-13 10 -13 23zM249 1159q0 9 7 19l119 157q11 11 23 12q4 0 12 -2q20 -8 20 -28v-512h55q19 0 27 -15.5t0.5 -31t-27.5 -15.5h-172q-12 0 -21 8.5t-9 21.5 t9 22.5t21 9.5h56v323h-88q-20 2 -28 17q-4 7 -4 14zM342 1190h27v35zM747 3q0 11 9 20l113 110l95 89q76 71 99 118h-260q-31 0 -31 31q0 92 48 148t136 56q81 0 130 -50t49 -132q0 -8 -2 -24v-2q-1 -27 -14 -54q-10 -24 -41 -59q-30 -37 -51 -56l-80 -77l-95 -88h250 q12 0 21.5 -9.5t9.5 -22.5q0 -12 -9.5 -21t-21.5 -9h-324q-21 2 -28 19q-3 8 -3 13zM836 401h237q-2 52 -32 82.5t-85 30.5q-106 0 -120 -113z" />
<glyph unicode="&#xbe;" horiz-adv-x="1214" d="M143 937q0 8 5 18q11 18 31.5 12.5t23.5 -25.5q11 -58 54 -95q45 -39 101 -40h2q63 0 107 41q45 44 45 104v2q0 41 -23 76l-6 6q-19 -16 -37 -22q-38 -20 -79 -21q-9 0 -29 2q-60 11 -100 52q-20 23 0 43q40 43 100 55q16 4 41 4q37 0 72 -12q13 -6 22 -13q12 26 12 50 q0 8 -2 18q-6 39 -35.5 66.5t-68.5 29.5h-8q-45 0 -76 -28q-37 -33 -37 -82q1 -18 -15 -26t-31.5 -0.5t-14.5 26.5q0 76 55 127q51 45 119 45h12q62 -5 106 -46q45 -41 56 -102q2 -18 2 -28q0 -43 -21 -82q-1 -2 -2.5 -4t-1.5 -3q10 -9 17 -20q35 -51 34 -109v-4 q0 -88 -63 -147q-62 -59 -150 -60h-4q-79 1 -141 56q-72 65 -72 136zM146 -1q0 8 8 19l946 1180q11 14 24 14q10 0 20 -9q13 -10 13 -23q0 -8 -8 -19l-946 -1179q-11 -14 -24 -14q-9 0 -20 8q-13 10 -13 23zM309 1069q19 -8 37 -12q14 -2 21 -2q29 0 53 12l14 10q-4 0 -6 2 q-27 8 -49 8q-9 0 -29 -2q-23 -5 -41 -16zM681 185q0 10 7 18l299 368q9 11 21 12q2 0 12 -2q20 -8 20 -30v-539q0 -13 -8 -21.5t-22 -8.5q-13 0 -22 9t-9 21v142h-266q-19 0 -28 17q-4 7 -4 14zM778 215h201v250z" />
<glyph unicode="&#xbf;" horiz-adv-x="991" d="M46 -1q0 10 7 17l410 527v600q0 31 30 31q31 0 31 -31v-611q0 -10 -6 -18l-63 -80l413 -414q9 -10 9 -21q0 -5 -3 -13q-7 -17 -28 -19h-768q-19 1 -28 18q-4 7 -4 14zM141 29h631l-354 356zM368 1364q3 7 11 12l65 66l-67 65q-15 12 -8 30t23 23t30 -8l65 -67l66 67 q13 17 33.5 6.5t20.5 -28.5q0 -10 -11 -23l-66 -65l66 -66q21 -13 5 -36q-14 -22 -33 -18q-9 2 -15 11l-66 66l-65 -66q-15 -22 -39 -4q-21 16 -15 35z" />
<glyph unicode="&#xc0;" d="M26 -3q0 7 5 17l344 656q2 8 8 16l438 836q10 16 28.5 16t27.5 -16l794 -1508q5 -10 5 -17q0 -15 -17 -24q-10 -5 -17 -5q-15 0 -24 18l-326 618l-413 -620q-10 -14 -26.5 -14.5t-25.5 14.5l-417 618l-326 -616q-9 -16 -24 -18q-7 0 -17 5q-17 9 -17 24zM440 664 l412 -609l408 611l-410 776zM509 1932q0 5 2 13q7 19 28 19h311q12 0 21.5 -9t9.5 -22v-299q0 -20 -20 -28q-7 -3 -13 -3q-10 0 -21 9l-309 299q-10 11 -9 21zM616 1903l203 -197v197h-203z" />
<glyph unicode="&#xc1;" d="M26 -3q0 7 5 17l344 656q2 8 8 16l438 836q10 16 28.5 16t27.5 -16l794 -1508q5 -10 5 -17q0 -15 -17 -24q-10 -5 -17 -5q-15 0 -24 18l-326 618l-413 -620q-10 -14 -26.5 -14.5t-25.5 14.5l-417 618l-326 -616q-9 -16 -24 -18q-7 0 -17 5q-17 9 -17 24zM440 664 l412 -609l408 611l-410 776zM819 1634v310q0 12 8.5 21t22.5 9h299q18 0 27 -18q3 -8 3 -13q0 -12 -10 -22l-299 -309q-9 -9 -20 -9q-6 0 -12 3q-19 7 -19 28zM881 1710l194 203h-194v-203z" />
<glyph unicode="&#xc2;" d="M26 -3q0 7 5 17l344 656q2 8 8 16l438 836q10 16 28.5 16t27.5 -16l794 -1508q5 -10 5 -17q0 -15 -17 -24q-10 -5 -17 -5q-15 0 -24 18l-326 618l-413 -620q-10 -14 -26.5 -14.5t-25.5 14.5l-417 618l-326 -616q-9 -16 -24 -18q-7 0 -17 5q-17 9 -17 24zM440 664 l412 -609l408 611l-410 776zM599 1640q2 9 11 15l217 217q23 23 43 0l217 -217q12 -11 12 -22q-2 -20 -20.5 -29t-34.5 8l-194 196l-197 -196q-13 -21 -36 -5q-22 14 -18 33z" />
<glyph unicode="&#xc3;" d="M26 -3q0 7 5 17l344 656q2 8 8 16l438 836q10 16 28.5 16t27.5 -16l794 -1508q5 -10 5 -17q0 -15 -17 -24q-10 -5 -17 -5q-15 0 -24 18l-326 618l-413 -620q-10 -14 -26.5 -14.5t-25.5 14.5l-417 618l-326 -616q-9 -16 -24 -18q-7 0 -17 5q-17 9 -17 24zM440 664 l412 -609l408 611l-410 776zM563 1688q0 59 37 102q28 34 64 47q24 8 47 8q18 0 30 -4q38 -7 72 -37q25 -20 49 -55q26 -36 39 -49q20 -20 43 -29q14 -6 31 -6q10 0 24 2q30 11 50 35q25 31 24 74v10q-3 20 11.5 28.5t31 2t19.5 -24.5v-16q0 -64 -39 -113q-32 -40 -78 -53 q-20 -6 -43 -6q-29 0 -53 10q-35 12 -66 43q-26 32 -43 55q-25 33 -39 45q-24 21 -45 25q-10 2 -18 2q-14 0 -27 -4q-21 -8 -37 -27q-23 -30 -22 -65q0 -5 2 -19q4 -18 -10 -28t-31 -5t-19 23q-4 13 -4 29z" />
<glyph unicode="&#xc4;" d="M26 -3q0 7 5 17l344 656q2 8 8 16l438 836q10 16 28.5 16t27.5 -16l794 -1508q5 -10 5 -17q0 -15 -17 -24q-10 -5 -17 -5q-15 0 -24 18l-326 618l-413 -620q-10 -14 -26.5 -14.5t-25.5 14.5l-417 618l-326 -616q-9 -16 -24 -18q-7 0 -17 5q-17 9 -17 24zM440 664 l412 -609l408 611l-410 776zM526 1640q2 9 11 15l65 67l-65 64q-15 12 -8 30t23 23t30 -8l65 -66l64 66q10 10 21 10q10 0 23 -11q22 -22 1 -44l-66 -64l66 -67q23 -20 0 -43t-43 0l-66 65l-67 -65q-13 -21 -37 -5q-22 14 -17 33zM933 1644q2 6 9 11l68 67l-66 64 q-12 12 -11 23q0 11 10 21q21 21 44 1l66 -66l65 66q13 20 37 4q22 -15 16 -35q-2 -8 -10 -14l-65 -64l65 -67q12 -11 12 -22q-2 -19 -21.5 -28.5t-33.5 7.5l-65 65l-66 -65q-16 -22 -40 -4q-21 17 -14 36z" />
<glyph unicode="&#xc5;" d="M26 -3q0 7 5 17l344 656q2 8 8 16l438 836q10 16 28.5 16t27.5 -16l794 -1508q5 -10 5 -17q0 -15 -17 -24q-10 -5 -17 -5q-15 0 -24 18l-326 618l-413 -620q-10 -14 -26.5 -14.5t-25.5 14.5l-417 618l-326 -616q-9 -16 -24 -18q-7 0 -17 5q-17 9 -17 24zM440 664 l412 -609l408 611l-410 776zM700 1769q0 64 45 109q47 45 109 45q64 0 109 -45t45 -109q0 -63 -45 -108t-109 -45q-62 0 -109 45q-45 45 -45 108zM762 1768.5q0 -37.5 26 -64.5q27 -27 65 -27t65 27q28 27 28 64.5t-28 65.5q-27 28 -65 28t-65 -28q-26 -28 -26 -65.5z" />
<glyph unicode="&#xc6;" horiz-adv-x="2502" d="M26 -3q0 7 5 17l344 656q2 8 8 16l438 836q10 16 28.5 16t27.5 -16l389 -738v723q0 31 30 31h605q18 0 27 -16.5t-3 -32.5l-569 -797h592q31 0 30 -31q0 -30 -30 -30h-621v-600h891q31 0 31 -31t-31 -31h-922q-31 0 -30 31v565l-387 -581q-10 -14 -26.5 -14.5t-25.5 14.5 l-417 618l-326 -616q-9 -16 -24 -18q-7 0 -17 5q-17 9 -17 24zM440 664l412 -609l408 611l-410 776zM1327 758l514 719h-514v-719z" />
<glyph unicode="&#xc7;" horiz-adv-x="1513" d="M78 754q0 212 108 397q103 177 283 283q184 109 397 108q144 0 283 -53q129 -51 237 -143q12 -10 12 -23q0 -11 -9 -21q-20 -24 -43 -4q-98 86 -220 134q-123 49 -260 49q-196 0 -366 -101q-164 -96 -260 -260q-99 -168 -101 -367q0 -195 101 -364q95 -165 260 -262 q170 -98 366 -98q137 0 260 49q121 46 222 133q24 20 43 -2q11 -11 9 -21q0 -11 -11 -22q-104 -93 -240 -146q-138 -53 -283 -53q-62 0 -121 9v-193l21 12q36 15 82 17h16q92 -8 148 -86q39 -56 39 -125q0 -22 -4 -41q-14 -72 -68 -125q-51 -51 -125 -66q-20 -4 -47 -4 q-46 0 -92 17q-67 27 -111 86q-8 11 -8 19q0 13 14 24q25 18 43 -7q34 -46 84 -65q33 -12 70 -12q20 0 37 4q54 11 92 49t49 92q4 12 4 29q0 52 -28 90q-38 53 -101 59h-12q-30 0 -55 -12q-32 -13 -54 -43q-12 -18 -34 -11q-21 8 -21 29v275q-109 25 -215 86 q-177 103 -283 284q-108 183 -108 396z" />
<glyph unicode="&#xc8;" horiz-adv-x="1372" d="M172 0v1507q0 31 31 31h921q20 0 29 -19q3 -7 3 -14q0 -11 -9 -20l-871 -869h848q31 0 31 -31q0 -30 -31 -30h-891v-524h891q31 0 31 -31t-31 -31h-921q-31 0 -31 31zM233 659l818 818h-818v-818zM323 1931q0 7 3 14q7 19 28 19h310q14 0 22 -9t8 -22v-299q0 -20 -18 -28 q-8 -3 -13 -3q-11 0 -20 9l-311 299q-9 9 -9 20zM430 1903l203 -197v197h-203z" />
<glyph unicode="&#xc9;" horiz-adv-x="1372" d="M172 0v1507q0 31 31 31h921q20 0 29 -19q3 -7 3 -14q0 -11 -9 -20l-871 -869h848q31 0 31 -31q0 -30 -31 -30h-891v-524h891q31 0 31 -31t-31 -31h-921q-31 0 -31 31zM233 659l818 818h-818v-818zM633 1634v310q0 13 8.5 21.5t22.5 8.5h299q21 0 28 -18q3 -8 3 -13 q0 -11 -9 -22l-299 -309q-9 -9 -20 -9q-6 0 -14 3q-19 7 -19 28zM694 1710l197 203h-197v-203z" />
<glyph unicode="&#xca;" horiz-adv-x="1372" d="M172 0v1507q0 31 31 31h921q20 0 29 -19q3 -7 3 -14q0 -11 -9 -20l-871 -869h848q31 0 31 -31q0 -30 -31 -30h-891v-524h891q31 0 31 -31t-31 -31h-921q-31 0 -31 31zM233 659l818 818h-818v-818zM415 1644q2 6 9 11l217 217q11 11 23 11l22 -11l217 -217q20 -13 4 -37 q-15 -22 -35 -16q-8 2 -14 10l-194 196l-195 -196q-16 -22 -40 -4q-21 17 -14 36z" />
<glyph unicode="&#xcb;" horiz-adv-x="1372" d="M172 0v1507q0 31 31 31h921q20 0 29 -19q3 -7 3 -14q0 -11 -9 -20l-871 -869h848q31 0 31 -31q0 -30 -31 -30h-891v-524h891q31 0 31 -31t-31 -31h-921q-31 0 -31 31zM233 659l818 818h-818v-818zM341 1644q2 6 9 11l68 67l-66 64q-12 12 -11 23q0 11 10 21q11 11 23 11 q11 0 21 -10l66 -66l65 66q21 21 43 -1t0 -44l-65 -64l65 -67q24 -20 1 -43q-21 -21 -44 0l-65 65l-66 -65q-16 -22 -40 -4q-21 17 -14 36zM746 1633q0 11 12 22l65 67l-65 64q-18 14 -8 33.5t30 21.5q11 0 21 -10l65 -66l66 66q14 17 34 6.5t20 -28.5q0 -10 -11 -23 l-66 -64l68 -67q20 -13 4 -37q-15 -22 -35 -16q-8 2 -14 10l-66 65l-65 -65q-14 -18 -34 -7.5t-21 28.5z" />
<glyph unicode="&#xcc;" horiz-adv-x="811" d="M65 1931q0 7 3 14q7 19 28 19h310q14 0 22 -9t8 -22v-299q0 -20 -18.5 -28.5t-32.5 6.5l-311 299q-9 9 -9 20zM135 0q0 31 31 31h209v1446h-209q-31 0 -31 30q0 31 31 31h479q31 0 31 -31q0 -30 -31 -30h-209v-1446h209q31 0 31 -31t-31 -31h-479q-31 0 -31 31zM172 1903 l203 -197v197h-203z" />
<glyph unicode="&#xcd;" horiz-adv-x="811" d="M135 0q0 31 31 31h209v1446h-209q-31 0 -31 30q0 31 31 31h479q31 0 31 -31q0 -30 -31 -30h-209v-1446h209q31 0 31 -31t-31 -31h-479q-31 0 -31 31zM375 1634v310q0 13 8.5 21.5t22.5 8.5h299q21 0 28 -18q3 -8 3 -13q0 -11 -9 -22l-299 -309q-9 -9 -20 -9q-6 0 -14 3 q-19 7 -19 28zM436 1710l197 203h-197v-203z" />
<glyph unicode="&#xce;" horiz-adv-x="811" d="M135 0q0 31 31 31h209v1446h-209q-31 0 -31 30q0 31 31 31h479q31 0 31 -31q0 -30 -31 -30h-209v-1446h209q31 0 31 -31t-31 -31h-479q-31 0 -31 31zM157 1644q2 6 9 11l217 217q11 11 23 11l22 -11l217 -217q20 -13 4 -37q-15 -22 -35 -16q-8 2 -14 10l-194 196 l-195 -196q-16 -22 -40 -4q-21 17 -14 36z" />
<glyph unicode="&#xcf;" horiz-adv-x="811" d="M82 1634q0 11 10 21l68 67l-66 64q-12 12 -11 23q0 11 10 21q21 21 44 1l66 -66l65 66q21 21 43 -1t0 -44l-65 -64l65 -67q24 -20 1 -43q-21 -23 -44 0l-65 65l-66 -65q-23 -23 -44 0q-11 13 -11 22zM135 0q0 31 31 31h209v1446h-209q-31 0 -31 30q0 31 31 31h479 q31 0 31 -31q0 -30 -31 -30h-209v-1446h209q31 0 31 -31t-31 -31h-479q-31 0 -31 31zM488 1633q0 11 12 22l65 67l-65 64q-18 14 -8 33.5t30 21.5q11 0 21 -10l65 -66l66 66q14 17 34 6.5t20 -28.5q0 -10 -11 -23l-66 -64l68 -67q20 -13 4 -37q-15 -22 -35 -16q-8 2 -14 10 l-66 65l-65 -65q-14 -18 -34 -7.5t-21 28.5z" />
<glyph unicode="&#xd0;" horiz-adv-x="1538" d="M80 762q0 31 31 31h129v714q0 31 30 31h305q201 0 355 -60t246 -170q182 -213 182 -554q0 -337 -187 -556q-93 -109 -246.5 -169t-349.5 -60h-305q-30 0 -30 31v731h-129q-31 0 -31 31zM301 31h274q184 0 326 55.5t228 157.5q167 201 167 510q0 311 -162 508 q-84 103 -227 159t-332 56h-274v-684h258q31 0 31 -31t-31 -31h-258v-700z" />
<glyph unicode="&#xd1;" horiz-adv-x="1505" d="M197 0v1507q0 23 21 30q22 7 34 -13l977 -1426v1409q0 31 30 31q31 0 31 -31v-1507q0 -23 -20 -29q-2 0 -2 -2h-1041q-30 0 -30 31zM258 31h944l-944 1378v-1378zM457 1688q0 59 37 102q28 34 63 47q24 8 49 8q16 0 31 -4q38 -7 72 -37q23 -21 46 -55q27 -37 40 -49 q20 -20 43 -29q16 -6 32 -6q7 0 25 2q29 11 47 35q25 31 25 74v10q-3 20 12 28.5t31.5 2t17.5 -24.5v-16q0 -64 -39 -113q-32 -40 -78 -53q-19 -6 -41 -6q-31 0 -55 10q-35 12 -63 43q-18 18 -45 55q-23 33 -39 45q-24 21 -45 25q-10 2 -17 2q-16 0 -28 -4q-21 -8 -37 -27 q-23 -29 -23 -65q0 -5 2 -19q4 -18 -10 -28t-30.5 -5t-18.5 23q-4 13 -4 29z" />
<glyph unicode="&#xd2;" horiz-adv-x="1855" d="M111 755q0 213 105 395q107 182 287 286q181 106 395 106t395 -106q183 -106 287 -286q106 -181 106 -395q0 -215 -106 -396q-104 -180 -287 -287q-181 -105 -395 -105t-395 105q-181 106 -287 287q-105 181 -105 396zM172 754q0 -198 97 -364t264 -264q166 -97 365 -97 t365 97q167 98 264 264t97 364q0 199 -97 365q-97 167 -264 264q-167 98 -365 98t-365 -98q-167 -97 -264 -264q-97 -166 -97 -365zM558 1932q0 5 2 13q7 19 28 19h311q12 0 21.5 -9t9.5 -22v-299q0 -20 -20 -28q-8 -3 -13 -3q-11 0 -20 9l-310 299q-11 11 -9 21zM666 1903 l202 -197v197h-202z" />
<glyph unicode="&#xd3;" horiz-adv-x="1855" d="M111 755q0 213 105 395q107 182 287 286q181 106 395 106t395 -106q183 -106 287 -286q106 -181 106 -395q0 -215 -106 -396q-104 -180 -287 -287q-181 -105 -395 -105t-395 105q-181 106 -287 287q-105 181 -105 396zM172 754q0 -198 97 -364t264 -264q166 -97 365 -97 t365 97q167 98 264 264t97 364q0 199 -97 365q-97 167 -264 264q-167 98 -365 98t-365 -98q-167 -97 -264 -264q-97 -166 -97 -365zM868 1634v310q0 12 8.5 21t22.5 9h299q18 0 27 -18q3 -8 3 -13q0 -11 -9 -22l-299 -309q-9 -9 -20 -9q-6 0 -13 3q-19 7 -19 28zM930 1710 l194 203h-194v-203z" />
<glyph unicode="&#xd4;" horiz-adv-x="1855" d="M111 755q0 213 105 395q107 182 287 286q181 106 395 106t395 -106q183 -106 287 -286q106 -181 106 -395q0 -215 -106 -396q-104 -180 -287 -287q-181 -105 -395 -105t-395 105q-181 106 -287 287q-105 181 -105 396zM172 754q0 -198 97 -364t264 -264q166 -97 365 -97 t365 97q167 98 264 264t97 364q0 199 -97 365q-97 167 -264 264q-167 98 -365 98t-365 -98q-167 -97 -264 -264q-97 -166 -97 -365zM648 1640q2 9 11 15l218 217q21 22 43 0l217 -217q12 -11 11 -22q-2 -19 -21 -28.5t-33 7.5l-195 196l-197 -196q-13 -21 -36 -5 q-22 14 -18 33z" />
<glyph unicode="&#xd5;" horiz-adv-x="1855" d="M111 755q0 213 105 395q107 182 287 286q181 106 395 106t395 -106q183 -106 287 -286q106 -181 106 -395q0 -215 -106 -396q-104 -180 -287 -287q-181 -105 -395 -105t-395 105q-181 106 -287 287q-105 181 -105 396zM172 754q0 -198 97 -364t264 -264q166 -97 365 -97 t365 97q167 98 264 264t97 364q0 199 -97 365q-97 167 -264 264q-167 98 -365 98t-365 -98q-167 -97 -264 -264q-97 -166 -97 -365zM612 1688q0 59 37 102q28 34 64 47q24 8 47 8q18 0 31 -4q38 -7 71 -37q25 -20 49 -55q26 -36 39 -49q20 -20 43 -29q13 -6 31 -6q11 0 25 2 q31 11 49 35q25 31 24 74v10q-3 20 11.5 28.5t31 2t19.5 -24.5v-16q0 -64 -39 -113q-32 -40 -78 -53q-19 -6 -43 -6q-29 0 -53 10q-35 12 -66 43q-26 32 -43 55q-26 33 -39 45q-24 21 -45 25q-10 2 -18 2q-14 0 -27 -4q-21 -8 -37 -27q-23 -30 -22 -65q0 -5 2 -19 q4 -18 -10 -28t-31 -5t-19 23q-4 13 -4 29z" />
<glyph unicode="&#xd6;" horiz-adv-x="1855" d="M111 755q0 213 105 395q107 182 287 286q181 106 395 106t395 -106q183 -106 287 -286q106 -181 106 -395q0 -215 -106 -396q-104 -180 -287 -287q-181 -105 -395 -105t-395 105q-181 106 -287 287q-105 181 -105 396zM172 754q0 -198 97 -364t264 -264q166 -97 365 -97 t365 97q167 98 264 264t97 364q0 199 -97 365q-97 167 -264 264q-167 98 -365 98t-365 -98q-167 -97 -264 -264q-97 -166 -97 -365zM575 1640q2 9 11 15l65 67l-65 64q-15 12 -8 30t23 23t30 -8l65 -66l64 66q23 20 44 -1q22 -22 1 -44l-66 -64l66 -67q23 -20 0 -43t-43 0 l-66 65l-67 -65q-13 -21 -37 -5q-22 14 -17 33zM982 1644q2 6 9 11l68 67l-66 64q-13 12 -11 23q0 11 10 21q11 11 23 11q11 0 21 -10l66 -66l65 66q13 20 37 4q23 -15 17 -35q-2 -8 -11 -14l-65 -64l65 -67q12 -11 12 -22q-2 -20 -20.5 -29t-34.5 8l-65 65l-66 -65 q-16 -22 -40 -4q-21 17 -14 36z" />
<glyph unicode="&#xd7;" horiz-adv-x="755" d="M124 398q0 11 10 21q21 21 44 1l176 -176l172 174q14 16 33.5 6t21.5 -30q0 -11 -10 -21l-174 -172l174 -174q16 -14 6 -33.5t-28 -21.5q-11 0 -23 12l-172 174l-176 -176q-12 -12 -23 -12q-19 2 -28 20.5t8 34.5l176 176l-176 174q-13 13 -11 23z" />
<glyph unicode="&#xd8;" horiz-adv-x="1531" d="M113 761q0 209 83 389q82 177 229 285q146 107 320 107q121 0 227 -51l21 61q5 12 16 18q6 3 12 3q3 0 11 -2q12 -5 18 -16q3 -7 2 -12q0 -7 -1 -11l-24 -71q4 -2 38 -26q145 -106 229 -285q84 -178 84 -389t-84 -389q-85 -181 -229 -286q-145 -106 -320 -106 q-109 0 -208 42l-27 -81q-4 -12 -15 -18q-6 -3 -13 -3q-3 0 -11 2q-13 5 -17 16q-6 12 -1 23l30 88q-31 17 -58 37q-146 107 -229 286q-83 180 -83 389zM174 760q0 -195 77 -363q76 -166 209 -261q20 -16 43 -28l449 1324q-97 49 -207 49q-153 0 -285 -96 q-133 -95 -209 -261q-77 -168 -77 -364zM557 80q90 -39 188 -39q154 0 285 95t209 261q78 167 78 363q0 198 -78 364t-209 261q-8 6 -24 16z" />
<glyph unicode="&#xd9;" horiz-adv-x="1353" d="M133 479v1030q0 18 15.5 26t31 0.5t15.5 -26.5v-1030q0 -181 141 -315q140 -133 340 -133q204 0 343 127q140 128 140 321v1030q0 12 9 21.5t21 9.5q13 0 22.5 -9t9.5 -22v-1030q0 -219 -159 -365q-158 -145 -386 -145q-222 0 -383 150q-160 151 -160 360zM335 1932 q0 7 3 13q7 19 29 19h309q14 0 22.5 -9t8.5 -22v-299q0 -21 -19 -28q-8 -3 -13 -3q-11 0 -20 9l-309 299q-11 11 -11 21zM442 1903l203 -197v197h-203z" />
<glyph unicode="&#xda;" horiz-adv-x="1353" d="M133 479v1030q0 18 15.5 26t31 0.5t15.5 -26.5v-1030q0 -181 141 -315q140 -133 340 -133q204 0 343 127q140 128 140 321v1030q0 12 9 21.5t21 9.5q13 0 22.5 -9t9.5 -22v-1030q0 -219 -159 -365q-158 -145 -386 -145q-222 0 -383 150q-160 151 -160 360zM645 1634v310 q0 12 9.5 21t21.5 9h299q20 0 29 -18q3 -8 2 -13q0 -11 -9 -22l-299 -309q-9 -9 -20 -9q-6 0 -13 3q-20 8 -20 28zM707 1710l196 203h-196v-203z" />
<glyph unicode="&#xdb;" horiz-adv-x="1353" d="M133 479v1030q0 18 15.5 26t31 0.5t15.5 -26.5v-1030q0 -181 141 -315q140 -133 340 -133q204 0 343 127q140 128 140 321v1030q0 12 9 21.5t21 9.5q13 0 22.5 -9t9.5 -22v-1030q0 -219 -159 -365q-158 -145 -386 -145q-222 0 -383 150q-160 151 -160 360zM427 1633 q0 11 11 22l217 217q20 23 43 0l217 -217q21 -13 6 -36q-15 -22 -34 -18q-9 2 -15 11l-196 196l-195 -196q-14 -18 -33.5 -7.5t-20.5 28.5z" />
<glyph unicode="&#xdc;" horiz-adv-x="1353" d="M133 479v1030q0 18 15.5 26t31 0.5t15.5 -26.5v-1030q0 -181 141 -315q140 -133 340 -133q204 0 343 127q140 128 140 321v1030q0 12 9 21.5t21 9.5q13 0 22.5 -9t9.5 -22v-1030q0 -219 -159 -365q-158 -145 -386 -145q-222 0 -383 150q-160 151 -160 360zM353 1633 q0 11 12 22l65 67l-65 64q-18 14 -8 33.5t30 21.5q11 0 21 -10l65 -66l66 66q10 10 21 10q10 0 23 -11q21 -22 -1 -44l-66 -64l68 -67q20 -20 -1 -43q-22 -22 -44 0l-66 65l-65 -65q-14 -18 -34 -7.5t-21 28.5zM759 1640q2 9 11 15l66 67l-66 64q-17 14 -6.5 33.5t29.5 21.5 q10 0 20 -10l66 -66l65 66q12 15 30 8t23 -23t-8 -30l-65 -64l65 -67q21 -14 3 -38q-16 -22 -35 -15q-6 3 -11 10l-67 65l-66 -65q-13 -21 -36 -5q-22 14 -18 33z" />
<glyph unicode="&#xdd;" horiz-adv-x="1533" d="M70 1507q2 8 4 14q8 17 28 17h1356q18 0 27 -18q3 -8 3 -14q0 -11 -7 -19l-682 -768v-719q0 -31 -31 -31t-31 31v719l-659 768q-6 9 -8 20zM168 1477l600 -699l621 699h-1221zM750 1634v310q0 13 8 21.5t22 8.5h299q21 0 28 -18q2 -8 2 -12q0 -12 -9 -23l-297 -309 q-11 -9 -22 -9q-5 0 -13 3q-18 8 -18 28zM811 1710l195 203h-195v-203z" />
<glyph unicode="&#xde;" horiz-adv-x="1323" d="M223 -184v1837q0 31 31 30q31 0 31 -30v-115h231q208 0 357 -149t149 -357q0 -209 -149 -358q-148 -148 -357 -148h-231v-710q0 -31 -31 -31t-31 31zM285 588h231q184 0 314 130q131 131 131 314q0 184 -131 315q-130 130 -314 130h-231v-889z" />
<glyph unicode="&#xdf;" horiz-adv-x="1439" d="M135 14q0 8 6 19q16 26 43 10q28 -18 66 -18q18 0 33 4q49 17 65 57q8 18 8 35q0 4 -2 14v1168q6 52 33 98q40 70 119 106q65 31 141 31h15q129 -4 225 -90q102 -89 114 -217v-25q0 -105 -61 -182q-77 -93 -192 -100h-41q-33 0 -45 -4q-41 -9 -48 -35q-2 -8 -2 -15 q0 -8 2 -18q7 -16 27 -25q16 -10 43 -10q8 -2 14 -2q4 0 21.5 1t21.5 1h11q194 0 325 -121h2q62 -56 103 -141t41 -176v-10q-2 -83 -39.5 -163t-102.5 -136q-118 -101 -278 -103q-13 0 -35 2q-91 7 -175 55q-83 48 -138 121q-16 22 4 41l551 488q-110 82 -258 82h-11 q-2 0 -19 -1t-24 -1q-8 0 -16 2q-39 1 -70 16q-37 18 -53 55q-8 21 -8 43q0 20 6 39q12 29 39 47q20 15 53 23q19 6 58 6h36q89 6 148 78q49 61 49 143v21q-8 102 -92 176q-81 69 -191 74h-10q-62 0 -115 -25q-60 -28 -92 -84q-20 -33 -24 -72v-1155q2 -14 2 -20 q0 -31 -12 -60q-13 -32 -44 -57q-28 -22 -63 -33q-27 -8 -49 -8q-53 0 -98 27q-15 10 -17 24zM522 160q101 -117 250 -129q22 -2 31 -2q137 0 237 88q55 47 87 113.5t34 138.5v10q0 144 -104 254z" />
<glyph unicode="&#xe0;" d="M26 -3q0 7 5 17l344 656q2 8 8 16l438 836q10 16 28.5 16t27.5 -16l794 -1508q5 -10 5 -17q0 -15 -17 -24q-10 -5 -17 -5q-15 0 -24 18l-326 618l-413 -620q-10 -14 -26.5 -14.5t-25.5 14.5l-417 618l-326 -616q-9 -16 -24 -18q-7 0 -17 5q-17 9 -17 24zM440 664 l412 -609l408 611l-410 776zM509 1932q0 5 2 13q7 19 28 19h311q12 0 21.5 -9t9.5 -22v-299q0 -20 -20 -28q-7 -3 -13 -3q-10 0 -21 9l-309 299q-10 11 -9 21zM616 1903l203 -197v197h-203z" />
<glyph unicode="&#xe1;" d="M26 -3q0 7 5 17l344 656q2 8 8 16l438 836q10 16 28.5 16t27.5 -16l794 -1508q5 -10 5 -17q0 -15 -17 -24q-10 -5 -17 -5q-15 0 -24 18l-326 618l-413 -620q-10 -14 -26.5 -14.5t-25.5 14.5l-417 618l-326 -616q-9 -16 -24 -18q-7 0 -17 5q-17 9 -17 24zM440 664 l412 -609l408 611l-410 776zM819 1634v310q0 12 8.5 21t22.5 9h299q18 0 27 -18q3 -8 3 -13q0 -12 -10 -22l-299 -309q-9 -9 -20 -9q-6 0 -12 3q-19 7 -19 28zM881 1710l194 203h-194v-203z" />
<glyph unicode="&#xe2;" d="M26 -3q0 7 5 17l344 656q2 8 8 16l438 836q10 16 28.5 16t27.5 -16l794 -1508q5 -10 5 -17q0 -15 -17 -24q-10 -5 -17 -5q-15 0 -24 18l-326 618l-413 -620q-10 -14 -26.5 -14.5t-25.5 14.5l-417 618l-326 -616q-9 -16 -24 -18q-7 0 -17 5q-17 9 -17 24zM440 664 l412 -609l408 611l-410 776zM599 1640q2 9 11 15l217 217q23 23 43 0l217 -217q12 -11 12 -22q-2 -20 -20.5 -29t-34.5 8l-194 196l-197 -196q-13 -21 -36 -5q-22 14 -18 33z" />
<glyph unicode="&#xe3;" d="M26 -3q0 7 5 17l344 656q2 8 8 16l438 836q10 16 28.5 16t27.5 -16l794 -1508q5 -10 5 -17q0 -15 -17 -24q-10 -5 -17 -5q-15 0 -24 18l-326 618l-413 -620q-10 -14 -26.5 -14.5t-25.5 14.5l-417 618l-326 -616q-9 -16 -24 -18q-7 0 -17 5q-17 9 -17 24zM440 664 l412 -609l408 611l-410 776zM563 1688q0 59 37 102q28 34 64 47q24 8 47 8q18 0 30 -4q38 -7 72 -37q25 -20 49 -55q26 -36 39 -49q20 -20 43 -29q14 -6 31 -6q10 0 24 2q30 11 50 35q25 31 24 74v10q-3 20 11.5 28.5t31 2t19.5 -24.5v-16q0 -64 -39 -113q-32 -40 -78 -53 q-20 -6 -43 -6q-29 0 -53 10q-35 12 -66 43q-26 32 -43 55q-25 33 -39 45q-24 21 -45 25q-10 2 -18 2q-14 0 -27 -4q-21 -8 -37 -27q-23 -30 -22 -65q0 -5 2 -19q4 -18 -10 -28t-31 -5t-19 23q-4 13 -4 29z" />
<glyph unicode="&#xe4;" d="M26 -3q0 7 5 17l344 656q2 8 8 16l438 836q10 16 28.5 16t27.5 -16l794 -1508q5 -10 5 -17q0 -15 -17 -24q-10 -5 -17 -5q-15 0 -24 18l-326 618l-413 -620q-10 -14 -26.5 -14.5t-25.5 14.5l-417 618l-326 -616q-9 -16 -24 -18q-7 0 -17 5q-17 9 -17 24zM440 664 l412 -609l408 611l-410 776zM526 1640q2 9 11 15l65 67l-65 64q-15 12 -8 30t23 23t30 -8l65 -66l64 66q10 10 21 10q10 0 23 -11q22 -22 1 -44l-66 -64l66 -67q23 -20 0 -43t-43 0l-66 65l-67 -65q-13 -21 -37 -5q-22 14 -17 33zM933 1644q2 6 9 11l68 67l-66 64 q-12 12 -11 23q0 11 10 21q21 21 44 1l66 -66l65 66q13 20 37 4q22 -15 16 -35q-2 -8 -10 -14l-65 -64l65 -67q12 -11 12 -22q-2 -19 -21.5 -28.5t-33.5 7.5l-65 65l-66 -65q-16 -22 -40 -4q-21 17 -14 36z" />
<glyph unicode="&#xe5;" d="M26 -3q0 7 5 17l344 656q2 8 8 16l438 836q10 16 28.5 16t27.5 -16l794 -1508q5 -10 5 -17q0 -15 -17 -24q-10 -5 -17 -5q-15 0 -24 18l-326 618l-413 -620q-10 -14 -26.5 -14.5t-25.5 14.5l-417 618l-326 -616q-9 -16 -24 -18q-7 0 -17 5q-17 9 -17 24zM440 664 l412 -609l408 611l-410 776zM702 1765q0 64 45 109q47 45 109 45q64 0 109 -45t45 -109q0 -63 -45 -108t-109 -45q-62 0 -109 45q-45 45 -45 108zM764 1764q0 -38 26 -65q27 -26 65 -26t65 26q28 27 28 65t-28 66q-27 28 -65 28t-65 -28q-26 -28 -26 -66z" />
<glyph unicode="&#xe6;" horiz-adv-x="2502" d="M26 -3q0 7 5 17l344 656q2 8 8 16l438 836q10 16 28.5 16t27.5 -16l389 -738v723q0 31 30 31h605q18 0 27 -16.5t-3 -32.5l-569 -797h592q31 0 30 -31q0 -30 -30 -30h-621v-600h891q31 0 31 -31t-31 -31h-922q-31 0 -30 31v565l-387 -581q-10 -14 -26.5 -14.5t-25.5 14.5 l-417 618l-326 -616q-9 -16 -24 -18q-7 0 -17 5q-17 9 -17 24zM440 664l412 -609l408 611l-410 776zM1327 758l514 719h-514v-719z" />
<glyph unicode="&#xe7;" horiz-adv-x="1513" d="M78 754q0 212 108 397q103 177 283 283q184 109 397 108q144 0 283 -53q129 -51 237 -143q12 -10 12 -23q0 -11 -9 -21q-20 -24 -43 -4q-98 86 -220 134q-123 49 -260 49q-196 0 -366 -101q-164 -96 -260 -260q-99 -168 -101 -367q0 -195 101 -364q95 -165 260 -262 q170 -98 366 -98q137 0 260 49q121 46 222 133q24 20 43 -2q11 -11 9 -21q0 -11 -11 -22q-104 -93 -240 -146q-138 -53 -283 -53q-62 0 -121 9v-193l21 12q36 15 82 17h16q92 -8 148 -86q39 -56 39 -125q0 -22 -4 -41q-14 -72 -68 -125q-51 -51 -125 -66q-20 -4 -47 -4 q-46 0 -92 17q-67 27 -111 86q-8 11 -8 19q0 13 14 24q25 18 43 -7q34 -46 84 -65q33 -12 70 -12q20 0 37 4q54 11 92 49t49 92q4 12 4 29q0 52 -28 90q-38 53 -101 59h-12q-30 0 -55 -12q-32 -13 -54 -43q-12 -18 -34 -11q-21 8 -21 29v275q-109 25 -215 86 q-177 103 -283 284q-108 183 -108 396z" />
<glyph unicode="&#xe8;" horiz-adv-x="1372" d="M172 0v1507q0 31 31 31h921q20 0 29 -19q3 -7 3 -14q0 -11 -9 -20l-871 -869h848q31 0 31 -31q0 -30 -31 -30h-891v-524h891q31 0 31 -31t-31 -31h-921q-31 0 -31 31zM233 659l818 818h-818v-818zM323 1931q0 7 3 14q7 19 28 19h310q14 0 22 -9t8 -22v-299q0 -20 -18 -28 q-8 -3 -13 -3q-11 0 -20 9l-311 299q-9 9 -9 20zM430 1903l203 -197v197h-203z" />
<glyph unicode="&#xe9;" horiz-adv-x="1372" d="M172 0v1507q0 31 31 31h921q20 0 29 -19q3 -7 3 -14q0 -11 -9 -20l-871 -869h848q31 0 31 -31q0 -30 -31 -30h-891v-524h891q31 0 31 -31t-31 -31h-921q-31 0 -31 31zM233 659l818 818h-818v-818zM633 1634v310q0 13 8.5 21.5t22.5 8.5h299q21 0 28 -18q3 -8 3 -13 q0 -11 -9 -22l-299 -309q-9 -9 -20 -9q-6 0 -14 3q-19 7 -19 28zM694 1710l197 203h-197v-203z" />
<glyph unicode="&#xea;" horiz-adv-x="1372" d="M172 0v1507q0 31 31 31h921q20 0 29 -19q3 -7 3 -14q0 -11 -9 -20l-871 -869h848q31 0 31 -31q0 -30 -31 -30h-891v-524h891q31 0 31 -31t-31 -31h-921q-31 0 -31 31zM233 659l818 818h-818v-818zM415 1644q2 6 9 11l217 217q11 11 23 11l22 -11l217 -217q20 -13 4 -37 q-15 -22 -35 -16q-8 2 -14 10l-194 196l-195 -196q-16 -22 -40 -4q-21 17 -14 36z" />
<glyph unicode="&#xeb;" horiz-adv-x="1372" d="M172 0v1507q0 31 31 31h921q20 0 29 -19q3 -7 3 -14q0 -11 -9 -20l-871 -869h848q31 0 31 -31q0 -30 -31 -30h-891v-524h891q31 0 31 -31t-31 -31h-921q-31 0 -31 31zM233 659l818 818h-818v-818zM341 1644q2 6 9 11l68 67l-66 64q-12 12 -11 23q0 11 10 21q11 11 23 11 q11 0 21 -10l66 -66l65 66q21 21 43 -1t0 -44l-65 -64l65 -67q24 -20 1 -43q-21 -21 -44 0l-65 65l-66 -65q-16 -22 -40 -4q-21 17 -14 36zM746 1633q0 11 12 22l65 67l-65 64q-18 14 -8 33.5t30 21.5q11 0 21 -10l65 -66l66 66q14 17 34 6.5t20 -28.5q0 -10 -11 -23 l-66 -64l68 -67q20 -13 4 -37q-15 -22 -35 -16q-8 2 -14 10l-66 65l-65 -65q-14 -18 -34 -7.5t-21 28.5z" />
<glyph unicode="&#xec;" horiz-adv-x="811" d="M65 1931q0 7 3 14q7 19 28 19h310q14 0 22 -9t8 -22v-299q0 -20 -18.5 -28.5t-32.5 6.5l-311 299q-9 9 -9 20zM135 0q0 31 31 31h209v1446h-209q-31 0 -31 30q0 31 31 31h479q31 0 31 -31q0 -30 -31 -30h-209v-1446h209q31 0 31 -31t-31 -31h-479q-31 0 -31 31zM172 1903 l203 -197v197h-203z" />
<glyph unicode="&#xed;" horiz-adv-x="811" d="M135 0q0 31 31 31h209v1446h-209q-31 0 -31 30q0 31 31 31h479q31 0 31 -31q0 -30 -31 -30h-209v-1446h209q31 0 31 -31t-31 -31h-479q-31 0 -31 31zM375 1634v310q0 13 8.5 21.5t22.5 8.5h299q21 0 28 -18q3 -8 3 -13q0 -11 -9 -22l-299 -309q-9 -9 -20 -9q-6 0 -14 3 q-19 7 -19 28zM436 1710l197 203h-197v-203z" />
<glyph unicode="&#xee;" horiz-adv-x="811" d="M135 0q0 31 31 31h209v1446h-209q-31 0 -31 30q0 31 31 31h479q31 0 31 -31q0 -30 -31 -30h-209v-1446h209q31 0 31 -31t-31 -31h-479q-31 0 -31 31zM157 1644q2 6 9 11l217 217q11 11 23 11l22 -11l217 -217q20 -13 4 -37q-15 -22 -35 -16q-8 2 -14 10l-194 196 l-195 -196q-16 -22 -40 -4q-21 17 -14 36z" />
<glyph unicode="&#xef;" horiz-adv-x="811" d="M82 1634q0 11 10 21l68 67l-66 64q-12 12 -11 23q0 11 10 21q21 21 44 1l66 -66l65 66q21 21 43 -1t0 -44l-65 -64l65 -67q24 -20 1 -43q-21 -23 -44 0l-65 65l-66 -65q-23 -23 -44 0q-11 13 -11 22zM135 0q0 31 31 31h209v1446h-209q-31 0 -31 30q0 31 31 31h479 q31 0 31 -31q0 -30 -31 -30h-209v-1446h209q31 0 31 -31t-31 -31h-479q-31 0 -31 31zM488 1633q0 11 12 22l65 67l-65 64q-18 14 -8 33.5t30 21.5q11 0 21 -10l65 -66l66 66q14 17 34 6.5t20 -28.5q0 -10 -11 -23l-66 -64l68 -67q20 -13 4 -37q-15 -22 -35 -16q-8 2 -14 10 l-66 65l-65 -65q-14 -18 -34 -7.5t-21 28.5z" />
<glyph unicode="&#xf0;" horiz-adv-x="1538" d="M80 762q0 31 31 31h129v714q0 31 30 31h305q201 0 355 -60t246 -170q182 -213 182 -554q0 -337 -187 -556q-93 -109 -246.5 -169t-349.5 -60h-305q-30 0 -30 31v731h-129q-31 0 -31 31zM301 31h274q184 0 326 55.5t228 157.5q167 201 167 510q0 311 -162 508 q-84 103 -227 159t-332 56h-274v-684h258q31 0 31 -31t-31 -31h-258v-700z" />
<glyph unicode="&#xf1;" horiz-adv-x="1505" d="M197 0v1507q0 23 21 30q22 7 34 -13l977 -1426v1409q0 31 30 31q31 0 31 -31v-1507q0 -23 -20 -29q-2 0 -2 -2h-1041q-30 0 -30 31zM258 31h944l-944 1378v-1378zM457 1688q0 59 37 102q28 34 63 47q24 8 49 8q16 0 31 -4q38 -7 72 -37q23 -21 46 -55q27 -37 40 -49 q20 -20 43 -29q16 -6 32 -6q7 0 25 2q29 11 47 35q25 31 25 74v10q-3 20 12 28.5t31.5 2t17.5 -24.5v-16q0 -64 -39 -113q-32 -40 -78 -53q-19 -6 -41 -6q-31 0 -55 10q-35 12 -63 43q-18 18 -45 55q-23 33 -39 45q-24 21 -45 25q-10 2 -17 2q-16 0 -28 -4q-21 -8 -37 -27 q-23 -29 -23 -65q0 -5 2 -19q4 -18 -10 -28t-30.5 -5t-18.5 23q-4 13 -4 29z" />
<glyph unicode="&#xf2;" horiz-adv-x="1855" d="M111 755q0 213 105 395q107 182 287 286q181 106 395 106t395 -106q183 -106 287 -286q106 -181 106 -395q0 -215 -106 -396q-104 -180 -287 -287q-181 -105 -395 -105t-395 105q-181 106 -287 287q-105 181 -105 396zM172 754q0 -198 97 -364t264 -264q166 -97 365 -97 t365 97q167 98 264 264t97 364q0 199 -97 365q-97 167 -264 264q-167 98 -365 98t-365 -98q-167 -97 -264 -264q-97 -166 -97 -365zM558 1932q0 5 2 13q7 19 28 19h311q12 0 21.5 -9t9.5 -22v-299q0 -20 -20 -28q-8 -3 -13 -3q-11 0 -20 9l-310 299q-11 11 -9 21zM666 1903 l202 -197v197h-202z" />
<glyph unicode="&#xf3;" horiz-adv-x="1855" d="M111 755q0 213 105 395q107 182 287 286q181 106 395 106t395 -106q183 -106 287 -286q106 -181 106 -395q0 -215 -106 -396q-104 -180 -287 -287q-181 -105 -395 -105t-395 105q-181 106 -287 287q-105 181 -105 396zM172 754q0 -198 97 -364t264 -264q166 -97 365 -97 t365 97q167 98 264 264t97 364q0 199 -97 365q-97 167 -264 264q-167 98 -365 98t-365 -98q-167 -97 -264 -264q-97 -166 -97 -365zM868 1634v310q0 12 8.5 21t22.5 9h299q18 0 27 -18q3 -8 3 -13q0 -11 -9 -22l-299 -309q-9 -9 -20 -9q-6 0 -13 3q-19 7 -19 28zM930 1710 l194 203h-194v-203z" />
<glyph unicode="&#xf4;" horiz-adv-x="1855" d="M111 755q0 213 105 395q107 182 287 286q181 106 395 106t395 -106q183 -106 287 -286q106 -181 106 -395q0 -215 -106 -396q-104 -180 -287 -287q-181 -105 -395 -105t-395 105q-181 106 -287 287q-105 181 -105 396zM172 754q0 -198 97 -364t264 -264q166 -97 365 -97 t365 97q167 98 264 264t97 364q0 199 -97 365q-97 167 -264 264q-167 98 -365 98t-365 -98q-167 -97 -264 -264q-97 -166 -97 -365zM648 1640q2 9 11 15l218 217q21 22 43 0l217 -217q12 -11 11 -22q-2 -19 -21 -28.5t-33 7.5l-195 196l-197 -196q-13 -21 -36 -5 q-22 14 -18 33z" />
<glyph unicode="&#xf5;" horiz-adv-x="1855" d="M111 755q0 213 105 395q107 182 287 286q181 106 395 106t395 -106q183 -106 287 -286q106 -181 106 -395q0 -215 -106 -396q-104 -180 -287 -287q-181 -105 -395 -105t-395 105q-181 106 -287 287q-105 181 -105 396zM172 754q0 -198 97 -364t264 -264q166 -97 365 -97 t365 97q167 98 264 264t97 364q0 199 -97 365q-97 167 -264 264q-167 98 -365 98t-365 -98q-167 -97 -264 -264q-97 -166 -97 -365zM612 1688q0 59 37 102q28 34 64 47q24 8 47 8q18 0 31 -4q38 -7 71 -37q25 -20 49 -55q26 -36 39 -49q20 -20 43 -29q13 -6 31 -6q11 0 25 2 q31 11 49 35q25 31 24 74v10q-3 20 11.5 28.5t31 2t19.5 -24.5v-16q0 -64 -39 -113q-32 -40 -78 -53q-19 -6 -43 -6q-29 0 -53 10q-35 12 -66 43q-26 32 -43 55q-26 33 -39 45q-24 21 -45 25q-10 2 -18 2q-14 0 -27 -4q-21 -8 -37 -27q-23 -30 -22 -65q0 -5 2 -19 q4 -18 -10 -28t-31 -5t-19 23q-4 13 -4 29z" />
<glyph unicode="&#xf6;" horiz-adv-x="1855" d="M111 755q0 213 105 395q107 182 287 286q181 106 395 106t395 -106q183 -106 287 -286q106 -181 106 -395q0 -215 -106 -396q-104 -180 -287 -287q-181 -105 -395 -105t-395 105q-181 106 -287 287q-105 181 -105 396zM172 754q0 -198 97 -364t264 -264q166 -97 365 -97 t365 97q167 98 264 264t97 364q0 199 -97 365q-97 167 -264 264q-167 98 -365 98t-365 -98q-167 -97 -264 -264q-97 -166 -97 -365zM575 1640q2 9 11 15l65 67l-65 64q-15 12 -8 30t23 23t30 -8l65 -66l64 66q23 20 44 -1q22 -22 1 -44l-66 -64l66 -67q23 -20 0 -43t-43 0 l-66 65l-67 -65q-13 -21 -37 -5q-22 14 -17 33zM982 1644q2 6 9 11l68 67l-66 64q-13 12 -11 23q0 11 10 21q11 11 23 11q11 0 21 -10l66 -66l65 66q13 20 37 4q23 -15 17 -35q-2 -8 -11 -14l-65 -64l65 -67q12 -11 12 -22q-2 -20 -20.5 -29t-34.5 8l-65 65l-66 -65 q-16 -22 -40 -4q-21 17 -14 36z" />
<glyph unicode="&#xf7;" horiz-adv-x="620" d="M55 538q0 31 31 31h449q31 0 30 -31q0 -30 -30 -30h-449q-31 0 -31 30zM189 927q0 11 12 23l65 66l-65 65q-21 13 -6 37q15 22 34 17q9 -2 15 -11l65 -65l66 65q14 18 33 8t21 -29q0 -11 -11 -22l-66 -65l68 -66q10 -10 10 -21q-2 -20 -21.5 -30.5t-33.5 6.5l-66 68 l-65 -68q-14 -16 -33.5 -6t-21.5 28zM190 2q3 8 11 14l65 66l-65 65q-24 21 0 43q23 23 43 0l65 -65l66 65q23 23 44 0q11 -11 10 -21q0 -11 -11 -22l-66 -65l68 -66q10 -10 10 -21q-2 -19 -21.5 -30t-33.5 6l-66 68l-65 -68q-15 -20 -38 -4q-22 15 -16 35z" />
<glyph unicode="&#xf8;" horiz-adv-x="1531" d="M113 761q0 209 83 389q82 177 229 285q146 107 320 107q121 0 227 -51l21 61q5 12 16 18q6 3 12 3q3 0 11 -2q12 -5 18 -16q3 -7 2 -12q0 -7 -1 -11l-24 -71q4 -2 38 -26q145 -106 229 -285q84 -178 84 -389t-84 -389q-85 -181 -229 -286q-145 -106 -320 -106 q-109 0 -208 42l-27 -81q-4 -12 -15 -18q-6 -3 -13 -3q-3 0 -11 2q-13 5 -17 16q-6 12 -1 23l30 88q-31 17 -58 37q-146 107 -229 286q-83 180 -83 389zM174 760q0 -195 77 -363q76 -166 209 -261q20 -16 43 -28l449 1324q-97 49 -207 49q-153 0 -285 -96 q-133 -95 -209 -261q-77 -168 -77 -364zM557 80q90 -39 188 -39q154 0 285 95t209 261q78 167 78 363q0 198 -78 364t-209 261q-8 6 -24 16z" />
<glyph unicode="&#xf9;" horiz-adv-x="1353" d="M133 479v1030q0 18 15.5 26t31 0.5t15.5 -26.5v-1030q0 -181 141 -315q140 -133 340 -133q204 0 343 127q140 128 140 321v1030q0 12 9 21.5t21 9.5q13 0 22.5 -9t9.5 -22v-1030q0 -219 -159 -365q-158 -145 -386 -145q-222 0 -383 150q-160 151 -160 360zM335 1932 q0 7 3 13q7 19 29 19h309q14 0 22.5 -9t8.5 -22v-299q0 -21 -19 -28q-8 -3 -13 -3q-11 0 -20 9l-309 299q-11 11 -11 21zM442 1903l203 -197v197h-203z" />
<glyph unicode="&#xfa;" horiz-adv-x="1353" d="M133 479v1030q0 18 15.5 26t31 0.5t15.5 -26.5v-1030q0 -181 141 -315q140 -133 340 -133q204 0 343 127q140 128 140 321v1030q0 12 9 21.5t21 9.5q13 0 22.5 -9t9.5 -22v-1030q0 -219 -159 -365q-158 -145 -386 -145q-222 0 -383 150q-160 151 -160 360zM645 1634v310 q0 12 9.5 21t21.5 9h299q20 0 29 -18q3 -8 2 -13q0 -11 -9 -22l-299 -309q-9 -9 -20 -9q-6 0 -13 3q-20 8 -20 28zM707 1710l196 203h-196v-203z" />
<glyph unicode="&#xfb;" horiz-adv-x="1353" d="M133 479v1030q0 18 15.5 26t31 0.5t15.5 -26.5v-1030q0 -181 141 -315q140 -133 340 -133q204 0 343 127q140 128 140 321v1030q0 12 9 21.5t21 9.5q13 0 22.5 -9t9.5 -22v-1030q0 -219 -159 -365q-158 -145 -386 -145q-222 0 -383 150q-160 151 -160 360zM427 1633 q0 11 11 22l217 217q20 23 43 0l217 -217q21 -13 6 -36q-15 -22 -34 -18q-9 2 -15 11l-196 196l-195 -196q-14 -18 -33.5 -7.5t-20.5 28.5z" />
<glyph unicode="&#xfc;" horiz-adv-x="1353" d="M133 479v1030q0 18 15.5 26t31 0.5t15.5 -26.5v-1030q0 -181 141 -315q140 -133 340 -133q204 0 343 127q140 128 140 321v1030q0 12 9 21.5t21 9.5q13 0 22.5 -9t9.5 -22v-1030q0 -219 -159 -365q-158 -145 -386 -145q-222 0 -383 150q-160 151 -160 360zM353 1633 q0 11 12 22l65 67l-65 64q-18 14 -8 33.5t30 21.5q11 0 21 -10l65 -66l66 66q10 10 21 10q10 0 23 -11q21 -22 -1 -44l-66 -64l68 -67q20 -20 -1 -43q-22 -22 -44 0l-66 65l-65 -65q-14 -18 -34 -7.5t-21 28.5zM759 1640q2 9 11 15l66 67l-66 64q-17 14 -6.5 33.5t29.5 21.5 q10 0 20 -10l66 -66l65 66q12 15 30 8t23 -23t-8 -30l-65 -64l65 -67q21 -14 3 -38q-16 -22 -35 -15q-6 3 -11 10l-67 65l-66 -65q-13 -21 -36 -5q-22 14 -18 33z" />
<glyph unicode="&#xfd;" horiz-adv-x="1533" d="M70 1507q2 8 4 14q8 17 28 17h1356q18 0 27 -18q3 -8 3 -14q0 -11 -7 -19l-682 -768v-719q0 -31 -31 -31t-31 31v719l-659 768q-6 9 -8 20zM168 1477l600 -699l621 699h-1221zM750 1634v310q0 13 8 21.5t22 8.5h299q21 0 28 -18q2 -8 2 -12q0 -12 -9 -23l-297 -309 q-11 -9 -22 -9q-5 0 -13 3q-18 8 -18 28zM811 1710l195 203h-195v-203z" />
<glyph unicode="&#xfe;" horiz-adv-x="1323" d="M223 -184v1837q0 31 31 30q31 0 31 -30v-115h231q208 0 357 -149t149 -357q0 -209 -149 -358q-148 -148 -357 -148h-231v-710q0 -31 -31 -31t-31 31zM285 588h231q184 0 314 130q131 131 131 314q0 184 -131 315q-130 130 -314 130h-231v-889z" />
<glyph unicode="&#xff;" horiz-adv-x="1533" d="M70 1507q2 8 4 14q8 17 28 17h1356q18 0 27 -18q3 -8 3 -14q0 -11 -7 -19l-682 -768v-719q0 -31 -31 -31t-31 31v719l-659 768q-6 9 -8 20zM168 1477l600 -699l621 699h-1221zM458 1644q2 6 9 11l65 67l-65 64q-15 12 -8 30t23 23t30 -8l66 -66l65 66q10 10 20 10 q11 0 22 -11q22 -22 1 -44l-65 -64l65 -67q23 -20 0 -43t-43 0l-65 65l-68 -65q-14 -22 -37 -4q-21 17 -15 36zM863 1643q2 7 9 12l68 67l-66 64q-12 12 -11 23q0 11 10 21q11 11 23 11t22 -10l65 -66l66 66q10 10 20 10q20 -2 30.5 -21.5t-7.5 -33.5l-66 -64l66 -67 q12 -11 11 -22q-2 -19 -21 -28.5t-33 7.5l-66 65l-65 -65q-16 -22 -40 -4q-21 15 -15 35z" />
<glyph unicode="&#x152;" horiz-adv-x="3227" d="M111 755q0 213 105 395q107 182 287 286q181 106 395 106t395 -106q183 -106 287 -286q106 -181 106 -395q0 -215 -106 -396q-104 -180 -287 -287q-181 -105 -395 -105t-395 105q-181 106 -287 287q-105 181 -105 396zM172 754q0 -198 97 -364t264 -264q166 -97 365 -97 t365 97q167 98 264 264t97 364q0 199 -97 365q-97 167 -264 264q-167 98 -365 98t-365 -98q-167 -97 -264 -264q-97 -166 -97 -365zM2027 0v1507q0 31 31 31h921q20 0 29 -19q3 -7 3 -14q0 -11 -9 -20l-871 -869h848q31 0 31 -31q0 -30 -31 -30h-891v-524h891q31 0 31 -31 t-31 -31h-921q-31 0 -31 31zM2088 659l818 818h-818v-818z" />
<glyph unicode="&#x153;" horiz-adv-x="3227" d="M111 755q0 213 105 395q107 182 287 286q181 106 395 106t395 -106q183 -106 287 -286q106 -181 106 -395q0 -215 -106 -396q-104 -180 -287 -287q-181 -105 -395 -105t-395 105q-181 106 -287 287q-105 181 -105 396zM172 754q0 -198 97 -364t264 -264q166 -97 365 -97 t365 97q167 98 264 264t97 364q0 199 -97 365q-97 167 -264 264q-167 98 -365 98t-365 -98q-167 -97 -264 -264q-97 -166 -97 -365zM2027 0v1507q0 31 31 31h921q20 0 29 -19q3 -7 3 -14q0 -11 -9 -20l-871 -869h848q31 0 31 -31q0 -30 -31 -30h-891v-524h891q31 0 31 -31 t-31 -31h-921q-31 0 -31 31zM2088 659l818 818h-818v-818z" />
<glyph unicode="&#x178;" horiz-adv-x="1533" d="M70 1507q2 8 4 14q8 17 28 17h1356q18 0 27 -18q3 -8 3 -14q0 -11 -7 -19l-682 -768v-719q0 -31 -31 -31t-31 31v719l-659 768q-6 9 -8 20zM168 1477l600 -699l621 699h-1221zM457 1698q0 12 12 22l65 65l-65 66q-18 14 -8 33.5t30 21.5q11 0 21 -10l65 -66l66 66 q10 10 21 10q10 0 23 -11q21 -21 -1 -44l-66 -66l68 -65q20 -20 -1 -43q-22 -22 -44 0l-66 65l-65 -65q-14 -18 -34 -7.5t-21 28.5zM863 1705q2 9 11 15l66 65l-66 66q-15 12 -8 30t23 23t30 -8l64 -66l65 66q12 15 30 8t23 -23t-8 -30l-65 -66l65 -65q21 -13 5 -36 q-14 -22 -33 -18q-9 2 -15 11l-67 65l-66 -65q-13 -21 -36 -5q-22 14 -18 33z" />
<glyph unicode="&#x2c6;" horiz-adv-x="731" d="M121 1660q0 11 10 21l217 217q9 9 23 11l22 -11l217 -217q10 -10 10 -21q-2 -20 -21.5 -30.5t-33.5 6.5l-194 197l-197 -197q-10 -10 -20 -10q-11 0 -22 11t-11 23z" />
<glyph unicode="&#x2dc;" horiz-adv-x="659" d="M-287 209q0 58 35 102q27 33 63 45q24 10 50 10q18 0 30 -4q39 -8 72 -36q20 -18 47 -56q26 -36 39 -49q20 -23 43 -31q16 -6 33 -6q13 0 24 4q29 8 47 33q27 33 27 74q0 4 -2 12q0 12 8 22.5t20 11.5q13 1 23.5 -7.5t10.5 -20.5q2 -10 2 -18q0 -63 -39 -113 q-33 -39 -80 -53q-20 -6 -41 -6q-30 0 -53 10q-38 13 -66 45q-15 12 -45 55q-23 31 -39 45q-19 17 -45 25q-10 2 -16 2q-13 0 -27 -6q-24 -8 -37 -27q-23 -28 -22 -63v-19q4 -12 -3.5 -23t-20.5 -14q-13 -2 -23.5 5.5t-12.5 19.5q-2 20 -2 31z" />
<glyph unicode="&#x2000;" horiz-adv-x="987" />
<glyph unicode="&#x2001;" horiz-adv-x="1974" />
<glyph unicode="&#x2002;" horiz-adv-x="987" />
<glyph unicode="&#x2003;" horiz-adv-x="1974" />
<glyph unicode="&#x2004;" horiz-adv-x="658" />
<glyph unicode="&#x2005;" horiz-adv-x="493" />
<glyph unicode="&#x2006;" horiz-adv-x="329" />
<glyph unicode="&#x2007;" horiz-adv-x="329" />
<glyph unicode="&#x2008;" horiz-adv-x="246" />
<glyph unicode="&#x2009;" horiz-adv-x="394" />
<glyph unicode="&#x200a;" horiz-adv-x="109" />
<glyph unicode="&#x2010;" horiz-adv-x="671" d="M80 596q0 31 31 31h448q31 0 31 -31t-31 -31h-448q-31 0 -31 31z" />
<glyph unicode="&#x2011;" horiz-adv-x="671" d="M80 596q0 31 31 31h448q31 0 31 -31t-31 -31h-448q-31 0 -31 31z" />
<glyph unicode="&#x2012;" horiz-adv-x="671" d="M80 596q0 31 31 31h448q31 0 31 -31t-31 -31h-448q-31 0 -31 31z" />
<glyph unicode="&#x2013;" horiz-adv-x="1024" d="M80 565v62h862v-62h-862z" />
<glyph unicode="&#x2014;" horiz-adv-x="2048" d="M80 565v62h1886v-62h-1886z" />
<glyph unicode="&#x2018;" horiz-adv-x="884" d="M55 1813q-1 6 2 13q7 19 29 19h309q31 0 31 -30v-299q0 -20 -18 -28l-12 -3q-11 0 -21 10l-309 297q-11 11 -11 21zM162 1784l203 -195v195h-203z" />
<glyph unicode="&#x2019;" horiz-adv-x="718" d="M-16 1399v309q0 14 9 22.5t21 8.5h299q20 0 29 -19q3 -8 3 -13q0 -11 -9 -19l-299 -312q-9 -9 -20 -9q-7 0 -14 3q-19 9 -19 29zM45 1475l197 202h-197v-202z" />
<glyph unicode="&#x201c;" horiz-adv-x="376" d="M55 1432v227q0 31 31 31t31 -31v-227q0 -31 -31 -31t-31 31zM219 1432v227q0 31 31 31t31 -31v-227q0 -31 -31 -31t-31 31z" />
<glyph unicode="&#x201d;" horiz-adv-x="376" d="M55 1432v227q0 31 31 31t31 -31v-227q0 -31 -31 -31t-31 31zM219 1432v227q0 31 31 31t31 -31v-227q0 -31 -31 -31t-31 31z" />
<glyph unicode="&#x2026;" horiz-adv-x="1413" d="M99 -25q0 11 12 23l65 65l-65 66q-21 13 -6 36q15 22 34 18q9 -2 15 -11l65 -66l66 66q14 18 33 7.5t21 -28.5q0 -11 -11 -22l-66 -66l68 -65q16 -14 6 -33.5t-30 -21.5q-11 0 -21 10l-66 67l-65 -67q-14 -16 -33.5 -6t-21.5 28zM570 -25q0 11 12 23l65 65l-65 66 q-21 13 -6 36q15 22 34 18q9 -2 15 -11l65 -66l66 66q14 18 33 7.5t21 -28.5q0 -11 -11 -22l-66 -66l68 -65q16 -14 6 -33.5t-30 -21.5q-11 0 -21 10l-66 67l-65 -67q-14 -16 -33.5 -6t-21.5 28zM1041 -25q0 11 12 23l65 65l-65 66q-21 13 -6 36q15 22 34 18q9 -2 15 -11 l65 -66l66 66q14 18 33 7.5t21 -28.5q0 -11 -11 -22l-66 -66l68 -65q16 -14 6 -33.5t-30 -21.5q-11 0 -21 10l-66 67l-65 -67q-14 -16 -33.5 -6t-21.5 28z" />
<glyph unicode="&#x202f;" horiz-adv-x="394" />
<glyph unicode="&#x2039;" horiz-adv-x="641" d="M131 616q-20 20 0 43l197 222q11 11 21 11q6 0 12 -3q18 -7 20 -29v-418q0 -20 -20 -28q-7 -3 -13 -3q-11 0 -20 9zM197 641l122 -125v264z" />
<glyph unicode="&#x203a;" horiz-adv-x="641" d="M221 442v418q0 20 20 29q6 3 12 3q12 0 21 -11l197 -222q19 -21 0 -43l-197 -196q-9 -9 -20 -9q-6 0 -13 3q-20 8 -20 28zM283 516l123 125l-123 139v-264z" />
<glyph unicode="&#x205f;" horiz-adv-x="493" />
<glyph unicode="&#x2122;" horiz-adv-x="3244" d="M109 1028q0 12 14 23l620 481q8 7 19 7l18 -7l621 -481q14 -11 14 -23q0 -9 -8 -20q-18 -25 -43 -7l-571 443v-1444q0 -31 -31 -31t-31 31v1444l-571 -443q-25 -18 -43 7q-8 11 -8 20zM1733 0v1507q0 20 17 29q6 3 13 3q11 0 21 -9l604 -512l604 512q9 9 20 9q6 0 13 -3 q18 -8 18 -29v-1507q0 -12 -9 -21.5t-22 -9.5q-12 0 -21 9.5t-9 21.5v434l-594 504l-594 -504v-434q0 -12 -9 -21.5t-22 -9.5q-12 0 -21 9.5t-9 21.5zM1794 514l547 465l-547 463v-928zM2435 979l547 -465v928z" />
<glyph unicode="&#xe000;" horiz-adv-x="1540" d="M0 1540h1540v-1540h-1540v1540z" />
<glyph unicode="&#xfb01;" horiz-adv-x="2183" d="M172 0v1507q0 31 31 31h921q20 0 29 -19q3 -7 3 -14q0 -11 -9 -20l-871 -869h848q31 0 31 -31q0 -30 -31 -30h-891v-555q0 -31 -31 -31q-30 0 -30 31zM233 659l818 818h-818v-818zM1507 0q0 31 31 31h209v1446h-209q-31 0 -31 30q0 31 31 31h479q31 0 31 -31 q0 -30 -31 -30h-209v-1446h209q31 0 31 -31t-31 -31h-479q-31 0 -31 31z" />
<glyph unicode="&#xfb02;" horiz-adv-x="2621" d="M172 0v1507q0 31 31 31h921q20 0 29 -19q3 -7 3 -14q0 -11 -9 -20l-871 -869h848q31 0 31 -31q0 -30 -31 -30h-891v-555q0 -31 -31 -31q-30 0 -30 31zM233 659l818 818h-818v-818zM1648 0v1507q0 31 31 31t31 -31v-776l711 -708q9 -9 9 -21q0 -6 -3 -13q-7 -18 -29 -20 h-719q-31 0 -31 31zM1710 31h614l-614 614v-614z" />
<glyph unicode="&#xfb03;" horiz-adv-x="3555" d="M172 0v1507q0 31 31 31h921q20 0 29 -19q3 -7 3 -14q0 -11 -9 -20l-871 -869h848q31 0 31 -31q0 -30 -31 -30h-891v-555q0 -31 -31 -31q-30 0 -30 31zM233 659l818 818h-818v-818zM1544 0v1507q0 31 31 31h921q20 0 29 -19q3 -7 3 -14q0 -11 -9 -20l-871 -869h848 q31 0 31 -31q0 -30 -31 -30h-891v-555q0 -31 -31 -31q-30 0 -30 31zM1605 659l818 818h-818v-818zM2879 0q0 31 31 31h209v1446h-209q-31 0 -31 30q0 31 31 31h479q31 0 31 -31q0 -30 -31 -30h-209v-1446h209q31 0 31 -31t-31 -31h-479q-31 0 -31 31z" />
<glyph unicode="&#xfb04;" horiz-adv-x="3993" d="M172 0v1507q0 31 31 31h921q20 0 29 -19q3 -7 3 -14q0 -11 -9 -20l-871 -869h848q31 0 31 -31q0 -30 -31 -30h-891v-555q0 -31 -31 -31q-30 0 -30 31zM233 659l818 818h-818v-818zM1544 0v1507q0 31 31 31h921q20 0 29 -19q3 -7 3 -14q0 -11 -9 -20l-871 -869h848 q31 0 31 -31q0 -30 -31 -30h-891v-555q0 -31 -31 -31q-30 0 -30 31zM1605 659l818 818h-818v-818zM3020 0v1507q0 31 31 31t31 -31v-776l711 -708q9 -9 9 -21q0 -6 -3 -13q-7 -18 -29 -20h-719q-31 0 -31 31zM3082 31h614l-614 614v-614z" />
</font>
</defs>
</svg>
