<?xml version="1.0" standalone="no"?>
<!DOCTYPE svg PUBLIC "-//W3C//DTD SVG 1.1//EN" "http://www.w3.org/Graphics/SVG/1.1/DTD/svg11.dtd" >
<svg xmlns="http://www.w3.org/2000/svg">
<metadata>
This is a custom SVG webfont generated by Font Squirrel.
Copyright   : Copyright c 2011 by BSozoo All rights reserved3
Designer    : BSozoo
Foundry     : BSozoo
</metadata>
<defs>
<font id="LSLight" horiz-adv-x="1024" >
<font-face units-per-em="2048" ascent="1638" descent="-410" />
<missing-glyph horiz-adv-x="614" />
<glyph unicode=" "  horiz-adv-x="614" />
<glyph unicode="&#x09;" horiz-adv-x="614" />
<glyph unicode="&#xa0;" horiz-adv-x="614" />
<glyph unicode="!" horiz-adv-x="303" d="M102 39q0 20 14.5 34.5t35 14.5t35 -14.5t14.5 -34.5q0 -23 -14.5 -37t-35 -14t-35 14t-14.5 37zM127 291v1151q0 25 24.5 24.5t24.5 -24.5v-1151q0 -25 -24.5 -25t-24.5 25z" />
<glyph unicode="&#x22;" horiz-adv-x="786" d="M197 1460q0 31 4 45q4 25 28.5 21t20.5 -29q-2 -12 -2 -37q0 -49 18 -92q27 -68 84 -108q23 -14 6 -35q-14 -23 -34 -6q-70 47 -105 129q-20 53 -20 112zM422 1460q0 31 4 45q4 25 28.5 21t20.5 -29q-2 -12 -2 -37q0 -49 19 -92q27 -68 83 -108q23 -14 7 -35 q-14 -23 -35 -6q-70 47 -105 129q-20 53 -20 112z" />
<glyph unicode="#" horiz-adv-x="1003" d="M90 209q0 25 25 24h141l78 269h-127q-25 0 -25 26q0 25 25 25h141l35 119q6 23 31 18q27 -8 18 -33l-31 -104h269l32 119q6 23 33 18q23 -8 17 -33l-29 -104h119q25 0 24 -25q0 -27 -24 -26h-135l-76 -269h119q25 0 24 -24q0 -27 -24 -27h-136l-45 -157q-8 -27 -30 -19 q-27 8 -19 31l41 145h-266l-45 -157q-8 -27 -31 -19q-27 8 -18 31l41 145h-127q-25 0 -25 27zM309 233h269l75 269h-266z" />
<glyph unicode="$" horiz-adv-x="964" d="M119 1178q0 92 35 161q47 96 131 146q66 39 149 45v147q0 27 24.5 27t24.5 -27v-147q186 -14 308 -180q16 -18 -5 -35q-23 -14 -36 6q-53 74 -131 116t-158 42h-4q-82 0 -146 -39q-72 -41 -110 -121q-33 -70 -33 -141q0 -16 4 -50q14 -98 80 -172q66 -76 235 -155 q176 -82 252 -170q94 -111 95 -256v-4q0 -147 -95 -252q-98 -111 -256 -115v-147q0 -25 -24.5 -25t-24.5 25v149q-188 27 -309 195q-16 18 4 35q23 14 37 -7q115 -158 289 -174h24q133 0 223 97q80 94 80 219v4q0 125 -84 223q-70 84 -233 156q-180 84 -252 170 q-76 88 -90 196q-4 19 -4 58z" />
<glyph unicode="%" horiz-adv-x="921" d="M147 1145q0 55 38 94t93.5 39t93.5 -39t38 -94t-38 -94t-93.5 -39t-93.5 39t-38 94zM197 1145q0 -33 23.5 -56.5t58 -23.5t58 23.5t23.5 56.5t-23.5 56.5t-58 23.5t-58 -23.5t-23.5 -56.5zM229 37l379 1474q8 25 31 19q25 -8 18 -31l-378 -1474q-8 -25 -31 -19 q-25 8 -19 31zM496 399.5q0 55.5 37.5 94t93 38.5t93.5 -38.5t38 -94t-38 -94.5t-93.5 -39t-93 39t-37.5 94.5zM545 399.5q0 -32.5 23.5 -56.5t58.5 -24t58.5 24t23.5 56.5t-23.5 56t-58.5 23.5t-58.5 -23.5t-23.5 -56z" />
<glyph unicode="&#x26;" horiz-adv-x="1376" d="M121 322q0 6 1 20t1 23q14 104 94 202q59 72 201 162l16 10q-57 92 -98 197q-47 125 -49 246q-2 6 -2 14q0 109 43 193q59 113 166 141q35 10 65 10q23 0 59 -8q63 -16 111 -59q92 -80 102 -220q2 -12 3 -34q0 -98 -43 -197q-45 -98 -140 -186q-51 -49 -147 -111l67 -98 q121 -164 236 -301l29 -35q117 158 176 373q8 27 30 18q27 -8 19 -31q-63 -231 -191 -397q47 -51 97 -88q100 -78 227 -111q27 -4 18 -30q-4 -27 -30 -19q-129 29 -248 119q-35 27 -96 88q-25 -29 -41 -45q-70 -70 -146 -111q-94 -49 -178 -51q-8 -2 -24 -2q-74 0 -142 31 q-78 33 -131 108q-55 81 -55 179zM172 322q0 -82 45 -150q47 -63 111 -90q53 -27 121 -27h20q82 6 158 47q74 41 133 103q14 14 43 47l-37 41q-109 131 -236 305q-33 45 -69 98l-15 -10q-135 -88 -188 -151q-72 -82 -84 -179q-2 -9 -2 -34zM336 1182q2 -106 49 -230 q37 -96 92 -184q98 66 141 104q86 82 125 172q39 84 39 175v30q-12 117 -86 187q-41 35 -90 47q-20 6 -47 6q-16 0 -53 -8q-84 -25 -133 -115q-37 -76 -37 -170v-14z" />
<glyph unicode="'" horiz-adv-x="573" d="M180 1225q-16 20 6 35q57 41 84 108q18 43 19 92q0 25 -2 37q-4 25 20.5 29t28.5 -21q4 -14 4 -45q0 -59 -21 -112q-35 -82 -104 -129q-21 -17 -35 6z" />
<glyph unicode="(" horiz-adv-x="471" d="M104 766q0 406 205 756q14 20 35 10q20 -14 10 -35q-199 -340 -198 -731v-51q16 -365 194 -672q10 -20 -10 -35q-20 -10 -35 10q-186 326 -199 697q-2 16 -2 51z" />
<glyph unicode=")" horiz-adv-x="471" d="M113 45q199 340 198 731v49q-16 367 -194 674q-12 20 10 35q20 10 35 -10q186 -326 198 -697q2 -16 2 -51q0 -406 -204 -758q-14 -18 -35 -8q-22 10 -10 35z" />
<glyph unicode="*" d="M84 1325q0 27 27 27h190l-137 135q-18 18 0 36.5t37 0.5l135 -135v190q0 27 26 27q25 0 25 -27v-193l137 138q16 16 35 0q18 -18 0 -37l-135 -135h192q25 0 25 -27q0 -25 -25 -25h-192l133 -135q16 -18 0 -35q-16 -18 -35 0l-135 134v-191q0 -25 -25 -24q-27 0 -26 24 v191l-133 -134q-18 -18 -37 0q-18 16 0 35l133 135h-188q-27 0 -27 25z" />
<glyph unicode="+" d="M74 452.5q0 26.5 24 26.5h394v367q0 27 24.5 26.5t24.5 -26.5v-367h372q25 0 25 -26.5t-25 -26.5h-372v-395q0 -27 -24.5 -27t-24.5 27v395h-394q-24 0 -24 26.5z" />
<glyph unicode="," horiz-adv-x="303" d="M59 -178q-16 18 2 37q31 31 50 69q16 31 18 62v4q-27 14 -27 45q0 20 14.5 34.5t35 14.5t35 -14.5t14.5 -34.5q0 -27 -21 -41v-14q-6 -37 -22 -78q-27 -49 -62 -84q-19 -18 -37 0z" />
<glyph unicode="-" horiz-adv-x="757" d="M74 676q0 27 24 26h549q25 0 25 -26q0 -25 -25 -25h-549q-24 0 -24 25z" />
<glyph unicode="." horiz-adv-x="303" d="M102 39q0 20 14.5 34.5t35 14.5t35 -14.5t14.5 -34.5q0 -23 -14.5 -37t-35 -14t-35 14t-14.5 37z" />
<glyph unicode="/" horiz-adv-x="671" d="M119 37l379 1474q8 25 30 19q25 -8 19 -31l-379 -1474q-8 -25 -31 -19q-24 8 -18 31z" />
<glyph unicode="0" horiz-adv-x="1005" d="M88 690v84v82q0 199 39 336q49 186 172 281q88 68 197 67q115 0 202 -67q121 -90 174 -281q35 -133 39 -336v-76v-86q-4 -207 -39 -340q-53 -190 -174 -280q-88 -70 -202 -70q-106 0 -197 70q-123 94 -172 280q-39 137 -39 336zM139 690q0 -190 37 -321q49 -176 154 -254 q74 -57 166 -58q100 0 172 58q106 78 155 254q33 127 37 325v86v76q-4 193 -37 322q-49 176 -155 254q-72 57 -172 57q-92 0 -166 -57q-104 -78 -154 -254q-37 -131 -37 -322v-82v-84z" />
<glyph unicode="1" horiz-adv-x="475" d="M-10 1386q-8 23 16 33l289 111q14 4 22 -4q10 -6 11 -21v-1474q0 -27 -24.5 -27t-24.5 27v1437l-256 -98q-23 -9 -33 16z" />
<glyph unicode="2" horiz-adv-x="884" d="M88 18q-6 10 0 25q84 156 182 289q47 63 142.5 179t138.5 173q158 217 178 393q0 8 1 24.5t1 24.5q0 121 -59 213q-35 55 -93.5 94.5t-123.5 47.5q-4 0 -15.5 1t-17.5 1q-82 0 -154 -49q-86 -57 -108 -160q-2 -10 -11.5 -15.5t-19.5 -3.5t-15 11.5t-3 19.5 q27 119 127 191q86 57 184 57q12 0 41 -4q76 -8 143.5 -52t108.5 -112q68 -102 67 -240q0 -20 -4 -53q-16 -190 -186 -418q-47 -63 -142.5 -179t-138.5 -173q-90 -127 -157 -246h612q25 0 25 -26.5t-25 -26.5h-655q-13 0 -23 14z" />
<glyph unicode="3" horiz-adv-x="933" d="M90 227q-8 25 14 35q25 8 35 -14q35 -88 117 -139q76 -51 174 -52q131 0 229 86q98 84 129 211q12 51 13 107q0 51 -13 102q-27 106 -104 178q-100 96 -240 97h-6l-123 -2q-25 0 -24 26q0 25 24 25l123 2q117 6 199 88q84 80 90 199v12q0 123 -88 211q-82 82 -201 82h-22 q-90 -10 -158 -66q-68 -61 -90 -145q-8 -25 -31 -19q-25 8 -18 31q27 104 106 172q82 70 187 76q8 2 26 2q139 0 238 -98q102 -98 102 -246q0 -8 -2 -17q-6 -135 -102 -231q-43 -43 -105 -72q88 -29 152 -90q88 -84 117 -203q14 -51 14 -114.5t-14 -118.5 q-35 -143 -146 -238q-113 -96 -262 -100q-109 0 -203 62q-92 61 -137 161z" />
<glyph unicode="4" horiz-adv-x="802" d="M14 522q-6 12 0 25l553 971q10 18 29 12q18 -2 18 -25v-944h91q25 0 24.5 -26.5t-24.5 -26.5h-91v-477q0 -27 -24.5 -27t-24.5 27v477h-528q-13 0 -23 14zM82 561h483v848z" />
<glyph unicode="5" horiz-adv-x="942" d="M102 127q-18 18 0 37q16 16 35 0q80 -78 191 -103q37 -6 78 -6q70 0 137 25q100 39 168 119q70 82 94 184q14 61 14 111q0 119 -59 221q-41 74 -113 126t-153 66q-35 6 -70 6h-8l-234 -2q-25 0 -24 27v567q0 27 24 27h555q10 0 17.5 -8t7.5 -18.5t-7 -18.5t-18 -8h-528 v-516l205 2h10q45 0 78 -9q94 -16 174 -74.5t129 -142.5q66 -113 65 -245q0 -61 -16 -123q-29 -119 -104 -207q-80 -90 -191 -133q-72 -27 -153 -27q-49 0 -89 8q-125 25 -215 115z" />
<glyph unicode="6" horiz-adv-x="935" d="M55 479q0 20 4 53q10 141 80 295q117 270 436 695q14 18 37 4q18 -14 4 -37q-317 -416 -432 -682q-25 -61 -34 -92q49 49 98 73q86 47 194 48q66 0 127 -19q164 -55 248 -207q47 -86 51 -194v-8q0 -100 -45 -189q-49 -96 -133 -149q-90 -57 -190 -64q-8 -2 -25 -2 q-106 0 -203 57q-98 57 -157 168q-60 113 -60 250zM106 479q0 -127 54 -225q51 -96 139 -150q86 -49 176 -49h21q90 6 165.5 57.5t116.5 131.5q39 72 39 164v8q-4 96 -45 170q-72 137 -219 182q-47 16 -111 16q-92 0 -170 -41q-106 -57 -157 -168v-2q-4 -29 -6 -45 q0 -8 -1.5 -24.5t-1.5 -24.5z" />
<glyph unicode="7" horiz-adv-x="958" d="M98 1505.5q0 26.5 25 26.5h663q14 0 21 -12q8 -12 2 -25l-322 -717h218q25 0 24.5 -26.5t-24.5 -26.5h-242l-318 -705q-8 -25 -32 -12q-25 8 -13 33l308 684h-269q-25 0 -24.5 26.5t24.5 26.5h291l318 701h-625q-25 0 -25 26.5z" />
<glyph unicode="8" horiz-adv-x="944" d="M90 412q0 68 21 123q33 109 127 188q61 51 174 104q-59 25 -101 50q-84 47 -133 116q-49 66 -61 142q-4 37 -4 55q0 55 14 100q35 113 129 178q90 68 209 72h4q115 0 207 -70q98 -68 129 -182q12 -43 12 -92q0 -113 -61 -199q-47 -68 -123 -116q-37 -25 -94 -54 q104 -47 168 -102q88 -80 122 -190q18 -59 19 -123q0 -51 -12 -105q-33 -133 -131 -215q-104 -88 -234 -88h-6q-127 2 -234 92q-94 82 -127 211q-14 62 -14 105zM141 412q0 -47 13 -93q31 -115 112 -184q86 -76 199 -80h6q111 0 199 76t116 188q10 39 11 93q0 61 -17 108 q-27 94 -108 166q-68 61 -195 115q-147 -68 -207 -117q-80 -66 -110 -164q-19 -53 -19 -108zM164 1190q0 -31 4 -47q8 -61 51 -121q43 -57 119 -100q33 -20 137 -66q90 41 129 68q70 43 109 102q53 76 53 170q0 47 -10 78q-29 98 -109 155.5t-178 57.5h-4q-100 0 -178 -60 q-82 -57 -111 -153q-12 -41 -12 -84z" />
<glyph unicode="9" horiz-adv-x="923" d="M88 1120q0 57 16 117q37 133 136 213q102 82 225 82q8 0 14 -2q119 -4 213 -84q86 -70 123 -191q25 -72 25 -165q0 -39 -2 -60q-8 -100 -50 -217q-68 -193 -192 -371q-176 -256 -432 -432q-20 -14 -34.5 6.5t5.5 34.5q248 172 420 420q113 166 172 324q-41 -37 -84 -58 q-78 -37 -162 -37q-59 0 -119 19q-156 53 -231 209q-43 88 -43 192zM139 1120q0 -86 39 -170q66 -135 201 -182q43 -16 102 -16q76 0 140 30q117 59 155 185q0 2 2 2q0 10 4 32.5t4 32.5q2 18 2 56q0 82 -20 149q-31 100 -109 168q-80 68 -184 74h-10q-109 0 -193 -72 q-86 -68 -118 -184q-15 -62 -15 -105z" />
<glyph unicode=":" horiz-adv-x="303" d="M102 39q0 20 14.5 34.5t35 14.5t35 -14.5t14.5 -34.5q0 -23 -14.5 -37t-35 -14t-35 14t-14.5 37zM102 815q0 20 14.5 34.5t35 14.5t35 -14t14.5 -35q0 -23 -14.5 -37t-35 -14t-35 14t-14.5 37z" />
<glyph unicode=";" horiz-adv-x="303" d="M59 -178q-16 18 2 37q31 31 50 69q16 31 18 62v4q-27 14 -27 45q0 20 14.5 34.5t35 14.5t35 -14.5t14.5 -34.5q0 -27 -21 -41v-14q-6 -37 -22 -78q-27 -49 -62 -84q-19 -18 -37 0zM102 815q0 20 14.5 34.5t35 14.5t35 -14t14.5 -35q0 -23 -14.5 -37t-35 -14t-35 14 t-14.5 37z" />
<glyph unicode="&#x3c;" horiz-adv-x="608" d="M90 750q4 14 10 20l310 244q18 14 36 -4q14 -23 -6 -37l-282 -223l284 -228q20 -16 4 -35q-18 -23 -36 -4l-310 246q-10 11 -10 21z" />
<glyph unicode="=" horiz-adv-x="876" d="M74 292.5q0 26.5 24 26.5h623q25 0 24.5 -26.5t-24.5 -26.5h-623q-24 0 -24 26.5zM74 571.5q0 26.5 24 26.5h623q25 0 24.5 -26.5t-24.5 -26.5h-623q-24 0 -24 26.5z" />
<glyph unicode="&#x3e;" horiz-adv-x="608" d="M162 487q-16 18 4 35l285 228l-283 223q-20 14 -6 37q18 18 37 4l309 -244q8 -8 8 -20q2 -10 -8 -21l-309 -246q-19 -19 -37 4z" />
<glyph unicode="?" horiz-adv-x="606" d="M80 1239q6 84 63 141q61 57 142 64h16q68 0 123 -37q59 -35 90 -109q20 -47 21 -102q0 -27 -3 -39q-8 -63 -45 -131q-23 -39 -70.5 -102.5t-64.5 -92.5q-43 -66 -61 -135q-10 -47 -10 -88q0 -18 4 -59q4 -25 -20.5 -29t-28.5 21q-6 33 -7 67q0 51 13 101q16 74 65 149 q18 29 66.5 92.5t68.5 100.5q33 59 39 112q2 12 2 33q0 49 -16 82q-23 55 -72 86q-39 29 -94 29h-12q-63 -4 -108.5 -49.5t-51.5 -108.5q0 -10 -8 -17.5t-19 -5.5q-26 4 -22 27zM227 36.5q0 20.5 15.5 35t36 14.5t35 -14.5t14.5 -35t-14.5 -35.5t-35 -15t-36 15t-15.5 35.5z " />
<glyph unicode="@" horiz-adv-x="1515" d="M162 594q0 178 94 317q74 109 190.5 177.5t247.5 78.5q33 4 49 4q219 0 369 -139q119 -106 152 -266q8 -39 8 -86q0 -117 -49 -215q-33 -72 -78 -123q-23 -29 -53 -53q-35 -27 -72 -33q-20 -4 -27 -4q-4 0 -11 1t-11 1q-27 8 -45 20q-27 20 -39 60q-2 2 -2 8t-2 8 q-4 -8 -17 -20q-63 -68 -166 -68q-68 0 -125 33t-94 84q-66 90 -65 213q0 16 2 26q6 139 102 236q55 51 113 68q39 12 80 12q29 0 55 -6q63 -16 113 -62v54q0 27 24.5 26.5t24.5 -26.5v-431v-86v-6q4 -45 6 -49q10 -25 22 -33q6 -6 23 -10q2 0 6 -1t6 -1t7.5 1t7.5 1 q25 6 53 27q23 16 45 43q43 47 72 110q43 98 43 195q0 43 -9 78q-25 135 -133 237q-141 125 -336 125q-6 0 -21 -1t-24 -1q-123 -12 -229.5 -75.5t-169.5 -159.5q-86 -129 -86 -289q0 -92 29 -170q57 -160 200 -258q133 -94 312 -111q10 0 30.5 -1t30.5 -1q274 0 490 183 q18 14 36 -5q14 -18 -4 -36q-231 -193 -522 -193q-20 0 -65 4q-190 16 -336 119q-160 111 -221 283q-31 88 -31 186zM467 592q0 -104 55 -182q31 -43 78 -72q49 -27 100 -27q80 4 129 56q47 45 52 114v8v7v284q-39 78 -125 99q-29 4 -43 4q-37 0 -64 -11q-47 -14 -92 -55 q-80 -80 -90 -203v-22z" />
<glyph unicode="A" horiz-adv-x="946" d="M74 37l379 1474q4 20 24.5 20.5t24.5 -20.5l379 -1474q1 -5 1 -9q0 -16 -20 -22q-5 -1 -8 -1q-16 0 -23 20l-112 434h-483l-113 -434q-7 -20 -22 -20q-4 0 -9 1q-20 7 -20 22q1 4 2 9zM248 510h459l-230 893z" />
<glyph unicode="B" horiz-adv-x="944" d="M127 31v1474q0 25 25 25h249q4 2 15 2q152 0 262 -107q115 -111 115 -270.5t-117 -269.5q-43 -43 -123 -74q141 -45 209 -127q96 -115 96 -266q0 -8 -1 -21.5t-1 -19.5q-16 -150 -123 -254q-102 -102 -256 -119h-325q-25 0 -25 27zM176 55h299q131 12 223 105 q94 90 107 221q2 12 2 37q0 133 -84 233q-43 51 -134 91t-157 40h-256v-727zM176 831h225q59 2 128 26t112 65q100 96 100 233q0 139 -100 234q-96 92 -225 92q-8 0 -13 -2h-227v-648z" />
<glyph unicode="C" horiz-adv-x="970" d="M90 629v139v137q0 176 43 307q55 172 189 258q100 61 213 62q117 0 217 -62q51 -35 84 -69q16 -18 -2 -37q-18 -16 -37 2q-29 33 -72 61q-84 51 -190 52q-98 0 -187 -52q-117 -78 -168 -231q-39 -125 -39 -291q0 -25 -1 -69.5t-1 -67.5t1 -69t1 -70q0 -166 39 -291 q51 -156 168 -229q82 -53 184 -54h3q123 4 190 54q72 51 100 141q8 23 33 16q18 -6 18 -23q0 -5 -2 -10q-33 -102 -118 -165q-84 -59 -221 -64h-3q-113 0 -210 62q-131 84 -189 256q-43 131 -43 307z" />
<glyph unicode="D" horiz-adv-x="1007" d="M127 31v1474q0 27 25 27h254h4q156 0 282 -100q139 -109 191 -312q41 -147 41 -340q0 -12 -2 -18q0 -219 -50 -373q-63 -207 -217 -309q-111 -76 -243 -76h-11h-249q-25 0 -25 27zM176 55h227h9q113 0 215 66q137 94 198 285q43 141 47 356v18q0 182 -38 328 q-51 184 -175 283q-106 88 -249 88h-2h-232v-1424z" />
<glyph unicode="E" horiz-adv-x="901" d="M127 31v1474q0 27 25 27h579q27 0 27 -26.5t-27 -26.5h-555v-672h512q25 0 25 -26.5t-25 -26.5h-512v-697h555q27 0 27 -26.5t-27 -26.5h-579q-25 0 -25 27z" />
<glyph unicode="F" horiz-adv-x="901" d="M127 31v1474q0 27 25 27h579q27 0 27 -26.5t-27 -26.5h-555v-672h512q25 0 25 -26.5t-25 -26.5h-512v-723q0 -27 -24.5 -27t-24.5 27z" />
<glyph unicode="G" horiz-adv-x="983" d="M90 629v139v137q0 176 43 307q55 172 189 258q100 61 213 62q117 0 217 -62q43 -27 84 -71q18 -18 -2 -35q-20 -20 -35 2q-33 35 -74 61q-84 51 -190 52q-98 0 -187 -52q-117 -78 -168 -231q-39 -125 -39 -291q0 -25 -1 -69.5t-1 -67.5t1 -69t1 -70q0 -166 39 -291 q51 -156 168 -229q80 -51 187 -52q121 0 188 49q121 88 121 295q0 82 4 267h-418q-25 0 -24.5 24.5t24.5 24.5h442q27 0 27 -25q-2 -102 -2 -291q0 -233 -143 -335q-84 -59 -219 -60q-119 0 -213 60q-131 84 -189 256q-43 131 -43 307z" />
<glyph unicode="H" horiz-adv-x="958" d="M127 31v1474q0 27 24.5 27t24.5 -27v-698h586v698q0 27 24.5 27t24.5 -27v-1474q0 -27 -24.5 -27t-24.5 27v727h-586v-727q0 -27 -24.5 -27t-24.5 27z" />
<glyph unicode="I" horiz-adv-x="323" d="M127 31v1474q0 27 24.5 27t24.5 -27v-1474q0 -27 -24.5 -27t-24.5 27z" />
<glyph unicode="J" horiz-adv-x="894" d="M51 139q-7 9 -7 18q0 10 11 19q18 16 35 -4l14 -14q10 -10 15 -17q94 -84 235.5 -84t233.5 84q98 92 108 224q0 4 1 12t1 12v4v1086h-358q-27 0 -27 26.5t27 26.5h383q27 0 27 -27v-1112v-4q0 -4 -1 -13t-1 -16q-12 -154 -125 -256q-113 -100 -269 -100q-160 0 -268 100 q-19 17 -35 35z" />
<glyph unicode="K" horiz-adv-x="886" d="M127 31v1474q0 27 24.5 27t24.5 -27v-712l520 727q8 13 19 13q8 0 16 -7q23 -14 6 -35l-346 -487l387 -963q3 -7 3 -13q0 -14 -17 -22q-6 -2 -11 -2q-14 0 -22 16l-377 934l-178 -249v-674q0 -27 -24.5 -27t-24.5 27z" />
<glyph unicode="L" horiz-adv-x="786" d="M127 31v1474q0 27 24.5 27t24.5 -27v-1448h555q27 0 27 -26.5t-27 -26.5h-579q-25 0 -25 27z" />
<glyph unicode="M" horiz-adv-x="1093" d="M127 31v1474q0 20 18 25q5 1 9 1q14 0 22 -15l361 -775l362 775q8 16 21 15q4 0 8 -1q20 -4 20 -25v-1474q0 -27 -26 -27q-25 0 -25 27v1360l-336 -721q-6 -14 -24 -15q-16 -4 -23 15l-336 721v-1360q0 -27 -26 -27q-25 0 -25 27z" />
<glyph unicode="N" horiz-adv-x="921" d="M127 31v1474q0 23 20 25q20 4 29 -14l549 -1354v1343q0 27 26.5 27t26.5 -27v-1474q0 -20 -22 -25q-20 -4 -29 14l-551 1354v-1343q0 -27 -24.5 -27t-24.5 27z" />
<glyph unicode="O" horiz-adv-x="1081" d="M90 629v139v137q0 176 43 307q55 172 189 258q100 61 213 62q117 0 217 -62q135 -86 190 -258q39 -121 43 -307v-90v-182q-4 -190 -43 -311q-57 -174 -190 -256q-96 -61 -217 -62q-117 0 -213 62q-131 84 -189 256q-43 131 -43 307zM139 768q0 -23 1 -69t1 -70 q0 -166 39 -291q51 -156 168 -229q86 -53 187 -54q109 0 190 54q115 72 168 229q41 123 41 295v182v90q-4 178 -41 291q-51 156 -168 231q-84 51 -190 52q-98 0 -187 -52q-117 -78 -168 -231q-39 -125 -39 -291q0 -25 -1 -69.5t-1 -67.5z" />
<glyph unicode="P" horiz-adv-x="864" d="M127 31v1474q0 27 25 27h229q160 0 274 -105q133 -121 134 -292q0 -5 -1 -11q0 -172 -120 -288q-119 -119 -287 -119h-205v-686q0 -27 -24.5 -27t-24.5 27zM176 768h205q147 0 251.5 104.5t104.5 251.5v11q0 149 -114 254q-100 90 -242 90h-205v-711z" />
<glyph unicode="Q" horiz-adv-x="1087" d="M90 629v139v137q0 176 43 307q55 172 189 258q100 61 213 62q117 0 217 -62q135 -86 190 -258q39 -121 43 -307v-90v-182q-4 -190 -43 -311q-35 -104 -96 -175l129 -217q10 -20 -10 -34q-7 -3 -13 -4q-12 0 -22 14l-121 203q-23 -23 -57 -43q-96 -61 -217 -62 q-117 0 -213 62q-131 84 -189 256q-43 131 -43 307zM139 768q0 -23 1 -69t1 -70q0 -166 39 -291q51 -156 168 -229q86 -53 187 -54q109 0 190 54q31 18 57 45l-141 239q-10 20 10 35q20 10 35 -10l133 -223q47 63 74 143q41 123 41 295v182v90q-4 178 -41 291 q-51 156 -168 231q-84 51 -190 52q-98 0 -187 -52q-117 -78 -168 -231q-39 -125 -39 -291q0 -25 -1 -69.5t-1 -67.5z" />
<glyph unicode="R" horiz-adv-x="925" d="M127 31v1474q0 25 25 25h297q6 2 14 2q150 0 260 -107q115 -109 115 -270q0 -160 -115 -270q-98 -92 -242 -103l299 -741q6 -25 -14 -35q-25 -6 -35 14l-303 762h-252v-751q0 -27 -24.5 -27t-24.5 27zM176 831h273q143 0 237 91q100 94 100 233t-98 234q-96 92 -225 92 q-8 0 -14 -2h-273v-648z" />
<glyph unicode="S" horiz-adv-x="892" d="M98 1178q0 88 37 161q49 96 131 146q82 47 172 47h4q96 -2 183.5 -51t146.5 -131q16 -18 -4 -35q-23 -14 -37 6q-53 74 -131 116t-158 42h-4q-82 0 -145 -39q-72 -41 -111 -121q-31 -66 -30 -141q0 -33 2 -50q14 -98 79 -172q66 -76 236 -155q176 -82 252 -170 q94 -111 94 -256v-4q0 -147 -94 -252q-100 -115 -260 -115q-18 0 -29 2q-195 12 -326 195q-16 18 5 35q23 14 36 -7q115 -158 289 -174h25q133 0 223 97q80 94 80 219v4q0 125 -84 223q-70 84 -234 156q-180 84 -251 170q-76 88 -91 196q-6 27 -6 58z" />
<glyph unicode="T" horiz-adv-x="933" d="M25 1499q0 10 7 18.5t17 8.5h801q10 0 17 -8.5t7 -18.5q0 -8 -7 -16t-17 -8h-375v-1450q0 -8 -8 -16.5t-16 -8.5q-10 0 -18.5 7t-8.5 18v1450h-375q-8 0 -16 8t-8 16z" />
<glyph unicode="U" horiz-adv-x="1048" d="M113 389v4v1112q0 27 26 27q10 0 17.5 -8t7.5 -19v-1112v-4v-24q12 -135 110 -224q92 -84 233.5 -84t233.5 84q98 88 111 224v24v4v1112q0 10 7 18.5t18 8.5q27 0 26 -27v-1112v-4q0 -18 -2 -29q-10 -152 -125 -256q-109 -100 -268 -100q-156 0 -268 100 q-115 104 -125 256q-2 11 -2 29z" />
<glyph unicode="V" horiz-adv-x="993" d="M41 1499q-1 5 -1 9q0 16 19 22q5 1 9 1q16 0 22 -20l354 -1378l355 1378q7 20 22 20q4 0 8 -1q20 -7 20 -22q0 -4 -1 -9l-379 -1474q-4 -20 -24.5 -20.5t-24.5 20.5z" />
<glyph unicode="W" horiz-adv-x="1142" d="M78 1503q-4 27 22 27q4 1 7 0q20 0 20 -23l147 -1360l238 687q8 18 25 18q18 -4 24 -18l238 -687l147 1360q4 23 23 23h6q23 0 22 -27l-159 -1474q0 -23 -23 -23q-3 -1 -6 -1q-15 0 -21 18l-251 725l-252 -725q-5 -17 -21 -18q-3 0 -6 1q-23 0 -22 23z" />
<glyph unicode="X" horiz-adv-x="1046" d="M86 43l377 737l-367 713q-12 23 13 35q7 3 13 3q12 0 21 -13l357 -695l354 695q7 15 19 14q7 0 16 -4q15 -7 14 -19q0 -7 -4 -16l-371 -727l371 -723q4 -9 4 -16q0 -13 -14 -19q-9 -4 -16 -4q-13 0 -19 14l-362 707l-361 -707q-7 -15 -19 -14q-7 0 -16 4q-16 8 -15 20 q0 7 5 15z" />
<glyph unicode="Y" horiz-adv-x="958" d="M8 1493q-3 8 -3 15q0 13 13 20q8 3 15 3q13 0 20 -13l357 -721l356 721q7 14 20 13q7 0 15 -3q14 -7 13 -20q0 -7 -3 -15l-377 -760v-702q0 -27 -24 -27q-27 0 -27 27v702z" />
<glyph unicode="Z" horiz-adv-x="995" d="M82 16q-3 6 -3 12.5t3 12.5l360 737h-264q-27 0 -26.5 26.5t26.5 26.5h289l317 648h-643q-27 0 -26.5 26.5t26.5 26.5h684q10 0 23 -12q6 -12 0 -25l-324 -664h256q25 0 25 -26.5t-25 -26.5h-280l-355 -721h686q25 0 25 -26.5t-25 -26.5h-727q-10 0 -22 12z" />
<glyph unicode="[" horiz-adv-x="569" d="M184 -39v1626q0 27 25 27h160q25 0 24.5 -26.5t-24.5 -26.5h-136v-1573h136q25 0 24.5 -27t-24.5 -27h-160q-25 0 -25 27z" />
<glyph unicode="\" horiz-adv-x="671" d="M117 1499q-6 23 18 31q23 6 31 -19l379 -1474q6 -23 -19 -31q-23 -6 -30 19z" />
<glyph unicode="]" horiz-adv-x="569" d="M184 -39q0 27 25 27h135v1573h-135q-25 0 -25 26.5t25 26.5h160q25 0 24 -27v-1626q0 -27 -24 -27h-160q-25 0 -25 27z" />
<glyph unicode="^" horiz-adv-x="858" d="M356 1362l142 160q10 10 20 10q12 0 19 -10l141 -160q16 -18 -2 -37q-18 -16 -37 2l-121 139l-123 -139q-14 -16 -37 -2q-18 19 -2 37z" />
<glyph unicode="_" horiz-adv-x="927" d="M78 -30.5q0 26.5 24 26.5h723q27 0 27 -26.5t-27 -26.5h-723q-24 0 -24 26.5z" />
<glyph unicode="`" horiz-adv-x="679" d="M285 1495q-12 25 12 33q25 12 33 -12q41 -94 123 -150q70 -47 153 -59q25 -4 21 -29t-29 -21q-98 12 -174 68q-94 61 -139 170z" />
<glyph unicode="a" horiz-adv-x="952" d="M74 227q0 14 4 39q12 70 65 127q39 45 111 82q68 35 144.5 60.5t179 53t147.5 42.5v256q0 14 -4 39q-16 84 -92 141q-66 47 -164 51q-88 0 -168 -45q-78 -43 -131 -121q-10 -23 -35 -6q-23 10 -6 35q55 82 145 137q94 49 195 49h2q113 0 192 -59q92 -66 111 -172 q4 -16 4 -49v-727v-2v-2q4 -43 17 -66q12 -16 20 -22q12 -8 27 -13h6q20 0 33 13q18 14 36 -5q6 -8 7 -16q0 -10 -11 -20q-29 -23 -65 -23q-10 0 -15 2q-25 2 -49 21q-20 14 -32 36q-23 39 -23 93v2v2v53q-53 -66 -107 -109q-104 -76 -204 -98q-45 -10 -80 -10q-14 0 -43 4 q-66 6 -117 43q-59 41 -82 96q-18 43 -18 88zM125 227q0 -37 14 -67q20 -45 64 -74q41 -29 94 -35q25 -4 37 -4q23 0 67 8q92 20 187 90q78 59 137 148v285q-47 -14 -144.5 -41t-170 -51.5t-131.5 -55.5q-61 -31 -99 -72q-41 -43 -53 -100q-2 -11 -2 -31z" />
<glyph unicode="b" horiz-adv-x="952" d="M123 131v1372q0 25 26.5 25t26.5 -25v-473q29 45 68 72q90 68 200 67q8 0 11 -2q82 0 166 -45q72 -41 131 -112q100 -127 120 -310q8 -70 9 -104q0 -205 -97 -367q-55 -88 -120 -141q-76 -61 -168 -82q-39 -10 -90 -10q-57 0 -107 14q-96 29 -168 103q-8 12 -8 18z M176 141q55 -59 137 -82q43 -12 93 -12q45 0 77 8q80 18 148 74q66 53 108 127q90 147 90 340q0 51 -6 96q-25 176 -112 287q-49 63 -115 98q-66 37 -141 41h-11q-94 0 -168 -57q-82 -59 -100 -152v-768z" />
<glyph unicode="c" horiz-adv-x="892" d="M59 586q0 178 74 323q55 117 152 185q102 76 221 75q6 0 10 -2q94 -4 170 -53q80 -51 115 -137q12 -25 -13 -33q-25 -12 -32 12q-33 70 -97 115q-66 45 -143 47h-10q-102 0 -190.5 -65.5t-137.5 -167.5q-68 -139 -67 -299q0 -68 8 -119q27 -160 117 -270 q102 -123 245 -142q6 0 20.5 -1t20.5 -1q66 0 121 25q80 33 131 98q14 18 37 4q10 -8 10 -18q0 -8 -6 -19q-61 -78 -151 -112q-70 -29 -142 -29q-14 0 -47 4q-164 18 -278 160q-100 121 -127 293q-11 51 -11 127z" />
<glyph unicode="d" horiz-adv-x="1021" d="M63 535q0 92 15 165q33 188 125 306q53 70 127 112q82 47 164 49q6 2 18 2q111 0 195 -65q37 -27 67 -70v469q0 25 27 25q25 0 24 -25v-1339v-4v-4q4 -43 19 -66q4 -8 18 -22q10 -8 27 -13h6q20 0 33 13q18 14 37 -5q6 -8 6 -16q0 -10 -10 -20q-29 -23 -66 -23 q-10 0 -14 2q-25 2 -50 21q-23 18 -32 36q-20 37 -25 93v4v4v37q-41 -53 -104 -109q-113 -90 -236 -90h-6q-94 4 -168 55q-72 47 -117 129q-59 111 -75 252q-5 66 -5 97zM115 535q0 -59 4 -91q14 -139 69 -233q37 -68 101 -113q66 -43 141 -45h4q102 0 203 80q84 66 137 160 v616q-18 94 -98 154q-76 55 -164 55h-14q-78 -6 -142 -43q-66 -41 -112 -100q-86 -113 -117 -283q-12 -77 -12 -157z" />
<glyph unicode="e" horiz-adv-x="894" d="M61 588q0 117 27 217q39 152 127 246q49 55 113 86q66 31 139 30q78 0 143 -32q66 -35 113 -95q86 -106 90 -268v-4q0 -39 -6 -78q-4 -23 -27 -22h-663q-4 -53 -4 -80t4 -84q16 -174 108 -295q106 -137 262 -154h31q66 0 127 25q76 31 125 96q14 18 37 4q10 -8 10 -18 q0 -8 -6 -19q-57 -72 -147 -110q-63 -29 -146 -29q-23 0 -35 2q-180 16 -299 172q-98 131 -118 322q-5 57 -5 88zM123 721h637q0 6 1 22.5t1 24.5v4q-4 143 -80 238q-37 49 -94 77q-49 27 -121 31q-59 0 -117 -28q-51 -23 -98 -74q-78 -82 -115 -223q-4 -19 -14 -72z" />
<glyph unicode="f" horiz-adv-x="643" d="M45 1142.5q0 24.5 27 24.5h161v41q4 98 64 178q55 76 149 117q84 39 185 39q57 0 108 -12q20 -3 21 -20q0 -5 -2 -11q-4 -27 -31 -18q-51 10 -96 10q-90 0 -164 -33q-80 -35 -129 -100q-49 -68 -55 -150v-41h321q27 0 27 -24.5t-27 -24.5h-321v-1087q0 -27 -25 -27 t-25 27v1087h-161q-27 0 -27 24.5z" />
<glyph unicode="g" horiz-adv-x="940" d="M63 553q0 199 78 367q53 121 135 180q92 70 197 69q16 0 23 -2q84 -6 155 -53q63 -43 111 -117l24 -43v189q0 25 25 24.5t25 -24.5v-1252q-6 -115 -80 -204q-61 -76 -148 -109q-74 -33 -164 -33q-12 0 -18 2q-156 6 -279 107q-18 18 -4 37q18 18 37 4q109 -92 250 -98h14 q74 0 144 28q76 31 129 94q63 76 69 175v299q-39 -53 -100 -105q-111 -84 -235 -84h-17q-129 6 -229 107q-80 82 -115 221q-27 104 -27 221zM115 553q0 -106 24 -209q31 -125 103 -199q84 -86 196 -90h13q106 0 202 74q82 63 133 162v444q-4 129 -67 234q-35 57 -96 102 q-59 41 -131 47h-19q-84 0 -166 -57q-76 -59 -121 -162q-71 -162 -71 -346z" />
<glyph unicode="h" horiz-adv-x="983" d="M127 31v1474q0 27 24.5 27t24.5 -27v-596q45 76 107 135q72 68 155 101q70 27 140 26q12 0 45 -4q111 -12 190 -96q80 -86 80 -199v-841q0 -27 -24.5 -27t-24.5 27v839q-2 94 -68 166q-70 70 -162 82q-6 0 -18 1t-18 1q-61 0 -121 -24q-76 -27 -138 -88 q-94 -88 -143 -224v-753q0 -27 -24.5 -27t-24.5 27z" />
<glyph unicode="i" horiz-adv-x="520" d="M37 1142.5q0 24.5 24 24.5h258q25 0 25 -24v-1112q0 -27 -24.5 -27t-24.5 27v1087h-234q-24 0 -24 24.5zM274 1480.5q0 22.5 14.5 37t35 14.5t35 -14.5t14.5 -37t-14.5 -36.5t-35 -14t-35 14t-14.5 36.5z" />
<glyph unicode="j" horiz-adv-x="630" d="M-78 -365q14 18 35 9q70 -43 147 -47h11q141 0 227 106q68 80 68 186v1229h-232q-27 0 -26.5 24.5t26.5 24.5h258q27 0 27 -24v-1254q0 -123 -80 -219q-104 -125 -268 -125q-8 0 -11 2q-94 4 -174 52q-14 9 -13 20q-1 7 5 16zM385 1480.5q0 22.5 14.5 37t37 14.5 t36.5 -14.5t14 -37t-14 -36.5t-36.5 -14t-37 14t-14.5 36.5z" />
<glyph unicode="k" horiz-adv-x="798" d="M127 31v1474q0 27 24.5 27t24.5 -27v-856l455 510q20 20 37 2q20 -16 2 -35l-348 -393l415 -690q2 -2 2 -6v-6q0 -8 -2 -13q-4 -6 -10 -10q-4 -4 -12 -4q-4 0 -13 4q-2 0 -2 2l-4 2l-2 2q-2 2 -2 4l-407 674l-109 -121v-540q0 -27 -24.5 -27t-24.5 27z" />
<glyph unicode="l" horiz-adv-x="493" d="M-12 1505.5q0 26.5 26 26.5h258q25 0 25 -27v-1345v-2v-2q4 -43 16 -66q12 -16 21 -22q10 -8 26 -13h7q20 0 32 13q18 14 37 -5q6 -8 6 -16q0 -10 -10 -20q-29 -23 -65 -23q-10 0 -15 2q-25 2 -49 21q-20 14 -33 36q-20 37 -24 93v2v4v1317h-232q-26 0 -26 26.5z" />
<glyph unicode="m" horiz-adv-x="1585" d="M98 1128q-4 8 -3 15q0 13 11 22q23 10 37 -8q23 -43 29 -84v-24v-152q31 82 94 147q68 68 142 99q68 29 135 28q10 0 39 -4q100 -12 170 -86q70 -76 69 -172q41 76 107 135q66 61 141 95q66 31 141 30q18 0 29 -2q106 -10 176 -80q72 -74 78 -178v-878q0 -25 -27 -25 q-25 0 -24 25v876q-6 84 -64 144q-61 57 -143 67h-25q-61 0 -120 -26q-66 -25 -127 -84q-84 -78 -140 -189v-788q0 -25 -26 -25q-25 0 -25 25v872q-4 84 -59 144q-51 57 -140 71q-4 0 -14 1t-16 1q-51 0 -115 -24q-66 -29 -125 -88q-88 -88 -131 -224v-753q0 -25 -25 -25 q-27 0 -26 25v1018v18q-3 32 -23 61z" />
<glyph unicode="n" horiz-adv-x="978" d="M98 1128q-4 8 -3 15q0 13 11 22q23 10 37 -8q23 -43 29 -84v-24v-152q51 94 107 147q72 68 155 101q70 27 139 26q12 0 45 -4q111 -12 191 -96q80 -86 80 -199v-841q0 -27 -24.5 -27t-24.5 27v839q-2 94 -68 166q-70 70 -162 82q-6 0 -18 1t-19 1q-61 0 -120 -24 q-76 -27 -138 -88q-94 -88 -143 -224v-753q0 -27 -24.5 -27t-24.5 27v1016q0 4 -1 11t-1 9q-3 32 -23 61z" />
<glyph unicode="o" horiz-adv-x="960" d="M68 561v25v22q4 162 38 271q53 160 175 235q86 55 194 55q115 0 201 -55q121 -78 174 -235q35 -113 39 -281v-43v-8q-8 -158 -39 -254q-53 -158 -174 -236q-86 -55 -201 -55q-109 0 -194 55q-121 76 -175 236q-34 108 -38 268zM119 575q0 -158 37 -266q45 -141 151 -209 q76 -47 168 -47q98 0 174 47q106 68 152 209q33 104 37 269v2v2v16q-4 160 -37 264q-45 141 -152 209q-76 47 -174 47q-92 0 -168 -47q-106 -68 -151 -209q-37 -109 -37 -264v-12v-11z" />
<glyph unicode="p" horiz-adv-x="956" d="M98 1128q-4 8 -3 15q0 13 11 22q8 4 16 4q13 0 21 -12q23 -43 29 -84v-24v-117q41 61 88 112q55 55 115 86q70 37 143 37h4q88 0 166 -49q72 -51 117 -131q59 -102 74 -252q6 -49 6 -100q0 -88 -15 -162q-31 -186 -125 -307q-53 -70 -127 -113q-80 -47 -163 -49 q-6 -2 -17 -2q-115 0 -205 74q-29 20 -61 65v-567q0 -25 -25 -25q-27 0 -26 25v1475v18q-3 32 -23 61zM172 285q12 -104 94 -170q74 -61 172 -62h13q78 6 141 43t113 101q84 106 116 284q12 76 13 154q0 33 -5 94q-18 145 -69 234q-37 68 -101 112q-66 43 -137 43h-4 q-66 -4 -119 -33q-47 -23 -102 -77q-80 -82 -125 -187v-536z" />
<glyph unicode="q" horiz-adv-x="995" d="M61 586q0 137 41 272q43 135 125 217q49 45 107 72q57 23 115 22q10 0 14 -2q74 -2 139 -41q59 -31 111 -92q41 -51 69 -110v219q0 25 24.5 24.5t24.5 -24.5v-1569q0 -25 -24.5 -25t-24.5 25v578q-23 -31 -55 -64q-84 -76 -201 -82q-8 -2 -24 -2q-78 0 -154 33 q-84 41 -143 108q-111 125 -135 324q-9 51 -9 117zM113 586q0 -57 6 -109q25 -182 123 -297q55 -61 127 -96q63 -29 133 -29h20q98 10 170 72q72 63 90 158v428q-10 170 -110 288q-41 51 -94 82q-57 31 -119 35h-10q-47 0 -95 -20q-45 -16 -92 -60q-72 -70 -110 -196 q-39 -119 -39 -256z" />
<glyph unicode="r" horiz-adv-x="765" d="M98 1128q-4 8 -3 15q0 13 11 22q8 4 16 4q13 0 21 -12q23 -43 29 -84v-24v-177q31 59 70 113q70 88 141 131q84 51 180 51h6q66 0 136 -32q15 -7 14 -20q0 -7 -4 -15q-10 -23 -35 -10q-51 25 -111 28h-6q-76 0 -153 -47q-70 -41 -127 -119q-72 -96 -111 -219v-702 q-4 -27 -27 -27q-27 4 -26 27l4 1018q0 4 -1 10t-1 8q-3 32 -23 61z" />
<glyph unicode="s" horiz-adv-x="815" d="M90 166q-6 10 -6 18q0 11 10 19q23 14 37 -4q92 -121 240 -144q33 -4 49 -4q43 0 82 12q63 18 112 64q70 70 70 162v2q0 90 -72 162q-55 57 -206 116q-162 63 -224 129q-63 70 -78 154q0 8 -1 20.5t-1 18.5q0 72 35 131q33 63 99 102q59 35 135 45h32q76 0 146 -28 q84 -37 141 -111q16 -20 -4 -35q-20 -16 -35 4q-49 63 -123 95q-57 25 -125 24h-28q-61 -6 -113 -37q-53 -33 -80 -84q-29 -47 -28 -106q0 -20 2 -31q10 -68 63 -125q57 -59 205 -119q162 -63 225 -127q82 -86 86 -198v-2q0 -115 -84 -199q-57 -53 -135 -76q-53 -14 -96 -14 q-18 0 -55 4q-169 25 -275 162z" />
<glyph unicode="t" horiz-adv-x="731" d="M49 1142.5q0 24.5 25 24.5h159v338q0 27 27 27t27 -27v-338h319q25 0 25 -24.5t-25 -24.5h-319v-958q0 -20 6 -37q18 -39 53 -53q27 -14 64 -15h16q53 6 102 37q47 31 80 76q14 23 35 6q13 -8 13 -19q0 -8 -7 -16q-37 -55 -94 -90q-61 -37 -125 -43q-6 -2 -20 -2 q-45 0 -86 19q-53 27 -78 79q-8 29 -13 56v960h-159q-25 0 -25 24.5z" />
<glyph unicode="u" horiz-adv-x="1042" d="M90 1128q-4 8 -4 15q0 13 12 22q8 4 15 4q13 0 22 -12q23 -43 29 -84v-24v-768q0 -92 65 -158q68 -63 160 -68h10q66 0 136 33q61 25 131 80q59 45 141 127v848q0 25 24.5 24.5t24.5 -24.5v-979v-4v-4q4 -43 18 -66q4 -8 19 -22q12 -8 27 -13h6q20 0 32 13q18 14 37 -5 q6 -8 7 -16q0 -10 -11 -20q-29 -23 -65 -23q-10 0 -15 2q-25 2 -49 21q-20 14 -33 36q-23 39 -22 93v4v4v57q-59 -57 -109 -94q-80 -57 -143 -86q-80 -37 -156 -37q-8 0 -10 2q-119 4 -194 80q-80 78 -80 195v768q-2 6 -2 18q-3 32 -23 61z" />
<glyph unicode="v" horiz-adv-x="913" d="M47 1135q-2 7 -2 12q0 16 18 20q7 2 13 2q16 0 20 -18l355 -1040l354 1040q5 18 21 18q5 0 12 -2q18 -5 18 -20q0 -5 -2 -12l-379 -1112q-8 -18 -24.5 -18.5t-24.5 18.5z" />
<glyph unicode="w" horiz-adv-x="1339" d="M47 1135q-2 7 -2 12q0 16 18 20q7 2 13 2q16 0 20 -18l355 -1040l186 544l-164 480q-8 27 16 32q7 2 13 2q16 0 20 -18l355 -1040l354 1040q5 18 21 18q5 0 12 -2q18 -5 18 -20q0 -5 -2 -12l-379 -1112q-8 -18 -24.5 -18.5t-24.5 18.5l-188 555l-189 -555 q-8 -18 -24.5 -18.5t-24.5 18.5z" />
<glyph unicode="x" horiz-adv-x="927" d="M86 45l348 551l-336 532q-14 23 8 37q8 5 15 5q11 0 20 -13l330 -522l332 522q9 13 20 13q7 0 15 -5q14 -9 13 -20q0 -8 -5 -17l-344 -542l344 -541q6 -9 5 -16q0 -12 -13 -21q-9 -5 -17 -4q-12 0 -18 12l-338 533l-336 -533q-8 -12 -20 -11q-7 0 -15 3q-14 9 -14 21 q0 7 6 16z" />
<glyph unicode="y" horiz-adv-x="929" d="M88 1128q-4 8 -4 15q0 13 12 22q8 4 15 4q13 0 22 -12q23 -43 29 -84v-24v-746q10 -90 74 -162q59 -66 155 -86q33 -4 51 -4q61 0 109 21q78 29 135 92q88 100 88 239v3v737q0 25 26.5 24.5t26.5 -24.5v-1235q-4 -51 -14 -90t-27 -70q-18 -35 -41 -61q-16 -23 -43 -45 l-49 -37q-18 -10 -55 -27q-27 -10 -59 -20q-41 -8 -62 -11q-6 0 -20.5 -1t-22.5 -1q-12 0 -18 2q-45 0 -99 15q-51 12 -96 37q-47 27 -84 55q-18 18 -4 37q18 18 37 4q29 -25 76 -51q35 -18 84 -33q39 -10 90 -14h14q8 0 20.5 1t18.5 1q23 2 53 10q18 4 52 16q27 10 47 25 q6 4 45 31q25 25 37 38q20 27 34 54q16 31 23 59q10 31 10 76v297q-23 -43 -51 -74q-66 -76 -154 -108q-61 -23 -127 -23q-29 0 -59 6q-111 18 -186 100q-74 80 -86 195v748v18q-3 32 -23 61z" />
<glyph unicode="z" horiz-adv-x="872" d="M55 18q-3 6 -3 13t3 14l656 1071l-529 2q-27 0 -26 25q4 25 21 25q3 0 5 -1h576q12 0 22 -12q6 -14 -2 -27l-655 -1071h655q25 0 25 -26.5t-25 -26.5h-700q-17 0 -23 14z" />
<glyph unicode="{" horiz-adv-x="569" d="M72 836q0 16 14 22l59 29q27 125 39 264q10 117 11 211q0 100 -11 223q-4 12 6 19q6 10 19 10h160q25 0 24.5 -26.5t-24.5 -26.5h-131q8 -131 8 -199q0 -94 -10 -217q-12 -143 -43 -281q-4 -12 -15 -18l-24 -10l28 -15q10 -6 15 -18q27 -129 39 -281q14 -127 14 -270 q0 -135 -12 -264h131q25 0 24.5 -27t-24.5 -27h-160q-12 0 -19 11q-10 6 -6 18q14 168 15 289q0 133 -13 266q-16 150 -39 262l-63 33q-14 9 -12 23z" />
<glyph unicode="|" horiz-adv-x="462" d="M180 -6v1597q0 27 24.5 27t24.5 -27v-1597q0 -27 -24.5 -27t-24.5 27z" />
<glyph unicode="}" horiz-adv-x="569" d="M102 -39q0 27 25 27h131q-12 129 -12 264q0 143 14 270q12 152 39 281q4 12 14 18l29 15l-25 10q-10 6 -14 18q-31 137 -43 281q-10 123 -10 217q0 68 8 199h-131q-25 0 -25 26.5t25 26.5h160q12 0 18 -10q10 -6 6 -19q-10 -123 -10 -223q0 -94 10 -211q12 -139 39 -264 l60 -29q14 -6 14 -22q2 -14 -12 -23l-64 -33q-23 -113 -39 -262q-12 -133 -12 -266q0 -121 14 -289q4 -12 -6 -18q-6 -10 -18 -11h-160q-25 0 -25 27z" />
<glyph unicode="~" horiz-adv-x="770" d="M272 1436q0 18 7 34q12 29 38 46q29 16 56 16q33 -4 55.5 -14.5t42.5 -28.5q6 -6 29.5 -28.5t36.5 -33.5q18 -14 34 -20q14 -6 29 -6q2 0 5 1t5 1q20 2 33 12q14 10 21 29q4 12 4 20q0 14 -6 25q-10 25 10 35q25 10 35 -11q12 -25 12 -49q0 -18 -6 -37q-12 -35 -39 -51 q-25 -23 -58 -24q-2 0 -8 -1t-8 -1q-16 0 -45 8q-33 14 -51 28q-14 10 -36 33t-32 31t-30 23q-16 6 -33 6t-29 -6q-12 -8 -18 -21q-2 -6 -2 -16v-11q6 -16 16 -22q18 -14 4 -37q-14 -18 -37 -4q-23 16 -33 49q-2 9 -2 25z" />
<glyph />
<glyph />
<glyph horiz-adv-x="946" d="M104 39l105 340q0 2 2 4l235 768q4 18 23 18q23 0 25 -18l342 -1112q6 -25 -17 -33q-25 -6 -33 17l-100 325h-432l-100 -325q-8 -23 -33 -17q-23 8 -17 33zM268 399h404l-203 658z" />
<glyph horiz-adv-x="825" d="M119 31v1114q0 25 24 24h256h13q117 0 200 -79q88 -84 88 -209v-2q0 -123 -88 -207q-31 -29 -80 -51q98 -37 144 -93q76 -88 76 -204q0 -6 -1 -17.5t-1 -15.5q-12 -117 -95 -195q-78 -80 -198 -92h-314q-24 0 -24 27zM170 55h285q98 10 165.5 78t77.5 164q0 4 1 12t1 15 q0 98 -63 172q-31 37 -96.5 66.5t-116.5 29.5h-254v-537zM170 643h231q109 0 174 66q72 66 76 170v2q0 98 -73 172q-70 66 -166 65h-11h-231v-475z" />
<glyph horiz-adv-x="919" d="M102 587.5q0 16.5 1 51.5t1 53q0 137 39 234q53 133 172 198q88 45 191 45q113 0 196 -45q47 -27 76 -53q18 -18 0 -37q-14 -18 -35 -2q-20 20 -65 47q-72 39 -172 39q-94 0 -166 -39q-104 -55 -150 -172q-35 -88 -34 -217v-102v-105q0 -129 34 -217q45 -115 150 -170 q76 -41 166 -41q111 2 172 41q61 37 88 103q10 25 33 14q25 -6 16 -33q-31 -78 -110 -129q-72 -43 -197 -47h-2q-100 0 -191 45q-119 66 -172 199q-39 96 -39 233q0 18 -1 54t-1 52.5z" />
<glyph unicode="&#x85;" horiz-adv-x="921" d="M113 31v1114q0 25 26 24h230h2q141 0 254 -75q125 -84 174 -238q37 -109 37 -258v-16q-4 -174 -45 -283q-59 -160 -199 -238q-102 -57 -219 -57h-8h-226q-26 0 -26 27zM164 55h201h8q104 0 194 51q123 68 174 209q39 102 43 269v14q0 139 -34 242q-45 139 -154 211 q-96 68 -225 67h-2h-205v-1063z" />
<glyph horiz-adv-x="800" d="M102 31v565v549q0 25 27 24h522q25 0 25 -24q0 -27 -25 -27h-495v-495h456q25 0 25 -27q0 -25 -25 -25h-456v-514h495q25 0 25 -26.5t-25 -26.5h-522q-27 0 -27 27z" />
<glyph horiz-adv-x="829" d="M102 31v565v549q0 25 27 24h522q25 0 25 -24q0 -27 -25 -27h-495v-495h456q25 0 25 -27q0 -25 -25 -25h-456v-540q0 -27 -27 -27t-27 27z" />
<glyph horiz-adv-x="954" d="M92 481v107v104q4 141 39 234q51 131 174 198q88 45 191 45q113 0 196 -45q41 -23 76 -55q18 -16 0 -35q-16 -20 -35 -2q-29 25 -65 47q-76 39 -172 39q-92 0 -168 -39q-102 -55 -148 -172q-33 -84 -37 -217v-102v-105q4 -133 37 -217q45 -115 148 -170q70 -39 168 -39 q113 0 170 37q106 66 106 217q0 35 1 97.5t1 95.5h-373q-25 0 -24 26q0 25 24 25h400q25 0 24 -25q0 -39 -1 -110.5t-1 -108.5q0 -180 -131 -260q-74 -45 -196 -45q-104 0 -191 43q-123 68 -174 199q-35 92 -39 233z" />
<glyph horiz-adv-x="829" d="M102 31v567v547q0 25 27 24.5t27 -24.5v-520h520v520q0 25 24.5 24.5t24.5 -24.5v-547v-567q0 -27 -24.5 -27t-24.5 27v542h-520v-542q0 -27 -27 -27t-27 27z" />
<glyph horiz-adv-x="350" d="M150 31v1114q0 25 26 24q25 0 25 -24v-1114q0 -10 -7.5 -18.5t-17.5 -8.5q-26 0 -26 27z" />
<glyph horiz-adv-x="811" d="M78 143q18 18 37 0q16 -16 26 -22q82 -63 211 -64q127 0 209 64q86 66 96 164q0 2 1 9t1 11v813h-321q-25 0 -25 24.5t25 24.5h346q27 0 27 -24v-838q0 -4 -1 -12t-1 -14q-10 -117 -117 -199q-98 -76 -239.5 -76t-241.5 76q-12 8 -30.5 26.5t-2.5 36.5z" />
<glyph horiz-adv-x="776" d="M102 31v1114q0 25 27 24.5t27 -24.5v-531l137 164q2 8 12 15l313 368q16 20 35 2q20 -14 4 -35l-309 -364l346 -723q10 -23 -10 -33q-25 -10 -35 12l-338 701l-155 -184v-506q0 -27 -27 -27t-27 27z" />
<glyph horiz-adv-x="739" d="M102 31v1114q0 25 27 24.5t27 -24.5v-1088h495q25 0 25 -26.5t-25 -26.5h-522q-27 0 -27 27z" />
<glyph horiz-adv-x="993" d="M125 31v1114q0 18 18 24q18 4 29 -12l324 -584l325 584q10 16 29 12q18 -8 18 -24v-1114q0 -10 -7 -18.5t-17 -8.5q-27 0 -27 27v1013l-299 -536q-6 -12 -22 -12q-12 0 -23 12l-297 536v-1013q0 -27 -26 -27q-25 0 -25 27z" />
<glyph horiz-adv-x="837" d="M123 31v1114q0 18 20 24q20 4 29 -14l492 -1014v1004q0 25 26 24q25 0 25 -24v-1114q0 -20 -21 -25q-18 -6 -28 14l-492 1012v-1001q0 -27 -24 -27q-27 0 -27 27z" />
<glyph horiz-adv-x="1017" d="M102 587.5q0 16.5 1 51.5t1 53q0 137 39 234q53 133 172 198q88 45 191 45q113 0 196 -45q123 -68 172 -198q37 -92 41 -234v-69v-138q-4 -145 -41 -237q-49 -131 -172 -199q-90 -45 -196 -45q-102 0 -191 45q-119 66 -172 199q-39 96 -39 233q0 18 -1 54t-1 52.5z M156 483q0 -129 34 -217q45 -115 150 -170q72 -41 166 -41q102 0 172 41q104 55 149 170q33 84 37 219v138v67q-4 133 -37 217q-45 117 -149 172q-72 39 -172 39q-94 0 -166 -39q-104 -55 -150 -172q-35 -88 -34 -217v-102v-105z" />
<glyph horiz-adv-x="837" d="M133 31v536v576q0 25 27 24h223q127 0 211 -77q102 -96 102 -234q0 -127 -92 -223q-94 -90 -223 -90h-197v-512q0 -27 -24 -27q-27 0 -27 27zM184 594h197q106 0 186 76q78 78 78 186q0 119 -86 195q-72 68 -176 67h-199v-524z" />
<glyph horiz-adv-x="1015" d="M102 587.5q0 16.5 1 51.5t1 53q0 137 39 234q53 133 172 198q88 45 191 45q113 0 196 -45q123 -68 172 -198q37 -92 41 -234v-69v-138q-4 -145 -41 -237q-23 -63 -69 -117l43 -90q10 -23 -10 -33q-25 -10 -35 12l-35 74q-31 -25 -66 -45q-90 -45 -196 -45q-102 0 -191 45 q-119 66 -172 199q-39 96 -39 233q0 18 -1 54t-1 52.5zM156 483q0 -129 34 -217q45 -115 150 -170q72 -41 166 -41q102 0 172 41q35 16 65 45l-118 250q-12 25 12 33q25 12 35 -10l110 -232q31 45 45 84q33 84 37 219v138v67q-4 133 -37 217q-45 117 -149 172 q-72 39 -172 39q-94 0 -166 -39q-104 -55 -150 -172q-35 -88 -34 -217v-102v-105z" />
<glyph horiz-adv-x="837" d="M102 31v1112q0 25 25 24h311q125 0 209 -77q106 -96 103 -234q0 -131 -93 -223q-86 -84 -204 -90l243 -502q10 -20 -12 -33q-25 -12 -35 12l-254 523h-243v-512q0 -27 -25 -27t-25 27zM152 594h258h4h22q109 0 184.5 75.5t79.5 186.5q0 119 -86 195q-74 68 -176 67h-286 v-524z" />
<glyph horiz-adv-x="866" d="M102 897q0 68 35 127q41 72 119 111q68 35 156 34h2q180 0 299 -137q16 -20 -2 -35q-18 -18 -37 2q-104 119 -260 119h-2q-72 0 -133 -31q-66 -33 -97 -90q-27 -45 -26 -100q0 -25 2 -37q12 -68 69.5 -125t210.5 -117q160 -63 228 -129q86 -88 88 -198v-4 q0 -115 -88 -197q-94 -86 -234 -86q-18 0 -26 2q-174 8 -295 148q-16 20 4 34q18 18 35 -2q104 -119 260 -131h22q121 0 199 74q72 66 71 158v4q-4 94 -73 162q-57 59 -209 118q-164 63 -230 127q-70 74 -84 154q-4 29 -4 45z" />
<glyph horiz-adv-x="921" d="M76 1145q0 25 26 24h359h360q25 0 25 -24q0 -10 -7.5 -18.5t-17.5 -8.5h-334v-1087q0 -27 -26 -27q-25 0 -25 27v1087h-334q-26 0 -26 27z" />
<glyph horiz-adv-x="923" d="M102 301v4v840q0 25 27 24q25 0 25 -24v-840v-4v-16q10 -96 96 -164q88 -63 211 -64q127 0 211 64q86 68 96 164v16v4v840q0 25 25 24q27 0 26 -24v-840v-4q0 -14 -2 -22q-10 -117 -115 -199q-100 -76 -241.5 -76t-241.5 76q-104 82 -115 199q-2 8 -2 22z" />
<glyph horiz-adv-x="940" d="M104 1137q-6 25 17 32q25 8 33 -18l315 -1032l317 1032q8 27 33 18q23 -8 17 -32l-342 -1114q-4 -18 -25 -19q-18 0 -23 19z" />
<glyph horiz-adv-x="999" d="M86 1141q-4 25 20 28q10 2 19.5 -5t9.5 -17l131 -1018l211 512q8 14 25 14q18 0 24 -14l211 -512l129 1018q4 27 29 22q27 -4 23 -28l-142 -1114q-4 -20 -22 -21q-20 -4 -27 14l-225 543l-226 -543q-6 -18 -26 -14q-18 0 -23 21z" />
<glyph horiz-adv-x="880" d="M76 45l338 551l-328 534q-16 23 8 35q23 14 35 -8l320 -522l319 522q12 23 35 8q20 -10 8 -35l-332 -544l332 -541q12 -25 -8 -37q-23 -12 -35 8l-326 531l-323 -531q-12 -20 -35 -8q-22 14 -8 37z" />
<glyph horiz-adv-x="864" d="M68 1130q-12 25 10 35q20 14 35 -8l319 -541l318 541q14 23 34 8q23 -10 11 -35l-338 -571v-528q0 -10 -7.5 -18.5t-17.5 -8.5q-27 0 -26 27v528z" />
<glyph horiz-adv-x="876" d="M76 18q-6 12 0 25l317 547h-229q-25 0 -25 24q0 27 25 27h260l278 477h-571q-27 0 -27 27q0 25 27 24h614q16 0 23 -12q10 -14 0 -27l-285 -489h224q25 0 24 -27q0 -25 -24 -24h-254l-312 -533h611q27 0 26.5 -26.5t-26.5 -26.5h-654q-16 0 -22 14z" />
<glyph />
<glyph />
<glyph />
<glyph />
<glyph unicode="&#xa0;" />
<glyph unicode="&#xa1;" horiz-adv-x="303" d="M102 1438q0 23 14.5 37t35 14t35 -14.5t14.5 -36.5q0 -20 -14.5 -34.5t-35 -14.5t-35 14.5t-14.5 34.5zM127 35v1151q0 27 24.5 26.5t24.5 -26.5v-1151q0 -27 -24.5 -27t-24.5 27z" />
<glyph unicode="&#xa2;" horiz-adv-x="567" d="M106 528q0 45 15 80q29 61 82 94q29 20 67 31v123q0 25 27 25t27 -25v-119q41 0 77 -12q25 -10 17 -33q-10 -25 -33 -16q-31 12 -61 12h-2q-6 -2 -21 -2h-2q-37 -6 -70 -27q-39 -25 -59 -71q-12 -27 -12 -60q0 -45 20 -77q39 -66 117 -80l2 2q2 0 5 -1t5 -1q4 -2 15 -2 q45 0 86 22q25 12 34 -10q12 -25 -10 -35q-51 -29 -108 -29v-116q0 -25 -27 -25t-27 25v123q-92 25 -135 100q-29 45 -29 104z" />
<glyph unicode="&#xa3;" d="M37 780.5q0 26.5 24 26.5h226q-35 213 -35 309q0 23 2 35q4 147 72 246q41 57 96 94q61 37 129 39q6 2 16 2q90 0 166 -59q18 -18 4 -37q-18 -18 -37 -4q-59 49 -133 49h-12q-63 -6 -104 -35q-47 -27 -82 -78q-59 -84 -66 -221v-31q0 -92 35 -309h362q25 0 25 -26.5 t-25 -26.5h-354q12 -94 14 -142v-41q0 -131 -30 -233q-37 -137 -125 -250q-4 -6 -15 -16l-14 -15h598q25 0 25 -26.5t-25 -26.5h-659q-18 0 -25 19q-6 16 8 26q45 45 66 72q82 100 117 229q29 100 28 221v39q-2 49 -14 144h-234q-24 0 -24 26.5z" />
<glyph unicode="&#xa4;" horiz-adv-x="696" d="M203 518q-18 18 0 37l80 80q-14 20 -14.5 49t14.5 51l-72 70q-18 18 0 36.5t35 0.5l71 -72q23 14 52 14q27 0 49 -14l71 74q18 18 37 -0.5t0 -36.5l-71 -72q12 -25 12 -51q0 -29 -12 -49l80 -82q18 -16 -0.5 -34.5t-34.5 -0.5l-82 80q-25 -12 -49 -12q-27 0 -52 12 l-79 -80q-19 -18 -35 0zM319 684q0 -6 3 -10l10 10l-10 12q-3 -4 -3 -12zM356 637h13h10l-10 12zM356 731l13 -10l10 10q-4 2 -10 2q-9 0 -13 -2zM403 684l11 -10q2 4 2 10q0 8 -2 12z" />
<glyph unicode="&#xa5;" horiz-adv-x="970" d="M78 1493q-10 25 10 35q25 10 35 -10l356 -721l357 721q10 20 34 10q20 -10 11 -35l-361 -727h283q25 0 24.5 -26.5t-24.5 -26.5h-299v-226h299q25 0 24.5 -26.5t-24.5 -26.5h-299v-403q0 -27 -25 -27q-27 0 -26 27v403h-273q-25 0 -24.5 26.5t24.5 26.5h273v226h-273 q-25 0 -24.5 26.5t24.5 26.5h258z" />
<glyph unicode="&#xa6;" horiz-adv-x="499" d="M238 31v581q0 27 24.5 27t24.5 -27v-581q0 -27 -24.5 -27t-24.5 27zM238 846v581q0 27 24.5 27t24.5 -27v-581q0 -27 -24.5 -27t-24.5 27z" />
<glyph unicode="&#xa7;" horiz-adv-x="985" d="M109 1200q0 76 34 133q45 78 125 117q76 37 162 37h4q193 -4 314 -146q18 -18 -3 -34q-18 -18 -34 2q-115 123 -277 127h-4q-76 0 -139 -33q-68 -33 -103 -96q-29 -45 -28 -107q0 -27 2 -39q12 -70 74 -135q59 -59 223 -123q168 -66 239 -137q92 -92 93 -209v-4 q0 -49 -13 -92q47 -78 47 -154v-4q0 -121 -90 -207q-98 -92 -248 -92q-16 0 -26 2q-186 10 -309 156q-18 18 2 35q18 18 34 -2q113 -127 277 -140h22q131 0 211 78q76 70 76 170v2q0 96 -78 174q-61 61 -221 125q-168 66 -239 135q-72 72 -89 162q-4 16 -4 47q0 51 17 92 q-39 53 -47 111q-4 16 -4 49zM195 948q0 -25 2 -39q14 -74 73 -133q66 -63 224 -125q172 -68 239 -135l4 -4q2 14 2 41v4q0 96 -77 174q-61 61 -222 125q-172 68 -239 135h-2q-4 -14 -4 -43z" />
<glyph unicode="&#xa8;" d="M279 1480.5q0 22.5 14 37t36.5 14.5t37 -14.5t14.5 -37t-14.5 -36.5t-37 -14t-36.5 14t-14 36.5zM330 1481zM590 1480.5q0 22.5 14 37t37 14.5t37 -14.5t14 -37t-14 -36.5t-37 -14t-37 14t-14 36.5zM641 1481z" />
<glyph unicode="&#xa9;" horiz-adv-x="1036" d="M90 801q0 164 117 281.5t280.5 117.5t280.5 -117.5t117 -281.5t-117 -282t-280.5 -118t-280.5 118t-117 282zM139 800.5q0 -143.5 101.5 -244.5t247 -101t247 101t101.5 244.5t-101.5 245t-247 101.5t-247 -101.5t-101.5 -245zM293 793q0 45 14 79q29 61 82 95 q35 25 90 34q18 0 29 3h2q35 0 78 -15q25 -10 16 -33q-10 -25 -33 -16q-27 10 -61 10h-2h-21q-39 -6 -71 -26q-39 -25 -60 -72q-12 -29 -12 -59q0 -45 21 -78q39 -66 116 -80q4 0 13.5 -1t13.5 -1q45 0 86 22q25 12 35 -10q12 -25 -11 -35q-51 -29 -110 -28q-10 0 -35 4 q-100 16 -151 102q-29 46 -29 105z" />
<glyph unicode="&#xaa;" d="M360 1030q0 2 1 10.5t1 12.5q8 37 39 71q20 23 62 45q27 14 59.5 26.5t57 19t63.5 16.5t57 16v125q0 4 -1 10.5t-1 8.5q-10 41 -43 65q-31 23 -78 23t-81 -21q-39 -23 -64 -59q-16 -20 -35 -6q-23 14 -8 34q31 47 82 76q47 29 107 29q63 -4 108 -35q53 -39 62 -98 q4 -16 4 -27v-381q0 -20 6 -26q0 -2 6 -9l8 -4h2q2 0 4 2h4q20 18 37 -2t-4 -37q-16 -14 -41 -14h-10q-16 4 -31 14q-2 2 -4 3q-4 4 -8 10t-8 10q-12 25 -13 49l-14 -12q-14 -12 -22 -19q-55 -41 -111 -55q-29 -4 -45 -4q-14 0 -23 2q-37 2 -67 25q-33 25 -45 55 q-13 24 -13 51zM412 1030q0 -14 6 -31q10 -20 28.5 -32.5t45.5 -16.5q6 -2 16 -2t35 4q49 10 90 45q37 27 67 70v127q-188 -55 -214.5 -69.5t-47.5 -34.5q-23 -25 -24 -48q0 -2 -1 -6t-1 -6z" />
<glyph unicode="&#xab;" horiz-adv-x="874" d="M90 750q4 14 10 20l262 205q18 18 35 -4q16 -20 -4 -35l-235 -186l235 -189q20 -12 4 -37q-16 -20 -35 -4l-262 209q-10 11 -10 21zM426 750q4 14 10 20l309 244q18 14 37 -4q14 -23 -6 -37l-282 -223l284 -228q20 -16 4 -35q-18 -23 -37 -4l-309 246q-10 11 -10 21z" />
<glyph unicode="&#xac;" horiz-adv-x="757" d="M74 452.5q0 26.5 24 26.5h549q25 0 25 -26v-271q0 -27 -24.5 -26.5t-24.5 26.5v244h-525q-24 0 -24 26.5z" />
<glyph unicode="&#xad;" horiz-adv-x="757" d="M74 452.5q0 26.5 24 26.5h549q25 0 25 -26.5t-25 -26.5h-549q-24 0 -24 26.5z" />
<glyph unicode="&#xae;" horiz-adv-x="1036" d="M90 801q0 164 117 281.5t280.5 117.5t280.5 -117.5t117 -281.5t-117 -282t-280.5 -118t-280.5 118t-117 282zM139 800.5q0 -143.5 101.5 -244.5t247 -101t247 101t101.5 244.5t-101.5 245t-247 101.5t-247 -101.5t-101.5 -245zM373 637v348q0 27 24 27h133q49 -4 80 -35 t31 -78v-4q0 -37 -25 -68q-29 -31 -61 -36l-4 -3l78 -139q12 -25 -11 -35q-23 -14 -34 11l-90 163h-72v-151q0 -27 -24.5 -27t-24.5 27zM422 840h102q4 -2 6 -2t6.5 1t6.5 1q25 6 35 20q12 16 12 37v2q0 25 -17 41q-16 18 -43 18h-108v-118z" />
<glyph unicode="&#xaf;" d="M164 1161.5q0 26.5 24 26.5h631q25 0 25 -26.5t-25 -26.5h-631q-24 0 -24 26.5z" />
<glyph unicode="&#xb0;" horiz-adv-x="643" d="M229 1505q0 47 34 82t81 35t81 -35t34 -82t-34 -81.5t-81 -34.5t-81 34.5t-34 81.5zM279 1505.5q0 -26.5 19 -45t46 -18.5t46.5 18.5t19.5 45t-19.5 45t-46.5 18.5t-46 -18.5t-19 -45z" />
<glyph unicode="&#xb1;" d="M74 866.5q0 26.5 24 26.5h394v367q0 27 24.5 26.5t24.5 -26.5v-367h372q25 0 25 -26.5t-25 -26.5h-372v-396q0 -27 -24.5 -26.5t-24.5 26.5v396h-394q-24 0 -24 26.5zM201 332q0 27 24 26h549q25 0 25 -26q0 -25 -25 -25h-549q-24 0 -24 25z" />
<glyph unicode="&#xb2;" horiz-adv-x="507" d="M84 1028q12 20 48 65.5t46 59.5q14 18 43 54t43 55q47 63 53 112v15q0 33 -14 55q-20 31 -55 37h-8q-18 0 -39 -12.5t-25 -38.5q-8 -25 -31 -19q-25 4 -20 31q10 43 47 69q35 20 68 21q8 0 14 -2q57 -6 92 -57q23 -39 23 -84v-19q-8 -66 -62 -139q-14 -16 -44 -53 t-44 -56q-4 -4 -27.5 -33.5t-35.5 -48.5h194q27 0 27 -24.5t-27 -24.5h-244q-14 0 -20 13q-10 10 -2 24z" />
<glyph unicode="&#xb3;" horiz-adv-x="501" d="M96 1065q-10 23 15 33q23 10 33 -14.5t32.5 -39t48.5 -14.5h2q39 0 66 25q31 27 39 63q4 10 4 33q0 20 -4 31q-8 31 -31 51q-25 25 -63 24h-5h-4q-27 0 -26 25q-4 27 22 27h4q37 6 56 26q18 18 26 58v4q0 35 -24 59q-29 25 -58 25h-6q-27 -4 -45 -19q-18 -18 -24 -41 q-4 -27 -31 -18q-27 4 -19 31q8 39 41 67q33 25 74 29q2 2 10 2q53 0 93 -39q41 -37 40 -96v-6q-4 -55 -40 -93q-2 0 -5.5 -4t-5.5 -4l25 -20q35 -31 47 -76q4 -29 4 -43q0 -25 -6 -45q-12 -53 -55 -90t-99 -37h-2q-41 0 -78 22q-35 23 -51 64z" />
<glyph unicode="&#xb4;" horiz-adv-x="798" d="M385 1278q-4 25 21 29q84 12 153 59q82 55 123 150q8 25 33 12q25 -8 12 -33q-45 -109 -139 -170q-76 -55 -174 -68q-25 -4 -29 21z" />
<glyph unicode="&#xb5;" horiz-adv-x="1208" d="M63 -399q16 20 37 4q12 -12 33 -13q2 0 6 2q12 0 27 11q14 14 18 22q14 23 19 68v2v4v1442q0 25 24.5 24.5t24.5 -24.5v-848q82 -82 141 -127q70 -55 131 -80q70 -33 135 -33h11q92 4 159 68q63 63 64 158v768q2 8 2 24q6 41 29 84q14 18 37 8q18 -14 8 -37 q-20 -29 -23 -61v-18v-768q0 -117 -82 -195q-76 -76 -194 -80q-2 -2 -11 -2q-76 0 -155 37q-63 29 -144 86q-49 37 -108 94v-520v-4v-4q0 -51 -23 -90q-14 -27 -32 -39q-25 -18 -50 -21q-2 0 -7 -1t-7 -1q-39 0 -65 25q-21 17 -5 35z" />
<glyph unicode="&#xb6;" horiz-adv-x="1079" d="M94 905q0 150 109 246q96 86 223 86h369q25 0 24.5 -26.5t-24.5 -26.5h-369q-109 0 -188 -70q-92 -86 -93 -209q0 -113 82 -198q84 -80 199 -80h14q27 0 27 -27q0 -25 -27 -25h-14q-135 0 -233 95q-99 102 -99 235zM522 -100v1222q0 25 25 25q27 0 26 -25v-1222 q0 -27 -26 -27q-25 0 -25 27zM662 -100v1222q0 25 24 25q27 0 27 -25v-1222q0 -27 -27 -27q-24 0 -24 27z" />
<glyph unicode="&#xb7;" horiz-adv-x="442" d="M139 674q0 35 24.5 59.5t57.5 24.5t57.5 -24.5t24.5 -59.5t-24.5 -59.5t-57.5 -24.5t-57.5 24.5t-24.5 59.5zM188 674q0 -31 33 -31t33 31t-33 31t-33 -31z" />
<glyph unicode="&#xb8;" horiz-adv-x="1021" d="M416 -213q14 23 37 4q31 -20 61 -24h12q29 0 54 12q31 16 43 45q6 16 6 33q0 12 -6 24q-8 25 -37 39q-6 2 -22.5 2t-28.5 -6q-14 -8 -29 2q-14 14 -8 29l30 92q8 23 33 16q23 -8 17 -32l-17 -50h2q23 0 41 -6q47 -18 68 -65q8 -29 8 -45q0 -29 -12 -54q-20 -45 -64 -67 q-35 -20 -78 -21h-16q-51 6 -90 37q-20 17 -4 35z" />
<glyph unicode="&#xb9;" horiz-adv-x="413" d="M100 1432q-12 25 13 32l147 64q12 6 25 -2q10 -6 10 -21v-491q0 -27 -24.5 -27t-24.5 27v452l-113 -47q-25 -12 -33 13z" />
<glyph unicode="&#xba;" horiz-adv-x="507" d="M61 1259.5q0 108.5 51.5 190.5t129 82t129 -82t51.5 -190.5t-51.5 -190.5t-129 -82t-129 82t-51.5 190.5zM111 1259.5q0 -94.5 41 -157t90 -62.5t90 62.5t41 157t-41 157t-90 62.5t-90 -62.5t-41 -157z" />
<glyph unicode="&#xbb;" horiz-adv-x="874" d="M92 487q-16 18 4 35l285 228l-283 223q-20 14 -6 37q18 18 37 4l309 -244q8 -8 8 -20q2 -10 -8 -21l-309 -246q-19 -19 -37 4zM477 524q-16 25 4 37l236 189l-236 186q-20 14 -4 35q16 23 35 4l262 -205q8 -8 8 -20q2 -10 -8 -21l-262 -209q-19 -16 -35 4z" />
<glyph unicode="&#xbc;" horiz-adv-x="940" d="M100 1432q-12 25 13 32l147 64q12 6 25 -2q10 -6 10 -21v-491q0 -27 -24.5 -27t-24.5 27v452l-113 -47q-25 -12 -33 13zM221 37l379 1474q8 25 31 19q25 -8 18 -31l-379 -1474q-8 -25 -30 -19q-25 8 -19 31zM506 197q-6 14 0 26l235 389q12 18 29 13q18 -6 18 -25v-364 h15q25 0 24 -25q0 -27 -24 -27h-15v-145q0 -27 -24 -27q-27 0 -27 27v145h-209q-12 1 -22 13zM573 236h164v272z" />
<glyph unicode="&#xbd;" horiz-adv-x="1077" d="M100 1432q-12 25 13 32l147 64q12 6 25 -2q10 -6 10 -21v-491q0 -27 -24.5 -27t-24.5 27v452l-113 -47q-25 -12 -33 13zM274 37l379 1474q8 25 31 19q25 -8 18 -31l-378 -1474q-8 -25 -31 -19q-25 8 -19 31zM588 45q12 20 48 65.5t46 59.5q14 18 43 54t43 55 q47 63 53 112v15q0 33 -14 55q-20 31 -55 37h-9q-18 0 -38.5 -12.5t-24.5 -39.5q-8 -25 -31 -18q-25 4 -20 31q10 43 47 69q35 20 67 21q8 0 15 -2q57 -6 92 -58q23 -39 22 -83v-19q-8 -66 -61 -139q-14 -16 -44 -53t-44 -56q-4 -4 -27.5 -33.5t-36.5 -48.5h195 q27 0 27 -24.5t-27 -24.5h-244q-14 0 -20 12q-10 11 -2 25z" />
<glyph unicode="&#xbe;" horiz-adv-x="1019" d="M96 1065q-10 23 15 33q23 10 33 -14.5t32.5 -39t48.5 -14.5h2q39 0 66 25q31 27 39 63q4 10 4 33q0 20 -4 31q-8 31 -31 51q-25 25 -63 24h-5h-4q-27 0 -26 25q-4 27 22 27h4q37 6 56 26q18 18 26 58v4q0 35 -24 59q-29 25 -58 25h-6q-27 -4 -45 -19q-18 -18 -24 -41 q-4 -27 -31 -18q-27 4 -19 31q8 39 41 67q33 25 74 29q2 2 10 2q53 0 93 -39q41 -37 40 -96v-6q-4 -55 -40 -93q-2 0 -5.5 -4t-5.5 -4l25 -20q35 -31 47 -76q4 -29 4 -43q0 -25 -6 -45q-12 -53 -55 -90t-99 -37h-2q-41 0 -78 22q-35 23 -51 64zM242 37l379 1474q8 25 30 19 q25 -8 19 -31l-379 -1474q-8 -25 -31 -19q-24 8 -18 31zM506 197q-6 14 0 26l235 389q12 18 29 13q18 -6 18 -25v-364h15q25 0 24 -25q0 -27 -24 -27h-15v-145q0 -27 -24 -27q-27 0 -27 27v145h-209q-12 1 -22 13zM573 236h164v272z" />
<glyph unicode="&#xbf;" horiz-adv-x="606" d="M47 193q0 25 2 36q8 70 45 131q23 39 70 103.5t65 93.5q41 59 62 135q10 47 10 88q0 20 -4 58q-4 25 20.5 28.5t28.5 -20.5q6 -35 6 -66q0 -51 -12 -100q-16 -70 -66 -152q-18 -29 -66 -92t-69 -100q-33 -55 -39 -113q-2 -10 -2 -30q0 -49 17 -84q23 -55 71 -86 q39 -29 95 -29h12q61 6 108 49q45 45 52 109q0 27 26 22q27 0 23 -27q-6 -82 -64 -139q-59 -59 -141 -63q-6 -2 -16 -2q-68 0 -123 37q-61 39 -90 110q-21 48 -21 103zM254 1077.5q0 20.5 14.5 35.5t35 15t35.5 -15t15 -35.5t-15 -35t-35.5 -14.5t-35 14.5t-14.5 35z" />
<glyph unicode="&#xc0;" horiz-adv-x="1052" d="M119 37l379 1474q4 20 24.5 20.5t24.5 -20.5l379 -1474q6 -23 -19 -31q-23 -6 -30 19l-113 434h-483l-113 -434q-8 -25 -31 -19q-24 8 -18 31zM285 1880q-12 25 12 33q25 12 33 -12q41 -94 123 -150q70 -47 153 -59q25 -4 21 -29t-29 -21q-98 12 -174 68q-94 61 -139 170 zM293 510h459l-230 893z" />
<glyph unicode="&#xc1;" horiz-adv-x="1052" d="M119 37l379 1474q4 20 24.5 20.5t24.5 -20.5l379 -1474q6 -23 -19 -31q-23 -6 -30 19l-113 434h-483l-113 -434q-8 -25 -31 -19q-24 8 -18 31zM293 510h459l-230 893zM385 1663q-4 25 21 29q84 12 153 59q82 55 123 150q8 25 33 12q25 -8 12 -33q-45 -109 -139 -170 q-76 -55 -174 -68q-25 -4 -29 21z" />
<glyph unicode="&#xc2;" horiz-adv-x="1052" d="M119 37l379 1474q4 20 24.5 20.5t24.5 -20.5l379 -1474q6 -23 -19 -31q-23 -6 -30 19l-113 434h-483l-113 -434q-8 -25 -31 -19q-24 8 -18 31zM293 510h459l-230 893zM356 1686l142 159q10 10 20 10q12 0 19 -10l141 -159q16 -18 -2 -37q-18 -16 -37 2l-121 139 l-123 -139q-14 -16 -37 -2q-18 19 -2 37z" />
<glyph unicode="&#xc3;" horiz-adv-x="1052" d="M119 37l379 1474q4 20 24.5 20.5t24.5 -20.5l379 -1474q6 -23 -19 -31q-23 -6 -30 19l-113 434h-483l-113 -434q-8 -25 -31 -19q-24 8 -18 31zM272 1731q0 18 7 34q12 29 38 45q29 16 56 17q33 -4 55.5 -14.5t42.5 -28.5q6 -6 29.5 -28.5t36.5 -33.5q18 -14 34 -20 q14 -6 29 -6q2 0 5 1t5 1q20 2 33 12q14 10 21 29q4 12 4 20q0 14 -6 25q-10 25 10 35q25 10 35 -11q12 -25 12 -49q0 -18 -6 -37q-12 -35 -39 -51q-25 -23 -58 -24q-2 0 -8 -1t-8 -1q-16 0 -45 8q-33 14 -51 28q-14 10 -36 33t-32 31t-30 22q-16 6 -33 6.5t-29 -6.5 q-12 -8 -18 -20q-2 -6 -2 -16v-11q6 -16 16 -22q18 -14 4 -37q-14 -18 -37 -4q-23 16 -33 49q-2 9 -2 25zM293 510h459l-230 893z" />
<glyph unicode="&#xc4;" horiz-adv-x="1052" d="M119 37l379 1474q4 20 24.5 20.5t24.5 -20.5l379 -1474q6 -23 -19 -31q-23 -6 -30 19l-113 434h-483l-113 -434q-8 -25 -31 -19q-24 8 -18 31zM293 510h459l-230 893zM307 1697.5q0 22.5 14.5 37t37 14.5t37 -14.5t14.5 -37t-14.5 -36.5t-37 -14t-37 14t-14.5 36.5z M358 1698zM618 1697.5q0 22.5 14.5 37t37 14.5t37 -14.5t14.5 -37t-14.5 -36.5t-37 -14t-37 14t-14.5 36.5zM670 1698z" />
<glyph unicode="&#xc5;" horiz-adv-x="1052" d="M119 37l379 1474q4 20 24.5 20.5t24.5 -20.5l379 -1474q6 -23 -19 -31q-23 -6 -30 19l-113 434h-483l-113 -434q-8 -25 -31 -19q-24 8 -18 31zM293 510h459l-230 893zM442 1718q0 35 25 59.5t57.5 24.5t57 -24.5t24.5 -59.5t-24.5 -59.5t-57 -24.5t-57.5 24.5t-25 59.5z M492 1718.5q0 -30.5 32.5 -30.5t32.5 30.5t-32.5 30.5t-32.5 -30.5z" />
<glyph unicode="&#xc6;" horiz-adv-x="1611" d="M121 43l229 446q0 10 6 13l518 1011q8 18 25 19h580q25 0 24.5 -26.5t-24.5 -26.5h-553v-672h510q27 0 26.5 -26.5t-26.5 -26.5h-510v-697h553q25 0 24.5 -26.5t-24.5 -26.5h-580q-27 0 -27 27v428h-481l-225 -441q-10 -23 -35 -10q-22 10 -10 35zM418 510h454v889z" />
<glyph unicode="&#xc7;" horiz-adv-x="1021" d="M119 629v139v137q0 176 43 307q55 172 188 258q100 61 213 62q117 0 217 -62q51 -35 84 -69q16 -18 -2 -37q-18 -16 -37 2q-29 33 -71 61q-84 51 -191 52q-98 0 -186 -52q-117 -78 -168 -231q-39 -125 -39 -291q0 -25 -1 -69.5t-1 -67.5t1 -69t1 -70q0 -166 39 -291 q51 -156 168 -229q82 -53 184 -54h2q123 4 191 54q72 51 100 141q8 23 33 16q23 -8 16 -33q-33 -102 -119 -165q-84 -57 -206 -62l-17 -49h2q23 0 41 -6q47 -18 68 -66q8 -29 8 -45q0 -29 -12 -53q-20 -45 -64 -68q-35 -20 -78 -20h-16q-51 6 -90 37q-20 16 -4 35 q14 23 37 4q31 -20 61 -25h12q29 0 54 12q31 16 43 45q6 16 6 33q0 12 -6 25q-8 25 -37 39q-6 2 -22.5 2t-28.5 -6q-14 -8 -29 2q-14 14 -8 28l26 76q-94 6 -174 60q-131 84 -188 256q-43 131 -43 307z" />
<glyph unicode="&#xc8;" horiz-adv-x="870" d="M119 31v1474q0 27 24 27h580q27 0 27 -26.5t-27 -26.5h-555v-672h512q25 0 25 -26.5t-25 -26.5h-512v-697h555q27 0 27 -26.5t-27 -26.5h-580q-24 0 -24 27zM285 1876q-12 25 12 33q25 12 33 -13q41 -94 123 -149q70 -47 153 -59q25 -4 21 -29t-29 -21q-98 12 -174 68 q-94 61 -139 170z" />
<glyph unicode="&#xc9;" horiz-adv-x="870" d="M119 31v1474q0 27 24 27h580q27 0 27 -26.5t-27 -26.5h-555v-672h512q25 0 25 -26.5t-25 -26.5h-512v-697h555q27 0 27 -26.5t-27 -26.5h-580q-24 0 -24 27zM303 1663q-4 25 21 29q84 12 153 59q82 55 123 150q8 25 33 12q25 -8 12 -33q-45 -109 -139 -170 q-76 -55 -174 -68q-25 -4 -29 21z" />
<glyph unicode="&#xca;" horiz-adv-x="870" d="M119 31v1474q0 27 24 27h580q27 0 27 -26.5t-27 -26.5h-555v-672h512q25 0 25 -26.5t-25 -26.5h-512v-697h555q27 0 27 -26.5t-27 -26.5h-580q-24 0 -24 27zM274 1686l142 159q10 10 20 10q12 0 19 -10l141 -159q16 -18 -2 -37q-18 -16 -37 2l-121 139l-123 -139 q-14 -16 -37 -2q-18 19 -2 37z" />
<glyph unicode="&#xcb;" horiz-adv-x="870" d="M119 31v1474q0 27 24 27h580q27 0 27 -26.5t-27 -26.5h-555v-672h512q25 0 25 -26.5t-25 -26.5h-512v-697h555q27 0 27 -26.5t-27 -26.5h-580q-24 0 -24 27zM258 1693.5q0 22.5 14.5 37t37 14.5t36.5 -14.5t14 -37t-14 -37t-36.5 -14.5t-37 14.5t-14.5 37zM309 1694z M569 1693.5q0 22.5 14.5 37t37 14.5t37 -14.5t14.5 -37t-14.5 -37t-37 -14.5t-37 14.5t-14.5 37zM621 1694z" />
<glyph unicode="&#xcc;" horiz-adv-x="532" d="M43 1880q-12 25 12 33q25 12 33 -12q41 -94 123 -150q70 -47 154 -59q25 -4 20.5 -29t-29.5 -21q-98 12 -174 68q-94 61 -139 170zM225 31v1474q0 27 27 27t27 -27v-1474q0 -27 -27 -27t-27 27z" />
<glyph unicode="&#xcd;" horiz-adv-x="483" d="M67.5 1658.5q-4.5 24.5 20.5 29.5q84 12 154 59q82 55 123 149q8 25 32 13q25 -8 13 -33q-45 -109 -140 -170q-76 -55 -174 -68q-24 -4 -28.5 20.5zM225 31v1474q0 27 27 27t27 -27v-1474q0 -27 -27 -27t-27 27z" />
<glyph unicode="&#xce;" horiz-adv-x="532" d="M94 1686l142 159q10 10 20 10q12 0 18 -10l142 -159q16 -18 -2 -37q-18 -16 -37 2l-121 139l-123 -139q-14 -16 -37 -2q-18 19 -2 37zM225 31v1474q0 27 27 27t27 -27v-1474q0 -27 -27 -27t-27 27z" />
<glyph unicode="&#xcf;" horiz-adv-x="532" d="M53 1697.5q0 22.5 14.5 37t35 14.5t35 -14.5t14.5 -37t-14.5 -36.5t-35 -14t-35 14t-14.5 36.5zM102 1698zM225 31v1474q0 27 27 27t27 -27v-1474q0 -27 -27 -27t-27 27zM365 1697.5q0 22.5 14 37t34.5 14.5t35 -14.5t14.5 -37t-14.5 -36.5t-35 -14t-34.5 14t-14 36.5z M414 1698z" />
<glyph unicode="&#xd0;" horiz-adv-x="1185" d="M74 759.5q0 26.5 26 26.5h191v719q0 27 24 27h254h4q156 0 283 -100q139 -109 191 -312q41 -147 40 -340q0 -12 -2 -18q0 -219 -49 -373q-63 -207 -217 -309q-111 -76 -244 -76h-10h-250q-25 0 -24 27v702h-191q-26 0 -26 26.5zM340 55h227h8q113 0 216 66 q137 94 198 285q43 141 47 356v18q0 182 -39 328q-51 184 -174 283q-106 88 -250 88h-2h-231v-693h197q25 0 24.5 -26.5t-24.5 -26.5h-197v-678z" />
<glyph unicode="&#xd1;" horiz-adv-x="931" d="M139 31v1474q0 20 23 25q20 4 28 -14l551 -1354v1343q0 27 25 27t25 -27v-1474q0 -23 -21 -25q-20 -4 -29 14l-548 1354v-1343q0 -27 -27 -27t-27 27zM219 1731q0 18 6 34q12 29 39 45q29 16 55 17q33 -4 55.5 -14.5t43.5 -28.5q6 -6 29.5 -28.5t35.5 -33.5 q18 -14 35 -20q14 -6 29 -6q2 0 5 1t5 1q20 2 33 12q14 10 20 29q4 12 4 20q0 14 -6 25q-10 25 10 35q25 10 35 -11q12 -25 13 -49q0 -18 -7 -37q-12 -35 -38 -51q-25 -23 -58 -24q-2 0 -8 -1t-8 -1q-16 0 -45 8q-33 14 -51 28q-14 10 -36 33t-32 31t-31 22q-16 6 -32.5 6.5 t-28.5 -6.5q-12 -8 -19 -20q-2 -6 -2 -16v-11q6 -16 17 -22q18 -14 4 -37q-14 -18 -37 -4q-23 16 -33 49q-2 9 -2 25z" />
<glyph unicode="&#xd2;" horiz-adv-x="1132" d="M119 629v139v137q0 176 43 307q55 172 188 258q100 61 213 62q117 0 217 -62q135 -86 191 -258q39 -121 43 -307v-90v-182q-4 -190 -43 -311q-57 -174 -191 -256q-96 -61 -217 -62q-117 0 -213 62q-131 84 -188 256q-43 131 -43 307zM168 768q0 -23 1 -69t1 -70 q0 -166 39 -291q51 -156 168 -229q86 -53 186 -54q109 0 191 54q115 72 168 229q41 123 41 295v182v90q-4 178 -41 291q-51 156 -168 231q-84 51 -191 52q-98 0 -186 -52q-117 -78 -168 -231q-39 -125 -39 -291q0 -25 -1 -69.5t-1 -67.5zM285 1880q-12 25 12 33 q25 12 33 -12q41 -94 123 -150q70 -47 153 -59q25 -4 21 -29t-29 -21q-98 12 -174 68q-94 61 -139 170z" />
<glyph unicode="&#xd3;" horiz-adv-x="1132" d="M119 629v139v137q0 176 43 307q55 172 188 258q100 61 213 62q117 0 217 -62q135 -86 191 -258q39 -121 43 -307v-90v-182q-4 -190 -43 -311q-57 -174 -191 -256q-96 -61 -217 -62q-117 0 -213 62q-131 84 -188 256q-43 131 -43 307zM168 768q0 -23 1 -69t1 -70 q0 -166 39 -291q51 -156 168 -229q86 -53 186 -54q109 0 191 54q115 72 168 229q41 123 41 295v182v90q-4 178 -41 291q-51 156 -168 231q-84 51 -191 52q-98 0 -186 -52q-117 -78 -168 -231q-39 -125 -39 -291q0 -25 -1 -69.5t-1 -67.5zM385 1663q-4 25 21 29q84 12 153 59 q82 55 123 150q8 25 33 12q25 -8 12 -33q-45 -109 -139 -170q-76 -55 -174 -68q-25 -4 -29 21z" />
<glyph unicode="&#xd4;" horiz-adv-x="1132" d="M119 629v139v137q0 176 43 307q55 172 188 258q100 61 213 62q117 0 217 -62q135 -86 191 -258q39 -121 43 -307v-90v-182q-4 -190 -43 -311q-57 -174 -191 -256q-96 -61 -217 -62q-117 0 -213 62q-131 84 -188 256q-43 131 -43 307zM168 768q0 -23 1 -69t1 -70 q0 -166 39 -291q51 -156 168 -229q86 -53 186 -54q109 0 191 54q115 72 168 229q41 123 41 295v182v90q-4 178 -41 291q-51 156 -168 231q-84 51 -191 52q-98 0 -186 -52q-117 -78 -168 -231q-39 -125 -39 -291q0 -25 -1 -69.5t-1 -67.5zM393 1681l142 160q10 10 20 10 q12 0 18 -10l142 -160q16 -18 -2 -36q-18 -16 -37 2l-121 139l-123 -139q-14 -16 -37 -2q-18 18 -2 36z" />
<glyph unicode="&#xd5;" horiz-adv-x="1132" d="M119 629v139v137q0 176 43 307q55 172 188 258q100 61 213 62q117 0 217 -62q135 -86 191 -258q39 -121 43 -307v-90v-182q-4 -190 -43 -311q-57 -174 -191 -256q-96 -61 -217 -62q-117 0 -213 62q-131 84 -188 256q-43 131 -43 307zM168 768q0 -23 1 -69t1 -70 q0 -166 39 -291q51 -156 168 -229q86 -53 186 -54q109 0 191 54q115 72 168 229q41 123 41 295v182v90q-4 178 -41 291q-51 156 -168 231q-84 51 -191 52q-98 0 -186 -52q-117 -78 -168 -231q-39 -125 -39 -291q0 -25 -1 -69.5t-1 -67.5zM326 1731q0 18 6 34q12 29 39 45 q29 16 55 17q33 -4 55.5 -14.5t42.5 -28.5q6 -6 30 -28.5t36 -33.5q18 -14 35 -20q14 -6 28 -6q2 0 5.5 1t5.5 1q20 2 32 12q14 10 21 29q4 12 4 20q0 14 -6 25q-10 25 10 35q25 10 35 -11q12 -25 12 -49q0 -18 -6 -37q-12 -35 -39 -51q-25 -23 -57 -24q-2 0 -8.5 -1 t-8.5 -1q-16 0 -45 8q-33 14 -51 28q-14 10 -35.5 33t-32 31t-30.5 22q-16 6 -32.5 6.5t-29.5 -6.5q-12 -8 -18 -20q-2 -6 -2 -16v-11q6 -16 16 -22q18 -14 4 -37q-14 -18 -37 -4q-23 16 -32 49q-2 9 -2 25z" />
<glyph unicode="&#xd6;" horiz-adv-x="1132" d="M119 629v139v137q0 176 43 307q55 172 188 258q100 61 213 62q117 0 217 -62q135 -86 191 -258q39 -121 43 -307v-90v-182q-4 -190 -43 -311q-57 -174 -191 -256q-96 -61 -217 -62q-117 0 -213 62q-131 84 -188 256q-43 131 -43 307zM168 768q0 -23 1 -69t1 -70 q0 -166 39 -291q51 -156 168 -229q86 -53 186 -54q109 0 191 54q115 72 168 229q41 123 41 295v182v90q-4 178 -41 291q-51 156 -168 231q-84 51 -191 52q-98 0 -186 -52q-117 -78 -168 -231q-39 -125 -39 -291q0 -25 -1 -69.5t-1 -67.5zM344 1697.5q0 22.5 14.5 37t37 14.5 t36.5 -14.5t14 -37t-14 -36.5t-36.5 -14t-37 14t-14.5 36.5zM395 1698zM655 1697.5q0 22.5 14.5 37t37 14.5t37 -14.5t14.5 -37t-14.5 -36.5t-37 -14t-37 14t-14.5 36.5zM707 1698z" />
<glyph unicode="&#xd7;" horiz-adv-x="778" d="M131 45l219 348l-211 334q-14 23 6 35q20 14 37 -6l203 -322l205 322q12 20 35 6q23 -12 8 -35l-217 -342l217 -340q12 -25 -8 -37q-23 -12 -37 8l-207 328l-207 -328q-12 -18 -35 -8q-22 14 -8 37z" />
<glyph unicode="&#xd8;" horiz-adv-x="1036" d="M106 690v84v82q0 199 39 336q49 186 172 281q88 68 197 67q115 0 203 -67q20 -14 39 -33l53 121q8 25 33 12q25 -8 12 -33l-61 -141q63 -84 98 -207q35 -133 39 -336v-76v-86q-4 -207 -39 -340q-53 -190 -174 -280q-88 -70 -203 -70q-106 0 -197 70q-37 27 -75 76 l-76 -170q-8 -25 -33 -13q-25 8 -12 33l88 201q-39 66 -64 153q-39 137 -39 336zM158 690q0 -190 37 -321q16 -61 41 -109l497 1131q-23 23 -47 41q-72 57 -172 57q-92 0 -166 -57q-104 -78 -153 -254q-37 -131 -37 -322v-82v-84zM266 205q33 -55 82 -90q74 -57 166 -58 q100 0 172 58q106 78 156 254q33 127 37 325v86v76q-4 193 -37 322q-27 94 -74 165z" />
<glyph unicode="&#xd9;" horiz-adv-x="1028" d="M117 389v4v1112q0 27 26 27q10 0 17.5 -8t7.5 -19v-1112v-4v-24q12 -135 111 -224q92 -84 233 -84t233 84q98 88 111 224v24v4v1112q0 10 7 18.5t18 8.5q27 0 26 -27v-1112v-4q0 -18 -2 -29q-10 -152 -125 -256q-109 -100 -268 -100q-156 0 -268 100q-115 104 -125 256 q-2 11 -2 29zM291 1882q-12 25 12 33q25 12 33 -12q41 -94 123 -150q70 -47 153 -59q25 -4 21 -29t-29 -20q-98 12 -174 67q-94 61 -139 170z" />
<glyph unicode="&#xda;" horiz-adv-x="1028" d="M117 389v4v1112q0 27 26 27q10 0 17.5 -8t7.5 -19v-1112v-4v-24q12 -135 111 -224q92 -84 233 -84t233 84q98 88 111 224v24v4v1112q0 10 7 18.5t18 8.5q27 0 26 -27v-1112v-4q0 -18 -2 -29q-10 -152 -125 -256q-109 -100 -268 -100q-156 0 -268 100q-115 104 -125 256 q-2 11 -2 29zM336 1663q-4 25 20 29q84 12 154 59q82 55 123 150q8 25 33 12q25 -8 12 -33q-45 -109 -139 -170q-76 -55 -174 -68q-25 -4 -29 21z" />
<glyph unicode="&#xdb;" horiz-adv-x="1028" d="M117 389v4v1112q0 27 26 27q10 0 17.5 -8t7.5 -19v-1112v-4v-24q12 -135 111 -224q92 -84 233 -84t233 84q98 88 111 224v24v4v1112q0 10 7 18.5t18 8.5q27 0 26 -27v-1112v-4q0 -18 -2 -29q-10 -152 -125 -256q-109 -100 -268 -100q-156 0 -268 100q-115 104 -125 256 q-2 11 -2 29zM356 1690l142 159q10 10 20 11q12 0 19 -11l141 -159q16 -18 -2 -37q-18 -16 -37 2l-121 139l-123 -139q-14 -16 -37 -2q-18 19 -2 37z" />
<glyph unicode="&#xdc;" horiz-adv-x="1028" d="M117 389v4v1112q0 27 26 27q10 0 17.5 -8t7.5 -19v-1112v-4v-24q12 -135 111 -224q92 -84 233 -84t233 84q98 88 111 224v24v4v1112q0 10 7 18.5t18 8.5q27 0 26 -27v-1112v-4q0 -18 -2 -29q-10 -152 -125 -256q-109 -100 -268 -100q-156 0 -268 100q-115 104 -125 256 q-2 11 -2 29zM328 1693.5q0 22.5 14 37t36.5 14.5t37 -14.5t14.5 -37t-14.5 -37t-37 -14.5t-36.5 14.5t-14 37zM379 1694zM639 1693.5q0 22.5 14.5 37t37 14.5t36.5 -14.5t14 -37t-14 -37t-36.5 -14.5t-37 14.5t-14.5 37zM690 1694z" />
<glyph unicode="&#xdd;" horiz-adv-x="950" d="M78 1493q-10 25 10 35q25 10 35 -10l356 -721l357 721q10 20 34 10q20 -10 11 -35l-377 -760v-702q0 -27 -25 -27q-27 0 -26 27v702zM385 1658.5q-4 24.5 21 29.5q84 12 153 59q82 55 123 149q8 25 33 13q25 -8 12 -33q-45 -109 -139 -170q-76 -55 -174 -68 q-25 -4 -29 20.5z" />
<glyph unicode="&#xde;" horiz-adv-x="837" d="M170 -231v610v764q0 25 25 24q27 0 26 -24v-191h139q117 0 203 -75q98 -92 99 -224q0 -125 -89 -213q-92 -88 -213 -88h-139v-583q0 -27 -26 -27q-10 0 -17.5 8.5t-7.5 18.5zM221 403h139q104 0 177 72q74 74 73 178q0 111 -82 185q-70 63 -168 63h-139v-498z" />
<glyph unicode="&#xdf;" horiz-adv-x="962" d="M14 84q16 20 35 2q29 -20 51 -29q25 -4 35 -4q14 0 23 2q27 6 43 29q8 14 10 29q2 6 3 17t1 17v13q0 8 -1 26.5t-1 28.5q0 16 2 25v1075q0 109 88 172q43 29 92 37q29 4 43 4q29 0 56 -6q53 -12 94 -37q45 -23 82 -60q35 -33 61 -77q27 -47 39 -95q14 -45 14 -98v-2 q0 -53 -14 -98q-10 -37 -41 -78q-20 -27 -61 -57q-14 -10 -39 -31q-16 -14 -27 -31q-8 -14 -8 -29v-6q2 -16 16 -30q10 -10 45 -31q59 -29 98.5 -78t57.5 -92q23 -49 33 -107q6 -35 6 -67q0 -8 -1 -21.5t-1 -19.5q-6 -53 -21 -94q-18 -49 -43 -86q-23 -37 -59 -74 q-27 -27 -74 -60q-51 -29 -88 -38q-39 -12 -82 -13q-51 0 -100 19q-20 10 -14 35q10 20 34 14q33 -16 80 -17q31 0 68 11q37 12 76 35q39 25 65 51q27 25 51 65q23 33 37 76q14 37 19 80q2 12 2 37q0 29 -6 59q-6 43 -27 92q-23 47 -51 82q-33 39 -82 66q-35 16 -60 39 q-25 25 -30 61v12q0 27 14 52q6 20 39 47q14 12 43 33q33 25 51 49q23 29 31 59q12 41 12 84v2q0 43 -12 86q-12 47 -33 80q-33 49 -55 68q-35 35 -70 51q-47 27 -82 30q-23 6 -43 7q-10 0 -35 -4q-37 -6 -69 -29q-66 -47 -70 -129v-1075v-25q0 -10 1 -28.5t1 -26.5 q0 -2 -1 -6t-1 -7q0 -31 -2 -45q-6 -29 -20 -47q-25 -39 -72 -49q-12 -4 -35 -4q-25 0 -49 6q-37 12 -70 41q-20 17 -2 35z" />
<glyph unicode="&#xe0;" d="M90 227q0 14 4 39q12 70 66 127q39 45 110 82q68 35 145 60.5t179 53t147 42.5v256q0 14 -4 39q-16 84 -92 141q-66 47 -164 51q-88 0 -168 -45q-78 -43 -131 -121q-10 -23 -35 -6q-23 10 -6 35q55 82 146 137q94 49 194 49h2q113 0 193 -59q92 -66 110 -172q4 -16 5 -49 v-727v-2v-2q4 -43 16 -66q12 -16 20 -22q12 -8 27 -13h6q20 0 33 13q18 14 37 -5q14 -18 -4 -36q-29 -23 -66 -23q-10 0 -14 2q-25 2 -49 21q-20 14 -33 36q-23 39 -23 93v2v2v47q-55 -61 -106 -103q-104 -76 -205 -98q-45 -10 -80 -10q-14 0 -43 4q-66 6 -117 43 q-59 41 -81 96q-19 43 -19 88zM141 227q0 -37 15 -67q20 -45 63 -74q41 -29 94 -35q25 -4 37 -4q23 0 68 8q92 20 186 90q78 59 137 148v285q-47 -14 -144 -41t-170 -51.5t-132 -55.5q-61 -31 -98 -72q-41 -43 -54 -100q-2 -11 -2 -31zM285 1495q-12 25 12 33q25 12 33 -12 q41 -94 123 -150q70 -47 153 -59q25 -4 21 -29t-29 -21q-98 12 -174 68q-94 61 -139 170z" />
<glyph unicode="&#xe1;" d="M90 227q0 14 4 39q12 70 66 127q39 45 110 82q68 35 145 60.5t179 53t147 42.5v256q0 14 -4 39q-16 84 -92 141q-66 47 -164 51q-88 0 -168 -45q-78 -43 -131 -121q-10 -23 -35 -6q-23 10 -6 35q55 82 146 137q94 49 194 49h2q113 0 193 -59q92 -66 110 -172q4 -16 5 -49 v-727v-2v-2q4 -43 16 -66q12 -16 20 -22q12 -8 27 -13h6q20 0 33 13q18 14 37 -5q14 -18 -4 -36q-29 -23 -66 -23q-10 0 -14 2q-25 2 -49 21q-20 14 -33 36q-23 39 -23 93v2v2v47q-55 -61 -106 -103q-104 -76 -205 -98q-45 -10 -80 -10q-14 0 -43 4q-66 6 -117 43 q-59 41 -81 96q-19 43 -19 88zM141 227q0 -37 15 -67q20 -45 63 -74q41 -29 94 -35q25 -4 37 -4q23 0 68 8q92 20 186 90q78 59 137 148v285q-47 -14 -144 -41t-170 -51.5t-132 -55.5q-61 -31 -98 -72q-41 -43 -54 -100q-2 -11 -2 -31zM385 1278q-4 25 21 29q84 12 153 59 q82 55 123 150q8 25 33 12q25 -8 12 -33q-45 -109 -139 -170q-76 -55 -174 -68q-25 -4 -29 21z" />
<glyph unicode="&#xe2;" d="M90 227q0 14 4 39q12 70 66 127q39 45 110 82q68 35 145 60.5t179 53t147 42.5v256q0 14 -4 39q-16 84 -92 141q-66 47 -164 51q-88 0 -168 -45q-78 -43 -131 -121q-10 -23 -35 -6q-23 10 -6 35q55 82 146 137q94 49 194 49h2q113 0 193 -59q92 -66 110 -172q4 -16 5 -49 v-727v-2v-2q4 -43 16 -66q12 -16 20 -22q12 -8 27 -13h6q20 0 33 13q18 14 37 -5q14 -18 -4 -36q-29 -23 -66 -23q-10 0 -14 2q-25 2 -49 21q-20 14 -33 36q-23 39 -23 93v2v2v47q-55 -61 -106 -103q-104 -76 -205 -98q-45 -10 -80 -10q-14 0 -43 4q-66 6 -117 43 q-59 41 -81 96q-19 43 -19 88zM141 227q0 -37 15 -67q20 -45 63 -74q41 -29 94 -35q25 -4 37 -4q23 0 68 8q92 20 186 90q78 59 137 148v285q-47 -14 -144 -41t-170 -51.5t-132 -55.5q-61 -31 -98 -72q-41 -43 -54 -100q-2 -11 -2 -31zM334 1362l141 160q10 10 21 10 q12 0 18 -10l141 -160q16 -18 -2 -37q-18 -16 -37 2l-120 139l-123 -139q-14 -16 -37 -2q-18 19 -2 37z" />
<glyph unicode="&#xe3;" d="M90 227q0 14 4 39q12 70 66 127q39 45 110 82q68 35 145 60.5t179 53t147 42.5v256q0 14 -4 39q-16 84 -92 141q-66 47 -164 51q-88 0 -168 -45q-78 -43 -131 -121q-10 -23 -35 -6q-23 10 -6 35q55 82 146 137q94 49 194 49h2q113 0 193 -59q92 -66 110 -172q4 -16 5 -49 v-727v-2v-2q4 -43 16 -66q12 -16 20 -22q12 -8 27 -13h6q20 0 33 13q18 14 37 -5q14 -18 -4 -36q-29 -23 -66 -23q-10 0 -14 2q-25 2 -49 21q-20 14 -33 36q-23 39 -23 93v2v2v47q-55 -61 -106 -103q-104 -76 -205 -98q-45 -10 -80 -10q-14 0 -43 4q-66 6 -117 43 q-59 41 -81 96q-19 43 -19 88zM141 227q0 -37 15 -67q20 -45 63 -74q41 -29 94 -35q25 -4 37 -4q23 0 68 8q92 20 186 90q78 59 137 148v285q-47 -14 -144 -41t-170 -51.5t-132 -55.5q-61 -31 -98 -72q-41 -43 -54 -100q-2 -11 -2 -31zM272 1436q0 18 7 34q12 29 38 46 q29 16 56 16q33 -4 55.5 -14.5t42.5 -28.5q6 -6 29.5 -28.5t36.5 -33.5q18 -14 34 -20q14 -6 29 -6q2 0 5 1t5 1q20 2 33 12q14 10 21 29q4 12 4 20q0 14 -6 25q-10 25 10 35q25 10 35 -11q12 -25 12 -49q0 -18 -6 -37q-12 -35 -39 -51q-25 -23 -58 -24q-2 0 -8 -1t-8 -1 q-16 0 -45 8q-33 14 -51 28q-14 10 -36 33t-32 31t-30 23q-16 6 -33 6t-29 -6q-12 -8 -18 -21q-2 -6 -2 -16v-11q6 -16 16 -22q18 -14 4 -37q-14 -18 -37 -4q-23 16 -33 49q-2 9 -2 25z" />
<glyph unicode="&#xe4;" d="M90 227q0 14 4 39q12 70 66 127q39 45 110 82q68 35 145 60.5t179 53t147 42.5v256q0 14 -4 39q-16 84 -92 141q-66 47 -164 51q-88 0 -168 -45q-78 -43 -131 -121q-10 -23 -35 -6q-23 10 -6 35q55 82 146 137q94 49 194 49h2q113 0 193 -59q92 -66 110 -172q4 -16 5 -49 v-727v-2v-2q4 -43 16 -66q12 -16 20 -22q12 -8 27 -13h6q20 0 33 13q18 14 37 -5q14 -18 -4 -36q-29 -23 -66 -23q-10 0 -14 2q-25 2 -49 21q-20 14 -33 36q-23 39 -23 93v2v2v47q-55 -61 -106 -103q-104 -76 -205 -98q-45 -10 -80 -10q-14 0 -43 4q-66 6 -117 43 q-59 41 -81 96q-19 43 -19 88zM141 227q0 -37 15 -67q20 -45 63 -74q41 -29 94 -35q25 -4 37 -4q23 0 68 8q92 20 186 90q78 59 137 148v285q-47 -14 -144 -41t-170 -51.5t-132 -55.5q-61 -31 -98 -72q-41 -43 -54 -100q-2 -11 -2 -31zM279 1480.5q0 22.5 14 37t36.5 14.5 t37 -14.5t14.5 -37t-14.5 -36.5t-37 -14t-36.5 14t-14 36.5zM330 1481zM590 1480.5q0 22.5 14 37t37 14.5t37 -14.5t14 -37t-14 -36.5t-37 -14t-37 14t-14 36.5zM641 1481z" />
<glyph unicode="&#xe5;" d="M90 227q0 14 4 39q12 70 66 127q39 45 110 82q68 35 145 60.5t179 53t147 42.5v256q0 14 -4 39q-16 84 -92 141q-66 47 -164 51q-88 0 -168 -45q-78 -43 -131 -121q-10 -23 -35 -6q-23 10 -6 35q55 82 146 137q94 49 194 49h2q113 0 193 -59q92 -66 110 -172q4 -16 5 -49 v-727v-2v-2q4 -43 16 -66q12 -16 20 -22q12 -8 27 -13h6q20 0 33 13q18 14 37 -5q14 -18 -4 -36q-29 -23 -66 -23q-10 0 -14 2q-25 2 -49 21q-20 14 -33 36q-23 39 -23 93v2v2v47q-55 -61 -106 -103q-104 -76 -205 -98q-45 -10 -80 -10q-14 0 -43 4q-66 6 -117 43 q-59 41 -81 96q-19 43 -19 88zM141 227q0 -37 15 -67q20 -45 63 -74q41 -29 94 -35q25 -4 37 -4q23 0 68 8q92 20 186 90q78 59 137 148v285q-47 -14 -144 -41t-170 -51.5t-132 -55.5q-61 -31 -98 -72q-41 -43 -54 -100q-2 -11 -2 -31zM401 1450q0 33 25 57.5t59.5 24.5 t59 -24.5t24.5 -57.5t-24.5 -57.5t-59 -24.5t-59.5 24.5t-25 57.5zM455 1450q0 -33 30.5 -33t30.5 33t-30.5 33t-30.5 -33z" />
<glyph unicode="&#xe6;" horiz-adv-x="1538" d="M90 227q0 14 4 39q12 70 66 127q39 45 110 82q47 25 105.5 47.5t98.5 33.5t112.5 31.5t101.5 28.5q2 92 29 189q14 55 22 76v10q0 27 -2 35q-16 84 -92 141q-66 47 -164 51q-88 0 -168 -45q-78 -43 -131 -121q-10 -23 -35 -6q-23 10 -6 35q55 82 146 137q94 49 194 49h2 q113 0 193 -59q76 -53 104 -141q27 45 62 84q49 55 112 86q68 31 142 30q78 0 141 -32q63 -31 113 -95q90 -111 90 -268v-4q0 -39 -6 -78q-4 -23 -25 -22h-666q-4 -53 -4 -80t4 -84q20 -180 111 -295q106 -139 260 -154h33q66 0 125 25q76 31 125 96q16 16 37 4 q18 -14 4 -37q-55 -72 -146 -110q-66 -29 -145 -29q-25 0 -37 2q-178 14 -297 172q-27 33 -43 64q-59 -78 -135 -138q-104 -76 -205 -98q-45 -10 -80 -10q-14 0 -43 4q-66 6 -117 43q-59 41 -81 96q-19 43 -19 88zM141 227q0 -37 15 -67q20 -45 63 -74q41 -29 94 -35 q25 -4 37 -4q23 0 68 8q92 20 186 90q82 63 141 148q-41 92 -53 207q-2 10 -3 31.5t-1 31.5q-27 -8 -99.5 -28.5t-107.5 -30.5t-89 -30.5t-97 -43.5q-61 -31 -98 -72q-41 -43 -54 -100q-2 -11 -2 -31zM750 721h636q2 14 3 47v4q0 137 -78 238q-41 49 -97 77q-55 31 -118 31 q-61 0 -119 -28q-51 -23 -98 -74q-80 -88 -113 -223q-12 -49 -16 -72z" />
<glyph unicode="&#xe7;" d="M88 586q0 178 74 323q55 117 151 185q102 76 222 75q6 0 10 -2q94 -4 170 -53q80 -51 114 -137q12 -25 -12 -33q-25 -12 -33 12q-33 70 -96 115q-66 45 -143 47h-10q-102 0 -190.5 -65.5t-137.5 -167.5q-68 -139 -68 -299q0 -68 8 -119q27 -160 117 -270 q102 -123 246 -142q6 0 20.5 -1t20.5 -1q66 0 121 25q80 33 131 98q14 18 37 4q18 -14 4 -37q-61 -78 -152 -112q-55 -23 -119 -27l-12 -39h2q25 0 41 -8q47 -16 68 -66q8 -29 8 -45q0 -27 -12 -51q-18 -47 -64 -69q-35 -20 -78 -21q-12 0 -16 2q-45 2 -90 35q-18 14 -4 37 q14 18 37 4q31 -25 61 -25q4 -2 12 -2q25 0 54 15q31 16 43 45q6 12 6 30q0 14 -6 27q-10 27 -37 37q-12 4 -23 4q-18 0 -28 -8q-18 -6 -29 4q-14 10 -8 27l22 67q-10 0 -16 2q-164 18 -279 160q-100 121 -127 293q-10 51 -10 127z" />
<glyph unicode="&#xe8;" d="M127 588q0 117 27 217q39 152 127 246q49 55 112 86q66 31 139 30q78 0 144 -32q66 -35 112 -95q86 -106 91 -268v-4q0 -39 -7 -78q-4 -23 -26 -22h-664q-4 -53 -4 -80t4 -84q16 -174 109 -295q106 -137 262 -154h31q66 0 127 25q76 31 125 96q14 18 36 4q18 -14 5 -37 q-57 -72 -148 -110q-63 -29 -145 -29q-23 0 -35 2q-180 16 -299 172q-98 131 -119 322q-4 57 -4 88zM188 721h637q0 6 1 22.5t1 24.5v4q-4 143 -79 238q-37 49 -95 77q-49 27 -121 31q-59 0 -116 -28q-51 -23 -99 -74q-78 -82 -114 -223q-5 -19 -15 -72zM322 1495 q-12 25 12 33q25 12 33 -12q41 -94 122 -150q70 -47 154 -59q25 -4 20.5 -29t-28.5 -21q-98 12 -174 68q-94 61 -139 170z" />
<glyph unicode="&#xe9;" d="M127 588q0 117 27 217q39 152 127 246q49 55 112 86q66 31 139 30q78 0 144 -32q66 -35 112 -95q86 -106 91 -268v-4q0 -39 -7 -78q-4 -23 -26 -22h-664q-4 -53 -4 -80t4 -84q16 -174 109 -295q106 -137 262 -154h31q66 0 127 25q76 31 125 96q14 18 36 4q18 -14 5 -37 q-57 -72 -148 -110q-63 -29 -145 -29q-23 0 -35 2q-180 16 -299 172q-98 131 -119 322q-4 57 -4 88zM188 721h637q0 6 1 22.5t1 24.5v4q-4 143 -79 238q-37 49 -95 77q-49 27 -121 31q-59 0 -116 -28q-51 -23 -99 -74q-78 -82 -114 -223q-5 -19 -15 -72zM385 1278 q-4 25 21 29q84 12 153 59q82 55 123 150q8 25 33 12q25 -8 12 -33q-45 -109 -139 -170q-76 -55 -174 -68q-25 -4 -29 21z" />
<glyph unicode="&#xea;" d="M127 588q0 117 27 217q39 152 127 246q49 55 112 86q66 31 139 30q78 0 144 -32q66 -35 112 -95q86 -106 91 -268v-4q0 -39 -7 -78q-4 -23 -26 -22h-664q-4 -53 -4 -80t4 -84q16 -174 109 -295q106 -137 262 -154h31q66 0 127 25q76 31 125 96q14 18 36 4q18 -14 5 -37 q-57 -72 -148 -110q-63 -29 -145 -29q-23 0 -35 2q-180 16 -299 172q-98 131 -119 322q-4 57 -4 88zM188 721h637q0 6 1 22.5t1 24.5v4q-4 143 -79 238q-37 49 -95 77q-49 27 -121 31q-59 0 -116 -28q-51 -23 -99 -74q-78 -82 -114 -223q-5 -19 -15 -72zM389 1362l141 160 q10 10 21 10q12 0 18 -10l142 -160q16 -18 -2 -37q-18 -16 -37 2l-121 139l-123 -139q-14 -16 -37 -2q-18 19 -2 37z" />
<glyph unicode="&#xeb;" d="M127 588q0 117 27 217q39 152 127 246q49 55 112 86q66 31 139 30q78 0 144 -32q66 -35 112 -95q86 -106 91 -268v-4q0 -39 -7 -78q-4 -23 -26 -22h-664q-4 -53 -4 -80t4 -84q16 -174 109 -295q106 -137 262 -154h31q66 0 127 25q76 31 125 96q14 18 36 4q18 -14 5 -37 q-57 -72 -148 -110q-63 -29 -145 -29q-23 0 -35 2q-180 16 -299 172q-98 131 -119 322q-4 57 -4 88zM188 721h637q0 6 1 22.5t1 24.5v4q-4 143 -79 238q-37 49 -95 77q-49 27 -121 31q-59 0 -116 -28q-51 -23 -99 -74q-78 -82 -114 -223q-5 -19 -15 -72zM332 1480.5 q0 22.5 14 37t37 14.5t37 -14.5t14 -37t-14 -36.5t-37 -14t-37 14t-14 36.5zM383 1481zM643 1480.5q0 22.5 14.5 37t37 14.5t36.5 -14.5t14 -37t-14 -36.5t-36.5 -14t-37 14t-14.5 36.5zM694 1481z" />
<glyph unicode="&#xec;" horiz-adv-x="530" d="M61 1143q0 25 25 24h258q25 0 25 -24v-1112q0 -27 -25 -27t-25 27v1085h-233q-25 0 -25 27zM113 1495q-12 25 12 33q25 12 33 -12q41 -94 123 -150q70 -47 153 -59q25 -4 21 -29t-29 -21q-98 12 -174 68q-94 61 -139 170z" />
<glyph unicode="&#xed;" horiz-adv-x="530" d="M61 1140.5q0 26.5 25 26.5h258q25 0 25 -26v-1112q0 -25 -25 -25t-25 25v1085h-233q-25 0 -25 26.5zM110.5 1278q-4.5 25 20.5 29q84 12 154 59q82 55 123 150q8 25 32 12q25 -8 13 -33q-45 -109 -140 -170q-76 -55 -174 -68q-24 -4 -28.5 21z" />
<glyph unicode="&#xee;" horiz-adv-x="530" d="M61 1140.5q0 26.5 25 26.5h258q25 0 25 -26v-1112q0 -25 -25 -25t-25 25v1085h-233q-25 0 -25 26.5zM168 1362l141 160q10 10 21 10q12 0 18 -10l141 -160q16 -18 -2 -37q-18 -16 -36 2l-121 139l-123 -139q-14 -16 -37 -2q-18 19 -2 37z" />
<glyph unicode="&#xef;" horiz-adv-x="530" d="M61 1142.5q0 24.5 25 24.5h258q25 0 25 -24v-1112q0 -27 -25 -27t-25 27v1087h-233q-25 0 -25 24.5zM115 1480.5q0 22.5 14 37t36.5 14.5t37 -14.5t14.5 -37t-14.5 -36.5t-37 -14t-36.5 14t-14 36.5zM166 1481zM426 1480.5q0 22.5 14.5 37t37 14.5t36.5 -14.5t14 -37 t-14 -36.5t-36.5 -14t-37 14t-14.5 36.5zM477 1481z" />
<glyph unicode="&#xf0;" horiz-adv-x="1185" d="M74 759.5q0 26.5 26 26.5h191v719q0 27 24 27h254h4q156 0 283 -100q139 -109 191 -312q41 -147 40 -340q0 -12 -2 -18q0 -219 -49 -373q-63 -207 -217 -309q-111 -76 -244 -76h-10h-250q-25 0 -24 27v702h-191q-26 0 -26 26.5zM340 55h227h8q113 0 216 66 q137 94 198 285q43 141 47 356v18q0 182 -39 328q-51 184 -174 283q-106 88 -250 88h-2h-231v-693h197q25 0 24.5 -26.5t-24.5 -26.5h-197v-678z" />
<glyph unicode="&#xf1;" horiz-adv-x="1021" d="M33 1128q-10 23 8 37q23 10 37 -8q23 -43 28 -84v-24v-140q45 76 107 135q72 68 156 101q70 27 139 26q12 0 45 -4q111 -12 190 -96q80 -86 80 -199v-841q0 -27 -24.5 -27t-24.5 27v839q-2 94 -67 166q-70 70 -162 82q-6 0 -18.5 1t-18.5 1q-61 0 -121 -24 q-76 -27 -137 -88q-94 -88 -144 -224v-753q0 -27 -24.5 -27t-24.5 27v1016q0 4 -1 11t-1 9q-2 32 -22 61zM248 1442q0 20 6 35q12 29 39 45q25 14 55.5 14t54.5 -12q23 -10 43 -29q6 -6 30 -28.5t36 -32.5q18 -14 35 -21q14 -6 28 -6q2 0 5.5 1t5.5 1q20 2 32 12 q14 10 21 29q4 12 4 20q0 16 -6 25q-10 25 10 35q25 10 35 -10q12 -25 12 -50q0 -18 -6 -36q-12 -35 -39 -52q-25 -23 -57 -24q-2 0 -8 -1t-9 -1q-16 0 -45 8q-33 14 -51 29q-14 10 -35.5 32.5t-31.5 30.5q-10 10 -31 23q-8 4 -33 8q-12 0 -29 -8q-12 -8 -18 -21 q-2 -6 -2 -16v-10q6 -16 16 -23q18 -14 4 -37q-14 -18 -36 -4q-23 16 -33 49q-2 9 -2 25z" />
<glyph unicode="&#xf2;" d="M111 561v25v22q4 162 39 271q53 160 174 235q86 55 194 55q115 0 201 -55q121 -78 174 -235q35 -113 39 -281v-43v-8q-8 -158 -39 -254q-53 -158 -174 -236q-86 -55 -201 -55q-109 0 -194 55q-121 76 -174 236q-35 108 -39 268zM162 575q0 -158 37 -266q45 -141 151 -209 q76 -47 168 -47q98 0 174 47q106 68 152 209q33 104 37 269v2v2v16q-4 160 -37 264q-45 141 -152 209q-76 47 -174 47q-92 0 -168 -47q-106 -68 -151 -209q-37 -109 -37 -264v-12v-11zM285 1495q-12 25 12 33q25 12 33 -12q41 -94 123 -150q70 -47 153 -59q25 -4 21 -29 t-29 -21q-98 12 -174 68q-94 61 -139 170z" />
<glyph unicode="&#xf3;" d="M111 561v25v22q4 162 39 271q53 160 174 235q86 55 194 55q115 0 201 -55q121 -78 174 -235q35 -113 39 -281v-43v-8q-8 -158 -39 -254q-53 -158 -174 -236q-86 -55 -201 -55q-109 0 -194 55q-121 76 -174 236q-35 108 -39 268zM162 575q0 -158 37 -266q45 -141 151 -209 q76 -47 168 -47q98 0 174 47q106 68 152 209q33 104 37 269v2v2v16q-4 160 -37 264q-45 141 -152 209q-76 47 -174 47q-92 0 -168 -47q-106 -68 -151 -209q-37 -109 -37 -264v-12v-11zM385 1278q-4 25 21 29q84 12 153 59q82 55 123 150q8 25 33 12q25 -8 12 -33 q-45 -109 -139 -170q-76 -55 -174 -68q-25 -4 -29 21z" />
<glyph unicode="&#xf4;" d="M111 561v25v22q4 162 39 271q53 160 174 235q86 55 194 55q115 0 201 -55q121 -78 174 -235q35 -113 39 -281v-43v-8q-8 -158 -39 -254q-53 -158 -174 -236q-86 -55 -201 -55q-109 0 -194 55q-121 76 -174 236q-35 108 -39 268zM162 575q0 -158 37 -266q45 -141 151 -209 q76 -47 168 -47q98 0 174 47q106 68 152 209q33 104 37 269v2v2v16q-4 160 -37 264q-45 141 -152 209q-76 47 -174 47q-92 0 -168 -47q-106 -68 -151 -209q-37 -109 -37 -264v-12v-11zM356 1362l142 160q10 10 20 10q12 0 19 -10l141 -160q16 -18 -2 -37q-18 -16 -37 2 l-121 139l-123 -139q-14 -16 -37 -2q-18 19 -2 37z" />
<glyph unicode="&#xf5;" d="M111 561v25v22q4 162 39 271q53 160 174 235q86 55 194 55q115 0 201 -55q121 -78 174 -235q35 -113 39 -281v-43v-8q-8 -158 -39 -254q-53 -158 -174 -236q-86 -55 -201 -55q-109 0 -194 55q-121 76 -174 236q-35 108 -39 268zM162 575q0 -158 37 -266q45 -141 151 -209 q76 -47 168 -47q98 0 174 47q106 68 152 209q33 104 37 269v2v2v16q-4 160 -37 264q-45 141 -152 209q-76 47 -174 47q-92 0 -168 -47q-106 -68 -151 -209q-37 -109 -37 -264v-12v-11zM301 1436q0 18 6 34q12 29 39 46q29 16 55 16q33 -4 55.5 -14.5t43.5 -28.5 q6 -6 29.5 -28.5t35.5 -33.5q18 -14 35 -20q14 -6 29 -6q2 0 5 1t5 1q20 2 33 12q14 10 20 29q4 12 4 20q0 14 -6 25q-10 25 10 35q25 10 35 -11q12 -25 13 -49q0 -18 -7 -37q-12 -35 -39 -51q-25 -23 -57 -24q-2 0 -8 -1t-8 -1q-16 0 -45 8q-33 14 -52 28q-14 10 -35.5 33 t-31.5 31t-31 23q-16 6 -32.5 6t-28.5 -6q-12 -8 -19 -21q-2 -6 -2 -16v-11q6 -16 17 -22q18 -14 4 -37q-14 -18 -37 -4q-23 16 -33 49q-2 9 -2 25z" />
<glyph unicode="&#xf6;" d="M111 561v25v22q4 162 39 271q53 160 174 235q86 55 194 55q115 0 201 -55q121 -78 174 -235q35 -113 39 -281v-43v-8q-8 -158 -39 -254q-53 -158 -174 -236q-86 -55 -201 -55q-109 0 -194 55q-121 76 -174 236q-35 108 -39 268zM162 575q0 -158 37 -266q45 -141 151 -209 q76 -47 168 -47q98 0 174 47q106 68 152 209q33 104 37 269v2v2v16q-4 160 -37 264q-45 141 -152 209q-76 47 -174 47q-92 0 -168 -47q-106 -68 -151 -209q-37 -109 -37 -264v-12v-11zM315 1480.5q0 22.5 14.5 37t35 14.5t35 -14.5t14.5 -37t-14.5 -36.5t-35 -14t-35 14 t-14.5 36.5zM365 1481zM627 1480.5q0 22.5 14 37t34.5 14.5t35 -14.5t14.5 -37t-14.5 -36.5t-35 -14t-34.5 14t-14 36.5zM676 1481z" />
<glyph unicode="&#xf7;" horiz-adv-x="757" d="M74 676q0 27 24 26h549q25 0 25 -26q0 -25 -25 -25h-549q-24 0 -24 25zM336 39q0 20 14.5 34.5t35 14.5t34.5 -14.5t14 -34.5q0 -23 -14 -37t-34.5 -14t-35 14t-14.5 37zM336 815q0 20 14.5 34.5t35 14.5t34.5 -14t14 -35q0 -23 -14 -37t-34.5 -14t-35 14t-14.5 37z" />
<glyph unicode="&#xf8;" horiz-adv-x="1036" d="M106 690v84v82q0 199 39 336q49 186 172 281q88 68 197 67q115 0 203 -67q20 -14 39 -33l53 121q8 25 33 12q25 -8 12 -33l-61 -141q63 -84 98 -207q35 -133 39 -336v-76v-86q-4 -207 -39 -340q-53 -190 -174 -280q-88 -70 -203 -70q-106 0 -197 70q-37 27 -75 76 l-76 -170q-8 -25 -33 -13q-25 8 -12 33l88 201q-39 66 -64 153q-39 137 -39 336zM158 690q0 -190 37 -321q16 -61 41 -109l497 1131q-23 23 -47 41q-72 57 -172 57q-92 0 -166 -57q-104 -78 -153 -254q-37 -131 -37 -322v-82v-84zM266 205q33 -55 82 -90q74 -57 166 -58 q100 0 172 58q106 78 156 254q33 127 37 325v86v76q-4 193 -37 322q-27 94 -74 165z" />
<glyph unicode="&#xf9;" horiz-adv-x="1208" d="M178 1128q-10 23 8 37q23 10 37 -8q23 -43 29 -84q0 -16 2 -24v-768q0 -94 63 -158q68 -63 160 -68h10q66 0 136 33q61 25 131 80q66 49 139 127v848q0 25 27 24q25 0 24 -24v-979v-4v-4q4 -43 19 -66q4 -8 18 -22q10 -8 27 -13h6q20 0 33 13q18 14 36 -5q14 -18 -4 -36 q-29 -23 -65 -23q-10 0 -15 2q-25 2 -49 21q-20 14 -32 36q-20 37 -25 93v4v4v57q-51 -51 -107 -94q-80 -57 -143 -86q-80 -37 -156 -37q-8 0 -10 2q-119 4 -194 80q-82 78 -82 195v768v18q-3 32 -23 61zM393 1495q-12 25 13 33q25 12 32 -12q41 -94 123 -150 q70 -47 154 -59q25 -4 20.5 -29t-28.5 -21q-98 12 -175 68q-94 61 -139 170z" />
<glyph unicode="&#xfa;" horiz-adv-x="1208" d="M178 1128q-10 23 8 37q23 10 37 -8q23 -43 29 -84q0 -16 2 -24v-768q0 -94 63 -158q68 -63 160 -68h10q66 0 136 33q61 25 131 80q66 49 139 127v848q0 25 27 24q25 0 24 -24v-979v-4v-4q4 -43 19 -66q4 -8 18 -22q10 -8 27 -13h6q20 0 33 13q18 14 36 -5q14 -18 -4 -36 q-29 -23 -65 -23q-10 0 -15 2q-25 2 -49 21q-20 14 -32 36q-20 37 -25 93v4v4v57q-51 -51 -107 -94q-80 -57 -143 -86q-80 -37 -156 -37q-8 0 -10 2q-119 4 -194 80q-82 78 -82 195v768v18q-3 32 -23 61zM385 1278q-4 25 21 29q84 12 153 59q82 55 123 150q8 25 33 12 q25 -8 12 -33q-45 -109 -139 -170q-76 -55 -174 -68q-25 -4 -29 21z" />
<glyph unicode="&#xfb;" horiz-adv-x="1208" d="M178 1128q-10 23 8 37q23 10 37 -8q23 -43 29 -84q0 -16 2 -24v-768q0 -94 63 -158q68 -63 160 -68h10q66 0 136 33q61 25 131 80q66 49 139 127v848q0 25 27 24q25 0 24 -24v-979v-4v-4q4 -43 19 -66q4 -8 18 -22q10 -8 27 -13h6q20 0 33 13q18 14 36 -5q14 -18 -4 -36 q-29 -23 -65 -23q-10 0 -15 2q-25 2 -49 21q-20 14 -32 36q-20 37 -25 93v4v4v57q-51 -51 -107 -94q-80 -57 -143 -86q-80 -37 -156 -37q-8 0 -10 2q-119 4 -194 80q-82 78 -82 195v768v18q-3 32 -23 61zM395 1362l142 160q10 10 20 10q12 0 18 -10l142 -160q16 -18 -2 -37 q-18 -16 -37 2l-121 139l-123 -139q-14 -16 -37 -2q-18 19 -2 37z" />
<glyph unicode="&#xfc;" horiz-adv-x="1208" d="M178 1128q-10 23 8 37q23 10 37 -8q23 -43 29 -84q0 -16 2 -24v-768q0 -94 63 -158q68 -63 160 -68h10q66 0 136 33q61 25 131 80q66 49 139 127v848q0 25 27 24q25 0 24 -24v-979v-4v-4q4 -43 19 -66q4 -8 18 -22q10 -8 27 -13h6q20 0 33 13q18 14 36 -5q14 -18 -4 -36 q-29 -23 -65 -23q-10 0 -15 2q-25 2 -49 21q-20 14 -32 36q-20 37 -25 93v4v4v57q-51 -51 -107 -94q-80 -57 -143 -86q-80 -37 -156 -37q-8 0 -10 2q-119 4 -194 80q-82 78 -82 195v768v18q-3 32 -23 61zM377 1480.5q0 22.5 14.5 37t37 14.5t36.5 -14.5t14 -37t-14 -36.5 t-36.5 -14t-37 14t-14.5 36.5zM428 1481zM688 1480.5q0 22.5 14.5 37t37 14.5t37 -14.5t14.5 -37t-14.5 -36.5t-37 -14t-37 14t-14.5 36.5zM739 1481z" />
<glyph unicode="&#xfd;" horiz-adv-x="1060" d="M178 1128q-10 23 8 37q23 10 37 -8q23 -43 29 -84v-24v-746q10 -90 74 -162q59 -66 155 -86q33 -4 51 -4q61 0 109 21q78 29 135 92q88 100 88 239v3v737q0 25 27 24.5t27 -24.5v-1235q-4 -51 -14.5 -90t-26.5 -70q-18 -35 -41 -61q-16 -23 -43 -45l-50 -37 q-18 -10 -55 -27q-27 -10 -59 -20q-41 -8 -62 -11q-6 0 -20.5 -1t-22.5 -1q-12 0 -18 2q-45 0 -98 15q-51 12 -97 37q-47 27 -84 55q-18 18 -4 37q18 18 37 4q29 -25 76 -51q35 -18 84 -33q39 -10 90 -14h14q8 0 20.5 1t18.5 1q23 2 53 10q18 4 52 16q27 10 47 25q6 4 45 31 q25 25 37 38q20 27 34 54q16 31 23 59q10 31 10 76v297q-23 -43 -51 -74q-66 -76 -154 -108q-61 -23 -127 -23q-29 0 -59 6q-111 18 -186 100q-74 80 -86 195v748v18q-3 32 -23 61zM385 1278q-4 25 21 29q84 12 153 59q82 55 123 150q8 25 33 12q25 -8 12 -33 q-45 -109 -139 -170q-76 -55 -174 -68q-25 -4 -29 21z" />
<glyph unicode="&#xfe;" horiz-adv-x="837" d="M170 -231v610v764q0 25 25 24q27 0 26 -24v-191h139q117 0 203 -75q98 -92 99 -224q0 -125 -89 -213q-92 -88 -213 -88h-139v-583q0 -27 -26 -27q-10 0 -17.5 8.5t-7.5 18.5zM221 403h139q104 0 177 72q74 74 73 178q0 111 -82 185q-70 63 -168 63h-139v-498z" />
<glyph unicode="&#xff;" horiz-adv-x="1060" d="M178 1128q-10 23 8 37q23 10 37 -8q23 -43 29 -84v-24v-746q10 -90 74 -162q59 -66 155 -86q33 -4 51 -4q61 0 109 21q78 29 135 92q88 100 88 239v3v737q0 25 27 24.5t27 -24.5v-1235q-4 -51 -14.5 -90t-26.5 -70q-18 -35 -41 -61q-16 -23 -43 -45l-50 -37 q-18 -10 -55 -27q-27 -10 -59 -20q-41 -8 -62 -11q-6 0 -20.5 -1t-22.5 -1q-12 0 -18 2q-45 0 -98 15q-51 12 -97 37q-47 27 -84 55q-18 18 -4 37q18 18 37 4q29 -25 76 -51q35 -18 84 -33q39 -10 90 -14h14q8 0 20.5 1t18.5 1q23 2 53 10q18 4 52 16q27 10 47 25q6 4 45 31 q25 25 37 38q20 27 34 54q16 31 23 59q10 31 10 76v297q-23 -43 -51 -74q-66 -76 -154 -108q-61 -23 -127 -23q-29 0 -59 6q-111 18 -186 100q-74 80 -86 195v748v18q-3 32 -23 61zM365 1480.5q0 22.5 14 37t36.5 14.5t37 -14.5t14.5 -37t-14.5 -36.5t-37 -14t-36.5 14 t-14 36.5zM416 1481zM676 1480.5q0 22.5 14.5 37t37 14.5t36.5 -14.5t14 -37t-14 -36.5t-36.5 -14t-37 14t-14.5 36.5zM727 1481z" />
<glyph unicode="&#x152;" horiz-adv-x="1609" d="M119 629v139v137q0 176 43 307q55 172 188 258q100 61 213 62q117 0 217 -62q51 -33 92 -84v119q0 27 27 27h580q25 0 24.5 -26.5t-24.5 -26.5h-553v-672h510q27 0 26.5 -26.5t-26.5 -26.5h-510v-697h553q25 0 24.5 -26.5t-24.5 -26.5h-580q-27 0 -27 27v114 q-39 -49 -92 -79q-96 -61 -217 -62q-117 0 -213 62q-131 84 -188 256q-43 131 -43 307zM168 768q0 -23 1 -69t1 -70q0 -166 39 -291q51 -156 168 -229q86 -53 186 -54q109 0 191 54q72 45 118 124v547v520q-47 80 -118 127q-84 51 -191 52q-98 0 -186 -52 q-117 -78 -168 -231q-39 -125 -39 -291q0 -25 -1 -69.5t-1 -67.5z" />
<glyph unicode="&#x153;" horiz-adv-x="1683" d="M84 586q0 16 2 22q0 152 39 271q49 156 172 235q88 55 195 55q117 0 202 -55q96 -61 148 -176q31 63 78 113q55 59 114 86q63 31 140 30q78 0 141 -32q68 -35 112 -95q90 -111 91 -268v-4q0 -39 -7 -78q-4 -23 -24 -22h-666q-4 -53 -4 -80t4 -84q20 -176 111 -295 q106 -137 262 -154h31q66 0 125 25q74 31 127 96q16 20 34 4q20 -12 5 -37q-57 -74 -146 -110q-66 -29 -145 -29q-25 0 -37 2q-178 14 -297 172q-20 25 -41 64q-51 -117 -156 -185q-86 -55 -202 -55q-106 0 -195 55q-123 80 -172 236q-39 119 -39 268q-2 7 -2 25zM137 575 q0 -156 35 -266q49 -141 154 -209q74 -47 166 -47q100 0 174 47q109 68 155 201q-39 94 -49 199q-6 43 -6 88q0 109 29 217q12 45 20 67q-49 135 -149 199q-74 47 -174 47q-92 0 -166 -47q-104 -68 -154 -209q-35 -111 -35 -264v-12v-11zM829 721h635q2 14 2 47v4 q0 137 -77 238q-41 49 -97 77q-49 27 -118 31q-61 0 -119 -28q-51 -23 -99 -74q-80 -88 -112 -223q-5 -19 -15 -72z" />
<glyph unicode="&#x178;" horiz-adv-x="950" d="M78 1493q-10 25 10 35q25 10 35 -10l356 -721l357 721q10 20 34 10q20 -10 11 -35l-377 -760v-702q0 -27 -25 -27q-27 0 -26 27v702zM279 1697.5q0 22.5 14 37t36.5 14.5t37 -14.5t14.5 -37t-14.5 -36.5t-37 -14t-36.5 14t-14 36.5zM330 1698zM590 1697.5q0 22.5 14 37 t37 14.5t37 -14.5t14 -37t-14 -36.5t-37 -14t-37 14t-14 36.5zM641 1698z" />
<glyph unicode="&#x2c6;" horiz-adv-x="858" d="M356 1362l142 160q10 10 20 10q12 0 19 -10l141 -160q16 -18 -2 -37q-18 -16 -37 2l-121 139l-123 -139q-14 -16 -37 -2q-18 19 -2 37z" />
<glyph unicode="&#x2dc;" horiz-adv-x="614" d="M-224 209q0 18 7 34q12 29 38 46q29 16 56 16q33 -4 55.5 -14.5t42.5 -28.5q6 -6 29.5 -28.5t36.5 -33.5q18 -14 34 -20q14 -6 29 -6q2 0 5 1t5 1q20 2 33 12q14 10 21 29q4 12 4 20q0 14 -6 25q-10 25 10 35q25 10 35 -11q12 -25 12 -49q0 -18 -6 -37q-12 -35 -39 -51 q-25 -23 -58 -24q-2 0 -8 -1t-8 -1q-16 0 -45 8q-33 14 -51 28q-14 10 -36 33t-32 31t-30 23q-16 6 -33 6t-29 -6q-12 -8 -18 -21q-2 -6 -2 -16v-11q6 -16 16 -22q18 -14 4 -37q-14 -18 -37 -4q-23 16 -33 49q-2 9 -2 25z" />
<glyph unicode="&#x2000;" horiz-adv-x="958" />
<glyph unicode="&#x2001;" horiz-adv-x="1918" />
<glyph unicode="&#x2002;" horiz-adv-x="958" />
<glyph unicode="&#x2003;" horiz-adv-x="1918" />
<glyph unicode="&#x2004;" horiz-adv-x="638" />
<glyph unicode="&#x2005;" horiz-adv-x="479" />
<glyph unicode="&#x2006;" horiz-adv-x="319" />
<glyph unicode="&#x2007;" horiz-adv-x="319" />
<glyph unicode="&#x2008;" horiz-adv-x="239" />
<glyph unicode="&#x2009;" horiz-adv-x="382" />
<glyph unicode="&#x200a;" horiz-adv-x="106" />
<glyph unicode="&#x2010;" horiz-adv-x="757" d="M74 676q0 27 24 26h549q25 0 25 -26q0 -25 -25 -25h-549q-24 0 -24 25z" />
<glyph unicode="&#x2011;" horiz-adv-x="757" d="M74 676q0 27 24 26h549q25 0 25 -26q0 -25 -25 -25h-549q-24 0 -24 25z" />
<glyph unicode="&#x2012;" horiz-adv-x="757" d="M74 676q0 27 24 26h549q25 0 25 -26q0 -25 -25 -25h-549q-24 0 -24 25z" />
<glyph unicode="&#x2013;" d="M74 651v51h864v-51h-864z" />
<glyph unicode="&#x2014;" horiz-adv-x="2048" d="M74 651v51h1888v-51h-1888z" />
<glyph unicode="&#x2018;" horiz-adv-x="679" d="M285 1495q-12 25 12 33q25 12 33 -12q41 -94 123 -150q70 -47 153 -59q25 -4 21 -29t-29 -21q-98 12 -174 68q-94 61 -139 170z" />
<glyph unicode="&#x2019;" horiz-adv-x="573" d="M180 1225q-16 20 6 35q57 41 84 108q18 43 19 92q0 25 -2 37q-4 25 20.5 29t28.5 -21q4 -14 4 -45q0 -59 -21 -112q-35 -82 -104 -129q-21 -17 -35 6z" />
<glyph unicode="&#x201c;" horiz-adv-x="786" d="M197 1460q0 31 4 45q4 25 28.5 21t20.5 -29q-2 -12 -2 -37q0 -49 18 -92q27 -68 84 -108q23 -14 6 -35q-14 -23 -34 -6q-70 47 -105 129q-20 53 -20 112zM422 1460q0 31 4 45q4 25 28.5 21t20.5 -29q-2 -12 -2 -37q0 -49 19 -92q27 -68 83 -108q23 -14 7 -35 q-14 -23 -35 -6q-70 47 -105 129q-20 53 -20 112z" />
<glyph unicode="&#x201d;" horiz-adv-x="786" d="M197 1460q0 31 4 45q4 25 28.5 21t20.5 -29q-2 -12 -2 -37q0 -49 18 -92q27 -68 84 -108q23 -14 6 -35q-14 -23 -34 -6q-70 47 -105 129q-20 53 -20 112zM422 1460q0 31 4 45q4 25 28.5 21t20.5 -29q-2 -12 -2 -37q0 -49 19 -92q27 -68 83 -108q23 -14 7 -35 q-14 -23 -35 -6q-70 47 -105 129q-20 53 -20 112z" />
<glyph unicode="&#x2026;" horiz-adv-x="909" d="M708 39q0 20 14.5 34.5t35 14.5t35 -14.5t14.5 -34.5q0 -23 -14.5 -37t-35 -14t-35 14t-14.5 37zM405 39q0 20 14.5 34.5t35 14.5t35 -14.5t14.5 -34.5q0 -23 -14.5 -37t-35 -14t-35 14t-14.5 37zM102 39q0 20 14.5 34.5t35 14.5t35 -14.5t14.5 -34.5q0 -23 -14.5 -37 t-35 -14t-35 14t-14.5 37z" />
<glyph unicode="&#x202f;" horiz-adv-x="382" />
<glyph unicode="&#x2039;" horiz-adv-x="608" d="M90 750q4 14 10 20l310 244q18 14 36 -4q14 -23 -6 -37l-282 -223l284 -228q20 -16 4 -35q-18 -23 -36 -4l-310 246q-10 11 -10 21z" />
<glyph unicode="&#x203a;" horiz-adv-x="608" d="M162 487q-16 18 4 35l285 228l-283 223q-20 14 -6 37q18 18 37 4l309 -244q8 -8 8 -20q2 -10 -8 -21l-309 -246q-19 -19 -37 4z" />
<glyph unicode="&#x205f;" horiz-adv-x="479" />
<glyph unicode="&#x20ac;" horiz-adv-x="1103" d="M33 516.5q0 24.5 26 24.5h115v45q0 45 2 69h-67q-27 0 -27 25t27 25h73q18 113 66 204q55 117 151 185q102 76 222 75l10 -2q94 -4 170 -53q80 -51 114 -137q12 -25 -12 -33q-25 -12 -33 12q-33 70 -96 115q-66 45 -143 47h-10q-102 0 -190.5 -65.5t-137.5 -167.5 q-41 -80 -57 -180h638q27 0 27 -25t-27 -25h-647q-2 -25 -2 -69v-45h600q27 0 27 -24.5t-27 -24.5h-594q0 -4 1 -12.5t1 -12.5q27 -160 117 -270q102 -123 246 -142q6 0 20.5 -1t20.5 -1q66 0 121 25q80 33 131 98q14 18 37 4q18 -14 4 -37q-61 -78 -152 -112 q-70 -29 -141 -29q-14 0 -47 4q-164 18 -279 160q-100 121 -127 293q-4 20 -6 33h-119q-26 0 -26 24.5z" />
<glyph unicode="&#x2122;" horiz-adv-x="2027" d="M1061 31v1474q0 20 18 25q5 1 9 1q14 0 22 -15l361 -775l362 775q8 16 21 15q4 0 8 -1q20 -4 20 -25v-1474q0 -27 -26 -27q-25 0 -25 27v1360l-336 -721q-6 -14 -24 -15q-16 -4 -23 15l-336 721v-1360q0 -27 -26 -27q-25 0 -25 27zM25 1499q0 10 7 18.5t17 8.5h801 q10 0 17 -8.5t7 -18.5q0 -8 -7 -16t-17 -8h-375v-1450q0 -8 -8 -16.5t-16 -8.5q-10 0 -18.5 7t-8.5 18v1450h-375q-8 0 -16 8t-8 16z" />
<glyph unicode="&#xe000;" horiz-adv-x="1170" d="M0 1170h1170v-1170h-1170v1170z" />
<glyph unicode="&#xfb01;" horiz-adv-x="1163" d="M680 1142.5q0 24.5 24 24.5h258q25 0 25 -24v-1112q0 -27 -24.5 -27t-24.5 27v1087h-234q-24 0 -24 24.5zM917 1480.5q0 22.5 14.5 37t35 14.5t35 -14.5t14.5 -37t-14.5 -36.5t-35 -14t-35 14t-14.5 36.5zM45 1142.5q0 24.5 27 24.5h161v41q4 98 64 178q55 76 149 117 q84 39 185 39q57 0 108 -12q20 -3 21 -20q0 -5 -2 -11q-4 -27 -31 -18q-51 10 -96 10q-90 0 -164 -33q-80 -35 -129 -100q-49 -68 -55 -150v-41h321q27 0 27 -24.5t-27 -24.5h-321v-1087q0 -27 -25 -27t-25 27v1087h-161q-27 0 -27 24.5z" />
<glyph unicode="&#xfb02;" horiz-adv-x="1136" d="M631 1505.5q0 26.5 26 26.5h258q25 0 25 -27v-1345v-2v-2q4 -43 16 -66q12 -16 21 -22q10 -8 26 -13h7q20 0 32 13q18 14 37 -5q6 -8 6 -16q0 -10 -10 -20q-29 -23 -65 -23q-10 0 -15 2q-25 2 -49 21q-20 14 -33 36q-20 37 -24 93v2v4v1317h-232q-26 0 -26 26.5z M45 1142.5q0 24.5 27 24.5h161v41q4 98 64 178q55 76 149 117q84 39 185 39q57 0 108 -12q20 -3 21 -20q0 -5 -2 -11q-4 -27 -31 -18q-51 10 -96 10q-90 0 -164 -33q-80 -35 -129 -100q-49 -68 -55 -150v-41h321q27 0 27 -24.5t-27 -24.5h-321v-1087q0 -27 -25 -27t-25 27 v1087h-161q-27 0 -27 24.5z" />
<glyph unicode="&#xfb03;" horiz-adv-x="1806" d="M1323 1142.5q0 24.5 24 24.5h258q25 0 25 -24v-1112q0 -27 -24.5 -27t-24.5 27v1087h-234q-24 0 -24 24.5zM1560 1480.5q0 22.5 14.5 37t35 14.5t35 -14.5t14.5 -37t-14.5 -36.5t-35 -14t-35 14t-14.5 36.5zM688 1142.5q0 24.5 27 24.5h161v41q4 98 64 178q55 76 149 117 q84 39 185 39q57 0 108 -12q20 -3 21 -20q0 -5 -2 -11q-4 -27 -31 -18q-51 10 -96 10q-90 0 -164 -33q-80 -35 -129 -100q-49 -68 -55 -150v-41h321q27 0 27 -24.5t-27 -24.5h-321v-1087q0 -27 -25 -27t-25 27v1087h-161q-27 0 -27 24.5zM45 1142.5q0 24.5 27 24.5h161v41 q4 98 64 178q55 76 149 117q84 39 185 39q57 0 108 -12q20 -3 21 -20q0 -5 -2 -11q-4 -27 -31 -18q-51 10 -96 10q-90 0 -164 -33q-80 -35 -129 -100q-49 -68 -55 -150v-41h321q27 0 27 -24.5t-27 -24.5h-321v-1087q0 -27 -25 -27t-25 27v1087h-161q-27 0 -27 24.5z" />
<glyph unicode="&#xfb04;" horiz-adv-x="1779" d="M1274 1505.5q0 26.5 26 26.5h258q25 0 25 -27v-1345v-2v-2q4 -43 16 -66q12 -16 21 -22q10 -8 26 -13h7q20 0 32 13q18 14 37 -5q6 -8 6 -16q0 -10 -10 -20q-29 -23 -65 -23q-10 0 -15 2q-25 2 -49 21q-20 14 -33 36q-20 37 -24 93v2v4v1317h-232q-26 0 -26 26.5z M688 1142.5q0 24.5 27 24.5h161v41q4 98 64 178q55 76 149 117q84 39 185 39q57 0 108 -12q20 -3 21 -20q0 -5 -2 -11q-4 -27 -31 -18q-51 10 -96 10q-90 0 -164 -33q-80 -35 -129 -100q-49 -68 -55 -150v-41h321q27 0 27 -24.5t-27 -24.5h-321v-1087q0 -27 -25 -27t-25 27 v1087h-161q-27 0 -27 24.5zM45 1142.5q0 24.5 27 24.5h161v41q4 98 64 178q55 76 149 117q84 39 185 39q57 0 108 -12q20 -3 21 -20q0 -5 -2 -11q-4 -27 -31 -18q-51 10 -96 10q-90 0 -164 -33q-80 -35 -129 -100q-49 -68 -55 -150v-41h321q27 0 27 -24.5t-27 -24.5h-321 v-1087q0 -27 -25 -27t-25 27v1087h-161q-27 0 -27 24.5z" />
</font>
</defs>
</svg>
